<svg xmlns="http://www.w3.org/2000/svg" xmlns:xlink="http://www.w3.org/1999/xlink" width="600" height="400" viewBox="0 0 2400 1600">
<defs>
  <clipPath id="clip420">
    <rect x="0" y="0" width="2400" height="1600"></rect>
  </clipPath>
</defs>
<path clip-path="url(#clip420)" d="M0 1600 L2400 1600 L2400 0 L0 0  Z" fill="#ffffff" fill-rule="evenodd" fill-opacity="1"></path>
<defs>
  <clipPath id="clip421">
    <rect x="480" y="0" width="1681" height="1600"></rect>
  </clipPath>
</defs>
<path clip-path="url(#clip420)" d="M186.274 1486.45 L2352.76 1486.45 L2352.76 47.2441 L186.274 47.2441  Z" fill="#ffffff" fill-rule="evenodd" fill-opacity="1"></path>
<defs>
  <clipPath id="clip422">
    <rect x="186" y="47" width="2167" height="1440"></rect>
  </clipPath>
</defs>
<polyline clip-path="url(#clip422)" style="stroke:#000000; stroke-linecap:round; stroke-linejoin:round; stroke-width:2; stroke-opacity:0.1; fill:none" points="454.871,1486.45 454.871,47.2441 "></polyline>
<polyline clip-path="url(#clip422)" style="stroke:#000000; stroke-linecap:round; stroke-linejoin:round; stroke-width:2; stroke-opacity:0.1; fill:none" points="726.419,1486.45 726.419,47.2441 "></polyline>
<polyline clip-path="url(#clip422)" style="stroke:#000000; stroke-linecap:round; stroke-linejoin:round; stroke-width:2; stroke-opacity:0.1; fill:none" points="997.967,1486.45 997.967,47.2441 "></polyline>
<polyline clip-path="url(#clip422)" style="stroke:#000000; stroke-linecap:round; stroke-linejoin:round; stroke-width:2; stroke-opacity:0.1; fill:none" points="1269.51,1486.45 1269.51,47.2441 "></polyline>
<polyline clip-path="url(#clip422)" style="stroke:#000000; stroke-linecap:round; stroke-linejoin:round; stroke-width:2; stroke-opacity:0.1; fill:none" points="1541.06,1486.45 1541.06,47.2441 "></polyline>
<polyline clip-path="url(#clip422)" style="stroke:#000000; stroke-linecap:round; stroke-linejoin:round; stroke-width:2; stroke-opacity:0.1; fill:none" points="1812.61,1486.45 1812.61,47.2441 "></polyline>
<polyline clip-path="url(#clip422)" style="stroke:#000000; stroke-linecap:round; stroke-linejoin:round; stroke-width:2; stroke-opacity:0.1; fill:none" points="2084.16,1486.45 2084.16,47.2441 "></polyline>
<polyline clip-path="url(#clip420)" style="stroke:#000000; stroke-linecap:round; stroke-linejoin:round; stroke-width:4; stroke-opacity:1; fill:none" points="186.274,1486.45 2352.76,1486.45 "></polyline>
<polyline clip-path="url(#clip420)" style="stroke:#000000; stroke-linecap:round; stroke-linejoin:round; stroke-width:4; stroke-opacity:1; fill:none" points="454.871,1486.45 454.871,1467.55 "></polyline>
<polyline clip-path="url(#clip420)" style="stroke:#000000; stroke-linecap:round; stroke-linejoin:round; stroke-width:4; stroke-opacity:1; fill:none" points="726.419,1486.45 726.419,1467.55 "></polyline>
<polyline clip-path="url(#clip420)" style="stroke:#000000; stroke-linecap:round; stroke-linejoin:round; stroke-width:4; stroke-opacity:1; fill:none" points="997.967,1486.45 997.967,1467.55 "></polyline>
<polyline clip-path="url(#clip420)" style="stroke:#000000; stroke-linecap:round; stroke-linejoin:round; stroke-width:4; stroke-opacity:1; fill:none" points="1269.51,1486.45 1269.51,1467.55 "></polyline>
<polyline clip-path="url(#clip420)" style="stroke:#000000; stroke-linecap:round; stroke-linejoin:round; stroke-width:4; stroke-opacity:1; fill:none" points="1541.06,1486.45 1541.06,1467.55 "></polyline>
<polyline clip-path="url(#clip420)" style="stroke:#000000; stroke-linecap:round; stroke-linejoin:round; stroke-width:4; stroke-opacity:1; fill:none" points="1812.61,1486.45 1812.61,1467.55 "></polyline>
<polyline clip-path="url(#clip420)" style="stroke:#000000; stroke-linecap:round; stroke-linejoin:round; stroke-width:4; stroke-opacity:1; fill:none" points="2084.16,1486.45 2084.16,1467.55 "></polyline>
<path clip-path="url(#clip420)" d="M401.318 1532.02 L430.994 1532.02 L430.994 1535.95 L401.318 1535.95 L401.318 1532.02 Z" fill="#000000" fill-rule="nonzero" fill-opacity="1"></path><path clip-path="url(#clip420)" d="M451.087 1517.37 Q447.476 1517.37 445.647 1520.93 Q443.841 1524.47 443.841 1531.6 Q443.841 1538.71 445.647 1542.27 Q447.476 1545.82 451.087 1545.82 Q454.721 1545.82 456.526 1542.27 Q458.355 1538.71 458.355 1531.6 Q458.355 1524.47 456.526 1520.93 Q454.721 1517.37 451.087 1517.37 M451.087 1513.66 Q456.897 1513.66 459.952 1518.27 Q463.031 1522.85 463.031 1531.6 Q463.031 1540.33 459.952 1544.94 Q456.897 1549.52 451.087 1549.52 Q445.276 1549.52 442.198 1544.94 Q439.142 1540.33 439.142 1531.6 Q439.142 1522.85 442.198 1518.27 Q445.276 1513.66 451.087 1513.66 Z" fill="#000000" fill-rule="nonzero" fill-opacity="1"></path><path clip-path="url(#clip420)" d="M471.249 1542.97 L476.133 1542.97 L476.133 1548.85 L471.249 1548.85 L471.249 1542.97 Z" fill="#000000" fill-rule="nonzero" fill-opacity="1"></path><path clip-path="url(#clip420)" d="M496.897 1529.7 Q493.748 1529.7 491.897 1531.86 Q490.068 1534.01 490.068 1537.76 Q490.068 1541.49 491.897 1543.66 Q493.748 1545.82 496.897 1545.82 Q500.045 1545.82 501.873 1543.66 Q503.725 1541.49 503.725 1537.76 Q503.725 1534.01 501.873 1531.86 Q500.045 1529.7 496.897 1529.7 M506.179 1515.05 L506.179 1519.31 Q504.42 1518.48 502.614 1518.04 Q500.832 1517.6 499.072 1517.6 Q494.443 1517.6 491.989 1520.72 Q489.559 1523.85 489.211 1530.17 Q490.577 1528.15 492.637 1527.09 Q494.697 1526 497.174 1526 Q502.383 1526 505.392 1529.17 Q508.424 1532.32 508.424 1537.76 Q508.424 1543.08 505.276 1546.3 Q502.128 1549.52 496.897 1549.52 Q490.901 1549.52 487.73 1544.94 Q484.559 1540.33 484.559 1531.6 Q484.559 1523.41 488.448 1518.55 Q492.336 1513.66 498.887 1513.66 Q500.647 1513.66 502.429 1514.01 Q504.234 1514.36 506.179 1515.05 Z" fill="#000000" fill-rule="nonzero" fill-opacity="1"></path><path clip-path="url(#clip420)" d="M672.704 1532.02 L702.38 1532.02 L702.38 1535.95 L672.704 1535.95 L672.704 1532.02 Z" fill="#000000" fill-rule="nonzero" fill-opacity="1"></path><path clip-path="url(#clip420)" d="M722.472 1517.37 Q718.861 1517.37 717.033 1520.93 Q715.227 1524.47 715.227 1531.6 Q715.227 1538.71 717.033 1542.27 Q718.861 1545.82 722.472 1545.82 Q726.107 1545.82 727.912 1542.27 Q729.741 1538.71 729.741 1531.6 Q729.741 1524.47 727.912 1520.93 Q726.107 1517.37 722.472 1517.37 M722.472 1513.66 Q728.283 1513.66 731.338 1518.27 Q734.417 1522.85 734.417 1531.6 Q734.417 1540.33 731.338 1544.94 Q728.283 1549.52 722.472 1549.52 Q716.662 1549.52 713.584 1544.94 Q710.528 1540.33 710.528 1531.6 Q710.528 1522.85 713.584 1518.27 Q716.662 1513.66 722.472 1513.66 Z" fill="#000000" fill-rule="nonzero" fill-opacity="1"></path><path clip-path="url(#clip420)" d="M742.634 1542.97 L747.519 1542.97 L747.519 1548.85 L742.634 1548.85 L742.634 1542.97 Z" fill="#000000" fill-rule="nonzero" fill-opacity="1"></path><path clip-path="url(#clip420)" d="M770.551 1518.36 L758.745 1536.81 L770.551 1536.81 L770.551 1518.36 M769.324 1514.29 L775.204 1514.29 L775.204 1536.81 L780.134 1536.81 L780.134 1540.7 L775.204 1540.7 L775.204 1548.85 L770.551 1548.85 L770.551 1540.7 L754.949 1540.7 L754.949 1536.19 L769.324 1514.29 Z" fill="#000000" fill-rule="nonzero" fill-opacity="1"></path><path clip-path="url(#clip420)" d="M945.294 1532.02 L974.97 1532.02 L974.97 1535.95 L945.294 1535.95 L945.294 1532.02 Z" fill="#000000" fill-rule="nonzero" fill-opacity="1"></path><path clip-path="url(#clip420)" d="M995.062 1517.37 Q991.451 1517.37 989.622 1520.93 Q987.817 1524.47 987.817 1531.6 Q987.817 1538.71 989.622 1542.27 Q991.451 1545.82 995.062 1545.82 Q998.696 1545.82 1000.5 1542.27 Q1002.33 1538.71 1002.33 1531.6 Q1002.33 1524.47 1000.5 1520.93 Q998.696 1517.37 995.062 1517.37 M995.062 1513.66 Q1000.87 1513.66 1003.93 1518.27 Q1007.01 1522.85 1007.01 1531.6 Q1007.01 1540.33 1003.93 1544.94 Q1000.87 1549.52 995.062 1549.52 Q989.252 1549.52 986.173 1544.94 Q983.118 1540.33 983.118 1531.6 Q983.118 1522.85 986.173 1518.27 Q989.252 1513.66 995.062 1513.66 Z" fill="#000000" fill-rule="nonzero" fill-opacity="1"></path><path clip-path="url(#clip420)" d="M1015.22 1542.97 L1020.11 1542.97 L1020.11 1548.85 L1015.22 1548.85 L1015.22 1542.97 Z" fill="#000000" fill-rule="nonzero" fill-opacity="1"></path><path clip-path="url(#clip420)" d="M1034.32 1544.91 L1050.64 1544.91 L1050.64 1548.85 L1028.7 1548.85 L1028.7 1544.91 Q1031.36 1542.16 1035.94 1537.53 Q1040.55 1532.88 1041.73 1531.53 Q1043.97 1529.01 1044.85 1527.27 Q1045.76 1525.51 1045.76 1523.82 Q1045.76 1521.07 1043.81 1519.33 Q1041.89 1517.6 1038.79 1517.6 Q1036.59 1517.6 1034.14 1518.36 Q1031.71 1519.13 1028.93 1520.68 L1028.93 1515.95 Q1031.75 1514.82 1034.21 1514.24 Q1036.66 1513.66 1038.7 1513.66 Q1044.07 1513.66 1047.26 1516.35 Q1050.46 1519.03 1050.46 1523.52 Q1050.46 1525.65 1049.65 1527.57 Q1048.86 1529.47 1046.75 1532.07 Q1046.17 1532.74 1043.07 1535.95 Q1039.97 1539.15 1034.32 1544.91 Z" fill="#000000" fill-rule="nonzero" fill-opacity="1"></path><path clip-path="url(#clip420)" d="M1246.9 1517.37 Q1243.29 1517.37 1241.46 1520.93 Q1239.65 1524.47 1239.65 1531.6 Q1239.65 1538.71 1241.46 1542.27 Q1243.29 1545.82 1246.9 1545.82 Q1250.53 1545.82 1252.34 1542.27 Q1254.17 1538.71 1254.17 1531.6 Q1254.17 1524.47 1252.34 1520.93 Q1250.53 1517.37 1246.9 1517.37 M1246.9 1513.66 Q1252.71 1513.66 1255.77 1518.27 Q1258.84 1522.85 1258.84 1531.6 Q1258.84 1540.33 1255.77 1544.94 Q1252.71 1549.52 1246.9 1549.52 Q1241.09 1549.52 1238.01 1544.94 Q1234.95 1540.33 1234.95 1531.6 Q1234.95 1522.85 1238.01 1518.27 Q1241.09 1513.66 1246.9 1513.66 Z" fill="#000000" fill-rule="nonzero" fill-opacity="1"></path><path clip-path="url(#clip420)" d="M1267.06 1542.97 L1271.95 1542.97 L1271.95 1548.85 L1267.06 1548.85 L1267.06 1542.97 Z" fill="#000000" fill-rule="nonzero" fill-opacity="1"></path><path clip-path="url(#clip420)" d="M1292.13 1517.37 Q1288.52 1517.37 1286.69 1520.93 Q1284.89 1524.47 1284.89 1531.6 Q1284.89 1538.71 1286.69 1542.27 Q1288.52 1545.82 1292.13 1545.82 Q1295.76 1545.82 1297.57 1542.27 Q1299.4 1538.71 1299.4 1531.6 Q1299.4 1524.47 1297.57 1520.93 Q1295.76 1517.37 1292.13 1517.37 M1292.13 1513.66 Q1297.94 1513.66 1301 1518.27 Q1304.07 1522.85 1304.07 1531.6 Q1304.07 1540.33 1301 1544.94 Q1297.94 1549.52 1292.13 1549.52 Q1286.32 1549.52 1283.24 1544.94 Q1280.19 1540.33 1280.19 1531.6 Q1280.19 1522.85 1283.24 1518.27 Q1286.32 1513.66 1292.13 1513.66 Z" fill="#000000" fill-rule="nonzero" fill-opacity="1"></path><path clip-path="url(#clip420)" d="M1519.25 1517.37 Q1515.63 1517.37 1513.81 1520.93 Q1512 1524.47 1512 1531.6 Q1512 1538.71 1513.81 1542.27 Q1515.63 1545.82 1519.25 1545.82 Q1522.88 1545.82 1524.69 1542.27 Q1526.51 1538.71 1526.51 1531.6 Q1526.51 1524.47 1524.69 1520.93 Q1522.88 1517.37 1519.25 1517.37 M1519.25 1513.66 Q1525.06 1513.66 1528.11 1518.27 Q1531.19 1522.85 1531.19 1531.6 Q1531.19 1540.33 1528.11 1544.94 Q1525.06 1549.52 1519.25 1549.52 Q1513.44 1549.52 1510.36 1544.94 Q1507.3 1540.33 1507.3 1531.6 Q1507.3 1522.85 1510.36 1518.27 Q1513.44 1513.66 1519.25 1513.66 Z" fill="#000000" fill-rule="nonzero" fill-opacity="1"></path><path clip-path="url(#clip420)" d="M1539.41 1542.97 L1544.29 1542.97 L1544.29 1548.85 L1539.41 1548.85 L1539.41 1542.97 Z" fill="#000000" fill-rule="nonzero" fill-opacity="1"></path><path clip-path="url(#clip420)" d="M1558.5 1544.91 L1574.82 1544.91 L1574.82 1548.85 L1552.88 1548.85 L1552.88 1544.91 Q1555.54 1542.16 1560.13 1537.53 Q1564.73 1532.88 1565.91 1531.53 Q1568.16 1529.01 1569.04 1527.27 Q1569.94 1525.51 1569.94 1523.82 Q1569.94 1521.07 1568 1519.33 Q1566.07 1517.6 1562.97 1517.6 Q1560.77 1517.6 1558.32 1518.36 Q1555.89 1519.13 1553.11 1520.68 L1553.11 1515.95 Q1555.94 1514.82 1558.39 1514.24 Q1560.84 1513.66 1562.88 1513.66 Q1568.25 1513.66 1571.44 1516.35 Q1574.64 1519.03 1574.64 1523.52 Q1574.64 1525.65 1573.83 1527.57 Q1573.04 1529.47 1570.94 1532.07 Q1570.36 1532.74 1567.25 1535.95 Q1564.15 1539.15 1558.5 1544.91 Z" fill="#000000" fill-rule="nonzero" fill-opacity="1"></path><path clip-path="url(#clip420)" d="M1789.75 1517.37 Q1786.14 1517.37 1784.31 1520.93 Q1782.51 1524.47 1782.51 1531.6 Q1782.51 1538.71 1784.31 1542.27 Q1786.14 1545.82 1789.75 1545.82 Q1793.39 1545.82 1795.19 1542.27 Q1797.02 1538.71 1797.02 1531.6 Q1797.02 1524.47 1795.19 1520.93 Q1793.39 1517.37 1789.75 1517.37 M1789.75 1513.66 Q1795.56 1513.66 1798.62 1518.27 Q1801.7 1522.85 1801.7 1531.6 Q1801.7 1540.33 1798.62 1544.94 Q1795.56 1549.52 1789.75 1549.52 Q1783.94 1549.52 1780.86 1544.94 Q1777.81 1540.33 1777.81 1531.6 Q1777.81 1522.85 1780.86 1518.27 Q1783.94 1513.66 1789.75 1513.66 Z" fill="#000000" fill-rule="nonzero" fill-opacity="1"></path><path clip-path="url(#clip420)" d="M1809.91 1542.97 L1814.8 1542.97 L1814.8 1548.85 L1809.91 1548.85 L1809.91 1542.97 Z" fill="#000000" fill-rule="nonzero" fill-opacity="1"></path><path clip-path="url(#clip420)" d="M1837.83 1518.36 L1826.02 1536.81 L1837.83 1536.81 L1837.83 1518.36 M1836.6 1514.29 L1842.48 1514.29 L1842.48 1536.81 L1847.41 1536.81 L1847.41 1540.7 L1842.48 1540.7 L1842.48 1548.85 L1837.83 1548.85 L1837.83 1540.7 L1822.23 1540.7 L1822.23 1536.19 L1836.6 1514.29 Z" fill="#000000" fill-rule="nonzero" fill-opacity="1"></path><path clip-path="url(#clip420)" d="M2061.46 1517.37 Q2057.85 1517.37 2056.02 1520.93 Q2054.22 1524.47 2054.22 1531.6 Q2054.22 1538.71 2056.02 1542.27 Q2057.85 1545.82 2061.46 1545.82 Q2065.1 1545.82 2066.9 1542.27 Q2068.73 1538.71 2068.73 1531.6 Q2068.73 1524.47 2066.9 1520.93 Q2065.1 1517.37 2061.46 1517.37 M2061.46 1513.66 Q2067.27 1513.66 2070.33 1518.27 Q2073.41 1522.85 2073.41 1531.6 Q2073.41 1540.33 2070.33 1544.94 Q2067.27 1549.52 2061.46 1549.52 Q2055.65 1549.52 2052.57 1544.94 Q2049.52 1540.33 2049.52 1531.6 Q2049.52 1522.85 2052.57 1518.27 Q2055.65 1513.66 2061.46 1513.66 Z" fill="#000000" fill-rule="nonzero" fill-opacity="1"></path><path clip-path="url(#clip420)" d="M2081.62 1542.97 L2086.51 1542.97 L2086.51 1548.85 L2081.62 1548.85 L2081.62 1542.97 Z" fill="#000000" fill-rule="nonzero" fill-opacity="1"></path><path clip-path="url(#clip420)" d="M2107.27 1529.7 Q2104.12 1529.7 2102.27 1531.86 Q2100.44 1534.01 2100.44 1537.76 Q2100.44 1541.49 2102.27 1543.66 Q2104.12 1545.82 2107.27 1545.82 Q2110.42 1545.82 2112.25 1543.66 Q2114.1 1541.49 2114.1 1537.76 Q2114.1 1534.01 2112.25 1531.86 Q2110.42 1529.7 2107.27 1529.7 M2116.55 1515.05 L2116.55 1519.31 Q2114.8 1518.48 2112.99 1518.04 Q2111.21 1517.6 2109.45 1517.6 Q2104.82 1517.6 2102.36 1520.72 Q2099.93 1523.85 2099.59 1530.17 Q2100.95 1528.15 2103.01 1527.09 Q2105.07 1526 2107.55 1526 Q2112.76 1526 2115.77 1529.17 Q2118.8 1532.32 2118.8 1537.76 Q2118.8 1543.08 2115.65 1546.3 Q2112.5 1549.52 2107.27 1549.52 Q2101.28 1549.52 2098.11 1544.94 Q2094.93 1540.33 2094.93 1531.6 Q2094.93 1523.41 2098.82 1518.55 Q2102.71 1513.66 2109.26 1513.66 Q2111.02 1513.66 2112.8 1514.01 Q2114.61 1514.36 2116.55 1515.05 Z" fill="#000000" fill-rule="nonzero" fill-opacity="1"></path><polyline clip-path="url(#clip422)" style="stroke:#000000; stroke-linecap:round; stroke-linejoin:round; stroke-width:2; stroke-opacity:0.1; fill:none" points="186.274,1445.72 2352.76,1445.72 "></polyline>
<polyline clip-path="url(#clip422)" style="stroke:#000000; stroke-linecap:round; stroke-linejoin:round; stroke-width:2; stroke-opacity:0.1; fill:none" points="186.274,1106.28 2352.76,1106.28 "></polyline>
<polyline clip-path="url(#clip422)" style="stroke:#000000; stroke-linecap:round; stroke-linejoin:round; stroke-width:2; stroke-opacity:0.1; fill:none" points="186.274,766.846 2352.76,766.846 "></polyline>
<polyline clip-path="url(#clip422)" style="stroke:#000000; stroke-linecap:round; stroke-linejoin:round; stroke-width:2; stroke-opacity:0.1; fill:none" points="186.274,427.411 2352.76,427.411 "></polyline>
<polyline clip-path="url(#clip422)" style="stroke:#000000; stroke-linecap:round; stroke-linejoin:round; stroke-width:2; stroke-opacity:0.1; fill:none" points="186.274,87.9763 2352.76,87.9763 "></polyline>
<polyline clip-path="url(#clip420)" style="stroke:#000000; stroke-linecap:round; stroke-linejoin:round; stroke-width:4; stroke-opacity:1; fill:none" points="186.274,1486.45 186.274,47.2441 "></polyline>
<polyline clip-path="url(#clip420)" style="stroke:#000000; stroke-linecap:round; stroke-linejoin:round; stroke-width:4; stroke-opacity:1; fill:none" points="186.274,1445.72 205.172,1445.72 "></polyline>
<polyline clip-path="url(#clip420)" style="stroke:#000000; stroke-linecap:round; stroke-linejoin:round; stroke-width:4; stroke-opacity:1; fill:none" points="186.274,1106.28 205.172,1106.28 "></polyline>
<polyline clip-path="url(#clip420)" style="stroke:#000000; stroke-linecap:round; stroke-linejoin:round; stroke-width:4; stroke-opacity:1; fill:none" points="186.274,766.846 205.172,766.846 "></polyline>
<polyline clip-path="url(#clip420)" style="stroke:#000000; stroke-linecap:round; stroke-linejoin:round; stroke-width:4; stroke-opacity:1; fill:none" points="186.274,427.411 205.172,427.411 "></polyline>
<polyline clip-path="url(#clip420)" style="stroke:#000000; stroke-linecap:round; stroke-linejoin:round; stroke-width:4; stroke-opacity:1; fill:none" points="186.274,87.9763 205.172,87.9763 "></polyline>
<path clip-path="url(#clip420)" d="M62.9365 1431.51 Q59.3254 1431.51 57.4967 1435.08 Q55.6912 1438.62 55.6912 1445.75 Q55.6912 1452.86 57.4967 1456.42 Q59.3254 1459.96 62.9365 1459.96 Q66.5707 1459.96 68.3763 1456.42 Q70.205 1452.86 70.205 1445.75 Q70.205 1438.62 68.3763 1435.08 Q66.5707 1431.51 62.9365 1431.51 M62.9365 1427.81 Q68.7467 1427.81 71.8022 1432.42 Q74.8809 1437 74.8809 1445.75 Q74.8809 1454.48 71.8022 1459.08 Q68.7467 1463.67 62.9365 1463.67 Q57.1264 1463.67 54.0477 1459.08 Q50.9921 1454.48 50.9921 1445.75 Q50.9921 1437 54.0477 1432.42 Q57.1264 1427.81 62.9365 1427.81 Z" fill="#000000" fill-rule="nonzero" fill-opacity="1"></path><path clip-path="url(#clip420)" d="M83.0984 1457.12 L87.9827 1457.12 L87.9827 1463 L83.0984 1463 L83.0984 1457.12 Z" fill="#000000" fill-rule="nonzero" fill-opacity="1"></path><path clip-path="url(#clip420)" d="M108.168 1431.51 Q104.557 1431.51 102.728 1435.08 Q100.922 1438.62 100.922 1445.75 Q100.922 1452.86 102.728 1456.42 Q104.557 1459.96 108.168 1459.96 Q111.802 1459.96 113.608 1456.42 Q115.436 1452.86 115.436 1445.75 Q115.436 1438.62 113.608 1435.08 Q111.802 1431.51 108.168 1431.51 M108.168 1427.81 Q113.978 1427.81 117.033 1432.42 Q120.112 1437 120.112 1445.75 Q120.112 1454.48 117.033 1459.08 Q113.978 1463.67 108.168 1463.67 Q102.358 1463.67 99.2789 1459.08 Q96.2234 1454.48 96.2234 1445.75 Q96.2234 1437 99.2789 1432.42 Q102.358 1427.81 108.168 1427.81 Z" fill="#000000" fill-rule="nonzero" fill-opacity="1"></path><path clip-path="url(#clip420)" d="M138.33 1431.51 Q134.719 1431.51 132.89 1435.08 Q131.084 1438.62 131.084 1445.75 Q131.084 1452.86 132.89 1456.42 Q134.719 1459.96 138.33 1459.96 Q141.964 1459.96 143.769 1456.42 Q145.598 1452.86 145.598 1445.75 Q145.598 1438.62 143.769 1435.08 Q141.964 1431.51 138.33 1431.51 M138.33 1427.81 Q144.14 1427.81 147.195 1432.42 Q150.274 1437 150.274 1445.75 Q150.274 1454.48 147.195 1459.08 Q144.14 1463.67 138.33 1463.67 Q132.519 1463.67 129.441 1459.08 Q126.385 1454.48 126.385 1445.75 Q126.385 1437 129.441 1432.42 Q132.519 1427.81 138.33 1427.81 Z" fill="#000000" fill-rule="nonzero" fill-opacity="1"></path><path clip-path="url(#clip420)" d="M63.9319 1092.08 Q60.3208 1092.08 58.4921 1095.64 Q56.6865 1099.19 56.6865 1106.32 Q56.6865 1113.42 58.4921 1116.99 Q60.3208 1120.53 63.9319 1120.53 Q67.5661 1120.53 69.3717 1116.99 Q71.2004 1113.42 71.2004 1106.32 Q71.2004 1099.19 69.3717 1095.64 Q67.5661 1092.08 63.9319 1092.08 M63.9319 1088.38 Q69.742 1088.38 72.7976 1092.98 Q75.8763 1097.57 75.8763 1106.32 Q75.8763 1115.04 72.7976 1119.65 Q69.742 1124.23 63.9319 1124.23 Q58.1217 1124.23 55.043 1119.65 Q51.9875 1115.04 51.9875 1106.32 Q51.9875 1097.57 55.043 1092.98 Q58.1217 1088.38 63.9319 1088.38 Z" fill="#000000" fill-rule="nonzero" fill-opacity="1"></path><path clip-path="url(#clip420)" d="M84.0938 1117.68 L88.978 1117.68 L88.978 1123.56 L84.0938 1123.56 L84.0938 1117.68 Z" fill="#000000" fill-rule="nonzero" fill-opacity="1"></path><path clip-path="url(#clip420)" d="M103.191 1119.63 L119.51 1119.63 L119.51 1123.56 L97.566 1123.56 L97.566 1119.63 Q100.228 1116.87 104.811 1112.24 Q109.418 1107.59 110.598 1106.25 Q112.844 1103.72 113.723 1101.99 Q114.626 1100.23 114.626 1098.54 Q114.626 1095.78 112.682 1094.05 Q110.76 1092.31 107.658 1092.31 Q105.459 1092.31 103.006 1093.07 Q100.575 1093.84 97.7974 1095.39 L97.7974 1090.67 Q100.621 1089.53 103.075 1088.95 Q105.529 1088.38 107.566 1088.38 Q112.936 1088.38 116.131 1091.06 Q119.325 1093.75 119.325 1098.24 Q119.325 1100.37 118.515 1102.29 Q117.728 1104.19 115.621 1106.78 Q115.043 1107.45 111.941 1110.67 Q108.839 1113.86 103.191 1119.63 Z" fill="#000000" fill-rule="nonzero" fill-opacity="1"></path><path clip-path="url(#clip420)" d="M129.371 1089 L147.728 1089 L147.728 1092.94 L133.654 1092.94 L133.654 1101.41 Q134.672 1101.06 135.691 1100.9 Q136.709 1100.71 137.728 1100.71 Q143.515 1100.71 146.894 1103.89 Q150.274 1107.06 150.274 1112.47 Q150.274 1118.05 146.802 1121.15 Q143.33 1124.23 137.01 1124.23 Q134.834 1124.23 132.566 1123.86 Q130.32 1123.49 127.913 1122.75 L127.913 1118.05 Q129.996 1119.19 132.219 1119.74 Q134.441 1120.3 136.918 1120.3 Q140.922 1120.3 143.26 1118.19 Q145.598 1116.08 145.598 1112.47 Q145.598 1108.86 143.26 1106.76 Q140.922 1104.65 136.918 1104.65 Q135.043 1104.65 133.168 1105.07 Q131.316 1105.48 129.371 1106.36 L129.371 1089 Z" fill="#000000" fill-rule="nonzero" fill-opacity="1"></path><path clip-path="url(#clip420)" d="M62.9365 752.645 Q59.3254 752.645 57.4967 756.209 Q55.6912 759.751 55.6912 766.881 Q55.6912 773.987 57.4967 777.552 Q59.3254 781.094 62.9365 781.094 Q66.5707 781.094 68.3763 777.552 Q70.205 773.987 70.205 766.881 Q70.205 759.751 68.3763 756.209 Q66.5707 752.645 62.9365 752.645 M62.9365 748.941 Q68.7467 748.941 71.8022 753.547 Q74.8809 758.131 74.8809 766.881 Q74.8809 775.608 71.8022 780.214 Q68.7467 784.797 62.9365 784.797 Q57.1264 784.797 54.0477 780.214 Q50.9921 775.608 50.9921 766.881 Q50.9921 758.131 54.0477 753.547 Q57.1264 748.941 62.9365 748.941 Z" fill="#000000" fill-rule="nonzero" fill-opacity="1"></path><path clip-path="url(#clip420)" d="M83.0984 778.246 L87.9827 778.246 L87.9827 784.126 L83.0984 784.126 L83.0984 778.246 Z" fill="#000000" fill-rule="nonzero" fill-opacity="1"></path><path clip-path="url(#clip420)" d="M98.2141 749.566 L116.57 749.566 L116.57 753.501 L102.496 753.501 L102.496 761.973 Q103.515 761.626 104.534 761.464 Q105.552 761.279 106.571 761.279 Q112.358 761.279 115.737 764.45 Q119.117 767.621 119.117 773.038 Q119.117 778.617 115.645 781.719 Q112.172 784.797 105.853 784.797 Q103.677 784.797 101.409 784.427 Q99.1632 784.057 96.7558 783.316 L96.7558 778.617 Q98.8391 779.751 101.061 780.307 Q103.284 780.862 105.76 780.862 Q109.765 780.862 112.103 778.756 Q114.441 776.649 114.441 773.038 Q114.441 769.427 112.103 767.321 Q109.765 765.214 105.76 765.214 Q103.885 765.214 102.01 765.631 Q100.159 766.047 98.2141 766.927 L98.2141 749.566 Z" fill="#000000" fill-rule="nonzero" fill-opacity="1"></path><path clip-path="url(#clip420)" d="M138.33 752.645 Q134.719 752.645 132.89 756.209 Q131.084 759.751 131.084 766.881 Q131.084 773.987 132.89 777.552 Q134.719 781.094 138.33 781.094 Q141.964 781.094 143.769 777.552 Q145.598 773.987 145.598 766.881 Q145.598 759.751 143.769 756.209 Q141.964 752.645 138.33 752.645 M138.33 748.941 Q144.14 748.941 147.195 753.547 Q150.274 758.131 150.274 766.881 Q150.274 775.608 147.195 780.214 Q144.14 784.797 138.33 784.797 Q132.519 784.797 129.441 780.214 Q126.385 775.608 126.385 766.881 Q126.385 758.131 129.441 753.547 Q132.519 748.941 138.33 748.941 Z" fill="#000000" fill-rule="nonzero" fill-opacity="1"></path><path clip-path="url(#clip420)" d="M63.9319 413.21 Q60.3208 413.21 58.4921 416.775 Q56.6865 420.316 56.6865 427.446 Q56.6865 434.552 58.4921 438.117 Q60.3208 441.659 63.9319 441.659 Q67.5661 441.659 69.3717 438.117 Q71.2004 434.552 71.2004 427.446 Q71.2004 420.316 69.3717 416.775 Q67.5661 413.21 63.9319 413.21 M63.9319 409.506 Q69.742 409.506 72.7976 414.113 Q75.8763 418.696 75.8763 427.446 Q75.8763 436.173 72.7976 440.779 Q69.742 445.362 63.9319 445.362 Q58.1217 445.362 55.043 440.779 Q51.9875 436.173 51.9875 427.446 Q51.9875 418.696 55.043 414.113 Q58.1217 409.506 63.9319 409.506 Z" fill="#000000" fill-rule="nonzero" fill-opacity="1"></path><path clip-path="url(#clip420)" d="M84.0938 438.812 L88.978 438.812 L88.978 444.691 L84.0938 444.691 L84.0938 438.812 Z" fill="#000000" fill-rule="nonzero" fill-opacity="1"></path><path clip-path="url(#clip420)" d="M97.9826 410.131 L120.205 410.131 L120.205 412.122 L107.658 444.691 L102.774 444.691 L114.58 414.066 L97.9826 414.066 L97.9826 410.131 Z" fill="#000000" fill-rule="nonzero" fill-opacity="1"></path><path clip-path="url(#clip420)" d="M129.371 410.131 L147.728 410.131 L147.728 414.066 L133.654 414.066 L133.654 422.538 Q134.672 422.191 135.691 422.029 Q136.709 421.844 137.728 421.844 Q143.515 421.844 146.894 425.015 Q150.274 428.187 150.274 433.603 Q150.274 439.182 146.802 442.284 Q143.33 445.362 137.01 445.362 Q134.834 445.362 132.566 444.992 Q130.32 444.622 127.913 443.881 L127.913 439.182 Q129.996 440.316 132.219 440.872 Q134.441 441.427 136.918 441.427 Q140.922 441.427 143.26 439.321 Q145.598 437.214 145.598 433.603 Q145.598 429.992 143.26 427.886 Q140.922 425.779 136.918 425.779 Q135.043 425.779 133.168 426.196 Q131.316 426.613 129.371 427.492 L129.371 410.131 Z" fill="#000000" fill-rule="nonzero" fill-opacity="1"></path><path clip-path="url(#clip420)" d="M53.7467 101.321 L61.3856 101.321 L61.3856 74.9555 L53.0754 76.6222 L53.0754 72.3629 L61.3393 70.6963 L66.0152 70.6963 L66.0152 101.321 L73.654 101.321 L73.654 105.256 L53.7467 105.256 L53.7467 101.321 Z" fill="#000000" fill-rule="nonzero" fill-opacity="1"></path><path clip-path="url(#clip420)" d="M83.0984 99.3767 L87.9827 99.3767 L87.9827 105.256 L83.0984 105.256 L83.0984 99.3767 Z" fill="#000000" fill-rule="nonzero" fill-opacity="1"></path><path clip-path="url(#clip420)" d="M108.168 73.775 Q104.557 73.775 102.728 77.3398 Q100.922 80.8814 100.922 88.011 Q100.922 95.1174 102.728 98.6822 Q104.557 102.224 108.168 102.224 Q111.802 102.224 113.608 98.6822 Q115.436 95.1174 115.436 88.011 Q115.436 80.8814 113.608 77.3398 Q111.802 73.775 108.168 73.775 M108.168 70.0713 Q113.978 70.0713 117.033 74.6777 Q120.112 79.261 120.112 88.011 Q120.112 96.7378 117.033 101.344 Q113.978 105.928 108.168 105.928 Q102.358 105.928 99.2789 101.344 Q96.2234 96.7378 96.2234 88.011 Q96.2234 79.261 99.2789 74.6777 Q102.358 70.0713 108.168 70.0713 Z" fill="#000000" fill-rule="nonzero" fill-opacity="1"></path><path clip-path="url(#clip420)" d="M138.33 73.775 Q134.719 73.775 132.89 77.3398 Q131.084 80.8814 131.084 88.011 Q131.084 95.1174 132.89 98.6822 Q134.719 102.224 138.33 102.224 Q141.964 102.224 143.769 98.6822 Q145.598 95.1174 145.598 88.011 Q145.598 80.8814 143.769 77.3398 Q141.964 73.775 138.33 73.775 M138.33 70.0713 Q144.14 70.0713 147.195 74.6777 Q150.274 79.261 150.274 88.011 Q150.274 96.7378 147.195 101.344 Q144.14 105.928 138.33 105.928 Q132.519 105.928 129.441 101.344 Q126.385 96.7378 126.385 88.011 Q126.385 79.261 129.441 74.6777 Q132.519 70.0713 138.33 70.0713 Z" fill="#000000" fill-rule="nonzero" fill-opacity="1"></path><path clip-path="url(#clip422)" d="M319.097 1445.72 L319.097 1445.72 L331.855 1445.72 L344.612 1445.72 L357.369 1445.72 L370.126 1445.72 L382.884 1445.72 L395.641 1445.72 L408.398 1445.72 L421.156 1445.72 L433.913 1445.72 L446.67 1445.72 L459.427 1445.72 L472.185 1445.72 L484.942 1445.72 L497.699 1445.72 L510.457 1445.72 L523.214 1445.72 L535.971 1445.72 L548.728 1445.72 L561.486 1445.72 L574.243 1445.72 L587 1445.72 L599.758 1445.72 L612.515 1445.72 L625.272 1445.72 L638.029 1445.72 L650.787 1445.72 L663.544 1445.72 L676.301 1445.72 L689.059 1445.72 L701.816 1445.72 L714.573 1445.72 L727.33 1445.72 L740.088 1445.72 L752.845 1445.72 L765.602 1445.72 L778.36 1445.72 L791.117 1445.72 L803.874 1445.72 L816.631 1445.72 L829.389 1445.72 L842.146 1445.72 L854.903 1445.72 L867.661 1445.72 L880.418 1445.72 L893.175 1445.72 L905.932 1445.72 L918.69 1445.72 L931.447 1445.72 L944.204 1445.72 L956.962 1445.72 L969.719 1445.72 L982.476 1445.72 L995.233 1445.72 L1007.99 1445.72 L1020.75 1445.72 L1033.51 1445.72 L1046.26 1445.72 L1059.02 1445.72 L1071.78 1445.72 L1084.53 1445.72 L1097.29 1445.72 L1110.05 1445.72 L1122.81 1445.72 L1135.56 1445.72 L1148.32 1445.72 L1161.08 1445.72 L1173.84 1445.72 L1186.59 1445.72 L1199.35 1445.72 L1212.11 1445.72 L1224.86 1445.72 L1237.62 1445.72 L1250.38 1445.72 L1263.14 1445.72 L1275.89 1445.72 L1288.65 1445.72 L1301.41 1445.72 L1314.17 1445.72 L1326.92 1445.72 L1339.68 1445.72 L1352.44 1445.72 L1365.19 1445.72 L1377.95 1445.72 L1390.71 1445.72 L1403.47 1445.72 L1416.22 1445.72 L1428.98 1445.72 L1441.74 1445.72 L1454.5 1445.72 L1467.25 1445.72 L1480.01 1445.72 L1492.77 1445.72 L1505.52 1445.72 L1518.28 1445.72 L1531.04 1445.72 L1543.8 1445.72 L1556.55 1445.72 L1569.31 1445.72 L1582.07 1445.72 L1594.83 1445.72 L1607.58 1445.72 L1620.34 1445.72 L1633.1 1445.72 L1645.85 1445.72 L1658.61 1445.72 L1671.37 1445.72 L1684.13 1445.72 L1696.88 1445.72 L1709.64 1445.72 L1722.4 1445.72 L1735.16 1445.72 L1747.91 1445.72 L1760.67 1445.72 L1773.43 1445.72 L1786.18 1445.72 L1798.94 1445.72 L1811.7 1445.72 L1824.46 1445.72 L1837.21 1445.72 L1849.97 1445.72 L1862.73 1445.72 L1875.49 1445.72 L1888.24 1445.72 L1901 1445.72 L1913.76 1445.72 L1926.52 1445.72 L1939.27 1445.72 L1952.03 1445.72 L1964.79 1445.72 L1977.54 1445.72 L1990.3 1445.72 L2003.06 1445.72 L2015.82 1445.72 L2028.57 1445.72 L2041.33 1445.72 L2054.09 1445.72 L2066.85 1445.72 L2079.6 1445.72 L2092.36 1445.72 L2105.12 1445.72 L2117.87 1445.72 L2130.63 1445.72 L2143.39 1445.72 L2156.15 1445.72 L2168.9 1445.72 L2181.66 1445.72 L2194.42 1445.72 L2207.18 1445.72 L2219.93 1445.72 L2219.93 1445.72 L2219.93 1445.72 L2219.93 1445.72 L2219.93 1432 L2219.93 1418.29 L2219.93 1404.57 L2219.93 1390.86 L2219.93 1377.14 L2219.93 1363.43 L2219.93 1349.71 L2219.93 1336 L2219.93 1322.28 L2219.93 1308.57 L2219.93 1294.86 L2219.93 1281.14 L2219.93 1267.43 L2219.93 1253.71 L2219.93 1240 L2219.93 1226.28 L2219.93 1212.57 L2219.93 1198.85 L2219.93 1185.14 L2219.93 1171.42 L2219.93 1157.71 L2219.93 1144 L2219.93 1130.28 L2219.93 1116.57 L2219.93 1102.85 L2219.93 1089.14 L2219.93 1075.42 L2219.93 1061.71 L2219.93 1047.99 L2219.93 1034.28 L2219.93 1020.56 L2219.93 1006.85 L2219.93 993.136 L2219.93 979.421 L2219.93 965.707 L2219.93 951.992 L2219.93 938.278 L2219.93 924.563 L2219.93 910.849 L2219.93 897.134 L2219.93 883.42 L2219.93 869.705 L2219.93 855.99 L2219.93 842.276 L2219.93 828.561 L2219.93 814.847 L2219.93 801.132 L2219.93 787.418 L2219.93 773.703 L2219.93 759.989 L2219.93 746.274 L2219.93 732.56 L2219.93 718.845 L2219.93 705.131 L2219.93 691.416 L2219.93 677.701 L2219.93 663.987 L2219.93 650.272 L2219.93 636.558 L2219.93 622.843 L2219.93 609.129 L2219.93 595.414 L2219.93 581.7 L2219.93 567.985 L2219.93 554.271 L2219.93 540.556 L2219.93 526.842 L2219.93 513.127 L2219.93 499.412 L2219.93 485.698 L2219.93 471.983 L2219.93 458.269 L2219.93 444.554 L2219.93 430.84 L2219.93 417.125 L2219.93 403.411 L2219.93 389.696 L2219.93 375.982 L2219.93 362.267 L2219.93 348.553 L2219.93 334.838 L2219.93 321.123 L2219.93 307.409 L2219.93 293.694 L2219.93 279.98 L2219.93 266.265 L2219.93 252.551 L2219.93 238.836 L2219.93 225.122 L2219.93 211.407 L2219.93 197.693 L2219.93 183.978 L2219.93 170.264 L2219.93 156.549 L2219.93 142.834 L2219.93 129.12 L2219.93 115.405 L2219.93 101.691 L2219.93 87.9763 L2219.93 87.9763 L2219.93 87.9763 L2219.93 87.9763 L2207.18 87.9763 L2194.42 87.9763 L2181.66 87.9763 L2168.9 87.9763 L2156.15 87.9763 L2143.39 87.9763 L2130.63 87.9763 L2117.87 87.9763 L2105.12 87.9763 L2092.36 87.9763 L2079.6 87.9763 L2066.85 87.9763 L2054.09 87.9763 L2041.33 87.9763 L2028.57 87.9763 L2015.82 87.9763 L2003.06 87.9763 L1990.3 87.9763 L1977.54 87.9763 L1964.79 87.9763 L1952.03 87.9763 L1939.27 87.9763 L1926.52 87.9763 L1913.76 87.9763 L1901 87.9763 L1888.24 87.9763 L1875.49 87.9763 L1862.73 87.9763 L1849.97 87.9763 L1837.21 87.9763 L1824.46 87.9763 L1811.7 87.9763 L1798.94 87.9763 L1786.18 87.9763 L1773.43 87.9763 L1760.67 87.9763 L1747.91 87.9763 L1735.16 87.9763 L1722.4 87.9763 L1709.64 87.9763 L1696.88 87.9763 L1684.13 87.9763 L1671.37 87.9763 L1658.61 87.9763 L1645.85 87.9763 L1633.1 87.9763 L1620.34 87.9763 L1607.58 87.9763 L1594.83 87.9763 L1582.07 87.9763 L1569.31 87.9763 L1556.55 87.9763 L1543.8 87.9763 L1531.04 87.9763 L1518.28 87.9763 L1505.52 87.9763 L1492.77 87.9763 L1480.01 87.9763 L1467.25 87.9763 L1454.5 87.9763 L1441.74 87.9763 L1428.98 87.9763 L1416.22 87.9763 L1403.47 87.9763 L1390.71 87.9763 L1377.95 87.9763 L1365.19 87.9763 L1352.44 87.9763 L1339.68 87.9763 L1326.92 87.9763 L1314.17 87.9763 L1301.41 87.9763 L1288.65 87.9763 L1275.89 87.9763 L1263.14 87.9763 L1250.38 87.9763 L1237.62 87.9763 L1224.86 87.9763 L1212.11 87.9763 L1199.35 87.9763 L1186.59 87.9763 L1173.84 87.9763 L1161.08 87.9763 L1148.32 87.9763 L1135.56 87.9763 L1122.81 87.9763 L1110.05 87.9763 L1097.29 87.9763 L1084.53 87.9763 L1071.78 87.9763 L1059.02 87.9763 L1046.26 87.9763 L1033.51 87.9763 L1020.75 87.9763 L1007.99 87.9763 L995.233 87.9763 L982.476 87.9763 L969.719 87.9763 L956.962 87.9763 L944.204 87.9763 L931.447 87.9763 L918.69 87.9763 L905.932 87.9763 L893.175 87.9763 L880.418 87.9763 L867.661 87.9763 L854.903 87.9763 L842.146 87.9763 L829.389 87.9763 L816.631 87.9763 L803.874 87.9763 L791.117 87.9763 L778.36 87.9763 L765.602 87.9763 L752.845 87.9763 L740.088 87.9763 L727.33 87.9763 L714.573 87.9763 L701.816 87.9763 L689.059 87.9763 L676.301 87.9763 L663.544 87.9763 L650.787 87.9763 L638.029 87.9763 L625.272 87.9763 L612.515 87.9763 L599.758 87.9763 L587 87.9763 L574.243 87.9763 L561.486 87.9763 L548.728 87.9763 L535.971 87.9763 L523.214 87.9763 L510.457 87.9763 L497.699 87.9763 L484.942 87.9763 L472.185 87.9763 L459.427 87.9763 L446.67 87.9763 L433.913 87.9763 L421.156 87.9763 L408.398 87.9763 L395.641 87.9763 L382.884 87.9763 L370.126 87.9763 L357.369 87.9763 L344.612 87.9763 L331.855 87.9763 L319.097 87.9763 L319.097 87.9763 L319.097 87.9763 L319.097 87.9763 L319.097 101.691 L319.097 115.405 L319.097 129.12 L319.097 142.834 L319.097 156.549 L319.097 170.264 L319.097 183.978 L319.097 197.693 L319.097 211.407 L319.097 225.122 L319.097 238.836 L319.097 252.551 L319.097 266.265 L319.097 279.98 L319.097 293.694 L319.097 307.409 L319.097 321.123 L319.097 334.838 L319.097 348.553 L319.097 362.267 L319.097 375.982 L319.097 389.696 L319.097 403.411 L319.097 417.125 L319.097 430.84 L319.097 444.554 L319.097 458.269 L319.097 471.983 L319.097 485.698 L319.097 499.412 L319.097 513.127 L319.097 526.842 L319.097 540.556 L319.097 554.271 L319.097 567.985 L319.097 581.7 L319.097 595.414 L319.097 609.129 L319.097 622.843 L319.097 636.558 L319.097 650.272 L319.097 663.987 L319.097 677.701 L319.097 691.416 L319.097 705.131 L319.097 718.845 L319.097 732.56 L319.097 746.274 L319.097 759.989 L319.097 773.703 L319.097 787.418 L319.097 801.132 L319.097 814.847 L319.097 828.561 L319.097 842.276 L319.097 855.99 L319.097 869.705 L319.097 883.42 L319.097 897.134 L319.097 910.849 L319.097 924.563 L319.097 938.278 L319.097 951.992 L319.097 965.707 L319.097 979.421 L319.097 993.136 L319.097 1006.85 L319.097 1020.56 L319.097 1034.28 L319.097 1047.99 L319.097 1061.71 L319.097 1075.42 L319.097 1089.14 L319.097 1102.85 L319.097 1116.57 L319.097 1130.28 L319.097 1144 L319.097 1157.71 L319.097 1171.42 L319.097 1185.14 L319.097 1198.85 L319.097 1212.57 L319.097 1226.28 L319.097 1240 L319.097 1253.71 L319.097 1267.43 L319.097 1281.14 L319.097 1294.86 L319.097 1308.57 L319.097 1322.28 L319.097 1336 L319.097 1349.71 L319.097 1363.43 L319.097 1377.14 L319.097 1390.86 L319.097 1404.57 L319.097 1418.29 L319.097 1432 L319.097 1445.72 L319.097 1445.72 L319.097 1445.72  Z" fill="#000000" fill-rule="evenodd" fill-opacity="1"></path>
<path clip-path="url(#clip422)" d="M880.418 733.735 L893.175 735.582 L905.932 737.157 L918.69 738.051 L931.447 738.797 L944.204 738.95 L956.962 738.836 L969.719 738.168 L982.476 737.132 L995.233 735.767 L1007.99 733.692 L1014.1 732.56 L1020.75 731.306 L1033.51 728.204 L1046.26 724.657 L1059.02 720.295 L1062.85 718.845 L1071.78 715.259 L1084.53 709.285 L1092.43 705.131 L1097.29 702.322 L1110.05 694.073 L1113.82 691.416 L1122.81 684.374 L1130.59 677.701 L1135.56 672.618 L1143.52 663.987 L1148.32 658.164 L1154.44 650.272 L1161.08 639.66 L1162.98 636.558 L1170.34 622.843 L1173.84 615.019 L1176.44 609.129 L1181.22 595.414 L1185.14 581.7 L1186.59 574.52 L1187.91 567.985 L1189.84 554.271 L1191.38 540.556 L1191.58 526.842 L1191.35 513.127 L1190.34 499.412 L1188.42 485.698 L1186.59 474.454 L1186.24 471.983 L1183.91 458.269 L1180.87 444.554 L1177.79 430.84 L1173.84 427.587 L1161.08 420.303 L1156.94 417.125 L1148.32 411.755 L1139.46 403.411 L1135.56 400.629 L1122.81 389.929 L1122.5 389.696 L1110.05 381.078 L1103.94 375.982 L1097.29 371.164 L1084.53 362.637 L1084.05 362.267 L1071.78 353.121 L1064.75 348.553 L1059.02 345.167 L1046.26 337.046 L1043.26 334.838 L1033.51 327.188 L1020.75 322.69 L1018.44 321.123 L1007.99 311.348 L1003.5 307.409 L995.233 300.208 L989.696 293.694 L982.476 283.93 L976.682 279.98 L969.719 276.358 L956.962 272.741 L944.204 266.587 L943.666 266.265 L931.447 254.837 L929.758 252.551 L919.525 238.836 L918.69 237.849 L905.932 228.951 L902.252 225.122 L893.175 211.797 L892.799 211.407 L880.418 201.226 L876.488 197.693 L867.661 187.816 L864.851 183.978 L858.814 170.264 L854.903 158.345 L854.383 156.549 L843.268 142.834 L842.146 142.067 L835.153 129.12 L835.192 115.405 L833.537 101.691 L829.389 89.6436 L828.648 87.9763 L816.631 87.9763 L816.631 87.9763 L803.874 87.9763 L791.117 87.9763 L778.36 87.9763 L765.602 87.9763 L752.845 87.9763 L763.547 87.9763 L752.845 99.143 L750.405 101.691 L743.232 115.405 L741.075 129.12 L740.088 133.536 L737.412 142.834 L732.976 156.549 L727.894 170.264 L727.33 171.836 L720.391 183.978 L714.573 196.147 L713.826 197.693 L708.404 211.407 L704.473 225.122 L701.816 234.273 L700.123 238.836 L696.318 252.551 L693.048 266.265 L689.954 279.98 L689.059 284.301 L686.867 293.694 L682.698 307.409 L678.245 321.123 L676.301 326.828 L672.375 334.838 L665.653 348.553 L663.544 353.463 L659.177 362.267 L653.806 375.982 L650.787 387.39 L650.171 389.696 L647.64 403.411 L646.897 417.125 L646.485 430.84 L646.594 444.554 L646.374 458.269 L645.813 471.983 L644.698 485.698 L643.493 499.412 L641.836 513.127 L642.136 526.842 L643.45 540.556 L646.75 554.271 L650.787 566.761 L651.175 567.985 L656.862 581.7 L663.544 594.652 L663.938 595.414 L672.09 609.129 L676.301 615.523 L681.237 622.843 L689.059 632.835 L692.188 636.558 L701.816 647.644 L704.255 650.272 L714.573 659.755 L719.378 663.987 L727.33 670.912 L736.834 677.701 L740.088 679.765 L752.845 688.306 L757.987 691.416 L765.602 695.478 L778.36 702.018 L784.54 705.131 L791.117 708.196 L803.874 713.204 L816.631 718.353 L818.3 718.845 L829.389 721.951 L842.146 725.477 L854.903 728.804 L867.661 731.516 L873.755 732.56 L880.418 733.735  Z" fill="#212a2d" fill-rule="evenodd" fill-opacity="1"></path>
<path clip-path="url(#clip422)" d="M867.661 666.012 L880.418 668.74 L893.175 670.791 L905.932 672.504 L918.69 672.929 L931.447 673.068 L944.204 672.197 L956.962 670.807 L969.719 668.362 L982.476 665.164 L986.338 663.987 L995.233 661.145 L1007.99 655.938 L1020.35 650.272 L1020.75 650.081 L1033.51 642.254 L1042.01 636.558 L1046.26 633.497 L1058.62 622.843 L1059.02 622.476 L1071.78 609.515 L1072.11 609.129 L1082.32 595.414 L1084.53 592.018 L1090.84 581.7 L1097.29 568.276 L1097.42 567.985 L1102.58 554.271 L1106.8 540.556 L1109.73 526.842 L1110.05 525.095 L1112.32 513.127 L1114.25 499.412 L1115.61 485.698 L1116.65 471.983 L1116.97 458.269 L1117.06 444.554 L1116.86 430.84 L1114.31 417.125 L1110.98 403.411 L1110.05 402.669 L1097.29 393.347 L1093.92 389.696 L1084.53 380.5 L1081.18 375.982 L1071.78 368.386 L1064.06 362.267 L1059.02 358.618 L1046.26 349.146 L1045.62 348.553 L1033.51 339.047 L1027.38 334.838 L1020.75 331.113 L1007.99 322.327 L1006.42 321.123 L995.233 310.843 L992.909 307.409 L982.476 295.545 L980.131 293.694 L969.719 284.852 L958.941 279.98 L956.962 279.217 L944.204 271.996 L934.622 266.265 L931.447 263.296 L923.513 252.551 L918.69 246.329 L910.242 238.836 L905.932 235.656 L895.808 225.122 L893.175 221.257 L883.687 211.407 L880.418 208.719 L868.155 197.693 L867.661 197.14 L858.026 183.978 L854.903 177.798 L852.083 170.264 L846.573 156.549 L842.146 151.393 L835.439 142.834 L829.389 131.474 L828.389 129.12 L828.454 115.405 L825.762 101.691 L817.536 87.9763 L816.631 87.9763 L816.631 87.9763 L803.874 87.9763 L791.117 87.9763 L778.36 87.9763 L785.109 87.9763 L778.36 93.2836 L769.883 101.691 L765.602 110.845 L763.138 115.405 L761.699 129.12 L759.603 142.834 L757.236 156.549 L754.461 170.264 L752.845 177.656 L750.786 183.978 L746.034 197.693 L741.947 211.407 L740.088 217.917 L737.648 225.122 L733.869 238.836 L730.827 252.551 L727.68 266.265 L727.33 268.556 L725.16 279.98 L722.876 293.694 L720.779 307.409 L718.929 321.123 L717.137 334.838 L715.08 348.553 L714.573 351.774 L712.733 362.267 L710.215 375.982 L707.812 389.696 L705.539 403.411 L704.558 417.125 L704.016 430.84 L704.382 444.554 L705.858 458.269 L708.123 471.983 L710.935 485.698 L714.185 499.412 L714.573 500.914 L717.917 513.127 L721.808 526.842 L726.226 540.556 L727.33 543.704 L731.023 554.271 L736.937 567.985 L740.088 574.011 L744.349 581.7 L752.845 593.889 L753.974 595.414 L765.402 609.129 L765.602 609.324 L778.36 620.933 L780.647 622.843 L791.117 630.925 L799.396 636.558 L803.874 639.344 L816.631 646.57 L824.225 650.272 L829.389 652.691 L842.146 658.053 L854.903 662.378 L860.49 663.987 L867.661 666.012  Z" fill="#45565b" fill-rule="evenodd" fill-opacity="1"></path>
<path clip-path="url(#clip422)" d="M905.932 609.658 L918.69 609.489 L925.852 609.129 L931.447 608.872 L944.204 607.515 L956.962 605.134 L969.719 600.989 L982.476 595.69 L983.02 595.414 L995.233 588.698 L1005.14 581.7 L1007.99 579.499 L1020.7 567.985 L1020.75 567.937 L1032 554.271 L1033.51 552.207 L1041.18 540.556 L1046.26 531.613 L1048.7 526.842 L1055.1 513.127 L1059.02 503.4 L1060.51 499.412 L1065.04 485.698 L1068.87 471.983 L1071.56 458.269 L1071.78 456.936 L1073.72 444.554 L1075.24 430.84 L1076.12 417.125 L1076.05 403.411 L1072.16 389.696 L1071.78 389.163 L1062.28 375.982 L1059.02 373.469 L1047.42 362.267 L1046.26 361.382 L1033.51 349.482 L1032.55 348.553 L1020.75 339.844 L1014.77 334.838 L1007.99 329.987 L996.434 321.123 L995.233 320.02 L986.698 307.409 L982.476 302.608 L971.183 293.694 L969.719 292.451 L956.962 284.587 L948.677 279.98 L944.204 277.404 L931.447 269.463 L928.701 266.265 L918.69 253.755 L917.433 252.551 L905.932 241.597 L903.642 238.836 L893.175 227.831 L889.963 225.122 L880.418 215.073 L877.052 211.407 L867.661 202.419 L862.14 197.693 L854.903 188.168 L852.552 183.978 L847.028 170.264 L842.146 160.796 L838.98 156.549 L829.389 144.252 L828.435 142.834 L822.705 129.12 L822.802 115.405 L818.763 101.691 L816.631 98.2755 L803.874 94.7348 L791.117 94.6375 L783.049 101.691 L778.36 110.465 L775.629 115.405 L774.837 129.12 L773.458 142.834 L771.76 156.549 L769.674 170.264 L767.455 183.978 L765.602 194.555 L764.898 197.693 L761.799 211.407 L758.839 225.122 L755.901 238.836 L753.221 252.551 L752.845 255.427 L751.167 266.265 L749.161 279.98 L747.349 293.694 L746.34 307.409 L745.553 321.123 L745.011 334.838 L744.894 348.553 L744.831 362.267 L744.678 375.982 L744.644 389.696 L744.729 403.411 L745.283 417.125 L746.168 430.84 L747.775 444.554 L750.35 458.269 L752.845 468.501 L753.706 471.983 L758.474 485.698 L764.047 499.412 L765.602 502.585 L771.188 513.127 L778.36 525.436 L779.244 526.842 L789.099 540.556 L791.117 543.319 L800.046 554.271 L803.874 558.549 L813.541 567.985 L816.631 570.884 L829.389 580.877 L830.581 581.7 L842.146 589.415 L854.306 595.414 L854.903 595.711 L867.661 601.045 L880.418 604.628 L893.175 607.24 L903.188 609.129 L905.932 609.658  Z" fill="#678089" fill-rule="evenodd" fill-opacity="1"></path>
<path clip-path="url(#clip422)" d="M867.661 542.502 L880.418 547.306 L893.175 550.391 L905.932 552.713 L918.69 552.38 L931.447 551.424 L944.204 548.04 L956.962 543.326 L962.21 540.556 L969.719 536.555 L982.476 527.371 L983.082 526.842 L995.233 515.649 L997.459 513.127 L1007.99 500.274 L1008.61 499.412 L1017.85 485.698 L1020.75 480.954 L1025.42 471.983 L1031.25 458.269 L1033.51 452.072 L1036.03 444.554 L1039.74 430.84 L1042.46 417.125 L1044.65 403.411 L1046.07 389.696 L1040.88 375.982 L1034.54 362.267 L1033.51 361.301 L1020.75 348.896 L1020.32 348.553 L1007.99 338.953 L1004.35 334.838 L995.233 327.836 L990.028 321.123 L982.476 310.159 L980.314 307.409 L969.719 298.463 L962.966 293.694 L956.962 289.81 L944.204 282.492 L940.175 279.98 L931.447 274.39 L924.469 266.265 L918.69 259.043 L911.918 252.551 L905.932 246.85 L899.284 238.836 L893.175 232.413 L884.532 225.122 L880.418 220.79 L871.802 211.407 L867.661 207.443 L856.272 197.693 L854.903 195.891 L848.217 183.978 L842.146 170.591 L841.894 170.264 L831.672 156.549 L829.389 153.621 L822.133 142.834 L817.021 129.12 L817.149 115.405 L816.631 113.808 L803.874 106.399 L791.117 106.14 L785.491 115.405 L785.227 129.12 L784.461 142.834 L783.399 156.549 L781.937 170.264 L780.373 183.978 L778.702 197.693 L778.36 200.35 L776.625 211.407 L774.4 225.122 L772.8 238.836 L771.093 252.551 L769.302 266.265 L768.272 279.98 L767.49 293.694 L767.269 307.409 L767.397 321.123 L767.931 334.838 L768.883 348.553 L770.135 362.267 L771.989 375.982 L774.027 389.696 L776.337 403.411 L778.36 413.843 L779.036 417.125 L782.276 430.84 L786.074 444.554 L790.836 458.269 L791.117 458.968 L796.973 471.983 L803.874 484.554 L804.553 485.698 L813.684 499.412 L816.631 503.178 L826.019 513.127 L829.389 516.484 L841.213 526.842 L842.146 527.594 L854.903 535.77 L863.893 540.556 L867.661 542.502  Z" fill="#8aacb8" fill-rule="evenodd" fill-opacity="1"></path>
<path clip-path="url(#clip422)" d="M867.661 487.302 L880.418 493.458 L893.175 497.04 L905.932 499.218 L918.69 498.598 L931.447 497.198 L944.204 492.496 L956.962 486.345 L957.901 485.698 L969.719 477.216 L975.367 471.983 L982.476 465.101 L988.234 458.269 L995.233 448.812 L997.782 444.554 L1004.87 430.84 L1007.99 423.67 L1010.51 417.125 L1014.99 403.411 L1019.03 389.696 L1020.75 382.417 L1021.8 375.982 L1022.62 362.267 L1020.75 360.442 L1007.99 350.845 L1005.96 348.553 L995.233 336.171 L994.581 334.838 L984.112 321.123 L982.476 318.749 L973.563 307.409 L969.719 304.163 L956.962 295.096 L954.908 293.694 L944.204 287.289 L932.483 279.98 L931.447 279.317 L920.238 266.265 L918.69 264.331 L906.402 252.551 L905.932 252.103 L894.927 238.836 L893.175 236.995 L880.418 226.175 L879.404 225.122 L867.661 212.366 L866.298 211.407 L854.903 201.847 L851.22 197.693 L843.883 183.978 L842.146 180.149 L834.523 170.264 L829.389 163.362 L824.284 156.549 L816.631 144.338 L803.874 144.615 L795.785 156.549 L792.849 170.264 L791.559 183.978 L791.117 189.956 L790.389 197.693 L789.295 211.407 L788.145 225.122 L786.992 238.836 L786.047 252.551 L785.295 266.265 L785.047 279.98 L785.029 293.694 L785.565 307.409 L786.562 321.123 L788.099 334.838 L790.491 348.553 L791.117 351.676 L793.322 362.267 L796.585 375.982 L800.61 389.696 L803.874 399.216 L805.446 403.411 L810.718 417.125 L816.631 430.346 L816.908 430.84 L825.221 444.554 L829.389 451.071 L834.737 458.269 L842.146 467.013 L847.575 471.983 L854.903 478.628 L865.209 485.698 L867.661 487.302  Z" fill="#acd7e5" fill-rule="evenodd" fill-opacity="1"></path>
<path clip-path="url(#clip422)" d="M880.418 445.353 L893.175 449.878 L905.932 452.685 L918.69 452.08 L931.447 450.523 L944.131 444.554 L944.204 444.52 L956.962 436.759 L963.358 430.84 L969.719 424.4 L975.35 417.125 L982.476 406.737 L984.348 403.411 L991.313 389.696 L995.233 380.607 L996.966 375.982 L1001.5 362.267 L995.233 354.945 L992.265 348.553 L986.659 334.838 L982.476 329.052 L977.366 321.123 L969.719 311.312 L966.45 307.409 L956.962 300.568 L946.892 293.694 L944.204 292.086 L931.447 284.222 L926.958 279.98 L918.69 270.169 L916.012 266.265 L905.932 256.35 L901.893 252.551 L893.175 242.025 L890.14 238.836 L880.418 230.517 L875.22 225.122 L867.661 216.91 L859.84 211.407 L854.903 207.266 L846.418 197.693 L842.146 189.499 L836.787 183.978 L829.389 173.944 L826.747 170.264 L816.86 156.549 L816.631 156.184 L815.939 156.549 L803.874 170.169 L803.833 170.264 L800.763 183.978 L800.322 197.693 L799.996 211.407 L799.703 225.122 L799.468 238.836 L799.437 252.551 L799.722 266.265 L800.324 279.98 L801.179 293.694 L802.756 307.409 L803.874 314.914 L804.862 321.123 L807.565 334.838 L811.069 348.553 L815.188 362.267 L816.631 366.048 L821.162 375.982 L827.814 389.696 L829.389 392.68 L835.951 403.411 L842.146 412.59 L846.066 417.125 L854.903 426.934 L859.458 430.84 L867.661 437.596 L879.127 444.554 L880.418 445.353  Z" fill="#bddfeb" fill-rule="evenodd" fill-opacity="1"></path>
<path clip-path="url(#clip422)" d="M880.418 404.799 L893.175 409.836 L905.932 413.088 L918.69 411.704 L931.447 409.049 L941.004 403.411 L944.204 401.453 L956.962 390.824 L957.911 389.696 L968.78 375.982 L969.719 374.665 L976.624 362.267 L978.756 348.553 L977.353 334.838 L970.302 321.123 L969.719 320.375 L958.86 307.409 L956.962 306.041 L944.204 298.214 L938.895 293.694 L931.447 289.124 L921.77 279.98 L918.69 276.324 L911.79 266.265 L905.932 260.504 L897.477 252.551 L893.175 247.357 L885.064 238.836 L880.418 234.86 L871.036 225.122 L867.661 221.455 L854.903 212.658 L853.064 211.407 L842.146 198.698 L840.097 197.693 L829.389 187.132 L827.146 183.978 L818.043 170.264 L816.631 168.298 L814.846 170.264 L809.613 183.978 L809.821 197.693 L810.058 211.407 L810.368 225.122 L811.222 238.836 L812.227 252.551 L813.313 266.265 L814.808 279.98 L816.631 293.207 L816.707 293.694 L819.676 307.409 L823.22 321.123 L827.534 334.838 L829.389 339.74 L833.198 348.553 L840.155 362.267 L842.146 365.963 L848.94 375.982 L854.903 383.549 L861.079 389.696 L867.661 395.905 L878.406 403.411 L880.418 404.799  Z" fill="#cde7ef" fill-rule="evenodd" fill-opacity="1"></path>
<path clip-path="url(#clip422)" d="M905.932 377.095 L912.794 375.982 L918.69 375.016 L931.447 371.284 L943.859 362.267 L944.204 362.025 L956.962 349.474 L957.57 348.553 L963.64 334.838 L961.123 321.123 L956.962 316.023 L948.281 307.409 L944.204 305.014 L931.447 294.446 L930.881 293.694 L918.69 282.973 L916.462 279.98 L907.567 266.265 L905.932 264.657 L893.175 252.723 L893.018 252.551 L880.418 239.374 L879.794 238.836 L867.661 226.563 L866.062 225.122 L854.903 217.966 L845.258 211.407 L842.146 207.784 L829.389 206.109 L823.732 211.407 L820.724 225.122 L822.326 238.836 L824.134 252.551 L826.432 266.265 L829.359 279.98 L829.389 280.105 L833.047 293.694 L837.298 307.409 L842.146 320.355 L842.513 321.123 L849.964 334.838 L854.903 342.873 L859.254 348.553 L867.661 358.496 L872.53 362.267 L880.418 368.217 L893.175 373.812 L901.593 375.982 L905.932 377.095  Z" fill="#deeff5" fill-rule="evenodd" fill-opacity="1"></path>
<path clip-path="url(#clip422)" d="M893.175 340.732 L905.932 344.019 L918.69 341.642 L931.447 337.871 L935.09 334.838 L944.204 326.59 L947.055 321.123 L944.204 318.408 L934.037 307.409 L931.447 305.573 L922.502 293.694 L918.69 290.341 L910.979 279.98 L905.932 271.748 L901.179 266.265 L893.175 259.388 L886.933 252.551 L880.418 245.738 L872.411 238.836 L867.661 234.031 L857.784 225.122 L854.903 223.274 L842.146 217.473 L831.537 225.122 L833.525 238.836 L835.883 252.551 L839.67 266.265 L842.146 274.185 L844.292 279.98 L849.93 293.694 L854.903 304.04 L857.079 307.409 L866.737 321.123 L867.661 322.357 L880.418 334.804 L880.493 334.838 L893.175 340.732  Z" fill="#eef7f9" fill-rule="evenodd" fill-opacity="1"></path>
<path clip-path="url(#clip422)" d="M893.175 310.751 L905.932 314.013 L912.237 307.409 L913.395 293.694 L905.932 281.27 L904.323 279.98 L893.421 266.265 L893.175 266.054 L880.847 252.551 L880.418 252.102 L867.661 243.629 L858.447 238.836 L854.903 236.453 L850.857 238.836 L848.997 252.551 L854.103 266.265 L854.903 268.224 L861.189 279.98 L867.661 290.429 L870.724 293.694 L880.418 303.882 L886.816 307.409 L893.175 310.751  Z" fill="#ffffff" fill-rule="evenodd" fill-opacity="1"></path>
<polyline clip-path="url(#clip422)" style="stroke:#000000; stroke-linecap:round; stroke-linejoin:round; stroke-width:0; stroke-opacity:1; fill:none" points="319.097,1445.72 319.097,1445.72 331.855,1445.72 344.612,1445.72 357.369,1445.72 370.126,1445.72 382.884,1445.72 395.641,1445.72 408.398,1445.72 421.156,1445.72 433.913,1445.72 446.67,1445.72 459.427,1445.72 472.185,1445.72 484.942,1445.72 497.699,1445.72 510.457,1445.72 523.214,1445.72 535.971,1445.72 548.728,1445.72 561.486,1445.72 574.243,1445.72 587,1445.72 599.758,1445.72 612.515,1445.72 625.272,1445.72 638.029,1445.72 650.787,1445.72 663.544,1445.72 676.301,1445.72 689.059,1445.72 701.816,1445.72 714.573,1445.72 727.33,1445.72 740.088,1445.72 752.845,1445.72 765.602,1445.72 778.36,1445.72 791.117,1445.72 803.874,1445.72 816.631,1445.72 829.389,1445.72 842.146,1445.72 854.903,1445.72 867.661,1445.72 880.418,1445.72 893.175,1445.72 905.932,1445.72 918.69,1445.72 931.447,1445.72 944.204,1445.72 956.962,1445.72 969.719,1445.72 982.476,1445.72 995.233,1445.72 1007.99,1445.72 1020.75,1445.72 1033.51,1445.72 1046.26,1445.72 1059.02,1445.72 1071.78,1445.72 1084.53,1445.72 1097.29,1445.72 1110.05,1445.72 1122.81,1445.72 1135.56,1445.72 1148.32,1445.72 1161.08,1445.72 1173.84,1445.72 1186.59,1445.72 1199.35,1445.72 1212.11,1445.72 1224.86,1445.72 1237.62,1445.72 1250.38,1445.72 1263.14,1445.72 1275.89,1445.72 1288.65,1445.72 1301.41,1445.72 1314.17,1445.72 1326.92,1445.72 1339.68,1445.72 1352.44,1445.72 1365.19,1445.72 1377.95,1445.72 1390.71,1445.72 1403.47,1445.72 1416.22,1445.72 1428.98,1445.72 1441.74,1445.72 1454.5,1445.72 1467.25,1445.72 1480.01,1445.72 1492.77,1445.72 1505.52,1445.72 1518.28,1445.72 1531.04,1445.72 1543.8,1445.72 1556.55,1445.72 1569.31,1445.72 1582.07,1445.72 1594.83,1445.72 1607.58,1445.72 1620.34,1445.72 1633.1,1445.72 1645.85,1445.72 1658.61,1445.72 1671.37,1445.72 1684.13,1445.72 1696.88,1445.72 1709.64,1445.72 1722.4,1445.72 1735.16,1445.72 1747.91,1445.72 1760.67,1445.72 1773.43,1445.72 1786.18,1445.72 1798.94,1445.72 1811.7,1445.72 1824.46,1445.72 1837.21,1445.72 1849.97,1445.72 1862.73,1445.72 1875.49,1445.72 1888.24,1445.72 1901,1445.72 1913.76,1445.72 1926.52,1445.72 1939.27,1445.72 1952.03,1445.72 1964.79,1445.72 1977.54,1445.72 1990.3,1445.72 2003.06,1445.72 2015.82,1445.72 2028.57,1445.72 2041.33,1445.72 2054.09,1445.72 2066.85,1445.72 2079.6,1445.72 2092.36,1445.72 2105.12,1445.72 2117.87,1445.72 2130.63,1445.72 2143.39,1445.72 2156.15,1445.72 2168.9,1445.72 2181.66,1445.72 2194.42,1445.72 2207.18,1445.72 2219.93,1445.72 2219.93,1432 2219.93,1418.29 2219.93,1404.57 2219.93,1390.86 2219.93,1377.14 2219.93,1363.43 2219.93,1349.71 2219.93,1336 2219.93,1322.28 2219.93,1308.57 2219.93,1294.86 2219.93,1281.14 2219.93,1267.43 2219.93,1253.71 2219.93,1240 2219.93,1226.28 2219.93,1212.57 2219.93,1198.85 2219.93,1185.14 2219.93,1171.42 2219.93,1157.71 2219.93,1144 2219.93,1130.28 2219.93,1116.57 2219.93,1102.85 2219.93,1089.14 2219.93,1075.42 2219.93,1061.71 2219.93,1047.99 2219.93,1034.28 2219.93,1020.56 2219.93,1006.85 2219.93,993.136 2219.93,979.421 2219.93,965.707 2219.93,951.992 2219.93,938.278 2219.93,924.563 2219.93,910.849 2219.93,897.134 2219.93,883.42 2219.93,869.705 2219.93,855.99 2219.93,842.276 2219.93,828.561 2219.93,814.847 2219.93,801.132 2219.93,787.418 2219.93,773.703 2219.93,759.989 2219.93,746.274 2219.93,732.56 2219.93,718.845 2219.93,705.131 2219.93,691.416 2219.93,677.701 2219.93,663.987 2219.93,650.272 2219.93,636.558 2219.93,622.843 2219.93,609.129 2219.93,595.414 2219.93,581.7 2219.93,567.985 2219.93,554.271 2219.93,540.556 2219.93,526.842 2219.93,513.127 2219.93,499.412 2219.93,485.698 2219.93,471.983 2219.93,458.269 2219.93,444.554 2219.93,430.84 2219.93,417.125 2219.93,403.411 2219.93,389.696 2219.93,375.982 2219.93,362.267 2219.93,348.553 2219.93,334.838 2219.93,321.123 2219.93,307.409 2219.93,293.694 2219.93,279.98 2219.93,266.265 2219.93,252.551 2219.93,238.836 2219.93,225.122 2219.93,211.407 2219.93,197.693 2219.93,183.978 2219.93,170.264 2219.93,156.549 2219.93,142.834 2219.93,129.12 2219.93,115.405 2219.93,101.691 2219.93,87.9763 2207.18,87.9763 2194.42,87.9763 2181.66,87.9763 2168.9,87.9763 2156.15,87.9763 2143.39,87.9763 2130.63,87.9763 2117.87,87.9763 2105.12,87.9763 2092.36,87.9763 2079.6,87.9763 2066.85,87.9763 2054.09,87.9763 2041.33,87.9763 2028.57,87.9763 2015.82,87.9763 2003.06,87.9763 1990.3,87.9763 1977.54,87.9763 1964.79,87.9763 1952.03,87.9763 1939.27,87.9763 1926.52,87.9763 1913.76,87.9763 1901,87.9763 1888.24,87.9763 1875.49,87.9763 1862.73,87.9763 1849.97,87.9763 1837.21,87.9763 1824.46,87.9763 1811.7,87.9763 1798.94,87.9763 1786.18,87.9763 1773.43,87.9763 1760.67,87.9763 1747.91,87.9763 1735.16,87.9763 1722.4,87.9763 1709.64,87.9763 1696.88,87.9763 1684.13,87.9763 1671.37,87.9763 1658.61,87.9763 1645.85,87.9763 1633.1,87.9763 1620.34,87.9763 1607.58,87.9763 1594.83,87.9763 1582.07,87.9763 1569.31,87.9763 1556.55,87.9763 1543.8,87.9763 1531.04,87.9763 1518.28,87.9763 1505.52,87.9763 1492.77,87.9763 1480.01,87.9763 1467.25,87.9763 1454.5,87.9763 1441.74,87.9763 1428.98,87.9763 1416.22,87.9763 1403.47,87.9763 1390.71,87.9763 1377.95,87.9763 1365.19,87.9763 1352.44,87.9763 1339.68,87.9763 1326.92,87.9763 1314.17,87.9763 1301.41,87.9763 1288.65,87.9763 1275.89,87.9763 1263.14,87.9763 1250.38,87.9763 1237.62,87.9763 1224.86,87.9763 1212.11,87.9763 1199.35,87.9763 1186.59,87.9763 1173.84,87.9763 1161.08,87.9763 1148.32,87.9763 1135.56,87.9763 1122.81,87.9763 1110.05,87.9763 1097.29,87.9763 1084.53,87.9763 1071.78,87.9763 1059.02,87.9763 1046.26,87.9763 1033.51,87.9763 1020.75,87.9763 1007.99,87.9763 995.233,87.9763 982.476,87.9763 969.719,87.9763 956.962,87.9763 944.204,87.9763 931.447,87.9763 918.69,87.9763 905.932,87.9763 893.175,87.9763 880.418,87.9763 867.661,87.9763 854.903,87.9763 842.146,87.9763 829.389,87.9763 816.631,87.9763 803.874,87.9763 791.117,87.9763 778.36,87.9763 765.602,87.9763 752.845,87.9763 740.088,87.9763 727.33,87.9763 714.573,87.9763 701.816,87.9763 689.059,87.9763 676.301,87.9763 663.544,87.9763 650.787,87.9763 638.029,87.9763 625.272,87.9763 612.515,87.9763 599.758,87.9763 587,87.9763 574.243,87.9763 561.486,87.9763 548.728,87.9763 535.971,87.9763 523.214,87.9763 510.457,87.9763 497.699,87.9763 484.942,87.9763 472.185,87.9763 459.427,87.9763 446.67,87.9763 433.913,87.9763 421.156,87.9763 408.398,87.9763 395.641,87.9763 382.884,87.9763 370.126,87.9763 357.369,87.9763 344.612,87.9763 331.855,87.9763 319.097,87.9763 319.097,101.691 319.097,115.405 319.097,129.12 319.097,142.834 319.097,156.549 319.097,170.264 319.097,183.978 319.097,197.693 319.097,211.407 319.097,225.122 319.097,238.836 319.097,252.551 319.097,266.265 319.097,279.98 319.097,293.694 319.097,307.409 319.097,321.123 319.097,334.838 319.097,348.553 319.097,362.267 319.097,375.982 319.097,389.696 319.097,403.411 319.097,417.125 319.097,430.84 319.097,444.554 319.097,458.269 319.097,471.983 319.097,485.698 319.097,499.412 319.097,513.127 319.097,526.842 319.097,540.556 319.097,554.271 319.097,567.985 319.097,581.7 319.097,595.414 319.097,609.129 319.097,622.843 319.097,636.558 319.097,650.272 319.097,663.987 319.097,677.701 319.097,691.416 319.097,705.131 319.097,718.845 319.097,732.56 319.097,746.274 319.097,759.989 319.097,773.703 319.097,787.418 319.097,801.132 319.097,814.847 319.097,828.561 319.097,842.276 319.097,855.99 319.097,869.705 319.097,883.42 319.097,897.134 319.097,910.849 319.097,924.563 319.097,938.278 319.097,951.992 319.097,965.707 319.097,979.421 319.097,993.136 319.097,1006.85 319.097,1020.56 319.097,1034.28 319.097,1047.99 319.097,1061.71 319.097,1075.42 319.097,1089.14 319.097,1102.85 319.097,1116.57 319.097,1130.28 319.097,1144 319.097,1157.71 319.097,1171.42 319.097,1185.14 319.097,1198.85 319.097,1212.57 319.097,1226.28 319.097,1240 319.097,1253.71 319.097,1267.43 319.097,1281.14 319.097,1294.86 319.097,1308.57 319.097,1322.28 319.097,1336 319.097,1349.71 319.097,1363.43 319.097,1377.14 319.097,1390.86 319.097,1404.57 319.097,1418.29 319.097,1432 319.097,1445.72 "></polyline>
<polyline clip-path="url(#clip422)" style="stroke:#000000; stroke-linecap:round; stroke-linejoin:round; stroke-width:0; stroke-opacity:1; fill:none" points="880.418,733.735 893.175,735.582 905.932,737.157 918.69,738.051 931.447,738.797 944.204,738.95 956.962,738.836 969.719,738.168 982.476,737.132 995.233,735.767 1007.99,733.692 1014.1,732.56 1020.75,731.306 1033.51,728.204 1046.26,724.657 1059.02,720.295 1062.85,718.845 1071.78,715.259 1084.53,709.285 1092.43,705.131 1097.29,702.322 1110.05,694.073 1113.82,691.416 1122.81,684.374 1130.59,677.701 1135.56,672.618 1143.52,663.987 1148.32,658.164 1154.44,650.272 1161.08,639.66 1162.98,636.558 1170.34,622.843 1173.84,615.019 1176.44,609.129 1181.22,595.414 1185.14,581.7 1186.59,574.52 1187.91,567.985 1189.84,554.271 1191.38,540.556 1191.58,526.842 1191.35,513.127 1190.34,499.412 1188.42,485.698 1186.59,474.454 1186.24,471.983 1183.91,458.269 1180.87,444.554 1177.79,430.84 1173.84,427.587 1161.08,420.303 1156.94,417.125 1148.32,411.755 1139.46,403.411 1135.56,400.629 1122.81,389.929 1122.5,389.696 1110.05,381.078 1103.94,375.982 1097.29,371.164 1084.53,362.637 1084.05,362.267 1071.78,353.121 1064.75,348.553 1059.02,345.167 1046.26,337.046 1043.26,334.838 1033.51,327.188 1020.75,322.69 1018.44,321.123 1007.99,311.348 1003.5,307.409 995.233,300.208 989.696,293.694 982.476,283.93 976.682,279.98 969.719,276.358 956.962,272.741 944.204,266.587 943.666,266.265 931.447,254.837 929.758,252.551 919.525,238.836 918.69,237.849 905.932,228.951 902.252,225.122 893.175,211.797 892.799,211.407 880.418,201.226 876.488,197.693 867.661,187.816 864.851,183.978 858.814,170.264 854.903,158.345 854.383,156.549 843.268,142.834 842.146,142.067 835.153,129.12 835.192,115.405 833.537,101.691 829.389,89.6436 828.648,87.9763 816.631,87.9763 803.874,87.9763 791.117,87.9763 778.36,87.9763 765.602,87.9763 752.845,87.9763 763.547,87.9763 752.845,99.143 750.405,101.691 743.232,115.405 741.075,129.12 740.088,133.536 737.412,142.834 732.976,156.549 727.894,170.264 727.33,171.836 720.391,183.978 714.573,196.147 713.826,197.693 708.404,211.407 704.473,225.122 701.816,234.273 700.123,238.836 696.318,252.551 693.048,266.265 689.954,279.98 689.059,284.301 686.867,293.694 682.698,307.409 678.245,321.123 676.301,326.828 672.375,334.838 665.653,348.553 663.544,353.463 659.177,362.267 653.806,375.982 650.787,387.39 650.171,389.696 647.64,403.411 646.897,417.125 646.485,430.84 646.594,444.554 646.374,458.269 645.813,471.983 644.698,485.698 643.493,499.412 641.836,513.127 642.136,526.842 643.45,540.556 646.75,554.271 650.787,566.761 651.175,567.985 656.862,581.7 663.544,594.652 663.938,595.414 672.09,609.129 676.301,615.523 681.237,622.843 689.059,632.835 692.188,636.558 701.816,647.644 704.255,650.272 714.573,659.755 719.378,663.987 727.33,670.912 736.834,677.701 740.088,679.765 752.845,688.306 757.987,691.416 765.602,695.478 778.36,702.018 784.54,705.131 791.117,708.196 803.874,713.204 816.631,718.353 818.3,718.845 829.389,721.951 842.146,725.477 854.903,728.804 867.661,731.516 873.755,732.56 880.418,733.735 "></polyline>
<polyline clip-path="url(#clip422)" style="stroke:#000000; stroke-linecap:round; stroke-linejoin:round; stroke-width:0; stroke-opacity:1; fill:none" points="867.661,666.012 880.418,668.74 893.175,670.791 905.932,672.504 918.69,672.929 931.447,673.068 944.204,672.197 956.962,670.807 969.719,668.362 982.476,665.164 986.338,663.987 995.233,661.145 1007.99,655.938 1020.35,650.272 1020.75,650.081 1033.51,642.254 1042.01,636.558 1046.26,633.497 1058.62,622.843 1059.02,622.476 1071.78,609.515 1072.11,609.129 1082.32,595.414 1084.53,592.018 1090.84,581.7 1097.29,568.276 1097.42,567.985 1102.58,554.271 1106.8,540.556 1109.73,526.842 1110.05,525.095 1112.32,513.127 1114.25,499.412 1115.61,485.698 1116.65,471.983 1116.97,458.269 1117.06,444.554 1116.86,430.84 1114.31,417.125 1110.98,403.411 1110.05,402.669 1097.29,393.347 1093.92,389.696 1084.53,380.5 1081.18,375.982 1071.78,368.386 1064.06,362.267 1059.02,358.618 1046.26,349.146 1045.62,348.553 1033.51,339.047 1027.38,334.838 1020.75,331.113 1007.99,322.327 1006.42,321.123 995.233,310.843 992.909,307.409 982.476,295.545 980.131,293.694 969.719,284.852 958.941,279.98 956.962,279.217 944.204,271.996 934.622,266.265 931.447,263.296 923.513,252.551 918.69,246.329 910.242,238.836 905.932,235.656 895.808,225.122 893.175,221.257 883.687,211.407 880.418,208.719 868.155,197.693 867.661,197.14 858.026,183.978 854.903,177.798 852.083,170.264 846.573,156.549 842.146,151.393 835.439,142.834 829.389,131.474 828.389,129.12 828.454,115.405 825.762,101.691 817.536,87.9763 816.631,87.9763 803.874,87.9763 791.117,87.9763 778.36,87.9763 785.109,87.9763 778.36,93.2836 769.883,101.691 765.602,110.845 763.138,115.405 761.699,129.12 759.603,142.834 757.236,156.549 754.461,170.264 752.845,177.656 750.786,183.978 746.034,197.693 741.947,211.407 740.088,217.917 737.648,225.122 733.869,238.836 730.827,252.551 727.68,266.265 727.33,268.556 725.16,279.98 722.876,293.694 720.779,307.409 718.929,321.123 717.137,334.838 715.08,348.553 714.573,351.774 712.733,362.267 710.215,375.982 707.812,389.696 705.539,403.411 704.558,417.125 704.016,430.84 704.382,444.554 705.858,458.269 708.123,471.983 710.935,485.698 714.185,499.412 714.573,500.914 717.917,513.127 721.808,526.842 726.226,540.556 727.33,543.704 731.023,554.271 736.937,567.985 740.088,574.011 744.349,581.7 752.845,593.889 753.974,595.414 765.402,609.129 765.602,609.324 778.36,620.933 780.647,622.843 791.117,630.925 799.396,636.558 803.874,639.344 816.631,646.57 824.225,650.272 829.389,652.691 842.146,658.053 854.903,662.378 860.49,663.987 867.661,666.012 "></polyline>
<polyline clip-path="url(#clip422)" style="stroke:#000000; stroke-linecap:round; stroke-linejoin:round; stroke-width:0; stroke-opacity:1; fill:none" points="905.932,609.658 918.69,609.489 925.852,609.129 931.447,608.872 944.204,607.515 956.962,605.134 969.719,600.989 982.476,595.69 983.02,595.414 995.233,588.698 1005.14,581.7 1007.99,579.499 1020.7,567.985 1020.75,567.937 1032,554.271 1033.51,552.207 1041.18,540.556 1046.26,531.613 1048.7,526.842 1055.1,513.127 1059.02,503.4 1060.51,499.412 1065.04,485.698 1068.87,471.983 1071.56,458.269 1071.78,456.936 1073.72,444.554 1075.24,430.84 1076.12,417.125 1076.05,403.411 1072.16,389.696 1071.78,389.163 1062.28,375.982 1059.02,373.469 1047.42,362.267 1046.26,361.382 1033.51,349.482 1032.55,348.553 1020.75,339.844 1014.77,334.838 1007.99,329.987 996.434,321.123 995.233,320.02 986.698,307.409 982.476,302.608 971.183,293.694 969.719,292.451 956.962,284.587 948.677,279.98 944.204,277.404 931.447,269.463 928.701,266.265 918.69,253.755 917.433,252.551 905.932,241.597 903.642,238.836 893.175,227.831 889.963,225.122 880.418,215.073 877.052,211.407 867.661,202.419 862.14,197.693 854.903,188.168 852.552,183.978 847.028,170.264 842.146,160.796 838.98,156.549 829.389,144.252 828.435,142.834 822.705,129.12 822.802,115.405 818.763,101.691 816.631,98.2755 803.874,94.7348 791.117,94.6375 783.049,101.691 778.36,110.465 775.629,115.405 774.837,129.12 773.458,142.834 771.76,156.549 769.674,170.264 767.455,183.978 765.602,194.555 764.898,197.693 761.799,211.407 758.839,225.122 755.901,238.836 753.221,252.551 752.845,255.427 751.167,266.265 749.161,279.98 747.349,293.694 746.34,307.409 745.553,321.123 745.011,334.838 744.894,348.553 744.831,362.267 744.678,375.982 744.644,389.696 744.729,403.411 745.283,417.125 746.168,430.84 747.775,444.554 750.35,458.269 752.845,468.501 753.706,471.983 758.474,485.698 764.047,499.412 765.602,502.585 771.188,513.127 778.36,525.436 779.244,526.842 789.099,540.556 791.117,543.319 800.046,554.271 803.874,558.549 813.541,567.985 816.631,570.884 829.389,580.877 830.581,581.7 842.146,589.415 854.306,595.414 854.903,595.711 867.661,601.045 880.418,604.628 893.175,607.24 903.188,609.129 905.932,609.658 "></polyline>
<polyline clip-path="url(#clip422)" style="stroke:#000000; stroke-linecap:round; stroke-linejoin:round; stroke-width:0; stroke-opacity:1; fill:none" points="867.661,542.502 880.418,547.306 893.175,550.391 905.932,552.713 918.69,552.38 931.447,551.424 944.204,548.04 956.962,543.326 962.21,540.556 969.719,536.555 982.476,527.371 983.082,526.842 995.233,515.649 997.459,513.127 1007.99,500.274 1008.61,499.412 1017.85,485.698 1020.75,480.954 1025.42,471.983 1031.25,458.269 1033.51,452.072 1036.03,444.554 1039.74,430.84 1042.46,417.125 1044.65,403.411 1046.07,389.696 1040.88,375.982 1034.54,362.267 1033.51,361.301 1020.75,348.896 1020.32,348.553 1007.99,338.953 1004.35,334.838 995.233,327.836 990.028,321.123 982.476,310.159 980.314,307.409 969.719,298.463 962.966,293.694 956.962,289.81 944.204,282.492 940.175,279.98 931.447,274.39 924.469,266.265 918.69,259.043 911.918,252.551 905.932,246.85 899.284,238.836 893.175,232.413 884.532,225.122 880.418,220.79 871.802,211.407 867.661,207.443 856.272,197.693 854.903,195.891 848.217,183.978 842.146,170.591 841.894,170.264 831.672,156.549 829.389,153.621 822.133,142.834 817.021,129.12 817.149,115.405 816.631,113.808 803.874,106.399 791.117,106.14 785.491,115.405 785.227,129.12 784.461,142.834 783.399,156.549 781.937,170.264 780.373,183.978 778.702,197.693 778.36,200.35 776.625,211.407 774.4,225.122 772.8,238.836 771.093,252.551 769.302,266.265 768.272,279.98 767.49,293.694 767.269,307.409 767.397,321.123 767.931,334.838 768.883,348.553 770.135,362.267 771.989,375.982 774.027,389.696 776.337,403.411 778.36,413.843 779.036,417.125 782.276,430.84 786.074,444.554 790.836,458.269 791.117,458.968 796.973,471.983 803.874,484.554 804.553,485.698 813.684,499.412 816.631,503.178 826.019,513.127 829.389,516.484 841.213,526.842 842.146,527.594 854.903,535.77 863.893,540.556 867.661,542.502 "></polyline>
<polyline clip-path="url(#clip422)" style="stroke:#000000; stroke-linecap:round; stroke-linejoin:round; stroke-width:0; stroke-opacity:1; fill:none" points="867.661,487.302 880.418,493.458 893.175,497.04 905.932,499.218 918.69,498.598 931.447,497.198 944.204,492.496 956.962,486.345 957.901,485.698 969.719,477.216 975.367,471.983 982.476,465.101 988.234,458.269 995.233,448.812 997.782,444.554 1004.87,430.84 1007.99,423.67 1010.51,417.125 1014.99,403.411 1019.03,389.696 1020.75,382.417 1021.8,375.982 1022.62,362.267 1020.75,360.442 1007.99,350.845 1005.96,348.553 995.233,336.171 994.581,334.838 984.112,321.123 982.476,318.749 973.563,307.409 969.719,304.163 956.962,295.096 954.908,293.694 944.204,287.289 932.483,279.98 931.447,279.317 920.238,266.265 918.69,264.331 906.402,252.551 905.932,252.103 894.927,238.836 893.175,236.995 880.418,226.175 879.404,225.122 867.661,212.366 866.298,211.407 854.903,201.847 851.22,197.693 843.883,183.978 842.146,180.149 834.523,170.264 829.389,163.362 824.284,156.549 816.631,144.338 803.874,144.615 795.785,156.549 792.849,170.264 791.559,183.978 791.117,189.956 790.389,197.693 789.295,211.407 788.145,225.122 786.992,238.836 786.047,252.551 785.295,266.265 785.047,279.98 785.029,293.694 785.565,307.409 786.562,321.123 788.099,334.838 790.491,348.553 791.117,351.676 793.322,362.267 796.585,375.982 800.61,389.696 803.874,399.216 805.446,403.411 810.718,417.125 816.631,430.346 816.908,430.84 825.221,444.554 829.389,451.071 834.737,458.269 842.146,467.013 847.575,471.983 854.903,478.628 865.209,485.698 867.661,487.302 "></polyline>
<polyline clip-path="url(#clip422)" style="stroke:#000000; stroke-linecap:round; stroke-linejoin:round; stroke-width:0; stroke-opacity:1; fill:none" points="880.418,445.353 893.175,449.878 905.932,452.685 918.69,452.08 931.447,450.523 944.131,444.554 944.204,444.52 956.962,436.759 963.358,430.84 969.719,424.4 975.35,417.125 982.476,406.737 984.348,403.411 991.313,389.696 995.233,380.607 996.966,375.982 1001.5,362.267 995.233,354.945 992.265,348.553 986.659,334.838 982.476,329.052 977.366,321.123 969.719,311.312 966.45,307.409 956.962,300.568 946.892,293.694 944.204,292.086 931.447,284.222 926.958,279.98 918.69,270.169 916.012,266.265 905.932,256.35 901.893,252.551 893.175,242.025 890.14,238.836 880.418,230.517 875.22,225.122 867.661,216.91 859.84,211.407 854.903,207.266 846.418,197.693 842.146,189.499 836.787,183.978 829.389,173.944 826.747,170.264 816.86,156.549 816.631,156.184 815.939,156.549 803.874,170.169 803.833,170.264 800.763,183.978 800.322,197.693 799.996,211.407 799.703,225.122 799.468,238.836 799.437,252.551 799.722,266.265 800.324,279.98 801.179,293.694 802.756,307.409 803.874,314.914 804.862,321.123 807.565,334.838 811.069,348.553 815.188,362.267 816.631,366.048 821.162,375.982 827.814,389.696 829.389,392.68 835.951,403.411 842.146,412.59 846.066,417.125 854.903,426.934 859.458,430.84 867.661,437.596 879.127,444.554 880.418,445.353 "></polyline>
<polyline clip-path="url(#clip422)" style="stroke:#000000; stroke-linecap:round; stroke-linejoin:round; stroke-width:0; stroke-opacity:1; fill:none" points="880.418,404.799 893.175,409.836 905.932,413.088 918.69,411.704 931.447,409.049 941.004,403.411 944.204,401.453 956.962,390.824 957.911,389.696 968.78,375.982 969.719,374.665 976.624,362.267 978.756,348.553 977.353,334.838 970.302,321.123 969.719,320.375 958.86,307.409 956.962,306.041 944.204,298.214 938.895,293.694 931.447,289.124 921.77,279.98 918.69,276.324 911.79,266.265 905.932,260.504 897.477,252.551 893.175,247.357 885.064,238.836 880.418,234.86 871.036,225.122 867.661,221.455 854.903,212.658 853.064,211.407 842.146,198.698 840.097,197.693 829.389,187.132 827.146,183.978 818.043,170.264 816.631,168.298 814.846,170.264 809.613,183.978 809.821,197.693 810.058,211.407 810.368,225.122 811.222,238.836 812.227,252.551 813.313,266.265 814.808,279.98 816.631,293.207 816.707,293.694 819.676,307.409 823.22,321.123 827.534,334.838 829.389,339.74 833.198,348.553 840.155,362.267 842.146,365.963 848.94,375.982 854.903,383.549 861.079,389.696 867.661,395.905 878.406,403.411 880.418,404.799 "></polyline>
<polyline clip-path="url(#clip422)" style="stroke:#000000; stroke-linecap:round; stroke-linejoin:round; stroke-width:0; stroke-opacity:1; fill:none" points="905.932,377.095 912.794,375.982 918.69,375.016 931.447,371.284 943.859,362.267 944.204,362.025 956.962,349.474 957.57,348.553 963.64,334.838 961.123,321.123 956.962,316.023 948.281,307.409 944.204,305.014 931.447,294.446 930.881,293.694 918.69,282.973 916.462,279.98 907.567,266.265 905.932,264.657 893.175,252.723 893.018,252.551 880.418,239.374 879.794,238.836 867.661,226.563 866.062,225.122 854.903,217.966 845.258,211.407 842.146,207.784 829.389,206.109 823.732,211.407 820.724,225.122 822.326,238.836 824.134,252.551 826.432,266.265 829.359,279.98 829.389,280.105 833.047,293.694 837.298,307.409 842.146,320.355 842.513,321.123 849.964,334.838 854.903,342.873 859.254,348.553 867.661,358.496 872.53,362.267 880.418,368.217 893.175,373.812 901.593,375.982 905.932,377.095 "></polyline>
<polyline clip-path="url(#clip422)" style="stroke:#000000; stroke-linecap:round; stroke-linejoin:round; stroke-width:0; stroke-opacity:1; fill:none" points="893.175,340.732 905.932,344.019 918.69,341.642 931.447,337.871 935.09,334.838 944.204,326.59 947.055,321.123 944.204,318.408 934.037,307.409 931.447,305.573 922.502,293.694 918.69,290.341 910.979,279.98 905.932,271.748 901.179,266.265 893.175,259.388 886.933,252.551 880.418,245.738 872.411,238.836 867.661,234.031 857.784,225.122 854.903,223.274 842.146,217.473 831.537,225.122 833.525,238.836 835.883,252.551 839.67,266.265 842.146,274.185 844.292,279.98 849.93,293.694 854.903,304.04 857.079,307.409 866.737,321.123 867.661,322.357 880.418,334.804 880.493,334.838 893.175,340.732 "></polyline>
<polyline clip-path="url(#clip422)" style="stroke:#000000; stroke-linecap:round; stroke-linejoin:round; stroke-width:0; stroke-opacity:1; fill:none" points="893.175,310.751 905.932,314.013 912.237,307.409 913.395,293.694 905.932,281.27 904.323,279.98 893.421,266.265 893.175,266.054 880.847,252.551 880.418,252.102 867.661,243.629 858.447,238.836 854.903,236.453 850.857,238.836 848.997,252.551 854.103,266.265 854.903,268.224 861.189,279.98 867.661,290.429 870.724,293.694 880.418,303.882 886.816,307.409 893.175,310.751 "></polyline>
<polyline clip-path="url(#clip422)" style="stroke:#808080; stroke-linecap:round; stroke-linejoin:round; stroke-width:8; stroke-opacity:1; fill:none" points="1479.24,89.9553 1483.29,91.9913 1487.31,94.0404 1491.31,96.1025 1495.28,98.1774 1499.24,100.265 1503.17,102.365 1507.08,104.476 1510.96,106.6 1514.82,108.736 1518.65,110.883 1522.46,113.041 1526.25,115.211 1530.01,117.391 1533.74,119.582 1537.45,121.783 1541.13,123.995 1544.78,126.216 1548.41,128.447 1552.01,130.688 1555.58,132.938 1559.12,135.197 1562.63,137.465 1566.11,139.742 1569.56,142.027 1572.99,144.32 1576.38,146.621 1579.74,148.93 1583.07,151.246 1586.37,153.57 1589.64,155.901 1592.87,158.238 1596.08,160.582 1599.25,162.932 1602.39,165.289 1605.49,167.651 1608.56,170.019 1611.6,172.392 1614.6,174.77 1617.57,177.153 1620.5,179.541 1623.4,181.934 1626.26,184.33 1629.09,186.73 1631.88,189.135 1634.64,191.542 1637.36,193.953 1640.04,196.367 1642.68,198.783 1645.29,201.202 1647.86,203.623 1650.39,206.047 1652.89,208.472 1655.34,210.898 1657.76,213.326 1660.14,215.755 1662.48,218.185 1664.78,220.615 1667.04,223.046 1669.26,225.476 1671.44,227.907 1673.58,230.337 1675.68,232.766 1677.74,235.195 1679.76,237.622 1681.73,240.048 1683.67,242.472 1685.56,244.895 1687.42,247.315 1689.23,249.733 1691,252.149 1692.73,254.561 1694.41,256.971 1696.05,259.377 1697.65,261.779 1699.21,264.178 1700.72,266.573 1702.2,268.963 1703.62,271.349 1705.01,273.731 1706.35,276.107 1707.65,278.478 1708.9,280.843 1710.11,283.203 1711.27,285.557 1712.39,287.904 1713.47,290.246 1714.5,292.58 1715.49,294.908 1716.44,297.228 1717.33,299.542 1718.19,301.847 1719,304.145 1719.76,306.435 1720.48,308.716 1721.15,310.99 1721.78,313.254 1722.37,315.509 1722.9,317.755 1723.4,319.992 1723.84,322.219 1724.25,324.437 1724.6,326.644 1724.91,328.841 1725.18,331.027 1725.4,333.203 1725.57,335.368 1725.7,337.521 1725.79,339.664 1725.82,341.794 1725.82,343.913 1725.76,346.02 1725.66,348.115 1725.52,350.197 1725.33,352.266 1725.09,354.323 1724.81,356.366 1724.48,358.397 1724.11,360.414 1723.69,362.417 1723.23,364.406 1722.72,366.382 1722.16,368.343 1721.57,370.289 1720.92,372.221 1720.23,374.138 1719.5,376.04 1718.72,377.927 1717.89,379.798 1717.02,381.654 1716.11,383.494 1715.15,385.318 1714.14,387.126 1713.1,388.917 1712,390.692 1710.87,392.451 1709.69,394.192 1708.46,395.917 1707.19,397.624 1705.88,399.313 1704.52,400.986 1703.12,402.64 1701.68,404.277 1700.19,405.895 1698.66,407.496 1697.09,409.078 1695.48,410.641 1693.82,412.186 1692.12,413.712 1690.38,415.219 1688.59,416.707 1686.77,418.175 1684.9,419.624 1682.99,421.053 1681.04,422.463 1679.05,423.853 1677.01,425.223 1674.94,426.573 1672.83,427.902 1670.67,429.211 1668.48,430.499 1666.24,431.767 1663.97,433.014 1661.65,434.24 1659.3,435.445 1656.91,436.629 1654.48,437.791 1652.01,438.933 1649.5,440.052 1646.96,441.15 1644.37,442.226 1641.75,443.281 1639.09,444.313 1636.4,445.324 1633.67,446.312 1630.9,447.278 1628.1,448.221 1625.26,449.143 1622.38,450.041 1619.47,450.917 1616.52,451.771 1613.54,452.601 1610.53,453.409 1607.48,454.193 1604.4,454.955 1601.28,455.693 1598.13,456.409 1594.95,457.101 1591.73,457.769 1588.49,458.415 1585.21,459.036 1581.9,459.635 1578.55,460.209 1575.18,460.76 1571.78,461.288 1568.35,461.791 1564.88,462.271 1561.39,462.727 1557.87,463.159 1554.32,463.567 1550.74,463.951 1547.13,464.311 1543.49,464.647 1539.83,464.959 1536.14,465.247 1532.43,465.511 1528.68,465.75 1524.91,465.966 1521.12,466.157 1517.3,466.324 1513.46,466.466 1509.59,466.584 1505.7,466.679 1501.78,466.748 1497.84,466.794 1493.88,466.815 1489.89,466.812 1485.89,466.784 1481.86,466.732 1477.81,466.656 1473.74,466.556 1469.65,466.431 1465.54,466.282 1461.41,466.109 1457.26,465.912 1453.09,465.69 1448.9,465.444 1444.7,465.174 1440.48,464.88 1436.24,464.562 1431.98,464.22 1427.71,463.853 1423.42,463.463 1419.12,463.049 1414.8,462.61 1410.47,462.148 1406.12,461.662 1401.76,461.152 1397.38,460.619 1393,460.062 1388.6,459.481 1384.19,458.876 1379.77,458.248 1375.33,457.597 1370.89,456.922 1366.43,456.224 1361.97,455.503 1357.5,454.758 1353.02,453.991 1348.53,453.2 1344.03,452.386 1339.52,451.55 1335.01,450.691 1330.49,449.809 1325.97,448.904 1321.43,447.977 1316.9,447.028 1312.36,446.056 1307.81,445.062 1303.26,444.046 1298.71,443.008 1294.16,441.948 1289.6,440.866 1285.04,439.762 1280.48,438.637 1275.92,437.49 1271.35,436.322 1266.79,435.133 1262.23,433.922 1257.66,432.691 1253.1,431.438 1248.54,430.165 1243.99,428.871 1239.43,427.557 1234.88,426.222 1230.33,424.867 1225.79,423.492 1221.25,422.097 1216.71,420.682 1212.18,419.248 1207.66,417.794 1203.14,416.32 1198.63,414.827 1194.13,413.315 1189.63,411.784 1185.14,410.235 1180.66,408.667 1176.19,407.08 1171.73,405.475 1167.28,403.851 1162.83,402.21 1158.4,400.551 1153.98,398.874 1149.57,397.18 1145.18,395.468 1140.79,393.739 1136.42,391.993 1132.06,390.231 1127.72,388.451 1123.39,386.656 1119.07,384.843 1114.77,383.015 1110.49,381.171 1106.22,379.311 1101.97,377.436 1097.73,375.545 1093.51,373.639 1089.31,371.718 1085.13,369.782 1080.96,367.832 1076.82,365.867 1072.69,363.888 1068.58,361.895 1064.5,359.889 1060.43,357.868 1056.39,355.834 1052.36,353.787 1048.36,351.727 1044.38,349.654 1040.42,347.569 1036.49,345.471 1032.58,343.361 1028.69,341.239 1024.82,339.106 1020.98,336.96 1017.17,334.804 1013.38,332.636 1009.62,330.458 1005.88,328.268 1002.17,326.069 998.484,323.859 994.827,321.639 991.197,319.409 987.595,317.17 984.021,314.921 980.476,312.664 976.959,310.397 973.472,308.122 970.014,305.838 966.587,303.546 963.189,301.246 959.823,298.939 956.487,296.623 953.183,294.301 949.91,291.971 946.669,289.635 943.46,287.292 940.284,284.943 937.141,282.587 934.032,280.226 930.955,277.859 927.913,275.487 924.905,273.109 921.931,270.727 918.992,268.34 916.088,265.948 913.219,263.552 910.386,261.153 907.589,258.749 904.828,256.342 902.104,253.932 899.416,251.518 896.766,249.102 894.152,246.684 891.576,244.263 889.038,241.84 886.538,239.415 884.077,236.989 881.653,234.561 879.269,232.132 876.924,229.703 874.618,227.272 872.351,224.842 870.124,222.411 867.937,219.981 865.79,217.551 863.684,215.121 861.618,212.692 859.593,210.265 857.609,207.839 855.666,205.414 853.765,202.991 851.905,200.571 850.087,198.152 848.31,195.736 846.576,193.323 844.884,190.913 843.235,188.507 841.628,186.103 840.064,183.704 838.543,181.309 837.066,178.917 835.631,176.531 834.24,174.149 832.892,171.772 831.588,169.4 830.328,167.034 829.111,164.673 827.939,162.318 826.811,159.97 825.727,157.627 824.687,155.292 823.692,152.963 822.742,150.641 821.836,148.327 820.975,146.02 820.159,143.721 819.388,141.43 818.662,139.147 817.981,136.872 817.345,134.607 816.754,132.35 816.209,130.102 815.708,127.864 815.254,125.635 814.844,123.416 814.48,121.207 814.162,119.009 813.889,116.821 813.662,114.643 813.48,112.477 813.344,110.321 813.254,108.177 813.209,106.045 813.21,103.924 813.256,101.815 813.348,99.7187 813.486,97.6345 813.669,95.563 813.898,93.5042 814.173,91.4585 814.493,89.4261 "></polyline>
</svg>