<?xml version="1.0" encoding="utf-8"?>
<svg xmlns="http://www.w3.org/2000/svg" xmlns:xlink="http://www.w3.org/1999/xlink" width="600" height="400" viewBox="0 0 2400 1600">
<defs>
  <clipPath id="clip300">
    <rect x="0" y="0" width="2400" height="1600"/>
  </clipPath>
</defs>
<path clip-path="url(#clip300)" d="M0 1600 L2400 1600 L2400 0 L0 0  Z" fill="#ffffff" fill-rule="evenodd" fill-opacity="1"/>
<defs>
  <clipPath id="clip301">
    <rect x="480" y="0" width="1681" height="1600"/>
  </clipPath>
</defs>
<path clip-path="url(#clip300)" d="M186.274 1486.45 L2352.76 1486.45 L2352.76 47.2441 L186.274 47.2441  Z" fill="#ffffff" fill-rule="evenodd" fill-opacity="1"/>
<defs>
  <clipPath id="clip302">
    <rect x="186" y="47" width="2167" height="1440"/>
  </clipPath>
</defs>
<polyline clip-path="url(#clip302)" style="stroke:#000000; stroke-linecap:round; stroke-linejoin:round; stroke-width:2; stroke-opacity:0.1; fill:none" points="195.183,1486.45 195.183,47.2441 "/>
<polyline clip-path="url(#clip302)" style="stroke:#000000; stroke-linecap:round; stroke-linejoin:round; stroke-width:2; stroke-opacity:0.1; fill:none" points="719.247,1486.45 719.247,47.2441 "/>
<polyline clip-path="url(#clip302)" style="stroke:#000000; stroke-linecap:round; stroke-linejoin:round; stroke-width:2; stroke-opacity:0.1; fill:none" points="1243.31,1486.45 1243.31,47.2441 "/>
<polyline clip-path="url(#clip302)" style="stroke:#000000; stroke-linecap:round; stroke-linejoin:round; stroke-width:2; stroke-opacity:0.1; fill:none" points="1767.38,1486.45 1767.38,47.2441 "/>
<polyline clip-path="url(#clip302)" style="stroke:#000000; stroke-linecap:round; stroke-linejoin:round; stroke-width:2; stroke-opacity:0.1; fill:none" points="2291.44,1486.45 2291.44,47.2441 "/>
<polyline clip-path="url(#clip300)" style="stroke:#000000; stroke-linecap:round; stroke-linejoin:round; stroke-width:4; stroke-opacity:1; fill:none" points="186.274,1486.45 2352.76,1486.45 "/>
<polyline clip-path="url(#clip300)" style="stroke:#000000; stroke-linecap:round; stroke-linejoin:round; stroke-width:4; stroke-opacity:1; fill:none" points="195.183,1486.45 195.183,1467.55 "/>
<polyline clip-path="url(#clip300)" style="stroke:#000000; stroke-linecap:round; stroke-linejoin:round; stroke-width:4; stroke-opacity:1; fill:none" points="719.247,1486.45 719.247,1467.55 "/>
<polyline clip-path="url(#clip300)" style="stroke:#000000; stroke-linecap:round; stroke-linejoin:round; stroke-width:4; stroke-opacity:1; fill:none" points="1243.31,1486.45 1243.31,1467.55 "/>
<polyline clip-path="url(#clip300)" style="stroke:#000000; stroke-linecap:round; stroke-linejoin:round; stroke-width:4; stroke-opacity:1; fill:none" points="1767.38,1486.45 1767.38,1467.55 "/>
<polyline clip-path="url(#clip300)" style="stroke:#000000; stroke-linecap:round; stroke-linejoin:round; stroke-width:4; stroke-opacity:1; fill:none" points="2291.44,1486.45 2291.44,1467.55 "/>
<path clip-path="url(#clip300)" d="M195.183 1517.37 Q191.572 1517.37 189.743 1520.93 Q187.938 1524.47 187.938 1531.6 Q187.938 1538.71 189.743 1542.27 Q191.572 1545.82 195.183 1545.82 Q198.817 1545.82 200.623 1542.27 Q202.452 1538.71 202.452 1531.6 Q202.452 1524.47 200.623 1520.93 Q198.817 1517.37 195.183 1517.37 M195.183 1513.66 Q200.993 1513.66 204.049 1518.27 Q207.127 1522.85 207.127 1531.6 Q207.127 1540.33 204.049 1544.94 Q200.993 1549.52 195.183 1549.52 Q189.373 1549.52 186.294 1544.94 Q183.239 1540.33 183.239 1531.6 Q183.239 1522.85 186.294 1518.27 Q189.373 1513.66 195.183 1513.66 Z" fill="#000000" fill-rule="nonzero" fill-opacity="1" /><path clip-path="url(#clip300)" d="M693.935 1544.91 L701.574 1544.91 L701.574 1518.55 L693.264 1520.21 L693.264 1515.95 L701.528 1514.29 L706.204 1514.29 L706.204 1544.91 L713.842 1544.91 L713.842 1548.85 L693.935 1548.85 L693.935 1544.91 Z" fill="#000000" fill-rule="nonzero" fill-opacity="1" /><path clip-path="url(#clip300)" d="M733.287 1517.37 Q729.676 1517.37 727.847 1520.93 Q726.041 1524.47 726.041 1531.6 Q726.041 1538.71 727.847 1542.27 Q729.676 1545.82 733.287 1545.82 Q736.921 1545.82 738.726 1542.27 Q740.555 1538.71 740.555 1531.6 Q740.555 1524.47 738.726 1520.93 Q736.921 1517.37 733.287 1517.37 M733.287 1513.66 Q739.097 1513.66 742.152 1518.27 Q745.231 1522.85 745.231 1531.6 Q745.231 1540.33 742.152 1544.94 Q739.097 1549.52 733.287 1549.52 Q727.477 1549.52 724.398 1544.94 Q721.342 1540.33 721.342 1531.6 Q721.342 1522.85 724.398 1518.27 Q727.477 1513.66 733.287 1513.66 Z" fill="#000000" fill-rule="nonzero" fill-opacity="1" /><path clip-path="url(#clip300)" d="M1222.08 1544.91 L1238.4 1544.91 L1238.4 1548.85 L1216.46 1548.85 L1216.46 1544.91 Q1219.12 1542.16 1223.71 1537.53 Q1228.31 1532.88 1229.49 1531.53 Q1231.74 1529.01 1232.62 1527.27 Q1233.52 1525.51 1233.52 1523.82 Q1233.52 1521.07 1231.58 1519.33 Q1229.65 1517.6 1226.55 1517.6 Q1224.35 1517.6 1221.9 1518.36 Q1219.47 1519.13 1216.69 1520.68 L1216.69 1515.95 Q1219.52 1514.82 1221.97 1514.24 Q1224.42 1513.66 1226.46 1513.66 Q1231.83 1513.66 1235.02 1516.35 Q1238.22 1519.03 1238.22 1523.52 Q1238.22 1525.65 1237.41 1527.57 Q1236.62 1529.47 1234.52 1532.07 Q1233.94 1532.74 1230.83 1535.95 Q1227.73 1539.15 1222.08 1544.91 Z" fill="#000000" fill-rule="nonzero" fill-opacity="1" /><path clip-path="url(#clip300)" d="M1258.22 1517.37 Q1254.61 1517.37 1252.78 1520.93 Q1250.97 1524.47 1250.97 1531.6 Q1250.97 1538.71 1252.78 1542.27 Q1254.61 1545.82 1258.22 1545.82 Q1261.85 1545.82 1263.66 1542.27 Q1265.49 1538.71 1265.49 1531.6 Q1265.49 1524.47 1263.66 1520.93 Q1261.85 1517.37 1258.22 1517.37 M1258.22 1513.66 Q1264.03 1513.66 1267.08 1518.27 Q1270.16 1522.85 1270.16 1531.6 Q1270.16 1540.33 1267.08 1544.94 Q1264.03 1549.52 1258.22 1549.52 Q1252.41 1549.52 1249.33 1544.94 Q1246.27 1540.33 1246.27 1531.6 Q1246.27 1522.85 1249.33 1518.27 Q1252.41 1513.66 1258.22 1513.66 Z" fill="#000000" fill-rule="nonzero" fill-opacity="1" /><path clip-path="url(#clip300)" d="M1756.22 1530.21 Q1759.58 1530.93 1761.45 1533.2 Q1763.35 1535.47 1763.35 1538.8 Q1763.35 1543.92 1759.83 1546.72 Q1756.31 1549.52 1749.83 1549.52 Q1747.65 1549.52 1745.34 1549.08 Q1743.05 1548.66 1740.59 1547.81 L1740.59 1543.29 Q1742.54 1544.43 1744.85 1545.01 Q1747.17 1545.58 1749.69 1545.58 Q1754.09 1545.58 1756.38 1543.85 Q1758.7 1542.11 1758.7 1538.8 Q1758.7 1535.75 1756.54 1534.03 Q1754.41 1532.3 1750.59 1532.3 L1746.57 1532.3 L1746.57 1528.45 L1750.78 1528.45 Q1754.23 1528.45 1756.06 1527.09 Q1757.89 1525.7 1757.89 1523.11 Q1757.89 1520.45 1755.99 1519.03 Q1754.11 1517.6 1750.59 1517.6 Q1748.67 1517.6 1746.47 1518.01 Q1744.27 1518.43 1741.64 1519.31 L1741.64 1515.14 Q1744.3 1514.4 1746.61 1514.03 Q1748.95 1513.66 1751.01 1513.66 Q1756.33 1513.66 1759.44 1516.09 Q1762.54 1518.5 1762.54 1522.62 Q1762.54 1525.49 1760.89 1527.48 Q1759.25 1529.45 1756.22 1530.21 Z" fill="#000000" fill-rule="nonzero" fill-opacity="1" /><path clip-path="url(#clip300)" d="M1782.21 1517.37 Q1778.6 1517.37 1776.77 1520.93 Q1774.97 1524.47 1774.97 1531.6 Q1774.97 1538.71 1776.77 1542.27 Q1778.6 1545.82 1782.21 1545.82 Q1785.85 1545.82 1787.65 1542.27 Q1789.48 1538.71 1789.48 1531.6 Q1789.48 1524.47 1787.65 1520.93 Q1785.85 1517.37 1782.21 1517.37 M1782.21 1513.66 Q1788.02 1513.66 1791.08 1518.27 Q1794.16 1522.85 1794.16 1531.6 Q1794.16 1540.33 1791.08 1544.94 Q1788.02 1549.52 1782.21 1549.52 Q1776.4 1549.52 1773.33 1544.94 Q1770.27 1540.33 1770.27 1531.6 Q1770.27 1522.85 1773.33 1518.27 Q1776.4 1513.66 1782.21 1513.66 Z" fill="#000000" fill-rule="nonzero" fill-opacity="1" /><path clip-path="url(#clip300)" d="M2279.61 1518.36 L2267.81 1536.81 L2279.61 1536.81 L2279.61 1518.36 M2278.38 1514.29 L2284.26 1514.29 L2284.26 1536.81 L2289.2 1536.81 L2289.2 1540.7 L2284.26 1540.7 L2284.26 1548.85 L2279.61 1548.85 L2279.61 1540.7 L2264.01 1540.7 L2264.01 1536.19 L2278.38 1514.29 Z" fill="#000000" fill-rule="nonzero" fill-opacity="1" /><path clip-path="url(#clip300)" d="M2306.93 1517.37 Q2303.32 1517.37 2301.49 1520.93 Q2299.68 1524.47 2299.68 1531.6 Q2299.68 1538.71 2301.49 1542.27 Q2303.32 1545.82 2306.93 1545.82 Q2310.56 1545.82 2312.37 1542.27 Q2314.19 1538.71 2314.19 1531.6 Q2314.19 1524.47 2312.37 1520.93 Q2310.56 1517.37 2306.93 1517.37 M2306.93 1513.66 Q2312.74 1513.66 2315.79 1518.27 Q2318.87 1522.85 2318.87 1531.6 Q2318.87 1540.33 2315.79 1544.94 Q2312.74 1549.52 2306.93 1549.52 Q2301.12 1549.52 2298.04 1544.94 Q2294.98 1540.33 2294.98 1531.6 Q2294.98 1522.85 2298.04 1518.27 Q2301.12 1513.66 2306.93 1513.66 Z" fill="#000000" fill-rule="nonzero" fill-opacity="1" /><polyline clip-path="url(#clip302)" style="stroke:#000000; stroke-linecap:round; stroke-linejoin:round; stroke-width:2; stroke-opacity:0.1; fill:none" points="186.274,1444.96 2352.76,1444.96 "/>
<polyline clip-path="url(#clip302)" style="stroke:#000000; stroke-linecap:round; stroke-linejoin:round; stroke-width:2; stroke-opacity:0.1; fill:none" points="186.274,1105.77 2352.76,1105.77 "/>
<polyline clip-path="url(#clip302)" style="stroke:#000000; stroke-linecap:round; stroke-linejoin:round; stroke-width:2; stroke-opacity:0.1; fill:none" points="186.274,766.593 2352.76,766.593 "/>
<polyline clip-path="url(#clip302)" style="stroke:#000000; stroke-linecap:round; stroke-linejoin:round; stroke-width:2; stroke-opacity:0.1; fill:none" points="186.274,427.412 2352.76,427.412 "/>
<polyline clip-path="url(#clip302)" style="stroke:#000000; stroke-linecap:round; stroke-linejoin:round; stroke-width:2; stroke-opacity:0.1; fill:none" points="186.274,88.2311 2352.76,88.2311 "/>
<polyline clip-path="url(#clip300)" style="stroke:#000000; stroke-linecap:round; stroke-linejoin:round; stroke-width:4; stroke-opacity:1; fill:none" points="186.274,1486.45 186.274,47.2441 "/>
<polyline clip-path="url(#clip300)" style="stroke:#000000; stroke-linecap:round; stroke-linejoin:round; stroke-width:4; stroke-opacity:1; fill:none" points="186.274,1444.96 205.172,1444.96 "/>
<polyline clip-path="url(#clip300)" style="stroke:#000000; stroke-linecap:round; stroke-linejoin:round; stroke-width:4; stroke-opacity:1; fill:none" points="186.274,1105.77 205.172,1105.77 "/>
<polyline clip-path="url(#clip300)" style="stroke:#000000; stroke-linecap:round; stroke-linejoin:round; stroke-width:4; stroke-opacity:1; fill:none" points="186.274,766.593 205.172,766.593 "/>
<polyline clip-path="url(#clip300)" style="stroke:#000000; stroke-linecap:round; stroke-linejoin:round; stroke-width:4; stroke-opacity:1; fill:none" points="186.274,427.412 205.172,427.412 "/>
<polyline clip-path="url(#clip300)" style="stroke:#000000; stroke-linecap:round; stroke-linejoin:round; stroke-width:4; stroke-opacity:1; fill:none" points="186.274,88.2311 205.172,88.2311 "/>
<path clip-path="url(#clip300)" d="M62.9365 1430.75 Q59.3254 1430.75 57.4967 1434.32 Q55.6912 1437.86 55.6912 1444.99 Q55.6912 1452.1 57.4967 1455.66 Q59.3254 1459.2 62.9365 1459.2 Q66.5707 1459.2 68.3763 1455.66 Q70.205 1452.1 70.205 1444.99 Q70.205 1437.86 68.3763 1434.32 Q66.5707 1430.75 62.9365 1430.75 M62.9365 1427.05 Q68.7467 1427.05 71.8022 1431.66 Q74.8809 1436.24 74.8809 1444.99 Q74.8809 1453.72 71.8022 1458.32 Q68.7467 1462.91 62.9365 1462.91 Q57.1264 1462.91 54.0477 1458.32 Q50.9921 1453.72 50.9921 1444.99 Q50.9921 1436.24 54.0477 1431.66 Q57.1264 1427.05 62.9365 1427.05 Z" fill="#000000" fill-rule="nonzero" fill-opacity="1" /><path clip-path="url(#clip300)" d="M83.0984 1456.36 L87.9827 1456.36 L87.9827 1462.24 L83.0984 1462.24 L83.0984 1456.36 Z" fill="#000000" fill-rule="nonzero" fill-opacity="1" /><path clip-path="url(#clip300)" d="M108.168 1430.75 Q104.557 1430.75 102.728 1434.32 Q100.922 1437.86 100.922 1444.99 Q100.922 1452.1 102.728 1455.66 Q104.557 1459.2 108.168 1459.2 Q111.802 1459.2 113.608 1455.66 Q115.436 1452.1 115.436 1444.99 Q115.436 1437.86 113.608 1434.32 Q111.802 1430.75 108.168 1430.75 M108.168 1427.05 Q113.978 1427.05 117.033 1431.66 Q120.112 1436.24 120.112 1444.99 Q120.112 1453.72 117.033 1458.32 Q113.978 1462.91 108.168 1462.91 Q102.358 1462.91 99.2789 1458.32 Q96.2234 1453.72 96.2234 1444.99 Q96.2234 1436.24 99.2789 1431.66 Q102.358 1427.05 108.168 1427.05 Z" fill="#000000" fill-rule="nonzero" fill-opacity="1" /><path clip-path="url(#clip300)" d="M138.33 1430.75 Q134.719 1430.75 132.89 1434.32 Q131.084 1437.86 131.084 1444.99 Q131.084 1452.1 132.89 1455.66 Q134.719 1459.2 138.33 1459.2 Q141.964 1459.2 143.769 1455.66 Q145.598 1452.1 145.598 1444.99 Q145.598 1437.86 143.769 1434.32 Q141.964 1430.75 138.33 1430.75 M138.33 1427.05 Q144.14 1427.05 147.195 1431.66 Q150.274 1436.24 150.274 1444.99 Q150.274 1453.72 147.195 1458.32 Q144.14 1462.91 138.33 1462.91 Q132.519 1462.91 129.441 1458.32 Q126.385 1453.72 126.385 1444.99 Q126.385 1436.24 129.441 1431.66 Q132.519 1427.05 138.33 1427.05 Z" fill="#000000" fill-rule="nonzero" fill-opacity="1" /><path clip-path="url(#clip300)" d="M63.9319 1091.57 Q60.3208 1091.57 58.4921 1095.14 Q56.6865 1098.68 56.6865 1105.81 Q56.6865 1112.92 58.4921 1116.48 Q60.3208 1120.02 63.9319 1120.02 Q67.5661 1120.02 69.3717 1116.48 Q71.2004 1112.92 71.2004 1105.81 Q71.2004 1098.68 69.3717 1095.14 Q67.5661 1091.57 63.9319 1091.57 M63.9319 1087.87 Q69.742 1087.87 72.7976 1092.48 Q75.8763 1097.06 75.8763 1105.81 Q75.8763 1114.54 72.7976 1119.14 Q69.742 1123.73 63.9319 1123.73 Q58.1217 1123.73 55.043 1119.14 Q51.9875 1114.54 51.9875 1105.81 Q51.9875 1097.06 55.043 1092.48 Q58.1217 1087.87 63.9319 1087.87 Z" fill="#000000" fill-rule="nonzero" fill-opacity="1" /><path clip-path="url(#clip300)" d="M84.0938 1117.17 L88.978 1117.17 L88.978 1123.05 L84.0938 1123.05 L84.0938 1117.17 Z" fill="#000000" fill-rule="nonzero" fill-opacity="1" /><path clip-path="url(#clip300)" d="M103.191 1119.12 L119.51 1119.12 L119.51 1123.05 L97.566 1123.05 L97.566 1119.12 Q100.228 1116.36 104.811 1111.73 Q109.418 1107.08 110.598 1105.74 Q112.844 1103.22 113.723 1101.48 Q114.626 1099.72 114.626 1098.03 Q114.626 1095.28 112.682 1093.54 Q110.76 1091.8 107.658 1091.8 Q105.459 1091.8 103.006 1092.57 Q100.575 1093.33 97.7974 1094.88 L97.7974 1090.16 Q100.621 1089.03 103.075 1088.45 Q105.529 1087.87 107.566 1087.87 Q112.936 1087.87 116.131 1090.55 Q119.325 1093.24 119.325 1097.73 Q119.325 1099.86 118.515 1101.78 Q117.728 1103.68 115.621 1106.27 Q115.043 1106.94 111.941 1110.16 Q108.839 1113.36 103.191 1119.12 Z" fill="#000000" fill-rule="nonzero" fill-opacity="1" /><path clip-path="url(#clip300)" d="M129.371 1088.49 L147.728 1088.49 L147.728 1092.43 L133.654 1092.43 L133.654 1100.9 Q134.672 1100.55 135.691 1100.39 Q136.709 1100.21 137.728 1100.21 Q143.515 1100.21 146.894 1103.38 Q150.274 1106.55 150.274 1111.97 Q150.274 1117.55 146.802 1120.65 Q143.33 1123.73 137.01 1123.73 Q134.834 1123.73 132.566 1123.36 Q130.32 1122.98 127.913 1122.24 L127.913 1117.55 Q129.996 1118.68 132.219 1119.23 Q134.441 1119.79 136.918 1119.79 Q140.922 1119.79 143.26 1117.68 Q145.598 1115.58 145.598 1111.97 Q145.598 1108.36 143.26 1106.25 Q140.922 1104.14 136.918 1104.14 Q135.043 1104.14 133.168 1104.56 Q131.316 1104.98 129.371 1105.86 L129.371 1088.49 Z" fill="#000000" fill-rule="nonzero" fill-opacity="1" /><path clip-path="url(#clip300)" d="M62.9365 752.392 Q59.3254 752.392 57.4967 755.957 Q55.6912 759.498 55.6912 766.628 Q55.6912 773.734 57.4967 777.299 Q59.3254 780.841 62.9365 780.841 Q66.5707 780.841 68.3763 777.299 Q70.205 773.734 70.205 766.628 Q70.205 759.498 68.3763 755.957 Q66.5707 752.392 62.9365 752.392 M62.9365 748.688 Q68.7467 748.688 71.8022 753.295 Q74.8809 757.878 74.8809 766.628 Q74.8809 775.355 71.8022 779.961 Q68.7467 784.545 62.9365 784.545 Q57.1264 784.545 54.0477 779.961 Q50.9921 775.355 50.9921 766.628 Q50.9921 757.878 54.0477 753.295 Q57.1264 748.688 62.9365 748.688 Z" fill="#000000" fill-rule="nonzero" fill-opacity="1" /><path clip-path="url(#clip300)" d="M83.0984 777.994 L87.9827 777.994 L87.9827 783.873 L83.0984 783.873 L83.0984 777.994 Z" fill="#000000" fill-rule="nonzero" fill-opacity="1" /><path clip-path="url(#clip300)" d="M98.2141 749.313 L116.57 749.313 L116.57 753.248 L102.496 753.248 L102.496 761.721 Q103.515 761.373 104.534 761.211 Q105.552 761.026 106.571 761.026 Q112.358 761.026 115.737 764.197 Q119.117 767.369 119.117 772.785 Q119.117 778.364 115.645 781.466 Q112.172 784.545 105.853 784.545 Q103.677 784.545 101.409 784.174 Q99.1632 783.804 96.7558 783.063 L96.7558 778.364 Q98.8391 779.498 101.061 780.054 Q103.284 780.609 105.76 780.609 Q109.765 780.609 112.103 778.503 Q114.441 776.396 114.441 772.785 Q114.441 769.174 112.103 767.068 Q109.765 764.961 105.76 764.961 Q103.885 764.961 102.01 765.378 Q100.159 765.795 98.2141 766.674 L98.2141 749.313 Z" fill="#000000" fill-rule="nonzero" fill-opacity="1" /><path clip-path="url(#clip300)" d="M138.33 752.392 Q134.719 752.392 132.89 755.957 Q131.084 759.498 131.084 766.628 Q131.084 773.734 132.89 777.299 Q134.719 780.841 138.33 780.841 Q141.964 780.841 143.769 777.299 Q145.598 773.734 145.598 766.628 Q145.598 759.498 143.769 755.957 Q141.964 752.392 138.33 752.392 M138.33 748.688 Q144.14 748.688 147.195 753.295 Q150.274 757.878 150.274 766.628 Q150.274 775.355 147.195 779.961 Q144.14 784.545 138.33 784.545 Q132.519 784.545 129.441 779.961 Q126.385 775.355 126.385 766.628 Q126.385 757.878 129.441 753.295 Q132.519 748.688 138.33 748.688 Z" fill="#000000" fill-rule="nonzero" fill-opacity="1" /><path clip-path="url(#clip300)" d="M63.9319 413.211 Q60.3208 413.211 58.4921 416.776 Q56.6865 420.317 56.6865 427.447 Q56.6865 434.553 58.4921 438.118 Q60.3208 441.66 63.9319 441.66 Q67.5661 441.66 69.3717 438.118 Q71.2004 434.553 71.2004 427.447 Q71.2004 420.317 69.3717 416.776 Q67.5661 413.211 63.9319 413.211 M63.9319 409.507 Q69.742 409.507 72.7976 414.114 Q75.8763 418.697 75.8763 427.447 Q75.8763 436.174 72.7976 440.78 Q69.742 445.363 63.9319 445.363 Q58.1217 445.363 55.043 440.78 Q51.9875 436.174 51.9875 427.447 Q51.9875 418.697 55.043 414.114 Q58.1217 409.507 63.9319 409.507 Z" fill="#000000" fill-rule="nonzero" fill-opacity="1" /><path clip-path="url(#clip300)" d="M84.0938 438.813 L88.978 438.813 L88.978 444.692 L84.0938 444.692 L84.0938 438.813 Z" fill="#000000" fill-rule="nonzero" fill-opacity="1" /><path clip-path="url(#clip300)" d="M97.9826 410.132 L120.205 410.132 L120.205 412.123 L107.658 444.692 L102.774 444.692 L114.58 414.067 L97.9826 414.067 L97.9826 410.132 Z" fill="#000000" fill-rule="nonzero" fill-opacity="1" /><path clip-path="url(#clip300)" d="M129.371 410.132 L147.728 410.132 L147.728 414.067 L133.654 414.067 L133.654 422.54 Q134.672 422.192 135.691 422.03 Q136.709 421.845 137.728 421.845 Q143.515 421.845 146.894 425.016 Q150.274 428.188 150.274 433.604 Q150.274 439.183 146.802 442.285 Q143.33 445.363 137.01 445.363 Q134.834 445.363 132.566 444.993 Q130.32 444.623 127.913 443.882 L127.913 439.183 Q129.996 440.317 132.219 440.873 Q134.441 441.428 136.918 441.428 Q140.922 441.428 143.26 439.322 Q145.598 437.215 145.598 433.604 Q145.598 429.993 143.26 427.887 Q140.922 425.78 136.918 425.78 Q135.043 425.78 133.168 426.197 Q131.316 426.614 129.371 427.493 L129.371 410.132 Z" fill="#000000" fill-rule="nonzero" fill-opacity="1" /><path clip-path="url(#clip300)" d="M53.7467 101.576 L61.3856 101.576 L61.3856 75.2104 L53.0754 76.877 L53.0754 72.6178 L61.3393 70.9511 L66.0152 70.9511 L66.0152 101.576 L73.654 101.576 L73.654 105.511 L53.7467 105.511 L53.7467 101.576 Z" fill="#000000" fill-rule="nonzero" fill-opacity="1" /><path clip-path="url(#clip300)" d="M83.0984 99.6315 L87.9827 99.6315 L87.9827 105.511 L83.0984 105.511 L83.0984 99.6315 Z" fill="#000000" fill-rule="nonzero" fill-opacity="1" /><path clip-path="url(#clip300)" d="M108.168 74.0298 Q104.557 74.0298 102.728 77.5946 Q100.922 81.1363 100.922 88.2659 Q100.922 95.3723 102.728 98.9371 Q104.557 102.479 108.168 102.479 Q111.802 102.479 113.608 98.9371 Q115.436 95.3723 115.436 88.2659 Q115.436 81.1363 113.608 77.5946 Q111.802 74.0298 108.168 74.0298 M108.168 70.3261 Q113.978 70.3261 117.033 74.9326 Q120.112 79.5159 120.112 88.2659 Q120.112 96.9927 117.033 101.599 Q113.978 106.182 108.168 106.182 Q102.358 106.182 99.2789 101.599 Q96.2234 96.9927 96.2234 88.2659 Q96.2234 79.5159 99.2789 74.9326 Q102.358 70.3261 108.168 70.3261 Z" fill="#000000" fill-rule="nonzero" fill-opacity="1" /><path clip-path="url(#clip300)" d="M138.33 74.0298 Q134.719 74.0298 132.89 77.5946 Q131.084 81.1363 131.084 88.2659 Q131.084 95.3723 132.89 98.9371 Q134.719 102.479 138.33 102.479 Q141.964 102.479 143.769 98.9371 Q145.598 95.3723 145.598 88.2659 Q145.598 81.1363 143.769 77.5946 Q141.964 74.0298 138.33 74.0298 M138.33 70.3261 Q144.14 70.3261 147.195 74.9326 Q150.274 79.5159 150.274 88.2659 Q150.274 96.9927 147.195 101.599 Q144.14 106.182 138.33 106.182 Q132.519 106.182 129.441 101.599 Q126.385 96.9927 126.385 88.2659 Q126.385 79.5159 129.441 74.9326 Q132.519 70.3261 138.33 70.3261 Z" fill="#000000" fill-rule="nonzero" fill-opacity="1" /><polyline clip-path="url(#clip302)" style="stroke:#009af9; stroke-linecap:round; stroke-linejoin:round; stroke-width:4; stroke-opacity:1; fill:none" points="247.59,1196.08 299.996,1199.65 352.402,1204.31 404.809,1210.14 457.215,1217.18 509.622,1225.45 562.028,1234.95 614.435,1245.64 666.841,1257.43 719.247,1270.21 771.654,1283.83 824.06,1298.07 876.467,1312.69 928.873,1327.41 981.28,1341.94 1033.69,1355.98 1086.09,1369.27 1138.5,1381.56 1190.91,1392.68 1243.31,1402.51 1295.72,1411.01 1348.12,1418.21 1400.53,1424.18 1452.94,1429.03 1505.34,1432.89 1557.75,1435.93 1610.16,1438.26 1662.56,1440.04 1714.97,1441.38 1767.38,1442.37 1819.78,1443.09 1872.19,1443.62 1924.6,1444 1977,1444.27 2029.41,1444.47 2081.81,1444.6 2134.22,1444.7 2186.63,1444.77 2239.03,1444.82 2291.44,1444.85 "/>
<polyline clip-path="url(#clip302)" style="stroke:#009af9; stroke-linecap:round; stroke-linejoin:round; stroke-width:4; stroke-opacity:1; fill:none" stroke-dasharray="16, 10" points="247.59,1334.59 299.996,1314.27 352.402,1291.59 404.809,1267.89 457.215,1244.54 509.622,1222.18 562.028,1200.39 614.435,1177.84 666.841,1152.87 719.247,1124.39 771.654,1092.57 824.06,1059.27 876.467,1027.95 928.873,1003.31 981.28,990.517 1033.69,993.889 1086.09,1015.16 1138.5,1052.36 1190.91,1099.97 1243.31,1150.27 1295.72,1195.29 1348.12,1228.9 1400.53,1248.66 1452.94,1256.63 1505.34,1258.47 1557.75,1261.43 1610.16,1271.91 1662.56,1293.28 1714.97,1324.34 1767.38,1359.74 1819.78,1392.51 1872.19,1417.47 1924.6,1433.05 1977,1440.81 2029.41,1443.67 2081.81,1444.22 2134.22,1444.12 2186.63,1444.1 2239.03,1444.31 2291.44,1444.66 "/>
<polyline clip-path="url(#clip302)" style="stroke:#e26f46; stroke-linecap:round; stroke-linejoin:round; stroke-width:4; stroke-opacity:1; fill:none" points="247.59,338.61 299.996,335.046 352.402,330.333 404.809,324.408 457.215,317.23 509.622,308.779 562.028,299.062 614.435,288.118 666.841,276.027 719.247,262.912 771.654,248.943 824.06,234.339 876.467,219.36 928.873,204.299 981.28,189.468 1033.69,175.176 1086.09,161.708 1138.5,149.307 1190.91,138.154 1243.31,128.358 1295.72,119.953 1348.12,112.908 1400.53,107.134 1452.94,102.502 1505.34,98.8606 1557.75,96.0526 1610.16,93.9249 1662.56,92.3386 1714.97,91.1729 1767.38,90.3275 1819.78,89.7213 1872.19,89.2908 1924.6,88.9876 1977,88.7753 2029.41,88.6273 2081.81,88.5243 2134.22,88.4527 2186.63,88.4028 2239.03,88.3679 2291.44,88.3432 "/>
<polyline clip-path="url(#clip302)" style="stroke:#e26f46; stroke-linecap:round; stroke-linejoin:round; stroke-width:4; stroke-opacity:1; fill:none" stroke-dasharray="16, 10" points="247.59,170.716 299.996,188.068 352.402,208.821 404.809,233.303 457.215,260.918 509.622,290.305 562.028,320.037 614.435,349.486 666.841,379.318 719.247,411.19 771.654,446.626 824.06,485.514 876.467,524.936 928.873,559.112 981.28,580.773 1033.69,583.575 1086.09,564.456 1138.5,524.983 1190.91,471.334 1243.31,412.987 1295.72,360.276 1348.12,321.394 1400.53,299.862 1452.94,293.426 1505.34,294.855 1557.75,294.536 1610.16,284.138 1662.56,259.935 1714.97,224.155 1767.38,183.587 1819.78,146.259 1872.19,118 1924.6,100.616 1977,92.297 2029.41,89.5358 2081.81,89.1187 2134.22,89.1237 2186.63,88.8761 2239.03,88.4134 2291.44,87.9763 "/>
<polyline clip-path="url(#clip302)" style="stroke:#3da44d; stroke-linecap:round; stroke-linejoin:round; stroke-width:4; stroke-opacity:1; fill:none" points="247.59,1214.35 299.996,1221.67 352.402,1230.11 404.809,1239.66 457.215,1250.26 509.622,1261.85 562.028,1274.31 614.435,1287.5 666.841,1301.25 719.247,1315.35 771.654,1329.56 824.06,1343.62 876.467,1357.27 928.873,1370.26 981.28,1382.37 1033.69,1393.4 1086.09,1403.22 1138.5,1411.75 1190.91,1419 1243.31,1425 1295.72,1429.86 1348.12,1433.7 1400.53,1436.67 1452.94,1438.92 1505.34,1440.6 1557.75,1441.83 1610.16,1442.72 1662.56,1443.36 1714.97,1443.82 1767.38,1444.15 1819.78,1444.38 1872.19,1444.54 1924.6,1444.65 1977,1444.73 2029.41,1444.79 2081.81,1444.83 2134.22,1444.86 2186.63,1444.88 2239.03,1444.9 2291.44,1444.91 "/>
<polyline clip-path="url(#clip302)" style="stroke:#3da44d; stroke-linecap:round; stroke-linejoin:round; stroke-width:4; stroke-opacity:1; fill:none" stroke-dasharray="16, 10" points="247.59,1268.31 299.996,1250.52 352.402,1232.28 404.809,1214.16 457.215,1196.78 509.622,1180.52 562.028,1165.28 614.435,1150.62 666.841,1135.96 719.247,1120.92 771.654,1105.64 824.06,1090.96 876.467,1078.55 928.873,1070.97 981.28,1071.23 1033.69,1081.96 1086.09,1104.16 1138.5,1136.38 1190.91,1174.87 1243.31,1214.42 1295.72,1249.71 1348.12,1276.71 1400.53,1293.93 1452.94,1302.91 1505.34,1307.55 1557.75,1312.72 1610.16,1322.68 1662.56,1339.6 1714.97,1362.57 1767.38,1387.91 1819.78,1410.93 1872.19,1428.2 1924.6,1438.83 1977,1444 2029.41,1445.72 2081.81,1445.7 2134.22,1445.08 2186.63,1444.45 2239.03,1444.07 2291.44,1443.98 "/>
<path clip-path="url(#clip300)" d="M258.49 458.098 L529.281 458.098 L529.281 95.2176 L258.49 95.2176  Z" fill="#ffffff" fill-rule="evenodd" fill-opacity="1"/>
<polyline clip-path="url(#clip300)" style="stroke:#000000; stroke-linecap:round; stroke-linejoin:round; stroke-width:4; stroke-opacity:1; fill:none" points="258.49,458.098 529.281,458.098 529.281,95.2176 258.49,95.2176 258.49,458.098 "/>
<polyline clip-path="url(#clip300)" style="stroke:#009af9; stroke-linecap:round; stroke-linejoin:round; stroke-width:4; stroke-opacity:1; fill:none" points="282.562,147.058 426.994,147.058 "/>
<path clip-path="url(#clip300)" d="M464.909 166.745 Q463.103 171.375 461.39 172.787 Q459.677 174.199 456.807 174.199 L453.404 174.199 L453.404 170.634 L455.904 170.634 Q457.663 170.634 458.636 169.8 Q459.608 168.967 460.788 165.865 L461.552 163.921 L451.066 138.412 L455.58 138.412 L463.682 158.689 L471.784 138.412 L476.298 138.412 L464.909 166.745 Z" fill="#000000" fill-rule="nonzero" fill-opacity="1" /><path clip-path="url(#clip300)" d="M483.589 160.402 L491.228 160.402 L491.228 134.037 L482.918 135.703 L482.918 131.444 L491.182 129.778 L495.858 129.778 L495.858 160.402 L503.497 160.402 L503.497 164.338 L483.589 164.338 L483.589 160.402 Z" fill="#000000" fill-rule="nonzero" fill-opacity="1" /><polyline clip-path="url(#clip300)" style="stroke:#009af9; stroke-linecap:round; stroke-linejoin:round; stroke-width:4; stroke-opacity:1; fill:none" stroke-dasharray="16, 10" points="282.562,198.898 426.994,198.898 "/>
<path clip-path="url(#clip300)" d="M464.909 218.585 Q463.103 223.215 461.39 224.627 Q459.677 226.039 456.807 226.039 L453.404 226.039 L453.404 222.474 L455.904 222.474 Q457.663 222.474 458.636 221.64 Q459.608 220.807 460.788 217.705 L461.552 215.761 L451.066 190.252 L455.58 190.252 L463.682 210.529 L471.784 190.252 L476.298 190.252 L464.909 218.585 Z" fill="#000000" fill-rule="nonzero" fill-opacity="1" /><path clip-path="url(#clip300)" d="M486.807 212.242 L503.126 212.242 L503.126 216.178 L481.182 216.178 L481.182 212.242 Q483.844 209.488 488.427 204.858 Q493.034 200.205 494.214 198.863 Q496.46 196.34 497.339 194.604 Q498.242 192.844 498.242 191.155 Q498.242 188.4 496.297 186.664 Q494.376 184.928 491.274 184.928 Q489.075 184.928 486.622 185.692 Q484.191 186.455 481.413 188.006 L481.413 183.284 Q484.237 182.15 486.691 181.571 Q489.145 180.993 491.182 180.993 Q496.552 180.993 499.747 183.678 Q502.941 186.363 502.941 190.854 Q502.941 192.983 502.131 194.905 Q501.344 196.803 499.237 199.395 Q498.659 200.067 495.557 203.284 Q492.455 206.479 486.807 212.242 Z" fill="#000000" fill-rule="nonzero" fill-opacity="1" /><polyline clip-path="url(#clip300)" style="stroke:#e26f46; stroke-linecap:round; stroke-linejoin:round; stroke-width:4; stroke-opacity:1; fill:none" points="282.562,250.738 426.994,250.738 "/>
<path clip-path="url(#clip300)" d="M464.909 270.425 Q463.103 275.055 461.39 276.467 Q459.677 277.879 456.807 277.879 L453.404 277.879 L453.404 274.314 L455.904 274.314 Q457.663 274.314 458.636 273.48 Q459.608 272.647 460.788 269.545 L461.552 267.601 L451.066 242.092 L455.58 242.092 L463.682 262.369 L471.784 242.092 L476.298 242.092 L464.909 270.425 Z" fill="#000000" fill-rule="nonzero" fill-opacity="1" /><path clip-path="url(#clip300)" d="M496.946 249.383 Q500.302 250.101 502.177 252.369 Q504.075 254.638 504.075 257.971 Q504.075 263.087 500.557 265.888 Q497.038 268.689 490.557 268.689 Q488.381 268.689 486.066 268.249 Q483.774 267.832 481.321 266.976 L481.321 262.462 Q483.265 263.596 485.58 264.175 Q487.895 264.754 490.418 264.754 Q494.816 264.754 497.108 263.018 Q499.422 261.281 499.422 257.971 Q499.422 254.916 497.27 253.203 Q495.14 251.467 491.321 251.467 L487.293 251.467 L487.293 247.624 L491.506 247.624 Q494.955 247.624 496.784 246.258 Q498.612 244.87 498.612 242.277 Q498.612 239.615 496.714 238.203 Q494.839 236.768 491.321 236.768 Q489.399 236.768 487.2 237.184 Q485.001 237.601 482.362 238.481 L482.362 234.314 Q485.024 233.573 487.339 233.203 Q489.677 232.833 491.737 232.833 Q497.061 232.833 500.163 235.263 Q503.265 237.67 503.265 241.791 Q503.265 244.661 501.622 246.652 Q499.978 248.62 496.946 249.383 Z" fill="#000000" fill-rule="nonzero" fill-opacity="1" /><polyline clip-path="url(#clip300)" style="stroke:#e26f46; stroke-linecap:round; stroke-linejoin:round; stroke-width:4; stroke-opacity:1; fill:none" stroke-dasharray="16, 10" points="282.562,302.578 426.994,302.578 "/>
<path clip-path="url(#clip300)" d="M464.909 322.265 Q463.103 326.895 461.39 328.307 Q459.677 329.719 456.807 329.719 L453.404 329.719 L453.404 326.154 L455.904 326.154 Q457.663 326.154 458.636 325.32 Q459.608 324.487 460.788 321.385 L461.552 319.441 L451.066 293.932 L455.58 293.932 L463.682 314.209 L471.784 293.932 L476.298 293.932 L464.909 322.265 Z" fill="#000000" fill-rule="nonzero" fill-opacity="1" /><path clip-path="url(#clip300)" d="M495.626 289.372 L483.821 307.821 L495.626 307.821 L495.626 289.372 M494.399 285.298 L500.279 285.298 L500.279 307.821 L505.209 307.821 L505.209 311.709 L500.279 311.709 L500.279 319.858 L495.626 319.858 L495.626 311.709 L480.024 311.709 L480.024 307.196 L494.399 285.298 Z" fill="#000000" fill-rule="nonzero" fill-opacity="1" /><polyline clip-path="url(#clip300)" style="stroke:#3da44d; stroke-linecap:round; stroke-linejoin:round; stroke-width:4; stroke-opacity:1; fill:none" points="282.562,354.418 426.994,354.418 "/>
<path clip-path="url(#clip300)" d="M464.909 374.105 Q463.103 378.735 461.39 380.147 Q459.677 381.559 456.807 381.559 L453.404 381.559 L453.404 377.994 L455.904 377.994 Q457.663 377.994 458.636 377.16 Q459.608 376.327 460.788 373.225 L461.552 371.281 L451.066 345.772 L455.58 345.772 L463.682 366.049 L471.784 345.772 L476.298 345.772 L464.909 374.105 Z" fill="#000000" fill-rule="nonzero" fill-opacity="1" /><path clip-path="url(#clip300)" d="M482.825 337.138 L501.182 337.138 L501.182 341.073 L487.108 341.073 L487.108 349.545 Q488.126 349.198 489.145 349.036 Q490.163 348.85 491.182 348.85 Q496.969 348.85 500.348 352.022 Q503.728 355.193 503.728 360.61 Q503.728 366.188 500.256 369.29 Q496.784 372.369 490.464 372.369 Q488.288 372.369 486.02 371.998 Q483.774 371.628 481.367 370.887 L481.367 366.188 Q483.45 367.323 485.673 367.878 Q487.895 368.434 490.372 368.434 Q494.376 368.434 496.714 366.327 Q499.052 364.221 499.052 360.61 Q499.052 356.999 496.714 354.892 Q494.376 352.786 490.372 352.786 Q488.497 352.786 486.622 353.202 Q484.77 353.619 482.825 354.499 L482.825 337.138 Z" fill="#000000" fill-rule="nonzero" fill-opacity="1" /><polyline clip-path="url(#clip300)" style="stroke:#3da44d; stroke-linecap:round; stroke-linejoin:round; stroke-width:4; stroke-opacity:1; fill:none" stroke-dasharray="16, 10" points="282.562,406.258 426.994,406.258 "/>
<path clip-path="url(#clip300)" d="M464.909 425.945 Q463.103 430.575 461.39 431.987 Q459.677 433.399 456.807 433.399 L453.404 433.399 L453.404 429.834 L455.904 429.834 Q457.663 429.834 458.636 429 Q459.608 428.167 460.788 425.065 L461.552 423.121 L451.066 397.612 L455.58 397.612 L463.682 417.889 L471.784 397.612 L476.298 397.612 L464.909 425.945 Z" fill="#000000" fill-rule="nonzero" fill-opacity="1" /><path clip-path="url(#clip300)" d="M493.358 404.394 Q490.21 404.394 488.358 406.547 Q486.529 408.7 486.529 412.45 Q486.529 416.176 488.358 418.352 Q490.21 420.505 493.358 420.505 Q496.506 420.505 498.334 418.352 Q500.186 416.176 500.186 412.45 Q500.186 408.7 498.334 406.547 Q496.506 404.394 493.358 404.394 M502.64 389.741 L502.64 394.001 Q500.881 393.167 499.075 392.728 Q497.293 392.288 495.534 392.288 Q490.904 392.288 488.45 395.413 Q486.02 398.538 485.673 404.857 Q487.038 402.843 489.098 401.778 Q491.159 400.69 493.635 400.69 Q498.844 400.69 501.853 403.862 Q504.885 407.01 504.885 412.45 Q504.885 417.774 501.737 420.991 Q498.589 424.209 493.358 424.209 Q487.362 424.209 484.191 419.626 Q481.02 415.019 481.02 406.292 Q481.02 398.098 484.909 393.237 Q488.798 388.353 495.348 388.353 Q497.108 388.353 498.89 388.7 Q500.696 389.047 502.64 389.741 Z" fill="#000000" fill-rule="nonzero" fill-opacity="1" /></svg>
