<?xml version="1.0" encoding="utf-8"?>
<svg xmlns="http://www.w3.org/2000/svg" xmlns:xlink="http://www.w3.org/1999/xlink" width="600" height="400" viewBox="0 0 2400 1600">
<defs>
  <clipPath id="clip260">
    <rect x="0" y="0" width="2400" height="1600"/>
  </clipPath>
</defs>
<path clip-path="url(#clip260)" d="M0 1600 L2400 1600 L2400 0 L0 0  Z" fill="#ffffff" fill-rule="evenodd" fill-opacity="1"/>
<defs>
  <clipPath id="clip261">
    <rect x="480" y="0" width="1681" height="1600"/>
  </clipPath>
</defs>
<path clip-path="url(#clip260)" d="M186.274 1486.45 L2352.76 1486.45 L2352.76 47.2441 L186.274 47.2441  Z" fill="#ffffff" fill-rule="evenodd" fill-opacity="1"/>
<defs>
  <clipPath id="clip262">
    <rect x="186" y="47" width="2167" height="1440"/>
  </clipPath>
</defs>
<polyline clip-path="url(#clip262)" style="stroke:#000000; stroke-linecap:round; stroke-linejoin:round; stroke-width:2; stroke-opacity:0.1; fill:none" points="195.183,1486.45 195.183,47.2441 "/>
<polyline clip-path="url(#clip262)" style="stroke:#000000; stroke-linecap:round; stroke-linejoin:round; stroke-width:2; stroke-opacity:0.1; fill:none" points="719.247,1486.45 719.247,47.2441 "/>
<polyline clip-path="url(#clip262)" style="stroke:#000000; stroke-linecap:round; stroke-linejoin:round; stroke-width:2; stroke-opacity:0.1; fill:none" points="1243.31,1486.45 1243.31,47.2441 "/>
<polyline clip-path="url(#clip262)" style="stroke:#000000; stroke-linecap:round; stroke-linejoin:round; stroke-width:2; stroke-opacity:0.1; fill:none" points="1767.38,1486.45 1767.38,47.2441 "/>
<polyline clip-path="url(#clip262)" style="stroke:#000000; stroke-linecap:round; stroke-linejoin:round; stroke-width:2; stroke-opacity:0.1; fill:none" points="2291.44,1486.45 2291.44,47.2441 "/>
<polyline clip-path="url(#clip260)" style="stroke:#000000; stroke-linecap:round; stroke-linejoin:round; stroke-width:4; stroke-opacity:1; fill:none" points="186.274,1486.45 2352.76,1486.45 "/>
<polyline clip-path="url(#clip260)" style="stroke:#000000; stroke-linecap:round; stroke-linejoin:round; stroke-width:4; stroke-opacity:1; fill:none" points="195.183,1486.45 195.183,1467.55 "/>
<polyline clip-path="url(#clip260)" style="stroke:#000000; stroke-linecap:round; stroke-linejoin:round; stroke-width:4; stroke-opacity:1; fill:none" points="719.247,1486.45 719.247,1467.55 "/>
<polyline clip-path="url(#clip260)" style="stroke:#000000; stroke-linecap:round; stroke-linejoin:round; stroke-width:4; stroke-opacity:1; fill:none" points="1243.31,1486.45 1243.31,1467.55 "/>
<polyline clip-path="url(#clip260)" style="stroke:#000000; stroke-linecap:round; stroke-linejoin:round; stroke-width:4; stroke-opacity:1; fill:none" points="1767.38,1486.45 1767.38,1467.55 "/>
<polyline clip-path="url(#clip260)" style="stroke:#000000; stroke-linecap:round; stroke-linejoin:round; stroke-width:4; stroke-opacity:1; fill:none" points="2291.44,1486.45 2291.44,1467.55 "/>
<path clip-path="url(#clip260)" d="M195.183 1517.37 Q191.572 1517.37 189.743 1520.93 Q187.938 1524.47 187.938 1531.6 Q187.938 1538.71 189.743 1542.27 Q191.572 1545.82 195.183 1545.82 Q198.817 1545.82 200.623 1542.27 Q202.452 1538.71 202.452 1531.6 Q202.452 1524.47 200.623 1520.93 Q198.817 1517.37 195.183 1517.37 M195.183 1513.66 Q200.993 1513.66 204.049 1518.27 Q207.127 1522.85 207.127 1531.6 Q207.127 1540.33 204.049 1544.94 Q200.993 1549.52 195.183 1549.52 Q189.373 1549.52 186.294 1544.94 Q183.239 1540.33 183.239 1531.6 Q183.239 1522.85 186.294 1518.27 Q189.373 1513.66 195.183 1513.66 Z" fill="#000000" fill-rule="nonzero" fill-opacity="1" /><path clip-path="url(#clip260)" d="M693.935 1544.91 L701.574 1544.91 L701.574 1518.55 L693.264 1520.21 L693.264 1515.95 L701.528 1514.29 L706.204 1514.29 L706.204 1544.91 L713.842 1544.91 L713.842 1548.85 L693.935 1548.85 L693.935 1544.91 Z" fill="#000000" fill-rule="nonzero" fill-opacity="1" /><path clip-path="url(#clip260)" d="M733.287 1517.37 Q729.676 1517.37 727.847 1520.93 Q726.041 1524.47 726.041 1531.6 Q726.041 1538.71 727.847 1542.27 Q729.676 1545.82 733.287 1545.82 Q736.921 1545.82 738.726 1542.27 Q740.555 1538.71 740.555 1531.6 Q740.555 1524.47 738.726 1520.93 Q736.921 1517.37 733.287 1517.37 M733.287 1513.66 Q739.097 1513.66 742.152 1518.27 Q745.231 1522.85 745.231 1531.6 Q745.231 1540.33 742.152 1544.94 Q739.097 1549.52 733.287 1549.52 Q727.477 1549.52 724.398 1544.94 Q721.342 1540.33 721.342 1531.6 Q721.342 1522.85 724.398 1518.27 Q727.477 1513.66 733.287 1513.66 Z" fill="#000000" fill-rule="nonzero" fill-opacity="1" /><path clip-path="url(#clip260)" d="M1222.08 1544.91 L1238.4 1544.91 L1238.4 1548.85 L1216.46 1548.85 L1216.46 1544.91 Q1219.12 1542.16 1223.71 1537.53 Q1228.31 1532.88 1229.49 1531.53 Q1231.74 1529.01 1232.62 1527.27 Q1233.52 1525.51 1233.52 1523.82 Q1233.52 1521.07 1231.58 1519.33 Q1229.65 1517.6 1226.55 1517.6 Q1224.35 1517.6 1221.9 1518.36 Q1219.47 1519.13 1216.69 1520.68 L1216.69 1515.95 Q1219.52 1514.82 1221.97 1514.24 Q1224.42 1513.66 1226.46 1513.66 Q1231.83 1513.66 1235.02 1516.35 Q1238.22 1519.03 1238.22 1523.52 Q1238.22 1525.65 1237.41 1527.57 Q1236.62 1529.47 1234.52 1532.07 Q1233.94 1532.74 1230.83 1535.95 Q1227.73 1539.15 1222.08 1544.91 Z" fill="#000000" fill-rule="nonzero" fill-opacity="1" /><path clip-path="url(#clip260)" d="M1258.22 1517.37 Q1254.61 1517.37 1252.78 1520.93 Q1250.97 1524.47 1250.97 1531.6 Q1250.97 1538.71 1252.78 1542.27 Q1254.61 1545.82 1258.22 1545.82 Q1261.85 1545.82 1263.66 1542.27 Q1265.49 1538.71 1265.49 1531.6 Q1265.49 1524.47 1263.66 1520.93 Q1261.85 1517.37 1258.22 1517.37 M1258.22 1513.66 Q1264.03 1513.66 1267.08 1518.27 Q1270.16 1522.85 1270.16 1531.6 Q1270.16 1540.33 1267.08 1544.94 Q1264.03 1549.52 1258.22 1549.52 Q1252.41 1549.52 1249.33 1544.94 Q1246.27 1540.33 1246.27 1531.6 Q1246.27 1522.85 1249.33 1518.27 Q1252.41 1513.66 1258.22 1513.66 Z" fill="#000000" fill-rule="nonzero" fill-opacity="1" /><path clip-path="url(#clip260)" d="M1756.22 1530.21 Q1759.58 1530.93 1761.45 1533.2 Q1763.35 1535.47 1763.35 1538.8 Q1763.35 1543.92 1759.83 1546.72 Q1756.31 1549.52 1749.83 1549.52 Q1747.65 1549.52 1745.34 1549.08 Q1743.05 1548.66 1740.59 1547.81 L1740.59 1543.29 Q1742.54 1544.43 1744.85 1545.01 Q1747.17 1545.58 1749.69 1545.58 Q1754.09 1545.58 1756.38 1543.85 Q1758.7 1542.11 1758.7 1538.8 Q1758.7 1535.75 1756.54 1534.03 Q1754.41 1532.3 1750.59 1532.3 L1746.57 1532.3 L1746.57 1528.45 L1750.78 1528.45 Q1754.23 1528.45 1756.06 1527.09 Q1757.89 1525.7 1757.89 1523.11 Q1757.89 1520.45 1755.99 1519.03 Q1754.11 1517.6 1750.59 1517.6 Q1748.67 1517.6 1746.47 1518.01 Q1744.27 1518.43 1741.64 1519.31 L1741.64 1515.14 Q1744.3 1514.4 1746.61 1514.03 Q1748.95 1513.66 1751.01 1513.66 Q1756.33 1513.66 1759.44 1516.09 Q1762.54 1518.5 1762.54 1522.62 Q1762.54 1525.49 1760.89 1527.48 Q1759.25 1529.45 1756.22 1530.21 Z" fill="#000000" fill-rule="nonzero" fill-opacity="1" /><path clip-path="url(#clip260)" d="M1782.21 1517.37 Q1778.6 1517.37 1776.77 1520.93 Q1774.97 1524.47 1774.97 1531.6 Q1774.97 1538.71 1776.77 1542.27 Q1778.6 1545.82 1782.21 1545.82 Q1785.85 1545.82 1787.65 1542.27 Q1789.48 1538.71 1789.48 1531.6 Q1789.48 1524.47 1787.65 1520.93 Q1785.85 1517.37 1782.21 1517.37 M1782.21 1513.66 Q1788.02 1513.66 1791.08 1518.27 Q1794.16 1522.85 1794.16 1531.6 Q1794.16 1540.33 1791.08 1544.94 Q1788.02 1549.52 1782.21 1549.52 Q1776.4 1549.52 1773.33 1544.94 Q1770.27 1540.33 1770.27 1531.6 Q1770.27 1522.85 1773.33 1518.27 Q1776.4 1513.66 1782.21 1513.66 Z" fill="#000000" fill-rule="nonzero" fill-opacity="1" /><path clip-path="url(#clip260)" d="M2279.61 1518.36 L2267.81 1536.81 L2279.61 1536.81 L2279.61 1518.36 M2278.38 1514.29 L2284.26 1514.29 L2284.26 1536.81 L2289.2 1536.81 L2289.2 1540.7 L2284.26 1540.7 L2284.26 1548.85 L2279.61 1548.85 L2279.61 1540.7 L2264.01 1540.7 L2264.01 1536.19 L2278.38 1514.29 Z" fill="#000000" fill-rule="nonzero" fill-opacity="1" /><path clip-path="url(#clip260)" d="M2306.93 1517.37 Q2303.32 1517.37 2301.49 1520.93 Q2299.68 1524.47 2299.68 1531.6 Q2299.68 1538.71 2301.49 1542.27 Q2303.32 1545.82 2306.93 1545.82 Q2310.56 1545.82 2312.37 1542.27 Q2314.19 1538.71 2314.19 1531.6 Q2314.19 1524.47 2312.37 1520.93 Q2310.56 1517.37 2306.93 1517.37 M2306.93 1513.66 Q2312.74 1513.66 2315.79 1518.27 Q2318.87 1522.85 2318.87 1531.6 Q2318.87 1540.33 2315.79 1544.94 Q2312.74 1549.52 2306.93 1549.52 Q2301.12 1549.52 2298.04 1544.94 Q2294.98 1540.33 2294.98 1531.6 Q2294.98 1522.85 2298.04 1518.27 Q2301.12 1513.66 2306.93 1513.66 Z" fill="#000000" fill-rule="nonzero" fill-opacity="1" /><polyline clip-path="url(#clip262)" style="stroke:#000000; stroke-linecap:round; stroke-linejoin:round; stroke-width:2; stroke-opacity:0.1; fill:none" points="186.274,1444.96 2352.76,1444.96 "/>
<polyline clip-path="url(#clip262)" style="stroke:#000000; stroke-linecap:round; stroke-linejoin:round; stroke-width:2; stroke-opacity:0.1; fill:none" points="186.274,1105.78 2352.76,1105.78 "/>
<polyline clip-path="url(#clip262)" style="stroke:#000000; stroke-linecap:round; stroke-linejoin:round; stroke-width:2; stroke-opacity:0.1; fill:none" points="186.274,766.612 2352.76,766.612 "/>
<polyline clip-path="url(#clip262)" style="stroke:#000000; stroke-linecap:round; stroke-linejoin:round; stroke-width:2; stroke-opacity:0.1; fill:none" points="186.274,427.44 2352.76,427.44 "/>
<polyline clip-path="url(#clip262)" style="stroke:#000000; stroke-linecap:round; stroke-linejoin:round; stroke-width:2; stroke-opacity:0.1; fill:none" points="186.274,88.2681 2352.76,88.2681 "/>
<polyline clip-path="url(#clip260)" style="stroke:#000000; stroke-linecap:round; stroke-linejoin:round; stroke-width:4; stroke-opacity:1; fill:none" points="186.274,1486.45 186.274,47.2441 "/>
<polyline clip-path="url(#clip260)" style="stroke:#000000; stroke-linecap:round; stroke-linejoin:round; stroke-width:4; stroke-opacity:1; fill:none" points="186.274,1444.96 205.172,1444.96 "/>
<polyline clip-path="url(#clip260)" style="stroke:#000000; stroke-linecap:round; stroke-linejoin:round; stroke-width:4; stroke-opacity:1; fill:none" points="186.274,1105.78 205.172,1105.78 "/>
<polyline clip-path="url(#clip260)" style="stroke:#000000; stroke-linecap:round; stroke-linejoin:round; stroke-width:4; stroke-opacity:1; fill:none" points="186.274,766.612 205.172,766.612 "/>
<polyline clip-path="url(#clip260)" style="stroke:#000000; stroke-linecap:round; stroke-linejoin:round; stroke-width:4; stroke-opacity:1; fill:none" points="186.274,427.44 205.172,427.44 "/>
<polyline clip-path="url(#clip260)" style="stroke:#000000; stroke-linecap:round; stroke-linejoin:round; stroke-width:4; stroke-opacity:1; fill:none" points="186.274,88.2681 205.172,88.2681 "/>
<path clip-path="url(#clip260)" d="M62.9365 1430.75 Q59.3254 1430.75 57.4967 1434.32 Q55.6912 1437.86 55.6912 1444.99 Q55.6912 1452.1 57.4967 1455.66 Q59.3254 1459.2 62.9365 1459.2 Q66.5707 1459.2 68.3763 1455.66 Q70.205 1452.1 70.205 1444.99 Q70.205 1437.86 68.3763 1434.32 Q66.5707 1430.75 62.9365 1430.75 M62.9365 1427.05 Q68.7467 1427.05 71.8022 1431.66 Q74.8809 1436.24 74.8809 1444.99 Q74.8809 1453.72 71.8022 1458.32 Q68.7467 1462.91 62.9365 1462.91 Q57.1264 1462.91 54.0477 1458.32 Q50.9921 1453.72 50.9921 1444.99 Q50.9921 1436.24 54.0477 1431.66 Q57.1264 1427.05 62.9365 1427.05 Z" fill="#000000" fill-rule="nonzero" fill-opacity="1" /><path clip-path="url(#clip260)" d="M83.0984 1456.36 L87.9827 1456.36 L87.9827 1462.24 L83.0984 1462.24 L83.0984 1456.36 Z" fill="#000000" fill-rule="nonzero" fill-opacity="1" /><path clip-path="url(#clip260)" d="M108.168 1430.75 Q104.557 1430.75 102.728 1434.32 Q100.922 1437.86 100.922 1444.99 Q100.922 1452.1 102.728 1455.66 Q104.557 1459.2 108.168 1459.2 Q111.802 1459.2 113.608 1455.66 Q115.436 1452.1 115.436 1444.99 Q115.436 1437.86 113.608 1434.32 Q111.802 1430.75 108.168 1430.75 M108.168 1427.05 Q113.978 1427.05 117.033 1431.66 Q120.112 1436.24 120.112 1444.99 Q120.112 1453.72 117.033 1458.32 Q113.978 1462.91 108.168 1462.91 Q102.358 1462.91 99.2789 1458.32 Q96.2234 1453.72 96.2234 1444.99 Q96.2234 1436.24 99.2789 1431.66 Q102.358 1427.05 108.168 1427.05 Z" fill="#000000" fill-rule="nonzero" fill-opacity="1" /><path clip-path="url(#clip260)" d="M138.33 1430.75 Q134.719 1430.75 132.89 1434.32 Q131.084 1437.86 131.084 1444.99 Q131.084 1452.1 132.89 1455.66 Q134.719 1459.2 138.33 1459.2 Q141.964 1459.2 143.769 1455.66 Q145.598 1452.1 145.598 1444.99 Q145.598 1437.86 143.769 1434.32 Q141.964 1430.75 138.33 1430.75 M138.33 1427.05 Q144.14 1427.05 147.195 1431.66 Q150.274 1436.24 150.274 1444.99 Q150.274 1453.72 147.195 1458.32 Q144.14 1462.91 138.33 1462.91 Q132.519 1462.91 129.441 1458.32 Q126.385 1453.72 126.385 1444.99 Q126.385 1436.24 129.441 1431.66 Q132.519 1427.05 138.33 1427.05 Z" fill="#000000" fill-rule="nonzero" fill-opacity="1" /><path clip-path="url(#clip260)" d="M63.9319 1091.58 Q60.3208 1091.58 58.4921 1095.15 Q56.6865 1098.69 56.6865 1105.82 Q56.6865 1112.92 58.4921 1116.49 Q60.3208 1120.03 63.9319 1120.03 Q67.5661 1120.03 69.3717 1116.49 Q71.2004 1112.92 71.2004 1105.82 Q71.2004 1098.69 69.3717 1095.15 Q67.5661 1091.58 63.9319 1091.58 M63.9319 1087.88 Q69.742 1087.88 72.7976 1092.49 Q75.8763 1097.07 75.8763 1105.82 Q75.8763 1114.55 72.7976 1119.15 Q69.742 1123.73 63.9319 1123.73 Q58.1217 1123.73 55.043 1119.15 Q51.9875 1114.55 51.9875 1105.82 Q51.9875 1097.07 55.043 1092.49 Q58.1217 1087.88 63.9319 1087.88 Z" fill="#000000" fill-rule="nonzero" fill-opacity="1" /><path clip-path="url(#clip260)" d="M84.0938 1117.18 L88.978 1117.18 L88.978 1123.06 L84.0938 1123.06 L84.0938 1117.18 Z" fill="#000000" fill-rule="nonzero" fill-opacity="1" /><path clip-path="url(#clip260)" d="M103.191 1119.13 L119.51 1119.13 L119.51 1123.06 L97.566 1123.06 L97.566 1119.13 Q100.228 1116.37 104.811 1111.74 Q109.418 1107.09 110.598 1105.75 Q112.844 1103.23 113.723 1101.49 Q114.626 1099.73 114.626 1098.04 Q114.626 1095.29 112.682 1093.55 Q110.76 1091.81 107.658 1091.81 Q105.459 1091.81 103.006 1092.58 Q100.575 1093.34 97.7974 1094.89 L97.7974 1090.17 Q100.621 1089.04 103.075 1088.46 Q105.529 1087.88 107.566 1087.88 Q112.936 1087.88 116.131 1090.56 Q119.325 1093.25 119.325 1097.74 Q119.325 1099.87 118.515 1101.79 Q117.728 1103.69 115.621 1106.28 Q115.043 1106.95 111.941 1110.17 Q108.839 1113.36 103.191 1119.13 Z" fill="#000000" fill-rule="nonzero" fill-opacity="1" /><path clip-path="url(#clip260)" d="M129.371 1088.5 L147.728 1088.5 L147.728 1092.44 L133.654 1092.44 L133.654 1100.91 Q134.672 1100.56 135.691 1100.4 Q136.709 1100.22 137.728 1100.22 Q143.515 1100.22 146.894 1103.39 Q150.274 1106.56 150.274 1111.98 Q150.274 1117.55 146.802 1120.66 Q143.33 1123.73 137.01 1123.73 Q134.834 1123.73 132.566 1123.36 Q130.32 1122.99 127.913 1122.25 L127.913 1117.55 Q129.996 1118.69 132.219 1119.24 Q134.441 1119.8 136.918 1119.8 Q140.922 1119.8 143.26 1117.69 Q145.598 1115.59 145.598 1111.98 Q145.598 1108.36 143.26 1106.26 Q140.922 1104.15 136.918 1104.15 Q135.043 1104.15 133.168 1104.57 Q131.316 1104.98 129.371 1105.86 L129.371 1088.5 Z" fill="#000000" fill-rule="nonzero" fill-opacity="1" /><path clip-path="url(#clip260)" d="M62.9365 752.41 Q59.3254 752.41 57.4967 755.975 Q55.6912 759.517 55.6912 766.646 Q55.6912 773.753 57.4967 777.318 Q59.3254 780.859 62.9365 780.859 Q66.5707 780.859 68.3763 777.318 Q70.205 773.753 70.205 766.646 Q70.205 759.517 68.3763 755.975 Q66.5707 752.41 62.9365 752.41 M62.9365 748.707 Q68.7467 748.707 71.8022 753.313 Q74.8809 757.897 74.8809 766.646 Q74.8809 775.373 71.8022 779.98 Q68.7467 784.563 62.9365 784.563 Q57.1264 784.563 54.0477 779.98 Q50.9921 775.373 50.9921 766.646 Q50.9921 757.897 54.0477 753.313 Q57.1264 748.707 62.9365 748.707 Z" fill="#000000" fill-rule="nonzero" fill-opacity="1" /><path clip-path="url(#clip260)" d="M83.0984 778.012 L87.9827 778.012 L87.9827 783.892 L83.0984 783.892 L83.0984 778.012 Z" fill="#000000" fill-rule="nonzero" fill-opacity="1" /><path clip-path="url(#clip260)" d="M98.2141 749.332 L116.57 749.332 L116.57 753.267 L102.496 753.267 L102.496 761.739 Q103.515 761.392 104.534 761.23 Q105.552 761.045 106.571 761.045 Q112.358 761.045 115.737 764.216 Q119.117 767.387 119.117 772.804 Q119.117 778.383 115.645 781.484 Q112.172 784.563 105.853 784.563 Q103.677 784.563 101.409 784.193 Q99.1632 783.822 96.7558 783.082 L96.7558 778.383 Q98.8391 779.517 101.061 780.072 Q103.284 780.628 105.76 780.628 Q109.765 780.628 112.103 778.521 Q114.441 776.415 114.441 772.804 Q114.441 769.193 112.103 767.086 Q109.765 764.98 105.76 764.98 Q103.885 764.98 102.01 765.396 Q100.159 765.813 98.2141 766.693 L98.2141 749.332 Z" fill="#000000" fill-rule="nonzero" fill-opacity="1" /><path clip-path="url(#clip260)" d="M138.33 752.41 Q134.719 752.41 132.89 755.975 Q131.084 759.517 131.084 766.646 Q131.084 773.753 132.89 777.318 Q134.719 780.859 138.33 780.859 Q141.964 780.859 143.769 777.318 Q145.598 773.753 145.598 766.646 Q145.598 759.517 143.769 755.975 Q141.964 752.41 138.33 752.41 M138.33 748.707 Q144.14 748.707 147.195 753.313 Q150.274 757.897 150.274 766.646 Q150.274 775.373 147.195 779.98 Q144.14 784.563 138.33 784.563 Q132.519 784.563 129.441 779.98 Q126.385 775.373 126.385 766.646 Q126.385 757.897 129.441 753.313 Q132.519 748.707 138.33 748.707 Z" fill="#000000" fill-rule="nonzero" fill-opacity="1" /><path clip-path="url(#clip260)" d="M63.9319 413.239 Q60.3208 413.239 58.4921 416.803 Q56.6865 420.345 56.6865 427.475 Q56.6865 434.581 58.4921 438.146 Q60.3208 441.688 63.9319 441.688 Q67.5661 441.688 69.3717 438.146 Q71.2004 434.581 71.2004 427.475 Q71.2004 420.345 69.3717 416.803 Q67.5661 413.239 63.9319 413.239 M63.9319 409.535 Q69.742 409.535 72.7976 414.141 Q75.8763 418.725 75.8763 427.475 Q75.8763 436.201 72.7976 440.808 Q69.742 445.391 63.9319 445.391 Q58.1217 445.391 55.043 440.808 Q51.9875 436.201 51.9875 427.475 Q51.9875 418.725 55.043 414.141 Q58.1217 409.535 63.9319 409.535 Z" fill="#000000" fill-rule="nonzero" fill-opacity="1" /><path clip-path="url(#clip260)" d="M84.0938 438.84 L88.978 438.84 L88.978 444.72 L84.0938 444.72 L84.0938 438.84 Z" fill="#000000" fill-rule="nonzero" fill-opacity="1" /><path clip-path="url(#clip260)" d="M97.9826 410.16 L120.205 410.16 L120.205 412.151 L107.658 444.72 L102.774 444.72 L114.58 414.095 L97.9826 414.095 L97.9826 410.16 Z" fill="#000000" fill-rule="nonzero" fill-opacity="1" /><path clip-path="url(#clip260)" d="M129.371 410.16 L147.728 410.16 L147.728 414.095 L133.654 414.095 L133.654 422.567 Q134.672 422.22 135.691 422.058 Q136.709 421.873 137.728 421.873 Q143.515 421.873 146.894 425.044 Q150.274 428.215 150.274 433.632 Q150.274 439.211 146.802 442.313 Q143.33 445.391 137.01 445.391 Q134.834 445.391 132.566 445.021 Q130.32 444.651 127.913 443.91 L127.913 439.211 Q129.996 440.345 132.219 440.901 Q134.441 441.456 136.918 441.456 Q140.922 441.456 143.26 439.35 Q145.598 437.243 145.598 433.632 Q145.598 430.021 143.26 427.914 Q140.922 425.808 136.918 425.808 Q135.043 425.808 133.168 426.225 Q131.316 426.641 129.371 427.521 L129.371 410.16 Z" fill="#000000" fill-rule="nonzero" fill-opacity="1" /><path clip-path="url(#clip260)" d="M53.7467 101.613 L61.3856 101.613 L61.3856 75.2474 L53.0754 76.914 L53.0754 72.6548 L61.3393 70.9881 L66.0152 70.9881 L66.0152 101.613 L73.654 101.613 L73.654 105.548 L53.7467 105.548 L53.7467 101.613 Z" fill="#000000" fill-rule="nonzero" fill-opacity="1" /><path clip-path="url(#clip260)" d="M83.0984 99.6685 L87.9827 99.6685 L87.9827 105.548 L83.0984 105.548 L83.0984 99.6685 Z" fill="#000000" fill-rule="nonzero" fill-opacity="1" /><path clip-path="url(#clip260)" d="M108.168 74.0668 Q104.557 74.0668 102.728 77.6316 Q100.922 81.1733 100.922 88.3029 Q100.922 95.4093 102.728 98.9741 Q104.557 102.516 108.168 102.516 Q111.802 102.516 113.608 98.9741 Q115.436 95.4093 115.436 88.3029 Q115.436 81.1733 113.608 77.6316 Q111.802 74.0668 108.168 74.0668 M108.168 70.3631 Q113.978 70.3631 117.033 74.9696 Q120.112 79.5529 120.112 88.3029 Q120.112 97.0297 117.033 101.636 Q113.978 106.219 108.168 106.219 Q102.358 106.219 99.2789 101.636 Q96.2234 97.0297 96.2234 88.3029 Q96.2234 79.5529 99.2789 74.9696 Q102.358 70.3631 108.168 70.3631 Z" fill="#000000" fill-rule="nonzero" fill-opacity="1" /><path clip-path="url(#clip260)" d="M138.33 74.0668 Q134.719 74.0668 132.89 77.6316 Q131.084 81.1733 131.084 88.3029 Q131.084 95.4093 132.89 98.9741 Q134.719 102.516 138.33 102.516 Q141.964 102.516 143.769 98.9741 Q145.598 95.4093 145.598 88.3029 Q145.598 81.1733 143.769 77.6316 Q141.964 74.0668 138.33 74.0668 M138.33 70.3631 Q144.14 70.3631 147.195 74.9696 Q150.274 79.5529 150.274 88.3029 Q150.274 97.0297 147.195 101.636 Q144.14 106.219 138.33 106.219 Q132.519 106.219 129.441 101.636 Q126.385 97.0297 126.385 88.3029 Q126.385 79.5529 129.441 74.9696 Q132.519 70.3631 138.33 70.3631 Z" fill="#000000" fill-rule="nonzero" fill-opacity="1" /><polyline clip-path="url(#clip262)" style="stroke:#009af9; stroke-linecap:round; stroke-linejoin:round; stroke-width:4; stroke-opacity:1; fill:none" points="247.59,1387.17 299.996,1371.85 352.402,1352.54 404.809,1329.42 457.215,1303.48 509.622,1276 562.028,1247.64 614.435,1217.85 666.841,1184.94 719.247,1146.87 771.654,1102.6 824.06,1053.43 876.467,1003.86 928.873,961.417 981.28,935.012 1033.69,932.089 1086.09,955.529 1138.5,1002.09 1190.91,1063.18 1243.31,1127.23 1295.72,1182.79 1348.12,1221.73 1400.53,1241.72 1452.94,1246.9 1505.34,1246.06 1557.75,1249.18 1610.16,1263.74 1662.56,1291.81 1714.97,1329.32 1767.38,1368.27 1819.78,1400.96 1872.19,1423.4 1924.6,1435.94 1977,1441.44 2029.41,1443.17 2081.81,1443.48 2134.22,1443.58 2186.63,1443.87 2239.03,1444.3 2291.44,1444.72 "/>
<polyline clip-path="url(#clip262)" style="stroke:#009af9; stroke-linecap:round; stroke-linejoin:round; stroke-width:4; stroke-opacity:1; fill:none" stroke-dasharray="16, 10" points="247.59,1334.59 299.996,1314.28 352.402,1291.59 404.809,1267.9 457.215,1244.54 509.622,1222.18 562.028,1200.4 614.435,1177.85 666.841,1152.88 719.247,1124.4 771.654,1092.58 824.06,1059.28 876.467,1027.96 928.873,1003.32 981.28,990.529 1033.69,993.901 1086.09,1015.18 1138.5,1052.37 1190.91,1099.97 1243.31,1150.27 1295.72,1195.3 1348.12,1228.9 1400.53,1248.66 1452.94,1256.63 1505.34,1258.48 1557.75,1261.43 1610.16,1271.92 1662.56,1293.28 1714.97,1324.35 1767.38,1359.74 1819.78,1392.52 1872.19,1417.47 1924.6,1433.05 1977,1440.81 2029.41,1443.67 2081.81,1444.22 2134.22,1444.12 2186.63,1444.1 2239.03,1444.31 2291.44,1444.66 "/>
<polyline clip-path="url(#clip262)" style="stroke:#e26f46; stroke-linecap:round; stroke-linejoin:round; stroke-width:4; stroke-opacity:1; fill:none" points="247.59,125.87 299.996,138.232 352.402,153.839 404.809,173.786 457.215,198.721 509.622,228.371 562.028,261.691 614.435,297.692 666.841,336.455 719.247,379.457 771.654,428.599 824.06,484.136 876.467,542.513 928.873,595.613 981.28,632.448 1033.69,643.002 1086.09,622.395 1138.5,573.214 1190.91,505.085 1243.31,431.976 1295.72,368.203 1348.12,324.195 1400.53,303.251 1452.94,300.575 1505.34,305.244 1557.75,304.648 1610.16,289.687 1662.56,258.375 1714.97,216.056 1767.38,172.165 1819.78,135.491 1872.19,110.607 1924.6,97.1475 1977,91.6314 2029.41,90.0829 2081.81,89.7448 2134.22,89.4041 2186.63,88.8704 2239.03,88.3348 2291.44,87.9763 "/>
<polyline clip-path="url(#clip262)" style="stroke:#e26f46; stroke-linecap:round; stroke-linejoin:round; stroke-width:4; stroke-opacity:1; fill:none" stroke-dasharray="16, 10" points="247.59,170.751 299.996,188.102 352.402,208.855 404.809,233.336 457.215,260.95 509.622,290.337 562.028,320.068 614.435,349.516 666.841,379.347 719.247,411.218 771.654,446.654 824.06,485.54 876.467,524.961 928.873,559.136 981.28,580.797 1033.69,583.598 1086.09,564.48 1138.5,525.008 1190.91,471.361 1243.31,413.015 1295.72,360.305 1348.12,321.425 1400.53,299.893 1452.94,293.457 1505.34,294.887 1557.75,294.568 1610.16,284.169 1662.56,259.967 1714.97,224.188 1767.38,183.622 1819.78,146.294 1872.19,118.036 1924.6,100.653 1977,92.3339 2029.41,89.5727 2081.81,89.1556 2134.22,89.1607 2186.63,88.9131 2239.03,88.4504 2291.44,88.0133 "/>
<polyline clip-path="url(#clip262)" style="stroke:#3da44d; stroke-linecap:round; stroke-linejoin:round; stroke-width:4; stroke-opacity:1; fill:none" points="247.59,1311.38 299.996,1291.32 352.402,1269.57 404.809,1246.38 457.215,1222.46 509.622,1198.66 562.028,1175.5 614.435,1152.96 666.841,1130.55 719.247,1107.79 771.654,1084.84 824.06,1063.02 876.467,1044.99 928.873,1034.39 981.28,1034.98 1033.69,1049.41 1086.09,1077.91 1138.5,1117.71 1190.91,1163.41 1243.31,1208.4 1295.72,1246.6 1348.12,1274.25 1400.53,1291 1452.94,1299.93 1505.34,1306.2 1557.75,1315.13 1610.16,1330.24 1662.56,1351.9 1714.97,1377.29 1767.38,1401.87 1819.78,1421.66 1872.19,1434.87 1924.6,1442.05 1977,1445.01 2029.41,1445.64 2081.81,1445.31 2134.22,1444.76 2186.63,1444.34 2239.03,1444.15 2291.44,1444.17 "/>
<polyline clip-path="url(#clip262)" style="stroke:#3da44d; stroke-linecap:round; stroke-linejoin:round; stroke-width:4; stroke-opacity:1; fill:none" stroke-dasharray="16, 10" points="247.59,1268.31 299.996,1250.53 352.402,1232.28 404.809,1214.16 457.215,1196.79 509.622,1180.53 562.028,1165.29 614.435,1150.63 666.841,1135.97 719.247,1120.93 771.654,1105.65 824.06,1090.97 876.467,1078.56 928.873,1070.98 981.28,1071.24 1033.69,1081.97 1086.09,1104.17 1138.5,1136.39 1190.91,1174.88 1243.31,1214.43 1295.72,1249.71 1348.12,1276.71 1400.53,1293.94 1452.94,1302.91 1505.34,1307.55 1557.75,1312.72 1610.16,1322.69 1662.56,1339.61 1714.97,1362.57 1767.38,1387.91 1819.78,1410.93 1872.19,1428.2 1924.6,1438.83 1977,1444 2029.41,1445.72 2081.81,1445.7 2134.22,1445.08 2186.63,1444.45 2239.03,1444.07 2291.44,1443.98 "/>
<path clip-path="url(#clip260)" d="M258.49 458.098 L529.281 458.098 L529.281 95.2176 L258.49 95.2176  Z" fill="#ffffff" fill-rule="evenodd" fill-opacity="1"/>
<polyline clip-path="url(#clip260)" style="stroke:#000000; stroke-linecap:round; stroke-linejoin:round; stroke-width:4; stroke-opacity:1; fill:none" points="258.49,458.098 529.281,458.098 529.281,95.2176 258.49,95.2176 258.49,458.098 "/>
<polyline clip-path="url(#clip260)" style="stroke:#009af9; stroke-linecap:round; stroke-linejoin:round; stroke-width:4; stroke-opacity:1; fill:none" points="282.562,147.058 426.994,147.058 "/>
<path clip-path="url(#clip260)" d="M464.909 166.745 Q463.103 171.375 461.39 172.787 Q459.677 174.199 456.807 174.199 L453.404 174.199 L453.404 170.634 L455.904 170.634 Q457.663 170.634 458.636 169.8 Q459.608 168.967 460.788 165.865 L461.552 163.921 L451.066 138.412 L455.58 138.412 L463.682 158.689 L471.784 138.412 L476.298 138.412 L464.909 166.745 Z" fill="#000000" fill-rule="nonzero" fill-opacity="1" /><path clip-path="url(#clip260)" d="M483.589 160.402 L491.228 160.402 L491.228 134.037 L482.918 135.703 L482.918 131.444 L491.182 129.778 L495.858 129.778 L495.858 160.402 L503.497 160.402 L503.497 164.338 L483.589 164.338 L483.589 160.402 Z" fill="#000000" fill-rule="nonzero" fill-opacity="1" /><polyline clip-path="url(#clip260)" style="stroke:#009af9; stroke-linecap:round; stroke-linejoin:round; stroke-width:4; stroke-opacity:1; fill:none" stroke-dasharray="16, 10" points="282.562,198.898 426.994,198.898 "/>
<path clip-path="url(#clip260)" d="M464.909 218.585 Q463.103 223.215 461.39 224.627 Q459.677 226.039 456.807 226.039 L453.404 226.039 L453.404 222.474 L455.904 222.474 Q457.663 222.474 458.636 221.64 Q459.608 220.807 460.788 217.705 L461.552 215.761 L451.066 190.252 L455.58 190.252 L463.682 210.529 L471.784 190.252 L476.298 190.252 L464.909 218.585 Z" fill="#000000" fill-rule="nonzero" fill-opacity="1" /><path clip-path="url(#clip260)" d="M486.807 212.242 L503.126 212.242 L503.126 216.178 L481.182 216.178 L481.182 212.242 Q483.844 209.488 488.427 204.858 Q493.034 200.205 494.214 198.863 Q496.46 196.34 497.339 194.604 Q498.242 192.844 498.242 191.155 Q498.242 188.4 496.297 186.664 Q494.376 184.928 491.274 184.928 Q489.075 184.928 486.622 185.692 Q484.191 186.455 481.413 188.006 L481.413 183.284 Q484.237 182.15 486.691 181.571 Q489.145 180.993 491.182 180.993 Q496.552 180.993 499.747 183.678 Q502.941 186.363 502.941 190.854 Q502.941 192.983 502.131 194.905 Q501.344 196.803 499.237 199.395 Q498.659 200.067 495.557 203.284 Q492.455 206.479 486.807 212.242 Z" fill="#000000" fill-rule="nonzero" fill-opacity="1" /><polyline clip-path="url(#clip260)" style="stroke:#e26f46; stroke-linecap:round; stroke-linejoin:round; stroke-width:4; stroke-opacity:1; fill:none" points="282.562,250.738 426.994,250.738 "/>
<path clip-path="url(#clip260)" d="M464.909 270.425 Q463.103 275.055 461.39 276.467 Q459.677 277.879 456.807 277.879 L453.404 277.879 L453.404 274.314 L455.904 274.314 Q457.663 274.314 458.636 273.48 Q459.608 272.647 460.788 269.545 L461.552 267.601 L451.066 242.092 L455.58 242.092 L463.682 262.369 L471.784 242.092 L476.298 242.092 L464.909 270.425 Z" fill="#000000" fill-rule="nonzero" fill-opacity="1" /><path clip-path="url(#clip260)" d="M496.946 249.383 Q500.302 250.101 502.177 252.369 Q504.075 254.638 504.075 257.971 Q504.075 263.087 500.557 265.888 Q497.038 268.689 490.557 268.689 Q488.381 268.689 486.066 268.249 Q483.774 267.832 481.321 266.976 L481.321 262.462 Q483.265 263.596 485.58 264.175 Q487.895 264.754 490.418 264.754 Q494.816 264.754 497.108 263.018 Q499.422 261.281 499.422 257.971 Q499.422 254.916 497.27 253.203 Q495.14 251.467 491.321 251.467 L487.293 251.467 L487.293 247.624 L491.506 247.624 Q494.955 247.624 496.784 246.258 Q498.612 244.87 498.612 242.277 Q498.612 239.615 496.714 238.203 Q494.839 236.768 491.321 236.768 Q489.399 236.768 487.2 237.184 Q485.001 237.601 482.362 238.481 L482.362 234.314 Q485.024 233.573 487.339 233.203 Q489.677 232.833 491.737 232.833 Q497.061 232.833 500.163 235.263 Q503.265 237.67 503.265 241.791 Q503.265 244.661 501.622 246.652 Q499.978 248.62 496.946 249.383 Z" fill="#000000" fill-rule="nonzero" fill-opacity="1" /><polyline clip-path="url(#clip260)" style="stroke:#e26f46; stroke-linecap:round; stroke-linejoin:round; stroke-width:4; stroke-opacity:1; fill:none" stroke-dasharray="16, 10" points="282.562,302.578 426.994,302.578 "/>
<path clip-path="url(#clip260)" d="M464.909 322.265 Q463.103 326.895 461.39 328.307 Q459.677 329.719 456.807 329.719 L453.404 329.719 L453.404 326.154 L455.904 326.154 Q457.663 326.154 458.636 325.32 Q459.608 324.487 460.788 321.385 L461.552 319.441 L451.066 293.932 L455.58 293.932 L463.682 314.209 L471.784 293.932 L476.298 293.932 L464.909 322.265 Z" fill="#000000" fill-rule="nonzero" fill-opacity="1" /><path clip-path="url(#clip260)" d="M495.626 289.372 L483.821 307.821 L495.626 307.821 L495.626 289.372 M494.399 285.298 L500.279 285.298 L500.279 307.821 L505.209 307.821 L505.209 311.709 L500.279 311.709 L500.279 319.858 L495.626 319.858 L495.626 311.709 L480.024 311.709 L480.024 307.196 L494.399 285.298 Z" fill="#000000" fill-rule="nonzero" fill-opacity="1" /><polyline clip-path="url(#clip260)" style="stroke:#3da44d; stroke-linecap:round; stroke-linejoin:round; stroke-width:4; stroke-opacity:1; fill:none" points="282.562,354.418 426.994,354.418 "/>
<path clip-path="url(#clip260)" d="M464.909 374.105 Q463.103 378.735 461.39 380.147 Q459.677 381.559 456.807 381.559 L453.404 381.559 L453.404 377.994 L455.904 377.994 Q457.663 377.994 458.636 377.16 Q459.608 376.327 460.788 373.225 L461.552 371.281 L451.066 345.772 L455.58 345.772 L463.682 366.049 L471.784 345.772 L476.298 345.772 L464.909 374.105 Z" fill="#000000" fill-rule="nonzero" fill-opacity="1" /><path clip-path="url(#clip260)" d="M482.825 337.138 L501.182 337.138 L501.182 341.073 L487.108 341.073 L487.108 349.545 Q488.126 349.198 489.145 349.036 Q490.163 348.85 491.182 348.85 Q496.969 348.85 500.348 352.022 Q503.728 355.193 503.728 360.61 Q503.728 366.188 500.256 369.29 Q496.784 372.369 490.464 372.369 Q488.288 372.369 486.02 371.998 Q483.774 371.628 481.367 370.887 L481.367 366.188 Q483.45 367.323 485.673 367.878 Q487.895 368.434 490.372 368.434 Q494.376 368.434 496.714 366.327 Q499.052 364.221 499.052 360.61 Q499.052 356.999 496.714 354.892 Q494.376 352.786 490.372 352.786 Q488.497 352.786 486.622 353.202 Q484.77 353.619 482.825 354.499 L482.825 337.138 Z" fill="#000000" fill-rule="nonzero" fill-opacity="1" /><polyline clip-path="url(#clip260)" style="stroke:#3da44d; stroke-linecap:round; stroke-linejoin:round; stroke-width:4; stroke-opacity:1; fill:none" stroke-dasharray="16, 10" points="282.562,406.258 426.994,406.258 "/>
<path clip-path="url(#clip260)" d="M464.909 425.945 Q463.103 430.575 461.39 431.987 Q459.677 433.399 456.807 433.399 L453.404 433.399 L453.404 429.834 L455.904 429.834 Q457.663 429.834 458.636 429 Q459.608 428.167 460.788 425.065 L461.552 423.121 L451.066 397.612 L455.58 397.612 L463.682 417.889 L471.784 397.612 L476.298 397.612 L464.909 425.945 Z" fill="#000000" fill-rule="nonzero" fill-opacity="1" /><path clip-path="url(#clip260)" d="M493.358 404.394 Q490.21 404.394 488.358 406.547 Q486.529 408.7 486.529 412.45 Q486.529 416.176 488.358 418.352 Q490.21 420.505 493.358 420.505 Q496.506 420.505 498.334 418.352 Q500.186 416.176 500.186 412.45 Q500.186 408.7 498.334 406.547 Q496.506 404.394 493.358 404.394 M502.64 389.741 L502.64 394.001 Q500.881 393.167 499.075 392.728 Q497.293 392.288 495.534 392.288 Q490.904 392.288 488.45 395.413 Q486.02 398.538 485.673 404.857 Q487.038 402.843 489.098 401.778 Q491.159 400.69 493.635 400.69 Q498.844 400.69 501.853 403.862 Q504.885 407.01 504.885 412.45 Q504.885 417.774 501.737 420.991 Q498.589 424.209 493.358 424.209 Q487.362 424.209 484.191 419.626 Q481.02 415.019 481.02 406.292 Q481.02 398.098 484.909 393.237 Q488.798 388.353 495.348 388.353 Q497.108 388.353 498.89 388.7 Q500.696 389.047 502.64 389.741 Z" fill="#000000" fill-rule="nonzero" fill-opacity="1" /></svg>
