<?xml version="1.0" encoding="utf-8"?>
<svg xmlns="http://www.w3.org/2000/svg" xmlns:xlink="http://www.w3.org/1999/xlink" width="600" height="400" viewBox="0 0 2400 1600">
<defs>
  <clipPath id="clip050">
    <rect x="0" y="0" width="2400" height="1600"/>
  </clipPath>
</defs>
<path clip-path="url(#clip050)" d="M0 1600 L2400 1600 L2400 0 L0 0  Z" fill="#ffffff" fill-rule="evenodd" fill-opacity="1"/>
<defs>
  <clipPath id="clip051">
    <rect x="480" y="0" width="1681" height="1600"/>
  </clipPath>
</defs>
<path clip-path="url(#clip050)" d="M186.274 1486.45 L2352.76 1486.45 L2352.76 47.2441 L186.274 47.2441  Z" fill="#ffffff" fill-rule="evenodd" fill-opacity="1"/>
<defs>
  <clipPath id="clip052">
    <rect x="186" y="47" width="2167" height="1440"/>
  </clipPath>
</defs>
<polyline clip-path="url(#clip052)" style="stroke:#000000; stroke-linecap:round; stroke-linejoin:round; stroke-width:2; stroke-opacity:0.1; fill:none" points="195.183,1486.45 195.183,47.2441 "/>
<polyline clip-path="url(#clip052)" style="stroke:#000000; stroke-linecap:round; stroke-linejoin:round; stroke-width:2; stroke-opacity:0.1; fill:none" points="719.247,1486.45 719.247,47.2441 "/>
<polyline clip-path="url(#clip052)" style="stroke:#000000; stroke-linecap:round; stroke-linejoin:round; stroke-width:2; stroke-opacity:0.1; fill:none" points="1243.31,1486.45 1243.31,47.2441 "/>
<polyline clip-path="url(#clip052)" style="stroke:#000000; stroke-linecap:round; stroke-linejoin:round; stroke-width:2; stroke-opacity:0.1; fill:none" points="1767.38,1486.45 1767.38,47.2441 "/>
<polyline clip-path="url(#clip052)" style="stroke:#000000; stroke-linecap:round; stroke-linejoin:round; stroke-width:2; stroke-opacity:0.1; fill:none" points="2291.44,1486.45 2291.44,47.2441 "/>
<polyline clip-path="url(#clip050)" style="stroke:#000000; stroke-linecap:round; stroke-linejoin:round; stroke-width:4; stroke-opacity:1; fill:none" points="186.274,1486.45 2352.76,1486.45 "/>
<polyline clip-path="url(#clip050)" style="stroke:#000000; stroke-linecap:round; stroke-linejoin:round; stroke-width:4; stroke-opacity:1; fill:none" points="195.183,1486.45 195.183,1467.55 "/>
<polyline clip-path="url(#clip050)" style="stroke:#000000; stroke-linecap:round; stroke-linejoin:round; stroke-width:4; stroke-opacity:1; fill:none" points="719.247,1486.45 719.247,1467.55 "/>
<polyline clip-path="url(#clip050)" style="stroke:#000000; stroke-linecap:round; stroke-linejoin:round; stroke-width:4; stroke-opacity:1; fill:none" points="1243.31,1486.45 1243.31,1467.55 "/>
<polyline clip-path="url(#clip050)" style="stroke:#000000; stroke-linecap:round; stroke-linejoin:round; stroke-width:4; stroke-opacity:1; fill:none" points="1767.38,1486.45 1767.38,1467.55 "/>
<polyline clip-path="url(#clip050)" style="stroke:#000000; stroke-linecap:round; stroke-linejoin:round; stroke-width:4; stroke-opacity:1; fill:none" points="2291.44,1486.45 2291.44,1467.55 "/>
<path clip-path="url(#clip050)" d="M195.183 1517.37 Q191.572 1517.37 189.743 1520.93 Q187.938 1524.47 187.938 1531.6 Q187.938 1538.71 189.743 1542.27 Q191.572 1545.82 195.183 1545.82 Q198.817 1545.82 200.623 1542.27 Q202.452 1538.71 202.452 1531.6 Q202.452 1524.47 200.623 1520.93 Q198.817 1517.37 195.183 1517.37 M195.183 1513.66 Q200.993 1513.66 204.049 1518.27 Q207.127 1522.85 207.127 1531.6 Q207.127 1540.33 204.049 1544.94 Q200.993 1549.52 195.183 1549.52 Q189.373 1549.52 186.294 1544.94 Q183.239 1540.33 183.239 1531.6 Q183.239 1522.85 186.294 1518.27 Q189.373 1513.66 195.183 1513.66 Z" fill="#000000" fill-rule="nonzero" fill-opacity="1" /><path clip-path="url(#clip050)" d="M693.935 1544.91 L701.574 1544.91 L701.574 1518.55 L693.264 1520.21 L693.264 1515.95 L701.528 1514.29 L706.204 1514.29 L706.204 1544.91 L713.842 1544.91 L713.842 1548.85 L693.935 1548.85 L693.935 1544.91 Z" fill="#000000" fill-rule="nonzero" fill-opacity="1" /><path clip-path="url(#clip050)" d="M733.287 1517.37 Q729.676 1517.37 727.847 1520.93 Q726.041 1524.47 726.041 1531.6 Q726.041 1538.71 727.847 1542.27 Q729.676 1545.82 733.287 1545.82 Q736.921 1545.82 738.726 1542.27 Q740.555 1538.71 740.555 1531.6 Q740.555 1524.47 738.726 1520.93 Q736.921 1517.37 733.287 1517.37 M733.287 1513.66 Q739.097 1513.66 742.152 1518.27 Q745.231 1522.85 745.231 1531.6 Q745.231 1540.33 742.152 1544.94 Q739.097 1549.52 733.287 1549.52 Q727.477 1549.52 724.398 1544.94 Q721.342 1540.33 721.342 1531.6 Q721.342 1522.85 724.398 1518.27 Q727.477 1513.66 733.287 1513.66 Z" fill="#000000" fill-rule="nonzero" fill-opacity="1" /><path clip-path="url(#clip050)" d="M1222.08 1544.91 L1238.4 1544.91 L1238.4 1548.85 L1216.46 1548.85 L1216.46 1544.91 Q1219.12 1542.16 1223.71 1537.53 Q1228.31 1532.88 1229.49 1531.53 Q1231.74 1529.01 1232.62 1527.27 Q1233.52 1525.51 1233.52 1523.82 Q1233.52 1521.07 1231.58 1519.33 Q1229.65 1517.6 1226.55 1517.6 Q1224.35 1517.6 1221.9 1518.36 Q1219.47 1519.13 1216.69 1520.68 L1216.69 1515.95 Q1219.52 1514.82 1221.97 1514.24 Q1224.42 1513.66 1226.46 1513.66 Q1231.83 1513.66 1235.02 1516.35 Q1238.22 1519.03 1238.22 1523.52 Q1238.22 1525.65 1237.41 1527.57 Q1236.62 1529.47 1234.52 1532.07 Q1233.94 1532.74 1230.83 1535.95 Q1227.73 1539.15 1222.08 1544.91 Z" fill="#000000" fill-rule="nonzero" fill-opacity="1" /><path clip-path="url(#clip050)" d="M1258.22 1517.37 Q1254.61 1517.37 1252.78 1520.93 Q1250.97 1524.47 1250.97 1531.6 Q1250.97 1538.71 1252.78 1542.27 Q1254.61 1545.82 1258.22 1545.82 Q1261.85 1545.82 1263.66 1542.27 Q1265.49 1538.71 1265.49 1531.6 Q1265.49 1524.47 1263.66 1520.93 Q1261.85 1517.37 1258.22 1517.37 M1258.22 1513.66 Q1264.03 1513.66 1267.08 1518.27 Q1270.16 1522.85 1270.16 1531.6 Q1270.16 1540.33 1267.08 1544.94 Q1264.03 1549.52 1258.22 1549.52 Q1252.41 1549.52 1249.33 1544.94 Q1246.27 1540.33 1246.27 1531.6 Q1246.27 1522.85 1249.33 1518.27 Q1252.41 1513.66 1258.22 1513.66 Z" fill="#000000" fill-rule="nonzero" fill-opacity="1" /><path clip-path="url(#clip050)" d="M1756.22 1530.21 Q1759.58 1530.93 1761.45 1533.2 Q1763.35 1535.47 1763.35 1538.8 Q1763.35 1543.92 1759.83 1546.72 Q1756.31 1549.52 1749.83 1549.52 Q1747.65 1549.52 1745.34 1549.08 Q1743.05 1548.66 1740.59 1547.81 L1740.59 1543.29 Q1742.54 1544.43 1744.85 1545.01 Q1747.17 1545.58 1749.69 1545.58 Q1754.09 1545.58 1756.38 1543.85 Q1758.7 1542.11 1758.7 1538.8 Q1758.7 1535.75 1756.54 1534.03 Q1754.41 1532.3 1750.59 1532.3 L1746.57 1532.3 L1746.57 1528.45 L1750.78 1528.45 Q1754.23 1528.45 1756.06 1527.09 Q1757.89 1525.7 1757.89 1523.11 Q1757.89 1520.45 1755.99 1519.03 Q1754.11 1517.6 1750.59 1517.6 Q1748.67 1517.6 1746.47 1518.01 Q1744.27 1518.43 1741.64 1519.31 L1741.64 1515.14 Q1744.3 1514.4 1746.61 1514.03 Q1748.95 1513.66 1751.01 1513.66 Q1756.33 1513.66 1759.44 1516.09 Q1762.54 1518.5 1762.54 1522.62 Q1762.54 1525.49 1760.89 1527.48 Q1759.25 1529.45 1756.22 1530.21 Z" fill="#000000" fill-rule="nonzero" fill-opacity="1" /><path clip-path="url(#clip050)" d="M1782.21 1517.37 Q1778.6 1517.37 1776.77 1520.93 Q1774.97 1524.47 1774.97 1531.6 Q1774.97 1538.71 1776.77 1542.27 Q1778.6 1545.82 1782.21 1545.82 Q1785.85 1545.82 1787.65 1542.27 Q1789.48 1538.71 1789.48 1531.6 Q1789.48 1524.47 1787.65 1520.93 Q1785.85 1517.37 1782.21 1517.37 M1782.21 1513.66 Q1788.02 1513.66 1791.08 1518.27 Q1794.16 1522.85 1794.16 1531.6 Q1794.16 1540.33 1791.08 1544.94 Q1788.02 1549.52 1782.21 1549.52 Q1776.4 1549.52 1773.33 1544.94 Q1770.27 1540.33 1770.27 1531.6 Q1770.27 1522.85 1773.33 1518.27 Q1776.4 1513.66 1782.21 1513.66 Z" fill="#000000" fill-rule="nonzero" fill-opacity="1" /><path clip-path="url(#clip050)" d="M2279.61 1518.36 L2267.81 1536.81 L2279.61 1536.81 L2279.61 1518.36 M2278.38 1514.29 L2284.26 1514.29 L2284.26 1536.81 L2289.2 1536.81 L2289.2 1540.7 L2284.26 1540.7 L2284.26 1548.85 L2279.61 1548.85 L2279.61 1540.7 L2264.01 1540.7 L2264.01 1536.19 L2278.38 1514.29 Z" fill="#000000" fill-rule="nonzero" fill-opacity="1" /><path clip-path="url(#clip050)" d="M2306.93 1517.37 Q2303.32 1517.37 2301.49 1520.93 Q2299.68 1524.47 2299.68 1531.6 Q2299.68 1538.71 2301.49 1542.27 Q2303.32 1545.82 2306.93 1545.82 Q2310.56 1545.82 2312.37 1542.27 Q2314.19 1538.71 2314.19 1531.6 Q2314.19 1524.47 2312.37 1520.93 Q2310.56 1517.37 2306.93 1517.37 M2306.93 1513.66 Q2312.74 1513.66 2315.79 1518.27 Q2318.87 1522.85 2318.87 1531.6 Q2318.87 1540.33 2315.79 1544.94 Q2312.74 1549.52 2306.93 1549.52 Q2301.12 1549.52 2298.04 1544.94 Q2294.98 1540.33 2294.98 1531.6 Q2294.98 1522.85 2298.04 1518.27 Q2301.12 1513.66 2306.93 1513.66 Z" fill="#000000" fill-rule="nonzero" fill-opacity="1" /><polyline clip-path="url(#clip052)" style="stroke:#000000; stroke-linecap:round; stroke-linejoin:round; stroke-width:2; stroke-opacity:0.1; fill:none" points="186.274,1444.86 2352.76,1444.86 "/>
<polyline clip-path="url(#clip052)" style="stroke:#000000; stroke-linecap:round; stroke-linejoin:round; stroke-width:2; stroke-opacity:0.1; fill:none" points="186.274,1105.72 2352.76,1105.72 "/>
<polyline clip-path="url(#clip052)" style="stroke:#000000; stroke-linecap:round; stroke-linejoin:round; stroke-width:2; stroke-opacity:0.1; fill:none" points="186.274,766.579 2352.76,766.579 "/>
<polyline clip-path="url(#clip052)" style="stroke:#000000; stroke-linecap:round; stroke-linejoin:round; stroke-width:2; stroke-opacity:0.1; fill:none" points="186.274,427.438 2352.76,427.438 "/>
<polyline clip-path="url(#clip052)" style="stroke:#000000; stroke-linecap:round; stroke-linejoin:round; stroke-width:2; stroke-opacity:0.1; fill:none" points="186.274,88.2982 2352.76,88.2982 "/>
<polyline clip-path="url(#clip050)" style="stroke:#000000; stroke-linecap:round; stroke-linejoin:round; stroke-width:4; stroke-opacity:1; fill:none" points="186.274,1486.45 186.274,47.2441 "/>
<polyline clip-path="url(#clip050)" style="stroke:#000000; stroke-linecap:round; stroke-linejoin:round; stroke-width:4; stroke-opacity:1; fill:none" points="186.274,1444.86 205.172,1444.86 "/>
<polyline clip-path="url(#clip050)" style="stroke:#000000; stroke-linecap:round; stroke-linejoin:round; stroke-width:4; stroke-opacity:1; fill:none" points="186.274,1105.72 205.172,1105.72 "/>
<polyline clip-path="url(#clip050)" style="stroke:#000000; stroke-linecap:round; stroke-linejoin:round; stroke-width:4; stroke-opacity:1; fill:none" points="186.274,766.579 205.172,766.579 "/>
<polyline clip-path="url(#clip050)" style="stroke:#000000; stroke-linecap:round; stroke-linejoin:round; stroke-width:4; stroke-opacity:1; fill:none" points="186.274,427.438 205.172,427.438 "/>
<polyline clip-path="url(#clip050)" style="stroke:#000000; stroke-linecap:round; stroke-linejoin:round; stroke-width:4; stroke-opacity:1; fill:none" points="186.274,88.2982 205.172,88.2982 "/>
<path clip-path="url(#clip050)" d="M62.9365 1430.66 Q59.3254 1430.66 57.4967 1434.22 Q55.6912 1437.76 55.6912 1444.89 Q55.6912 1452 57.4967 1455.57 Q59.3254 1459.11 62.9365 1459.11 Q66.5707 1459.11 68.3763 1455.57 Q70.205 1452 70.205 1444.89 Q70.205 1437.76 68.3763 1434.22 Q66.5707 1430.66 62.9365 1430.66 M62.9365 1426.95 Q68.7467 1426.95 71.8022 1431.56 Q74.8809 1436.14 74.8809 1444.89 Q74.8809 1453.62 71.8022 1458.23 Q68.7467 1462.81 62.9365 1462.81 Q57.1264 1462.81 54.0477 1458.23 Q50.9921 1453.62 50.9921 1444.89 Q50.9921 1436.14 54.0477 1431.56 Q57.1264 1426.95 62.9365 1426.95 Z" fill="#000000" fill-rule="nonzero" fill-opacity="1" /><path clip-path="url(#clip050)" d="M83.0984 1456.26 L87.9827 1456.26 L87.9827 1462.14 L83.0984 1462.14 L83.0984 1456.26 Z" fill="#000000" fill-rule="nonzero" fill-opacity="1" /><path clip-path="url(#clip050)" d="M108.168 1430.66 Q104.557 1430.66 102.728 1434.22 Q100.922 1437.76 100.922 1444.89 Q100.922 1452 102.728 1455.57 Q104.557 1459.11 108.168 1459.11 Q111.802 1459.11 113.608 1455.57 Q115.436 1452 115.436 1444.89 Q115.436 1437.76 113.608 1434.22 Q111.802 1430.66 108.168 1430.66 M108.168 1426.95 Q113.978 1426.95 117.033 1431.56 Q120.112 1436.14 120.112 1444.89 Q120.112 1453.62 117.033 1458.23 Q113.978 1462.81 108.168 1462.81 Q102.358 1462.81 99.2789 1458.23 Q96.2234 1453.62 96.2234 1444.89 Q96.2234 1436.14 99.2789 1431.56 Q102.358 1426.95 108.168 1426.95 Z" fill="#000000" fill-rule="nonzero" fill-opacity="1" /><path clip-path="url(#clip050)" d="M138.33 1430.66 Q134.719 1430.66 132.89 1434.22 Q131.084 1437.76 131.084 1444.89 Q131.084 1452 132.89 1455.57 Q134.719 1459.11 138.33 1459.11 Q141.964 1459.11 143.769 1455.57 Q145.598 1452 145.598 1444.89 Q145.598 1437.76 143.769 1434.22 Q141.964 1430.66 138.33 1430.66 M138.33 1426.95 Q144.14 1426.95 147.195 1431.56 Q150.274 1436.14 150.274 1444.89 Q150.274 1453.62 147.195 1458.23 Q144.14 1462.81 138.33 1462.81 Q132.519 1462.81 129.441 1458.23 Q126.385 1453.62 126.385 1444.89 Q126.385 1436.14 129.441 1431.56 Q132.519 1426.95 138.33 1426.95 Z" fill="#000000" fill-rule="nonzero" fill-opacity="1" /><path clip-path="url(#clip050)" d="M63.9319 1091.52 Q60.3208 1091.52 58.4921 1095.08 Q56.6865 1098.62 56.6865 1105.75 Q56.6865 1112.86 58.4921 1116.42 Q60.3208 1119.97 63.9319 1119.97 Q67.5661 1119.97 69.3717 1116.42 Q71.2004 1112.86 71.2004 1105.75 Q71.2004 1098.62 69.3717 1095.08 Q67.5661 1091.52 63.9319 1091.52 M63.9319 1087.81 Q69.742 1087.81 72.7976 1092.42 Q75.8763 1097 75.8763 1105.75 Q75.8763 1114.48 72.7976 1119.09 Q69.742 1123.67 63.9319 1123.67 Q58.1217 1123.67 55.043 1119.09 Q51.9875 1114.48 51.9875 1105.75 Q51.9875 1097 55.043 1092.42 Q58.1217 1087.81 63.9319 1087.81 Z" fill="#000000" fill-rule="nonzero" fill-opacity="1" /><path clip-path="url(#clip050)" d="M84.0938 1117.12 L88.978 1117.12 L88.978 1123 L84.0938 1123 L84.0938 1117.12 Z" fill="#000000" fill-rule="nonzero" fill-opacity="1" /><path clip-path="url(#clip050)" d="M103.191 1119.06 L119.51 1119.06 L119.51 1123 L97.566 1123 L97.566 1119.06 Q100.228 1116.31 104.811 1111.68 Q109.418 1107.03 110.598 1105.68 Q112.844 1103.16 113.723 1101.42 Q114.626 1099.67 114.626 1097.98 Q114.626 1095.22 112.682 1093.49 Q110.76 1091.75 107.658 1091.75 Q105.459 1091.75 103.006 1092.51 Q100.575 1093.28 97.7974 1094.83 L97.7974 1090.11 Q100.621 1088.97 103.075 1088.39 Q105.529 1087.81 107.566 1087.81 Q112.936 1087.81 116.131 1090.5 Q119.325 1093.18 119.325 1097.67 Q119.325 1099.8 118.515 1101.73 Q117.728 1103.62 115.621 1106.22 Q115.043 1106.89 111.941 1110.11 Q108.839 1113.3 103.191 1119.06 Z" fill="#000000" fill-rule="nonzero" fill-opacity="1" /><path clip-path="url(#clip050)" d="M129.371 1088.44 L147.728 1088.44 L147.728 1092.37 L133.654 1092.37 L133.654 1100.85 Q134.672 1100.5 135.691 1100.34 Q136.709 1100.15 137.728 1100.15 Q143.515 1100.15 146.894 1103.32 Q150.274 1106.49 150.274 1111.91 Q150.274 1117.49 146.802 1120.59 Q143.33 1123.67 137.01 1123.67 Q134.834 1123.67 132.566 1123.3 Q130.32 1122.93 127.913 1122.19 L127.913 1117.49 Q129.996 1118.62 132.219 1119.18 Q134.441 1119.73 136.918 1119.73 Q140.922 1119.73 143.26 1117.63 Q145.598 1115.52 145.598 1111.91 Q145.598 1108.3 143.26 1106.19 Q140.922 1104.09 136.918 1104.09 Q135.043 1104.09 133.168 1104.5 Q131.316 1104.92 129.371 1105.8 L129.371 1088.44 Z" fill="#000000" fill-rule="nonzero" fill-opacity="1" /><path clip-path="url(#clip050)" d="M62.9365 752.377 Q59.3254 752.377 57.4967 755.942 Q55.6912 759.484 55.6912 766.613 Q55.6912 773.72 57.4967 777.285 Q59.3254 780.826 62.9365 780.826 Q66.5707 780.826 68.3763 777.285 Q70.205 773.72 70.205 766.613 Q70.205 759.484 68.3763 755.942 Q66.5707 752.377 62.9365 752.377 M62.9365 748.674 Q68.7467 748.674 71.8022 753.28 Q74.8809 757.863 74.8809 766.613 Q74.8809 775.34 71.8022 779.947 Q68.7467 784.53 62.9365 784.53 Q57.1264 784.53 54.0477 779.947 Q50.9921 775.34 50.9921 766.613 Q50.9921 757.863 54.0477 753.28 Q57.1264 748.674 62.9365 748.674 Z" fill="#000000" fill-rule="nonzero" fill-opacity="1" /><path clip-path="url(#clip050)" d="M83.0984 777.979 L87.9827 777.979 L87.9827 783.859 L83.0984 783.859 L83.0984 777.979 Z" fill="#000000" fill-rule="nonzero" fill-opacity="1" /><path clip-path="url(#clip050)" d="M98.2141 749.299 L116.57 749.299 L116.57 753.234 L102.496 753.234 L102.496 761.706 Q103.515 761.359 104.534 761.197 Q105.552 761.012 106.571 761.012 Q112.358 761.012 115.737 764.183 Q119.117 767.354 119.117 772.771 Q119.117 778.349 115.645 781.451 Q112.172 784.53 105.853 784.53 Q103.677 784.53 101.409 784.16 Q99.1632 783.789 96.7558 783.048 L96.7558 778.349 Q98.8391 779.484 101.061 780.039 Q103.284 780.595 105.76 780.595 Q109.765 780.595 112.103 778.488 Q114.441 776.382 114.441 772.771 Q114.441 769.16 112.103 767.053 Q109.765 764.947 105.76 764.947 Q103.885 764.947 102.01 765.363 Q100.159 765.78 98.2141 766.66 L98.2141 749.299 Z" fill="#000000" fill-rule="nonzero" fill-opacity="1" /><path clip-path="url(#clip050)" d="M138.33 752.377 Q134.719 752.377 132.89 755.942 Q131.084 759.484 131.084 766.613 Q131.084 773.72 132.89 777.285 Q134.719 780.826 138.33 780.826 Q141.964 780.826 143.769 777.285 Q145.598 773.72 145.598 766.613 Q145.598 759.484 143.769 755.942 Q141.964 752.377 138.33 752.377 M138.33 748.674 Q144.14 748.674 147.195 753.28 Q150.274 757.863 150.274 766.613 Q150.274 775.34 147.195 779.947 Q144.14 784.53 138.33 784.53 Q132.519 784.53 129.441 779.947 Q126.385 775.34 126.385 766.613 Q126.385 757.863 129.441 753.28 Q132.519 748.674 138.33 748.674 Z" fill="#000000" fill-rule="nonzero" fill-opacity="1" /><path clip-path="url(#clip050)" d="M63.9319 413.237 Q60.3208 413.237 58.4921 416.802 Q56.6865 420.344 56.6865 427.473 Q56.6865 434.58 58.4921 438.144 Q60.3208 441.686 63.9319 441.686 Q67.5661 441.686 69.3717 438.144 Q71.2004 434.58 71.2004 427.473 Q71.2004 420.344 69.3717 416.802 Q67.5661 413.237 63.9319 413.237 M63.9319 409.533 Q69.742 409.533 72.7976 414.14 Q75.8763 418.723 75.8763 427.473 Q75.8763 436.2 72.7976 440.806 Q69.742 445.39 63.9319 445.39 Q58.1217 445.39 55.043 440.806 Q51.9875 436.2 51.9875 427.473 Q51.9875 418.723 55.043 414.14 Q58.1217 409.533 63.9319 409.533 Z" fill="#000000" fill-rule="nonzero" fill-opacity="1" /><path clip-path="url(#clip050)" d="M84.0938 438.839 L88.978 438.839 L88.978 444.718 L84.0938 444.718 L84.0938 438.839 Z" fill="#000000" fill-rule="nonzero" fill-opacity="1" /><path clip-path="url(#clip050)" d="M97.9826 410.158 L120.205 410.158 L120.205 412.149 L107.658 444.718 L102.774 444.718 L114.58 414.094 L97.9826 414.094 L97.9826 410.158 Z" fill="#000000" fill-rule="nonzero" fill-opacity="1" /><path clip-path="url(#clip050)" d="M129.371 410.158 L147.728 410.158 L147.728 414.094 L133.654 414.094 L133.654 422.566 Q134.672 422.219 135.691 422.057 Q136.709 421.871 137.728 421.871 Q143.515 421.871 146.894 425.043 Q150.274 428.214 150.274 433.631 Q150.274 439.209 146.802 442.311 Q143.33 445.39 137.01 445.39 Q134.834 445.39 132.566 445.019 Q130.32 444.649 127.913 443.908 L127.913 439.209 Q129.996 440.343 132.219 440.899 Q134.441 441.455 136.918 441.455 Q140.922 441.455 143.26 439.348 Q145.598 437.242 145.598 433.631 Q145.598 430.019 143.26 427.913 Q140.922 425.807 136.918 425.807 Q135.043 425.807 133.168 426.223 Q131.316 426.64 129.371 427.519 L129.371 410.158 Z" fill="#000000" fill-rule="nonzero" fill-opacity="1" /><path clip-path="url(#clip050)" d="M53.7467 101.643 L61.3856 101.643 L61.3856 75.2775 L53.0754 76.9441 L53.0754 72.6849 L61.3393 71.0182 L66.0152 71.0182 L66.0152 101.643 L73.654 101.643 L73.654 105.578 L53.7467 105.578 L53.7467 101.643 Z" fill="#000000" fill-rule="nonzero" fill-opacity="1" /><path clip-path="url(#clip050)" d="M83.0984 99.6987 L87.9827 99.6987 L87.9827 105.578 L83.0984 105.578 L83.0984 99.6987 Z" fill="#000000" fill-rule="nonzero" fill-opacity="1" /><path clip-path="url(#clip050)" d="M108.168 74.0969 Q104.557 74.0969 102.728 77.6617 Q100.922 81.2034 100.922 88.333 Q100.922 95.4394 102.728 99.0042 Q104.557 102.546 108.168 102.546 Q111.802 102.546 113.608 99.0042 Q115.436 95.4394 115.436 88.333 Q115.436 81.2034 113.608 77.6617 Q111.802 74.0969 108.168 74.0969 M108.168 70.3933 Q113.978 70.3933 117.033 74.9997 Q120.112 79.583 120.112 88.333 Q120.112 97.0598 117.033 101.666 Q113.978 106.25 108.168 106.25 Q102.358 106.25 99.2789 101.666 Q96.2234 97.0598 96.2234 88.333 Q96.2234 79.583 99.2789 74.9997 Q102.358 70.3933 108.168 70.3933 Z" fill="#000000" fill-rule="nonzero" fill-opacity="1" /><path clip-path="url(#clip050)" d="M138.33 74.0969 Q134.719 74.0969 132.89 77.6617 Q131.084 81.2034 131.084 88.333 Q131.084 95.4394 132.89 99.0042 Q134.719 102.546 138.33 102.546 Q141.964 102.546 143.769 99.0042 Q145.598 95.4394 145.598 88.333 Q145.598 81.2034 143.769 77.6617 Q141.964 74.0969 138.33 74.0969 M138.33 70.3933 Q144.14 70.3933 147.195 74.9997 Q150.274 79.583 150.274 88.333 Q150.274 97.0598 147.195 101.666 Q144.14 106.25 138.33 106.25 Q132.519 106.25 129.441 101.666 Q126.385 97.0598 126.385 88.333 Q126.385 79.583 129.441 74.9997 Q132.519 70.3933 138.33 70.3933 Z" fill="#000000" fill-rule="nonzero" fill-opacity="1" /><polyline clip-path="url(#clip052)" style="stroke:#009af9; stroke-linecap:round; stroke-linejoin:round; stroke-width:4; stroke-opacity:1; fill:none" points="247.59,1386.41 299.996,1371.27 352.402,1352.32 404.809,1329.93 457.215,1305.18 509.622,1279.32 562.028,1252.85 614.435,1225.09 666.841,1194.27 719.247,1158.47 771.654,1116.83 824.06,1070.84 876.467,1025.08 928.873,986.932 981.28,964.909 1033.69,965.847 1086.09,991.988 1138.5,1039.47 1190.91,1099.07 1243.31,1158.77 1295.72,1207.34 1348.12,1237.84 1400.53,1249.85 1452.94,1249.08 1505.34,1244.89 1557.75,1246.94 1610.16,1261.96 1662.56,1291.21 1714.97,1329.91 1767.38,1369.57 1819.78,1402.34 1872.19,1424.45 1924.6,1436.5 1977,1441.61 2029.41,1443.11 2081.81,1443.34 2134.22,1443.44 2186.63,1443.74 2239.03,1444.19 2291.44,1444.63 "/>
<polyline clip-path="url(#clip052)" style="stroke:#009af9; stroke-linecap:round; stroke-linejoin:round; stroke-width:4; stroke-opacity:1; fill:none" stroke-dasharray="16, 10" points="247.59,1334.51 299.996,1314.19 352.402,1291.51 404.809,1267.82 457.215,1244.46 509.622,1222.11 562.028,1200.33 614.435,1177.78 666.841,1152.81 719.247,1124.33 771.654,1092.52 824.06,1059.22 876.467,1027.9 928.873,1003.26 981.28,990.475 1033.69,993.847 1086.09,1015.12 1138.5,1052.31 1190.91,1099.91 1243.31,1150.2 1295.72,1195.22 1348.12,1228.83 1400.53,1248.58 1452.94,1256.55 1505.34,1258.4 1557.75,1261.35 1610.16,1271.84 1662.56,1293.2 1714.97,1324.26 1767.38,1359.65 1819.78,1392.42 1872.19,1417.38 1924.6,1432.95 1977,1440.72 2029.41,1443.57 2081.81,1444.12 2134.22,1444.02 2186.63,1444 2239.03,1444.22 2291.44,1444.57 "/>
<polyline clip-path="url(#clip052)" style="stroke:#e26f46; stroke-linecap:round; stroke-linejoin:round; stroke-width:4; stroke-opacity:1; fill:none" points="247.59,127.048 299.996,139.251 352.402,154.625 404.809,174.205 457.215,198.478 509.622,226.989 562.028,258.595 614.435,292.37 666.841,328.559 719.247,368.76 771.654,414.829 824.06,466.806 876.467,520.922 928.873,569.065 981.28,600.6 1033.69,606.189 1086.09,581.832 1138.5,531.076 1190.91,464.428 1243.31,396.302 1295.72,340.575 1348.12,306.199 1400.53,294.43 1452.94,298.698 1505.34,307.262 1557.75,307.756 1610.16,292.008 1662.56,259.141 1714.97,215.407 1767.38,170.739 1819.78,133.992 1872.19,109.497 1924.6,96.5571 1977,91.4479 2029.41,90.1132 2081.81,89.8351 2134.22,89.476 2186.63,88.905 2239.03,88.3428 2291.44,87.9763 "/>
<polyline clip-path="url(#clip052)" style="stroke:#e26f46; stroke-linecap:round; stroke-linejoin:round; stroke-width:4; stroke-opacity:1; fill:none" stroke-dasharray="16, 10" points="247.59,170.774 299.996,188.123 352.402,208.874 404.809,233.353 457.215,260.964 509.622,290.348 562.028,320.076 614.435,349.522 666.841,379.35 719.247,411.218 771.654,446.65 824.06,485.533 876.467,524.951 928.873,559.122 981.28,580.781 1033.69,583.582 1086.09,564.466 1138.5,524.998 1190.91,471.355 1243.31,413.015 1295.72,360.31 1348.12,321.433 1400.53,299.904 1452.94,293.468 1505.34,294.898 1557.75,294.579 1610.16,284.181 1662.56,259.981 1714.97,224.206 1767.38,183.643 1819.78,146.319 1872.19,118.063 1924.6,100.682 1977,92.3636 2029.41,89.6027 2081.81,89.1857 2134.22,89.1907 2186.63,88.9432 2239.03,88.4805 2291.44,88.0434 "/>
<polyline clip-path="url(#clip052)" style="stroke:#3da44d; stroke-linecap:round; stroke-linejoin:round; stroke-width:4; stroke-opacity:1; fill:none" points="247.59,1314.75 299.996,1295.83 352.402,1275.31 404.809,1253.5 457.215,1231.13 509.622,1208.97 562.028,1187.47 614.435,1166.53 666.841,1145.64 719.247,1124.34 771.654,1102.82 824.06,1082.45 876.467,1065.85 928.873,1056.6 981.28,1058.31 1033.69,1073.47 1086.09,1102.16 1138.5,1141.37 1190.91,1185.36 1243.31,1227.22 1295.72,1260.93 1348.12,1283.39 1400.53,1295.29 1452.94,1300.55 1505.34,1304.65 1557.75,1312.78 1610.16,1328.1 1662.56,1350.56 1714.97,1376.92 1767.38,1402.23 1819.78,1422.35 1872.19,1435.54 1924.6,1442.52 1977,1445.25 2029.41,1445.72 2081.81,1445.29 2134.22,1444.69 2186.63,1444.25 2239.03,1444.04 2291.44,1444.06 "/>
<polyline clip-path="url(#clip052)" style="stroke:#3da44d; stroke-linecap:round; stroke-linejoin:round; stroke-width:4; stroke-opacity:1; fill:none" stroke-dasharray="16, 10" points="247.59,1268.23 299.996,1250.45 352.402,1232.21 404.809,1214.09 457.215,1196.72 509.622,1180.45 562.028,1165.22 614.435,1150.56 666.841,1135.9 719.247,1120.87 771.654,1105.59 824.06,1090.9 876.467,1078.5 928.873,1070.92 981.28,1071.18 1033.69,1081.91 1086.09,1104.1 1138.5,1136.33 1190.91,1174.81 1243.31,1214.35 1295.72,1249.63 1348.12,1276.63 1400.53,1293.85 1452.94,1302.83 1505.34,1307.47 1557.75,1312.64 1610.16,1322.6 1662.56,1339.52 1714.97,1362.49 1767.38,1387.82 1819.78,1410.83 1872.19,1428.11 1924.6,1438.74 1977,1443.91 2029.41,1445.62 2081.81,1445.61 2134.22,1444.98 2186.63,1444.35 2239.03,1443.97 2291.44,1443.89 "/>
<path clip-path="url(#clip050)" d="M258.49 458.098 L529.281 458.098 L529.281 95.2176 L258.49 95.2176  Z" fill="#ffffff" fill-rule="evenodd" fill-opacity="1"/>
<polyline clip-path="url(#clip050)" style="stroke:#000000; stroke-linecap:round; stroke-linejoin:round; stroke-width:4; stroke-opacity:1; fill:none" points="258.49,458.098 529.281,458.098 529.281,95.2176 258.49,95.2176 258.49,458.098 "/>
<polyline clip-path="url(#clip050)" style="stroke:#009af9; stroke-linecap:round; stroke-linejoin:round; stroke-width:4; stroke-opacity:1; fill:none" points="282.562,147.058 426.994,147.058 "/>
<path clip-path="url(#clip050)" d="M464.909 166.745 Q463.103 171.375 461.39 172.787 Q459.677 174.199 456.807 174.199 L453.404 174.199 L453.404 170.634 L455.904 170.634 Q457.663 170.634 458.636 169.8 Q459.608 168.967 460.788 165.865 L461.552 163.921 L451.066 138.412 L455.58 138.412 L463.682 158.689 L471.784 138.412 L476.298 138.412 L464.909 166.745 Z" fill="#000000" fill-rule="nonzero" fill-opacity="1" /><path clip-path="url(#clip050)" d="M483.589 160.402 L491.228 160.402 L491.228 134.037 L482.918 135.703 L482.918 131.444 L491.182 129.778 L495.858 129.778 L495.858 160.402 L503.497 160.402 L503.497 164.338 L483.589 164.338 L483.589 160.402 Z" fill="#000000" fill-rule="nonzero" fill-opacity="1" /><polyline clip-path="url(#clip050)" style="stroke:#009af9; stroke-linecap:round; stroke-linejoin:round; stroke-width:4; stroke-opacity:1; fill:none" stroke-dasharray="16, 10" points="282.562,198.898 426.994,198.898 "/>
<path clip-path="url(#clip050)" d="M464.909 218.585 Q463.103 223.215 461.39 224.627 Q459.677 226.039 456.807 226.039 L453.404 226.039 L453.404 222.474 L455.904 222.474 Q457.663 222.474 458.636 221.64 Q459.608 220.807 460.788 217.705 L461.552 215.761 L451.066 190.252 L455.58 190.252 L463.682 210.529 L471.784 190.252 L476.298 190.252 L464.909 218.585 Z" fill="#000000" fill-rule="nonzero" fill-opacity="1" /><path clip-path="url(#clip050)" d="M486.807 212.242 L503.126 212.242 L503.126 216.178 L481.182 216.178 L481.182 212.242 Q483.844 209.488 488.427 204.858 Q493.034 200.205 494.214 198.863 Q496.46 196.34 497.339 194.604 Q498.242 192.844 498.242 191.155 Q498.242 188.4 496.297 186.664 Q494.376 184.928 491.274 184.928 Q489.075 184.928 486.622 185.692 Q484.191 186.455 481.413 188.006 L481.413 183.284 Q484.237 182.15 486.691 181.571 Q489.145 180.993 491.182 180.993 Q496.552 180.993 499.747 183.678 Q502.941 186.363 502.941 190.854 Q502.941 192.983 502.131 194.905 Q501.344 196.803 499.237 199.395 Q498.659 200.067 495.557 203.284 Q492.455 206.479 486.807 212.242 Z" fill="#000000" fill-rule="nonzero" fill-opacity="1" /><polyline clip-path="url(#clip050)" style="stroke:#e26f46; stroke-linecap:round; stroke-linejoin:round; stroke-width:4; stroke-opacity:1; fill:none" points="282.562,250.738 426.994,250.738 "/>
<path clip-path="url(#clip050)" d="M464.909 270.425 Q463.103 275.055 461.39 276.467 Q459.677 277.879 456.807 277.879 L453.404 277.879 L453.404 274.314 L455.904 274.314 Q457.663 274.314 458.636 273.48 Q459.608 272.647 460.788 269.545 L461.552 267.601 L451.066 242.092 L455.58 242.092 L463.682 262.369 L471.784 242.092 L476.298 242.092 L464.909 270.425 Z" fill="#000000" fill-rule="nonzero" fill-opacity="1" /><path clip-path="url(#clip050)" d="M496.946 249.383 Q500.302 250.101 502.177 252.369 Q504.075 254.638 504.075 257.971 Q504.075 263.087 500.557 265.888 Q497.038 268.689 490.557 268.689 Q488.381 268.689 486.066 268.249 Q483.774 267.832 481.321 266.976 L481.321 262.462 Q483.265 263.596 485.58 264.175 Q487.895 264.754 490.418 264.754 Q494.816 264.754 497.108 263.018 Q499.422 261.281 499.422 257.971 Q499.422 254.916 497.27 253.203 Q495.14 251.467 491.321 251.467 L487.293 251.467 L487.293 247.624 L491.506 247.624 Q494.955 247.624 496.784 246.258 Q498.612 244.87 498.612 242.277 Q498.612 239.615 496.714 238.203 Q494.839 236.768 491.321 236.768 Q489.399 236.768 487.2 237.184 Q485.001 237.601 482.362 238.481 L482.362 234.314 Q485.024 233.573 487.339 233.203 Q489.677 232.833 491.737 232.833 Q497.061 232.833 500.163 235.263 Q503.265 237.67 503.265 241.791 Q503.265 244.661 501.622 246.652 Q499.978 248.62 496.946 249.383 Z" fill="#000000" fill-rule="nonzero" fill-opacity="1" /><polyline clip-path="url(#clip050)" style="stroke:#e26f46; stroke-linecap:round; stroke-linejoin:round; stroke-width:4; stroke-opacity:1; fill:none" stroke-dasharray="16, 10" points="282.562,302.578 426.994,302.578 "/>
<path clip-path="url(#clip050)" d="M464.909 322.265 Q463.103 326.895 461.39 328.307 Q459.677 329.719 456.807 329.719 L453.404 329.719 L453.404 326.154 L455.904 326.154 Q457.663 326.154 458.636 325.32 Q459.608 324.487 460.788 321.385 L461.552 319.441 L451.066 293.932 L455.58 293.932 L463.682 314.209 L471.784 293.932 L476.298 293.932 L464.909 322.265 Z" fill="#000000" fill-rule="nonzero" fill-opacity="1" /><path clip-path="url(#clip050)" d="M495.626 289.372 L483.821 307.821 L495.626 307.821 L495.626 289.372 M494.399 285.298 L500.279 285.298 L500.279 307.821 L505.209 307.821 L505.209 311.709 L500.279 311.709 L500.279 319.858 L495.626 319.858 L495.626 311.709 L480.024 311.709 L480.024 307.196 L494.399 285.298 Z" fill="#000000" fill-rule="nonzero" fill-opacity="1" /><polyline clip-path="url(#clip050)" style="stroke:#3da44d; stroke-linecap:round; stroke-linejoin:round; stroke-width:4; stroke-opacity:1; fill:none" points="282.562,354.418 426.994,354.418 "/>
<path clip-path="url(#clip050)" d="M464.909 374.105 Q463.103 378.735 461.39 380.147 Q459.677 381.559 456.807 381.559 L453.404 381.559 L453.404 377.994 L455.904 377.994 Q457.663 377.994 458.636 377.16 Q459.608 376.327 460.788 373.225 L461.552 371.281 L451.066 345.772 L455.58 345.772 L463.682 366.049 L471.784 345.772 L476.298 345.772 L464.909 374.105 Z" fill="#000000" fill-rule="nonzero" fill-opacity="1" /><path clip-path="url(#clip050)" d="M482.825 337.138 L501.182 337.138 L501.182 341.073 L487.108 341.073 L487.108 349.545 Q488.126 349.198 489.145 349.036 Q490.163 348.85 491.182 348.85 Q496.969 348.85 500.348 352.022 Q503.728 355.193 503.728 360.61 Q503.728 366.188 500.256 369.29 Q496.784 372.369 490.464 372.369 Q488.288 372.369 486.02 371.998 Q483.774 371.628 481.367 370.887 L481.367 366.188 Q483.45 367.323 485.673 367.878 Q487.895 368.434 490.372 368.434 Q494.376 368.434 496.714 366.327 Q499.052 364.221 499.052 360.61 Q499.052 356.999 496.714 354.892 Q494.376 352.786 490.372 352.786 Q488.497 352.786 486.622 353.202 Q484.77 353.619 482.825 354.499 L482.825 337.138 Z" fill="#000000" fill-rule="nonzero" fill-opacity="1" /><polyline clip-path="url(#clip050)" style="stroke:#3da44d; stroke-linecap:round; stroke-linejoin:round; stroke-width:4; stroke-opacity:1; fill:none" stroke-dasharray="16, 10" points="282.562,406.258 426.994,406.258 "/>
<path clip-path="url(#clip050)" d="M464.909 425.945 Q463.103 430.575 461.39 431.987 Q459.677 433.399 456.807 433.399 L453.404 433.399 L453.404 429.834 L455.904 429.834 Q457.663 429.834 458.636 429 Q459.608 428.167 460.788 425.065 L461.552 423.121 L451.066 397.612 L455.58 397.612 L463.682 417.889 L471.784 397.612 L476.298 397.612 L464.909 425.945 Z" fill="#000000" fill-rule="nonzero" fill-opacity="1" /><path clip-path="url(#clip050)" d="M493.358 404.394 Q490.21 404.394 488.358 406.547 Q486.529 408.7 486.529 412.45 Q486.529 416.176 488.358 418.352 Q490.21 420.505 493.358 420.505 Q496.506 420.505 498.334 418.352 Q500.186 416.176 500.186 412.45 Q500.186 408.7 498.334 406.547 Q496.506 404.394 493.358 404.394 M502.64 389.741 L502.64 394.001 Q500.881 393.167 499.075 392.728 Q497.293 392.288 495.534 392.288 Q490.904 392.288 488.45 395.413 Q486.02 398.538 485.673 404.857 Q487.038 402.843 489.098 401.778 Q491.159 400.69 493.635 400.69 Q498.844 400.69 501.853 403.862 Q504.885 407.01 504.885 412.45 Q504.885 417.774 501.737 420.991 Q498.589 424.209 493.358 424.209 Q487.362 424.209 484.191 419.626 Q481.02 415.019 481.02 406.292 Q481.02 398.098 484.909 393.237 Q488.798 388.353 495.348 388.353 Q497.108 388.353 498.89 388.7 Q500.696 389.047 502.64 389.741 Z" fill="#000000" fill-rule="nonzero" fill-opacity="1" /></svg>
