<?xml version="1.0" encoding="utf-8"?>
<svg xmlns="http://www.w3.org/2000/svg" xmlns:xlink="http://www.w3.org/1999/xlink" width="600" height="400" viewBox="0 0 2400 1600">
<defs>
  <clipPath id="clip780">
    <rect x="0" y="0" width="2400" height="1600"/>
  </clipPath>
</defs>
<path clip-path="url(#clip780)" d="M0 1600 L2400 1600 L2400 0 L0 0  Z" fill="#ffffff" fill-rule="evenodd" fill-opacity="1"/>
<defs>
  <clipPath id="clip781">
    <rect x="480" y="0" width="1681" height="1600"/>
  </clipPath>
</defs>
<path clip-path="url(#clip780)" d="M186.274 1486.45 L2352.76 1486.45 L2352.76 47.2441 L186.274 47.2441  Z" fill="#ffffff" fill-rule="evenodd" fill-opacity="1"/>
<defs>
  <clipPath id="clip782">
    <rect x="186" y="47" width="2167" height="1440"/>
  </clipPath>
</defs>
<polyline clip-path="url(#clip782)" style="stroke:#000000; stroke-linecap:round; stroke-linejoin:round; stroke-width:2; stroke-opacity:0.1; fill:none" points="195.183,1486.45 195.183,47.2441 "/>
<polyline clip-path="url(#clip782)" style="stroke:#000000; stroke-linecap:round; stroke-linejoin:round; stroke-width:2; stroke-opacity:0.1; fill:none" points="719.247,1486.45 719.247,47.2441 "/>
<polyline clip-path="url(#clip782)" style="stroke:#000000; stroke-linecap:round; stroke-linejoin:round; stroke-width:2; stroke-opacity:0.1; fill:none" points="1243.31,1486.45 1243.31,47.2441 "/>
<polyline clip-path="url(#clip782)" style="stroke:#000000; stroke-linecap:round; stroke-linejoin:round; stroke-width:2; stroke-opacity:0.1; fill:none" points="1767.38,1486.45 1767.38,47.2441 "/>
<polyline clip-path="url(#clip782)" style="stroke:#000000; stroke-linecap:round; stroke-linejoin:round; stroke-width:2; stroke-opacity:0.1; fill:none" points="2291.44,1486.45 2291.44,47.2441 "/>
<polyline clip-path="url(#clip780)" style="stroke:#000000; stroke-linecap:round; stroke-linejoin:round; stroke-width:4; stroke-opacity:1; fill:none" points="186.274,1486.45 2352.76,1486.45 "/>
<polyline clip-path="url(#clip780)" style="stroke:#000000; stroke-linecap:round; stroke-linejoin:round; stroke-width:4; stroke-opacity:1; fill:none" points="195.183,1486.45 195.183,1467.55 "/>
<polyline clip-path="url(#clip780)" style="stroke:#000000; stroke-linecap:round; stroke-linejoin:round; stroke-width:4; stroke-opacity:1; fill:none" points="719.247,1486.45 719.247,1467.55 "/>
<polyline clip-path="url(#clip780)" style="stroke:#000000; stroke-linecap:round; stroke-linejoin:round; stroke-width:4; stroke-opacity:1; fill:none" points="1243.31,1486.45 1243.31,1467.55 "/>
<polyline clip-path="url(#clip780)" style="stroke:#000000; stroke-linecap:round; stroke-linejoin:round; stroke-width:4; stroke-opacity:1; fill:none" points="1767.38,1486.45 1767.38,1467.55 "/>
<polyline clip-path="url(#clip780)" style="stroke:#000000; stroke-linecap:round; stroke-linejoin:round; stroke-width:4; stroke-opacity:1; fill:none" points="2291.44,1486.45 2291.44,1467.55 "/>
<path clip-path="url(#clip780)" d="M195.183 1517.37 Q191.572 1517.37 189.743 1520.93 Q187.938 1524.47 187.938 1531.6 Q187.938 1538.71 189.743 1542.27 Q191.572 1545.82 195.183 1545.82 Q198.817 1545.82 200.623 1542.27 Q202.452 1538.71 202.452 1531.6 Q202.452 1524.47 200.623 1520.93 Q198.817 1517.37 195.183 1517.37 M195.183 1513.66 Q200.993 1513.66 204.049 1518.27 Q207.127 1522.85 207.127 1531.6 Q207.127 1540.33 204.049 1544.94 Q200.993 1549.52 195.183 1549.52 Q189.373 1549.52 186.294 1544.94 Q183.239 1540.33 183.239 1531.6 Q183.239 1522.85 186.294 1518.27 Q189.373 1513.66 195.183 1513.66 Z" fill="#000000" fill-rule="nonzero" fill-opacity="1" /><path clip-path="url(#clip780)" d="M693.935 1544.91 L701.574 1544.91 L701.574 1518.55 L693.264 1520.21 L693.264 1515.95 L701.528 1514.29 L706.204 1514.29 L706.204 1544.91 L713.842 1544.91 L713.842 1548.85 L693.935 1548.85 L693.935 1544.91 Z" fill="#000000" fill-rule="nonzero" fill-opacity="1" /><path clip-path="url(#clip780)" d="M733.287 1517.37 Q729.676 1517.37 727.847 1520.93 Q726.041 1524.47 726.041 1531.6 Q726.041 1538.71 727.847 1542.27 Q729.676 1545.82 733.287 1545.82 Q736.921 1545.82 738.726 1542.27 Q740.555 1538.71 740.555 1531.6 Q740.555 1524.47 738.726 1520.93 Q736.921 1517.37 733.287 1517.37 M733.287 1513.66 Q739.097 1513.66 742.152 1518.27 Q745.231 1522.85 745.231 1531.6 Q745.231 1540.33 742.152 1544.94 Q739.097 1549.52 733.287 1549.52 Q727.477 1549.52 724.398 1544.94 Q721.342 1540.33 721.342 1531.6 Q721.342 1522.85 724.398 1518.27 Q727.477 1513.66 733.287 1513.66 Z" fill="#000000" fill-rule="nonzero" fill-opacity="1" /><path clip-path="url(#clip780)" d="M1222.08 1544.91 L1238.4 1544.91 L1238.4 1548.85 L1216.46 1548.85 L1216.46 1544.91 Q1219.12 1542.16 1223.71 1537.53 Q1228.31 1532.88 1229.49 1531.53 Q1231.74 1529.01 1232.62 1527.27 Q1233.52 1525.51 1233.52 1523.82 Q1233.52 1521.07 1231.58 1519.33 Q1229.65 1517.6 1226.55 1517.6 Q1224.35 1517.6 1221.9 1518.36 Q1219.47 1519.13 1216.69 1520.68 L1216.69 1515.95 Q1219.52 1514.82 1221.97 1514.24 Q1224.42 1513.66 1226.46 1513.66 Q1231.83 1513.66 1235.02 1516.35 Q1238.22 1519.03 1238.22 1523.52 Q1238.22 1525.65 1237.41 1527.57 Q1236.62 1529.47 1234.52 1532.07 Q1233.94 1532.74 1230.83 1535.95 Q1227.73 1539.15 1222.08 1544.91 Z" fill="#000000" fill-rule="nonzero" fill-opacity="1" /><path clip-path="url(#clip780)" d="M1258.22 1517.37 Q1254.61 1517.37 1252.78 1520.93 Q1250.97 1524.47 1250.97 1531.6 Q1250.97 1538.71 1252.78 1542.27 Q1254.61 1545.82 1258.22 1545.82 Q1261.85 1545.82 1263.66 1542.27 Q1265.49 1538.71 1265.49 1531.6 Q1265.49 1524.47 1263.66 1520.93 Q1261.85 1517.37 1258.22 1517.37 M1258.22 1513.66 Q1264.03 1513.66 1267.08 1518.27 Q1270.16 1522.85 1270.16 1531.6 Q1270.16 1540.33 1267.08 1544.94 Q1264.03 1549.52 1258.22 1549.52 Q1252.41 1549.52 1249.33 1544.94 Q1246.27 1540.33 1246.27 1531.6 Q1246.27 1522.85 1249.33 1518.27 Q1252.41 1513.66 1258.22 1513.66 Z" fill="#000000" fill-rule="nonzero" fill-opacity="1" /><path clip-path="url(#clip780)" d="M1756.22 1530.21 Q1759.58 1530.93 1761.45 1533.2 Q1763.35 1535.47 1763.35 1538.8 Q1763.35 1543.92 1759.83 1546.72 Q1756.31 1549.52 1749.83 1549.52 Q1747.65 1549.52 1745.34 1549.08 Q1743.05 1548.66 1740.59 1547.81 L1740.59 1543.29 Q1742.54 1544.43 1744.85 1545.01 Q1747.17 1545.58 1749.69 1545.58 Q1754.09 1545.58 1756.38 1543.85 Q1758.7 1542.11 1758.7 1538.8 Q1758.7 1535.75 1756.54 1534.03 Q1754.41 1532.3 1750.59 1532.3 L1746.57 1532.3 L1746.57 1528.45 L1750.78 1528.45 Q1754.23 1528.45 1756.06 1527.09 Q1757.89 1525.7 1757.89 1523.11 Q1757.89 1520.45 1755.99 1519.03 Q1754.11 1517.6 1750.59 1517.6 Q1748.67 1517.6 1746.47 1518.01 Q1744.27 1518.43 1741.64 1519.31 L1741.64 1515.14 Q1744.3 1514.4 1746.61 1514.03 Q1748.95 1513.66 1751.01 1513.66 Q1756.33 1513.66 1759.44 1516.09 Q1762.54 1518.5 1762.54 1522.62 Q1762.54 1525.49 1760.89 1527.48 Q1759.25 1529.45 1756.22 1530.21 Z" fill="#000000" fill-rule="nonzero" fill-opacity="1" /><path clip-path="url(#clip780)" d="M1782.21 1517.37 Q1778.6 1517.37 1776.77 1520.93 Q1774.97 1524.47 1774.97 1531.6 Q1774.97 1538.71 1776.77 1542.27 Q1778.6 1545.82 1782.21 1545.82 Q1785.85 1545.82 1787.65 1542.27 Q1789.48 1538.71 1789.48 1531.6 Q1789.48 1524.47 1787.65 1520.93 Q1785.85 1517.37 1782.21 1517.37 M1782.21 1513.66 Q1788.02 1513.66 1791.08 1518.27 Q1794.16 1522.85 1794.16 1531.6 Q1794.16 1540.33 1791.08 1544.94 Q1788.02 1549.52 1782.21 1549.52 Q1776.4 1549.52 1773.33 1544.94 Q1770.27 1540.33 1770.27 1531.6 Q1770.27 1522.85 1773.33 1518.27 Q1776.4 1513.66 1782.21 1513.66 Z" fill="#000000" fill-rule="nonzero" fill-opacity="1" /><path clip-path="url(#clip780)" d="M2279.61 1518.36 L2267.81 1536.81 L2279.61 1536.81 L2279.61 1518.36 M2278.38 1514.29 L2284.26 1514.29 L2284.26 1536.81 L2289.2 1536.81 L2289.2 1540.7 L2284.26 1540.7 L2284.26 1548.85 L2279.61 1548.85 L2279.61 1540.7 L2264.01 1540.7 L2264.01 1536.19 L2278.38 1514.29 Z" fill="#000000" fill-rule="nonzero" fill-opacity="1" /><path clip-path="url(#clip780)" d="M2306.93 1517.37 Q2303.32 1517.37 2301.49 1520.93 Q2299.68 1524.47 2299.68 1531.6 Q2299.68 1538.71 2301.49 1542.27 Q2303.32 1545.82 2306.93 1545.82 Q2310.56 1545.82 2312.37 1542.27 Q2314.19 1538.71 2314.19 1531.6 Q2314.19 1524.47 2312.37 1520.93 Q2310.56 1517.37 2306.93 1517.37 M2306.93 1513.66 Q2312.74 1513.66 2315.79 1518.27 Q2318.87 1522.85 2318.87 1531.6 Q2318.87 1540.33 2315.79 1544.94 Q2312.74 1549.52 2306.93 1549.52 Q2301.12 1549.52 2298.04 1544.94 Q2294.98 1540.33 2294.98 1531.6 Q2294.98 1522.85 2298.04 1518.27 Q2301.12 1513.66 2306.93 1513.66 Z" fill="#000000" fill-rule="nonzero" fill-opacity="1" /><polyline clip-path="url(#clip782)" style="stroke:#000000; stroke-linecap:round; stroke-linejoin:round; stroke-width:2; stroke-opacity:0.1; fill:none" points="186.274,1444.77 2352.76,1444.77 "/>
<polyline clip-path="url(#clip782)" style="stroke:#000000; stroke-linecap:round; stroke-linejoin:round; stroke-width:2; stroke-opacity:0.1; fill:none" points="186.274,1105.64 2352.76,1105.64 "/>
<polyline clip-path="url(#clip782)" style="stroke:#000000; stroke-linecap:round; stroke-linejoin:round; stroke-width:2; stroke-opacity:0.1; fill:none" points="186.274,766.518 2352.76,766.518 "/>
<polyline clip-path="url(#clip782)" style="stroke:#000000; stroke-linecap:round; stroke-linejoin:round; stroke-width:2; stroke-opacity:0.1; fill:none" points="186.274,427.394 2352.76,427.394 "/>
<polyline clip-path="url(#clip782)" style="stroke:#000000; stroke-linecap:round; stroke-linejoin:round; stroke-width:2; stroke-opacity:0.1; fill:none" points="186.274,88.2693 2352.76,88.2693 "/>
<polyline clip-path="url(#clip780)" style="stroke:#000000; stroke-linecap:round; stroke-linejoin:round; stroke-width:4; stroke-opacity:1; fill:none" points="186.274,1486.45 186.274,47.2441 "/>
<polyline clip-path="url(#clip780)" style="stroke:#000000; stroke-linecap:round; stroke-linejoin:round; stroke-width:4; stroke-opacity:1; fill:none" points="186.274,1444.77 205.172,1444.77 "/>
<polyline clip-path="url(#clip780)" style="stroke:#000000; stroke-linecap:round; stroke-linejoin:round; stroke-width:4; stroke-opacity:1; fill:none" points="186.274,1105.64 205.172,1105.64 "/>
<polyline clip-path="url(#clip780)" style="stroke:#000000; stroke-linecap:round; stroke-linejoin:round; stroke-width:4; stroke-opacity:1; fill:none" points="186.274,766.518 205.172,766.518 "/>
<polyline clip-path="url(#clip780)" style="stroke:#000000; stroke-linecap:round; stroke-linejoin:round; stroke-width:4; stroke-opacity:1; fill:none" points="186.274,427.394 205.172,427.394 "/>
<polyline clip-path="url(#clip780)" style="stroke:#000000; stroke-linecap:round; stroke-linejoin:round; stroke-width:4; stroke-opacity:1; fill:none" points="186.274,88.2693 205.172,88.2693 "/>
<path clip-path="url(#clip780)" d="M62.9365 1430.57 Q59.3254 1430.57 57.4967 1434.13 Q55.6912 1437.67 55.6912 1444.8 Q55.6912 1451.91 57.4967 1455.47 Q59.3254 1459.02 62.9365 1459.02 Q66.5707 1459.02 68.3763 1455.47 Q70.205 1451.91 70.205 1444.8 Q70.205 1437.67 68.3763 1434.13 Q66.5707 1430.57 62.9365 1430.57 M62.9365 1426.86 Q68.7467 1426.86 71.8022 1431.47 Q74.8809 1436.05 74.8809 1444.8 Q74.8809 1453.53 71.8022 1458.14 Q68.7467 1462.72 62.9365 1462.72 Q57.1264 1462.72 54.0477 1458.14 Q50.9921 1453.53 50.9921 1444.8 Q50.9921 1436.05 54.0477 1431.47 Q57.1264 1426.86 62.9365 1426.86 Z" fill="#000000" fill-rule="nonzero" fill-opacity="1" /><path clip-path="url(#clip780)" d="M83.0984 1456.17 L87.9827 1456.17 L87.9827 1462.05 L83.0984 1462.05 L83.0984 1456.17 Z" fill="#000000" fill-rule="nonzero" fill-opacity="1" /><path clip-path="url(#clip780)" d="M108.168 1430.57 Q104.557 1430.57 102.728 1434.13 Q100.922 1437.67 100.922 1444.8 Q100.922 1451.91 102.728 1455.47 Q104.557 1459.02 108.168 1459.02 Q111.802 1459.02 113.608 1455.47 Q115.436 1451.91 115.436 1444.8 Q115.436 1437.67 113.608 1434.13 Q111.802 1430.57 108.168 1430.57 M108.168 1426.86 Q113.978 1426.86 117.033 1431.47 Q120.112 1436.05 120.112 1444.8 Q120.112 1453.53 117.033 1458.14 Q113.978 1462.72 108.168 1462.72 Q102.358 1462.72 99.2789 1458.14 Q96.2234 1453.53 96.2234 1444.8 Q96.2234 1436.05 99.2789 1431.47 Q102.358 1426.86 108.168 1426.86 Z" fill="#000000" fill-rule="nonzero" fill-opacity="1" /><path clip-path="url(#clip780)" d="M138.33 1430.57 Q134.719 1430.57 132.89 1434.13 Q131.084 1437.67 131.084 1444.8 Q131.084 1451.91 132.89 1455.47 Q134.719 1459.02 138.33 1459.02 Q141.964 1459.02 143.769 1455.47 Q145.598 1451.91 145.598 1444.8 Q145.598 1437.67 143.769 1434.13 Q141.964 1430.57 138.33 1430.57 M138.33 1426.86 Q144.14 1426.86 147.195 1431.47 Q150.274 1436.05 150.274 1444.8 Q150.274 1453.53 147.195 1458.14 Q144.14 1462.72 138.33 1462.72 Q132.519 1462.72 129.441 1458.14 Q126.385 1453.53 126.385 1444.8 Q126.385 1436.05 129.441 1431.47 Q132.519 1426.86 138.33 1426.86 Z" fill="#000000" fill-rule="nonzero" fill-opacity="1" /><path clip-path="url(#clip780)" d="M63.9319 1091.44 Q60.3208 1091.44 58.4921 1095.01 Q56.6865 1098.55 56.6865 1105.68 Q56.6865 1112.78 58.4921 1116.35 Q60.3208 1119.89 63.9319 1119.89 Q67.5661 1119.89 69.3717 1116.35 Q71.2004 1112.78 71.2004 1105.68 Q71.2004 1098.55 69.3717 1095.01 Q67.5661 1091.44 63.9319 1091.44 M63.9319 1087.74 Q69.742 1087.74 72.7976 1092.34 Q75.8763 1096.93 75.8763 1105.68 Q75.8763 1114.4 72.7976 1119.01 Q69.742 1123.59 63.9319 1123.59 Q58.1217 1123.59 55.043 1119.01 Q51.9875 1114.4 51.9875 1105.68 Q51.9875 1096.93 55.043 1092.34 Q58.1217 1087.74 63.9319 1087.74 Z" fill="#000000" fill-rule="nonzero" fill-opacity="1" /><path clip-path="url(#clip780)" d="M84.0938 1117.04 L88.978 1117.04 L88.978 1122.92 L84.0938 1122.92 L84.0938 1117.04 Z" fill="#000000" fill-rule="nonzero" fill-opacity="1" /><path clip-path="url(#clip780)" d="M103.191 1118.99 L119.51 1118.99 L119.51 1122.92 L97.566 1122.92 L97.566 1118.99 Q100.228 1116.23 104.811 1111.6 Q109.418 1106.95 110.598 1105.61 Q112.844 1103.09 113.723 1101.35 Q114.626 1099.59 114.626 1097.9 Q114.626 1095.15 112.682 1093.41 Q110.76 1091.67 107.658 1091.67 Q105.459 1091.67 103.006 1092.44 Q100.575 1093.2 97.7974 1094.75 L97.7974 1090.03 Q100.621 1088.9 103.075 1088.32 Q105.529 1087.74 107.566 1087.74 Q112.936 1087.74 116.131 1090.42 Q119.325 1093.11 119.325 1097.6 Q119.325 1099.73 118.515 1101.65 Q117.728 1103.55 115.621 1106.14 Q115.043 1106.81 111.941 1110.03 Q108.839 1113.22 103.191 1118.99 Z" fill="#000000" fill-rule="nonzero" fill-opacity="1" /><path clip-path="url(#clip780)" d="M129.371 1088.36 L147.728 1088.36 L147.728 1092.3 L133.654 1092.3 L133.654 1100.77 Q134.672 1100.42 135.691 1100.26 Q136.709 1100.08 137.728 1100.08 Q143.515 1100.08 146.894 1103.25 Q150.274 1106.42 150.274 1111.84 Q150.274 1117.41 146.802 1120.52 Q143.33 1123.59 137.01 1123.59 Q134.834 1123.59 132.566 1123.22 Q130.32 1122.85 127.913 1122.11 L127.913 1117.41 Q129.996 1118.55 132.219 1119.1 Q134.441 1119.66 136.918 1119.66 Q140.922 1119.66 143.26 1117.55 Q145.598 1115.45 145.598 1111.84 Q145.598 1108.22 143.26 1106.12 Q140.922 1104.01 136.918 1104.01 Q135.043 1104.01 133.168 1104.43 Q131.316 1104.84 129.371 1105.72 L129.371 1088.36 Z" fill="#000000" fill-rule="nonzero" fill-opacity="1" /><path clip-path="url(#clip780)" d="M62.9365 752.317 Q59.3254 752.317 57.4967 755.882 Q55.6912 759.424 55.6912 766.553 Q55.6912 773.66 57.4967 777.224 Q59.3254 780.766 62.9365 780.766 Q66.5707 780.766 68.3763 777.224 Q70.205 773.66 70.205 766.553 Q70.205 759.424 68.3763 755.882 Q66.5707 752.317 62.9365 752.317 M62.9365 748.613 Q68.7467 748.613 71.8022 753.22 Q74.8809 757.803 74.8809 766.553 Q74.8809 775.28 71.8022 779.886 Q68.7467 784.47 62.9365 784.47 Q57.1264 784.47 54.0477 779.886 Q50.9921 775.28 50.9921 766.553 Q50.9921 757.803 54.0477 753.22 Q57.1264 748.613 62.9365 748.613 Z" fill="#000000" fill-rule="nonzero" fill-opacity="1" /><path clip-path="url(#clip780)" d="M83.0984 777.919 L87.9827 777.919 L87.9827 783.798 L83.0984 783.798 L83.0984 777.919 Z" fill="#000000" fill-rule="nonzero" fill-opacity="1" /><path clip-path="url(#clip780)" d="M98.2141 749.238 L116.57 749.238 L116.57 753.174 L102.496 753.174 L102.496 761.646 Q103.515 761.299 104.534 761.137 Q105.552 760.951 106.571 760.951 Q112.358 760.951 115.737 764.123 Q119.117 767.294 119.117 772.711 Q119.117 778.289 115.645 781.391 Q112.172 784.47 105.853 784.47 Q103.677 784.47 101.409 784.099 Q99.1632 783.729 96.7558 782.988 L96.7558 778.289 Q98.8391 779.423 101.061 779.979 Q103.284 780.535 105.76 780.535 Q109.765 780.535 112.103 778.428 Q114.441 776.322 114.441 772.711 Q114.441 769.099 112.103 766.993 Q109.765 764.886 105.76 764.886 Q103.885 764.886 102.01 765.303 Q100.159 765.72 98.2141 766.599 L98.2141 749.238 Z" fill="#000000" fill-rule="nonzero" fill-opacity="1" /><path clip-path="url(#clip780)" d="M138.33 752.317 Q134.719 752.317 132.89 755.882 Q131.084 759.424 131.084 766.553 Q131.084 773.66 132.89 777.224 Q134.719 780.766 138.33 780.766 Q141.964 780.766 143.769 777.224 Q145.598 773.66 145.598 766.553 Q145.598 759.424 143.769 755.882 Q141.964 752.317 138.33 752.317 M138.33 748.613 Q144.14 748.613 147.195 753.22 Q150.274 757.803 150.274 766.553 Q150.274 775.28 147.195 779.886 Q144.14 784.47 138.33 784.47 Q132.519 784.47 129.441 779.886 Q126.385 775.28 126.385 766.553 Q126.385 757.803 129.441 753.22 Q132.519 748.613 138.33 748.613 Z" fill="#000000" fill-rule="nonzero" fill-opacity="1" /><path clip-path="url(#clip780)" d="M63.9319 413.193 Q60.3208 413.193 58.4921 416.757 Q56.6865 420.299 56.6865 427.429 Q56.6865 434.535 58.4921 438.1 Q60.3208 441.641 63.9319 441.641 Q67.5661 441.641 69.3717 438.1 Q71.2004 434.535 71.2004 427.429 Q71.2004 420.299 69.3717 416.757 Q67.5661 413.193 63.9319 413.193 M63.9319 409.489 Q69.742 409.489 72.7976 414.095 Q75.8763 418.679 75.8763 427.429 Q75.8763 436.155 72.7976 440.762 Q69.742 445.345 63.9319 445.345 Q58.1217 445.345 55.043 440.762 Q51.9875 436.155 51.9875 427.429 Q51.9875 418.679 55.043 414.095 Q58.1217 409.489 63.9319 409.489 Z" fill="#000000" fill-rule="nonzero" fill-opacity="1" /><path clip-path="url(#clip780)" d="M84.0938 438.794 L88.978 438.794 L88.978 444.674 L84.0938 444.674 L84.0938 438.794 Z" fill="#000000" fill-rule="nonzero" fill-opacity="1" /><path clip-path="url(#clip780)" d="M97.9826 410.114 L120.205 410.114 L120.205 412.105 L107.658 444.674 L102.774 444.674 L114.58 414.049 L97.9826 414.049 L97.9826 410.114 Z" fill="#000000" fill-rule="nonzero" fill-opacity="1" /><path clip-path="url(#clip780)" d="M129.371 410.114 L147.728 410.114 L147.728 414.049 L133.654 414.049 L133.654 422.521 Q134.672 422.174 135.691 422.012 Q136.709 421.827 137.728 421.827 Q143.515 421.827 146.894 424.998 Q150.274 428.169 150.274 433.586 Q150.274 439.165 146.802 442.266 Q143.33 445.345 137.01 445.345 Q134.834 445.345 132.566 444.975 Q130.32 444.604 127.913 443.864 L127.913 439.165 Q129.996 440.299 132.219 440.854 Q134.441 441.41 136.918 441.41 Q140.922 441.41 143.26 439.304 Q145.598 437.197 145.598 433.586 Q145.598 429.975 143.26 427.868 Q140.922 425.762 136.918 425.762 Q135.043 425.762 133.168 426.179 Q131.316 426.595 129.371 427.475 L129.371 410.114 Z" fill="#000000" fill-rule="nonzero" fill-opacity="1" /><path clip-path="url(#clip780)" d="M53.7467 101.614 L61.3856 101.614 L61.3856 75.2485 L53.0754 76.9152 L53.0754 72.6559 L61.3393 70.9893 L66.0152 70.9893 L66.0152 101.614 L73.654 101.614 L73.654 105.549 L53.7467 105.549 L53.7467 101.614 Z" fill="#000000" fill-rule="nonzero" fill-opacity="1" /><path clip-path="url(#clip780)" d="M83.0984 99.6697 L87.9827 99.6697 L87.9827 105.549 L83.0984 105.549 L83.0984 99.6697 Z" fill="#000000" fill-rule="nonzero" fill-opacity="1" /><path clip-path="url(#clip780)" d="M108.168 74.068 Q104.557 74.068 102.728 77.6328 Q100.922 81.1744 100.922 88.304 Q100.922 95.4104 102.728 98.9752 Q104.557 102.517 108.168 102.517 Q111.802 102.517 113.608 98.9752 Q115.436 95.4104 115.436 88.304 Q115.436 81.1744 113.608 77.6328 Q111.802 74.068 108.168 74.068 M108.168 70.3643 Q113.978 70.3643 117.033 74.9707 Q120.112 79.554 120.112 88.304 Q120.112 97.0308 117.033 101.637 Q113.978 106.221 108.168 106.221 Q102.358 106.221 99.2789 101.637 Q96.2234 97.0308 96.2234 88.304 Q96.2234 79.554 99.2789 74.9707 Q102.358 70.3643 108.168 70.3643 Z" fill="#000000" fill-rule="nonzero" fill-opacity="1" /><path clip-path="url(#clip780)" d="M138.33 74.068 Q134.719 74.068 132.89 77.6328 Q131.084 81.1744 131.084 88.304 Q131.084 95.4104 132.89 98.9752 Q134.719 102.517 138.33 102.517 Q141.964 102.517 143.769 98.9752 Q145.598 95.4104 145.598 88.304 Q145.598 81.1744 143.769 77.6328 Q141.964 74.068 138.33 74.068 M138.33 70.3643 Q144.14 70.3643 147.195 74.9707 Q150.274 79.554 150.274 88.304 Q150.274 97.0308 147.195 101.637 Q144.14 106.221 138.33 106.221 Q132.519 106.221 129.441 101.637 Q126.385 97.0308 126.385 88.304 Q126.385 79.554 129.441 74.9707 Q132.519 70.3643 138.33 70.3643 Z" fill="#000000" fill-rule="nonzero" fill-opacity="1" /><polyline clip-path="url(#clip782)" style="stroke:#009af9; stroke-linecap:round; stroke-linejoin:round; stroke-width:4; stroke-opacity:1; fill:none" points="247.59,1374.75 299.996,1357.19 352.402,1335.78 404.809,1311.22 457.215,1284.78 509.622,1257.59 562.028,1229.79 614.435,1200.29 666.841,1167.15 719.247,1128.65 771.654,1084.56 824.06,1037.23 876.467,992.06 928.873,957.045 981.28,940.766 1033.69,949.213 1086.09,982.99 1138.5,1036.66 1190.91,1100.27 1243.31,1162 1295.72,1211.23 1348.12,1241.62 1400.53,1253.09 1452.94,1251.44 1505.34,1245.84 1557.75,1245.79 1610.16,1258.3 1662.56,1285.39 1714.97,1323.14 1767.38,1363.35 1819.78,1397.73 1872.19,1421.67 1924.6,1435.17 1977,1441.13 2029.41,1442.98 2081.81,1443.28 2134.22,1443.34 2186.63,1443.6 2239.03,1444.02 2291.44,1444.47 "/>
<polyline clip-path="url(#clip782)" style="stroke:#009af9; stroke-linecap:round; stroke-linejoin:round; stroke-width:4; stroke-opacity:1; fill:none" stroke-dasharray="16, 10" points="247.59,1334.42 299.996,1314.11 352.402,1291.43 404.809,1267.73 457.215,1244.38 509.622,1222.03 562.028,1200.25 614.435,1177.7 666.841,1152.73 719.247,1124.25 771.654,1092.44 824.06,1059.14 876.467,1027.83 928.873,1003.19 981.28,990.405 1033.69,993.776 1086.09,1015.05 1138.5,1052.24 1190.91,1099.83 1243.31,1150.13 1295.72,1195.14 1348.12,1228.74 1400.53,1248.5 1452.94,1256.47 1505.34,1258.32 1557.75,1261.27 1610.16,1271.75 1662.56,1293.12 1714.97,1324.18 1767.38,1359.57 1819.78,1392.34 1872.19,1417.29 1924.6,1432.86 1977,1440.63 2029.41,1443.48 2081.81,1444.03 2134.22,1443.93 2186.63,1443.91 2239.03,1444.13 2291.44,1444.48 "/>
<polyline clip-path="url(#clip782)" style="stroke:#e26f46; stroke-linecap:round; stroke-linejoin:round; stroke-width:4; stroke-opacity:1; fill:none" points="247.59,135.953 299.996,150.263 352.402,168.264 404.809,190.833 457.215,218.076 509.622,249.169 562.028,282.92 614.435,318.766 666.841,357.465 719.247,400.794 771.654,450.117 824.06,504.344 876.467,558.373 928.873,603.197 981.28,628.278 1033.69,625.464 1086.09,592.544 1138.5,534.699 1190.91,463.315 1243.31,392.757 1295.72,336.22 1348.12,301.871 1400.53,290.525 1452.94,295.663 1505.34,305.854 1557.75,308.83 1610.16,295.968 1662.56,265.499 1714.97,222.829 1767.38,177.604 1819.78,139.1 1872.19,112.5 1924.6,97.8616 1977,91.7824 2029.41,90.0993 2081.81,89.8059 2134.22,89.5174 2186.63,88.9796 2239.03,88.3937 2291.44,87.9763 "/>
<polyline clip-path="url(#clip782)" style="stroke:#e26f46; stroke-linecap:round; stroke-linejoin:round; stroke-width:4; stroke-opacity:1; fill:none" stroke-dasharray="16, 10" points="247.59,170.741 299.996,188.09 352.402,208.839 404.809,233.317 457.215,260.928 509.622,290.31 562.028,320.037 614.435,349.481 666.841,379.308 719.247,411.174 771.654,446.605 824.06,485.486 876.467,524.902 928.873,559.072 981.28,580.729 1033.69,583.53 1086.09,564.415 1138.5,524.948 1190.91,471.309 1243.31,412.971 1295.72,360.268 1348.12,321.394 1400.53,299.865 1452.94,293.43 1505.34,294.859 1557.75,294.54 1610.16,284.143 1662.56,259.945 1714.97,224.171 1767.38,183.609 1819.78,146.287 1872.19,118.033 1924.6,100.653 1977,92.3345 2029.41,89.5737 2081.81,89.1567 2134.22,89.1617 2186.63,88.9142 2239.03,88.4515 2291.44,88.0144 "/>
<polyline clip-path="url(#clip782)" style="stroke:#3da44d; stroke-linecap:round; stroke-linejoin:round; stroke-width:4; stroke-opacity:1; fill:none" points="247.59,1298.38 299.996,1278.31 352.402,1256.76 404.809,1234.21 457.215,1211.42 509.622,1189.05 562.028,1167.33 614.435,1146.01 666.841,1124.66 719.247,1103.06 771.654,1081.64 824.06,1061.82 876.467,1046.3 928.873,1038.85 981.28,1043.43 1033.69,1062.49 1086.09,1095.48 1138.5,1138.53 1190.91,1185.34 1243.31,1228.86 1295.72,1263.23 1348.12,1285.62 1400.53,1296.97 1452.94,1301.3 1505.34,1304.06 1557.75,1310.49 1610.16,1324.07 1662.56,1345.35 1714.97,1371.54 1767.38,1397.72 1819.78,1419.24 1872.19,1433.79 1924.6,1441.75 1977,1445.02 2029.41,1445.72 2081.81,1445.34 2134.22,1444.72 2186.63,1444.21 2239.03,1443.95 2291.44,1443.93 "/>
<polyline clip-path="url(#clip782)" style="stroke:#3da44d; stroke-linecap:round; stroke-linejoin:round; stroke-width:4; stroke-opacity:1; fill:none" stroke-dasharray="16, 10" points="247.59,1268.15 299.996,1250.37 352.402,1232.13 404.809,1214.01 457.215,1196.64 509.622,1180.38 562.028,1165.14 614.435,1150.48 666.841,1135.82 719.247,1120.79 771.654,1105.51 824.06,1090.83 876.467,1078.42 928.873,1070.84 981.28,1071.11 1033.69,1081.83 1086.09,1104.03 1138.5,1136.25 1190.91,1174.73 1243.31,1214.27 1295.72,1249.55 1348.12,1276.55 1400.53,1293.77 1452.94,1302.75 1505.34,1307.38 1557.75,1312.55 1610.16,1322.52 1662.56,1339.43 1714.97,1362.4 1767.38,1387.73 1819.78,1410.74 1872.19,1428.02 1924.6,1438.64 1977,1443.82 2029.41,1445.53 2081.81,1445.51 2134.22,1444.89 2186.63,1444.26 2239.03,1443.88 2291.44,1443.8 "/>
<path clip-path="url(#clip780)" d="M258.49 458.098 L529.281 458.098 L529.281 95.2176 L258.49 95.2176  Z" fill="#ffffff" fill-rule="evenodd" fill-opacity="1"/>
<polyline clip-path="url(#clip780)" style="stroke:#000000; stroke-linecap:round; stroke-linejoin:round; stroke-width:4; stroke-opacity:1; fill:none" points="258.49,458.098 529.281,458.098 529.281,95.2176 258.49,95.2176 258.49,458.098 "/>
<polyline clip-path="url(#clip780)" style="stroke:#009af9; stroke-linecap:round; stroke-linejoin:round; stroke-width:4; stroke-opacity:1; fill:none" points="282.562,147.058 426.994,147.058 "/>
<path clip-path="url(#clip780)" d="M464.909 166.745 Q463.103 171.375 461.39 172.787 Q459.677 174.199 456.807 174.199 L453.404 174.199 L453.404 170.634 L455.904 170.634 Q457.663 170.634 458.636 169.8 Q459.608 168.967 460.788 165.865 L461.552 163.921 L451.066 138.412 L455.58 138.412 L463.682 158.689 L471.784 138.412 L476.298 138.412 L464.909 166.745 Z" fill="#000000" fill-rule="nonzero" fill-opacity="1" /><path clip-path="url(#clip780)" d="M483.589 160.402 L491.228 160.402 L491.228 134.037 L482.918 135.703 L482.918 131.444 L491.182 129.778 L495.858 129.778 L495.858 160.402 L503.497 160.402 L503.497 164.338 L483.589 164.338 L483.589 160.402 Z" fill="#000000" fill-rule="nonzero" fill-opacity="1" /><polyline clip-path="url(#clip780)" style="stroke:#009af9; stroke-linecap:round; stroke-linejoin:round; stroke-width:4; stroke-opacity:1; fill:none" stroke-dasharray="16, 10" points="282.562,198.898 426.994,198.898 "/>
<path clip-path="url(#clip780)" d="M464.909 218.585 Q463.103 223.215 461.39 224.627 Q459.677 226.039 456.807 226.039 L453.404 226.039 L453.404 222.474 L455.904 222.474 Q457.663 222.474 458.636 221.64 Q459.608 220.807 460.788 217.705 L461.552 215.761 L451.066 190.252 L455.58 190.252 L463.682 210.529 L471.784 190.252 L476.298 190.252 L464.909 218.585 Z" fill="#000000" fill-rule="nonzero" fill-opacity="1" /><path clip-path="url(#clip780)" d="M486.807 212.242 L503.126 212.242 L503.126 216.178 L481.182 216.178 L481.182 212.242 Q483.844 209.488 488.427 204.858 Q493.034 200.205 494.214 198.863 Q496.46 196.34 497.339 194.604 Q498.242 192.844 498.242 191.155 Q498.242 188.4 496.297 186.664 Q494.376 184.928 491.274 184.928 Q489.075 184.928 486.622 185.692 Q484.191 186.455 481.413 188.006 L481.413 183.284 Q484.237 182.15 486.691 181.571 Q489.145 180.993 491.182 180.993 Q496.552 180.993 499.747 183.678 Q502.941 186.363 502.941 190.854 Q502.941 192.983 502.131 194.905 Q501.344 196.803 499.237 199.395 Q498.659 200.067 495.557 203.284 Q492.455 206.479 486.807 212.242 Z" fill="#000000" fill-rule="nonzero" fill-opacity="1" /><polyline clip-path="url(#clip780)" style="stroke:#e26f46; stroke-linecap:round; stroke-linejoin:round; stroke-width:4; stroke-opacity:1; fill:none" points="282.562,250.738 426.994,250.738 "/>
<path clip-path="url(#clip780)" d="M464.909 270.425 Q463.103 275.055 461.39 276.467 Q459.677 277.879 456.807 277.879 L453.404 277.879 L453.404 274.314 L455.904 274.314 Q457.663 274.314 458.636 273.48 Q459.608 272.647 460.788 269.545 L461.552 267.601 L451.066 242.092 L455.58 242.092 L463.682 262.369 L471.784 242.092 L476.298 242.092 L464.909 270.425 Z" fill="#000000" fill-rule="nonzero" fill-opacity="1" /><path clip-path="url(#clip780)" d="M496.946 249.383 Q500.302 250.101 502.177 252.369 Q504.075 254.638 504.075 257.971 Q504.075 263.087 500.557 265.888 Q497.038 268.689 490.557 268.689 Q488.381 268.689 486.066 268.249 Q483.774 267.832 481.321 266.976 L481.321 262.462 Q483.265 263.596 485.58 264.175 Q487.895 264.754 490.418 264.754 Q494.816 264.754 497.108 263.018 Q499.422 261.281 499.422 257.971 Q499.422 254.916 497.27 253.203 Q495.14 251.467 491.321 251.467 L487.293 251.467 L487.293 247.624 L491.506 247.624 Q494.955 247.624 496.784 246.258 Q498.612 244.87 498.612 242.277 Q498.612 239.615 496.714 238.203 Q494.839 236.768 491.321 236.768 Q489.399 236.768 487.2 237.184 Q485.001 237.601 482.362 238.481 L482.362 234.314 Q485.024 233.573 487.339 233.203 Q489.677 232.833 491.737 232.833 Q497.061 232.833 500.163 235.263 Q503.265 237.67 503.265 241.791 Q503.265 244.661 501.622 246.652 Q499.978 248.62 496.946 249.383 Z" fill="#000000" fill-rule="nonzero" fill-opacity="1" /><polyline clip-path="url(#clip780)" style="stroke:#e26f46; stroke-linecap:round; stroke-linejoin:round; stroke-width:4; stroke-opacity:1; fill:none" stroke-dasharray="16, 10" points="282.562,302.578 426.994,302.578 "/>
<path clip-path="url(#clip780)" d="M464.909 322.265 Q463.103 326.895 461.39 328.307 Q459.677 329.719 456.807 329.719 L453.404 329.719 L453.404 326.154 L455.904 326.154 Q457.663 326.154 458.636 325.32 Q459.608 324.487 460.788 321.385 L461.552 319.441 L451.066 293.932 L455.58 293.932 L463.682 314.209 L471.784 293.932 L476.298 293.932 L464.909 322.265 Z" fill="#000000" fill-rule="nonzero" fill-opacity="1" /><path clip-path="url(#clip780)" d="M495.626 289.372 L483.821 307.821 L495.626 307.821 L495.626 289.372 M494.399 285.298 L500.279 285.298 L500.279 307.821 L505.209 307.821 L505.209 311.709 L500.279 311.709 L500.279 319.858 L495.626 319.858 L495.626 311.709 L480.024 311.709 L480.024 307.196 L494.399 285.298 Z" fill="#000000" fill-rule="nonzero" fill-opacity="1" /><polyline clip-path="url(#clip780)" style="stroke:#3da44d; stroke-linecap:round; stroke-linejoin:round; stroke-width:4; stroke-opacity:1; fill:none" points="282.562,354.418 426.994,354.418 "/>
<path clip-path="url(#clip780)" d="M464.909 374.105 Q463.103 378.735 461.39 380.147 Q459.677 381.559 456.807 381.559 L453.404 381.559 L453.404 377.994 L455.904 377.994 Q457.663 377.994 458.636 377.16 Q459.608 376.327 460.788 373.225 L461.552 371.281 L451.066 345.772 L455.58 345.772 L463.682 366.049 L471.784 345.772 L476.298 345.772 L464.909 374.105 Z" fill="#000000" fill-rule="nonzero" fill-opacity="1" /><path clip-path="url(#clip780)" d="M482.825 337.138 L501.182 337.138 L501.182 341.073 L487.108 341.073 L487.108 349.545 Q488.126 349.198 489.145 349.036 Q490.163 348.85 491.182 348.85 Q496.969 348.85 500.348 352.022 Q503.728 355.193 503.728 360.61 Q503.728 366.188 500.256 369.29 Q496.784 372.369 490.464 372.369 Q488.288 372.369 486.02 371.998 Q483.774 371.628 481.367 370.887 L481.367 366.188 Q483.45 367.323 485.673 367.878 Q487.895 368.434 490.372 368.434 Q494.376 368.434 496.714 366.327 Q499.052 364.221 499.052 360.61 Q499.052 356.999 496.714 354.892 Q494.376 352.786 490.372 352.786 Q488.497 352.786 486.622 353.202 Q484.77 353.619 482.825 354.499 L482.825 337.138 Z" fill="#000000" fill-rule="nonzero" fill-opacity="1" /><polyline clip-path="url(#clip780)" style="stroke:#3da44d; stroke-linecap:round; stroke-linejoin:round; stroke-width:4; stroke-opacity:1; fill:none" stroke-dasharray="16, 10" points="282.562,406.258 426.994,406.258 "/>
<path clip-path="url(#clip780)" d="M464.909 425.945 Q463.103 430.575 461.39 431.987 Q459.677 433.399 456.807 433.399 L453.404 433.399 L453.404 429.834 L455.904 429.834 Q457.663 429.834 458.636 429 Q459.608 428.167 460.788 425.065 L461.552 423.121 L451.066 397.612 L455.58 397.612 L463.682 417.889 L471.784 397.612 L476.298 397.612 L464.909 425.945 Z" fill="#000000" fill-rule="nonzero" fill-opacity="1" /><path clip-path="url(#clip780)" d="M493.358 404.394 Q490.21 404.394 488.358 406.547 Q486.529 408.7 486.529 412.45 Q486.529 416.176 488.358 418.352 Q490.21 420.505 493.358 420.505 Q496.506 420.505 498.334 418.352 Q500.186 416.176 500.186 412.45 Q500.186 408.7 498.334 406.547 Q496.506 404.394 493.358 404.394 M502.64 389.741 L502.64 394.001 Q500.881 393.167 499.075 392.728 Q497.293 392.288 495.534 392.288 Q490.904 392.288 488.45 395.413 Q486.02 398.538 485.673 404.857 Q487.038 402.843 489.098 401.778 Q491.159 400.69 493.635 400.69 Q498.844 400.69 501.853 403.862 Q504.885 407.01 504.885 412.45 Q504.885 417.774 501.737 420.991 Q498.589 424.209 493.358 424.209 Q487.362 424.209 484.191 419.626 Q481.02 415.019 481.02 406.292 Q481.02 398.098 484.909 393.237 Q488.798 388.353 495.348 388.353 Q497.108 388.353 498.89 388.7 Q500.696 389.047 502.64 389.741 Z" fill="#000000" fill-rule="nonzero" fill-opacity="1" /></svg>
