<?xml version="1.0" encoding="utf-8"?>
<svg xmlns="http://www.w3.org/2000/svg" xmlns:xlink="http://www.w3.org/1999/xlink" width="600" height="400" viewBox="0 0 2400 1600">
<defs>
  <clipPath id="clip260">
    <rect x="0" y="0" width="2400" height="1600"/>
  </clipPath>
</defs>
<path clip-path="url(#clip260)" d="M0 1600 L2400 1600 L2400 0 L0 0  Z" fill="#ffffff" fill-rule="evenodd" fill-opacity="1"/>
<defs>
  <clipPath id="clip261">
    <rect x="480" y="0" width="1681" height="1600"/>
  </clipPath>
</defs>
<path clip-path="url(#clip260)" d="M186.274 1486.45 L2352.76 1486.45 L2352.76 47.2441 L186.274 47.2441  Z" fill="#ffffff" fill-rule="evenodd" fill-opacity="1"/>
<defs>
  <clipPath id="clip262">
    <rect x="186" y="47" width="2167" height="1440"/>
  </clipPath>
</defs>
<polyline clip-path="url(#clip262)" style="stroke:#000000; stroke-linecap:round; stroke-linejoin:round; stroke-width:2; stroke-opacity:0.1; fill:none" points="195.183,1486.45 195.183,47.2441 "/>
<polyline clip-path="url(#clip262)" style="stroke:#000000; stroke-linecap:round; stroke-linejoin:round; stroke-width:2; stroke-opacity:0.1; fill:none" points="719.247,1486.45 719.247,47.2441 "/>
<polyline clip-path="url(#clip262)" style="stroke:#000000; stroke-linecap:round; stroke-linejoin:round; stroke-width:2; stroke-opacity:0.1; fill:none" points="1243.31,1486.45 1243.31,47.2441 "/>
<polyline clip-path="url(#clip262)" style="stroke:#000000; stroke-linecap:round; stroke-linejoin:round; stroke-width:2; stroke-opacity:0.1; fill:none" points="1767.38,1486.45 1767.38,47.2441 "/>
<polyline clip-path="url(#clip262)" style="stroke:#000000; stroke-linecap:round; stroke-linejoin:round; stroke-width:2; stroke-opacity:0.1; fill:none" points="2291.44,1486.45 2291.44,47.2441 "/>
<polyline clip-path="url(#clip260)" style="stroke:#000000; stroke-linecap:round; stroke-linejoin:round; stroke-width:4; stroke-opacity:1; fill:none" points="186.274,1486.45 2352.76,1486.45 "/>
<polyline clip-path="url(#clip260)" style="stroke:#000000; stroke-linecap:round; stroke-linejoin:round; stroke-width:4; stroke-opacity:1; fill:none" points="195.183,1486.45 195.183,1467.55 "/>
<polyline clip-path="url(#clip260)" style="stroke:#000000; stroke-linecap:round; stroke-linejoin:round; stroke-width:4; stroke-opacity:1; fill:none" points="719.247,1486.45 719.247,1467.55 "/>
<polyline clip-path="url(#clip260)" style="stroke:#000000; stroke-linecap:round; stroke-linejoin:round; stroke-width:4; stroke-opacity:1; fill:none" points="1243.31,1486.45 1243.31,1467.55 "/>
<polyline clip-path="url(#clip260)" style="stroke:#000000; stroke-linecap:round; stroke-linejoin:round; stroke-width:4; stroke-opacity:1; fill:none" points="1767.38,1486.45 1767.38,1467.55 "/>
<polyline clip-path="url(#clip260)" style="stroke:#000000; stroke-linecap:round; stroke-linejoin:round; stroke-width:4; stroke-opacity:1; fill:none" points="2291.44,1486.45 2291.44,1467.55 "/>
<path clip-path="url(#clip260)" d="M195.183 1517.37 Q191.572 1517.37 189.743 1520.93 Q187.938 1524.47 187.938 1531.6 Q187.938 1538.71 189.743 1542.27 Q191.572 1545.82 195.183 1545.82 Q198.817 1545.82 200.623 1542.27 Q202.452 1538.71 202.452 1531.6 Q202.452 1524.47 200.623 1520.93 Q198.817 1517.37 195.183 1517.37 M195.183 1513.66 Q200.993 1513.66 204.049 1518.27 Q207.127 1522.85 207.127 1531.6 Q207.127 1540.33 204.049 1544.94 Q200.993 1549.52 195.183 1549.52 Q189.373 1549.52 186.294 1544.94 Q183.239 1540.33 183.239 1531.6 Q183.239 1522.85 186.294 1518.27 Q189.373 1513.66 195.183 1513.66 Z" fill="#000000" fill-rule="nonzero" fill-opacity="1" /><path clip-path="url(#clip260)" d="M693.935 1544.91 L701.574 1544.91 L701.574 1518.55 L693.264 1520.21 L693.264 1515.95 L701.528 1514.29 L706.204 1514.29 L706.204 1544.91 L713.842 1544.91 L713.842 1548.85 L693.935 1548.85 L693.935 1544.91 Z" fill="#000000" fill-rule="nonzero" fill-opacity="1" /><path clip-path="url(#clip260)" d="M733.287 1517.37 Q729.676 1517.37 727.847 1520.93 Q726.041 1524.47 726.041 1531.6 Q726.041 1538.71 727.847 1542.27 Q729.676 1545.82 733.287 1545.82 Q736.921 1545.82 738.726 1542.27 Q740.555 1538.71 740.555 1531.6 Q740.555 1524.47 738.726 1520.93 Q736.921 1517.37 733.287 1517.37 M733.287 1513.66 Q739.097 1513.66 742.152 1518.27 Q745.231 1522.85 745.231 1531.6 Q745.231 1540.33 742.152 1544.94 Q739.097 1549.52 733.287 1549.52 Q727.477 1549.52 724.398 1544.94 Q721.342 1540.33 721.342 1531.6 Q721.342 1522.85 724.398 1518.27 Q727.477 1513.66 733.287 1513.66 Z" fill="#000000" fill-rule="nonzero" fill-opacity="1" /><path clip-path="url(#clip260)" d="M1222.08 1544.91 L1238.4 1544.91 L1238.4 1548.85 L1216.46 1548.85 L1216.46 1544.91 Q1219.12 1542.16 1223.71 1537.53 Q1228.31 1532.88 1229.49 1531.53 Q1231.74 1529.01 1232.62 1527.27 Q1233.52 1525.51 1233.52 1523.82 Q1233.52 1521.07 1231.58 1519.33 Q1229.65 1517.6 1226.55 1517.6 Q1224.35 1517.6 1221.9 1518.36 Q1219.47 1519.13 1216.69 1520.68 L1216.69 1515.95 Q1219.52 1514.82 1221.97 1514.24 Q1224.42 1513.66 1226.46 1513.66 Q1231.83 1513.66 1235.02 1516.35 Q1238.22 1519.03 1238.22 1523.52 Q1238.22 1525.65 1237.41 1527.57 Q1236.62 1529.47 1234.52 1532.07 Q1233.94 1532.74 1230.83 1535.95 Q1227.73 1539.15 1222.08 1544.91 Z" fill="#000000" fill-rule="nonzero" fill-opacity="1" /><path clip-path="url(#clip260)" d="M1258.22 1517.37 Q1254.61 1517.37 1252.78 1520.93 Q1250.97 1524.47 1250.97 1531.6 Q1250.97 1538.71 1252.78 1542.27 Q1254.61 1545.82 1258.22 1545.82 Q1261.85 1545.82 1263.66 1542.27 Q1265.49 1538.71 1265.49 1531.6 Q1265.49 1524.47 1263.66 1520.93 Q1261.85 1517.37 1258.22 1517.37 M1258.22 1513.66 Q1264.03 1513.66 1267.08 1518.27 Q1270.16 1522.85 1270.16 1531.6 Q1270.16 1540.33 1267.08 1544.94 Q1264.03 1549.52 1258.22 1549.52 Q1252.41 1549.52 1249.33 1544.94 Q1246.27 1540.33 1246.27 1531.6 Q1246.27 1522.85 1249.33 1518.27 Q1252.41 1513.66 1258.22 1513.66 Z" fill="#000000" fill-rule="nonzero" fill-opacity="1" /><path clip-path="url(#clip260)" d="M1756.22 1530.21 Q1759.58 1530.93 1761.45 1533.2 Q1763.35 1535.47 1763.35 1538.8 Q1763.35 1543.92 1759.83 1546.72 Q1756.31 1549.52 1749.83 1549.52 Q1747.65 1549.52 1745.34 1549.08 Q1743.05 1548.66 1740.59 1547.81 L1740.59 1543.29 Q1742.54 1544.43 1744.85 1545.01 Q1747.17 1545.58 1749.69 1545.58 Q1754.09 1545.58 1756.38 1543.85 Q1758.7 1542.11 1758.7 1538.8 Q1758.7 1535.75 1756.54 1534.03 Q1754.41 1532.3 1750.59 1532.3 L1746.57 1532.3 L1746.57 1528.45 L1750.78 1528.45 Q1754.23 1528.45 1756.06 1527.09 Q1757.89 1525.7 1757.89 1523.11 Q1757.89 1520.45 1755.99 1519.03 Q1754.11 1517.6 1750.59 1517.6 Q1748.67 1517.6 1746.47 1518.01 Q1744.27 1518.43 1741.64 1519.31 L1741.64 1515.14 Q1744.3 1514.4 1746.61 1514.03 Q1748.95 1513.66 1751.01 1513.66 Q1756.33 1513.66 1759.44 1516.09 Q1762.54 1518.5 1762.54 1522.62 Q1762.54 1525.49 1760.89 1527.48 Q1759.25 1529.45 1756.22 1530.21 Z" fill="#000000" fill-rule="nonzero" fill-opacity="1" /><path clip-path="url(#clip260)" d="M1782.21 1517.37 Q1778.6 1517.37 1776.77 1520.93 Q1774.97 1524.47 1774.97 1531.6 Q1774.97 1538.71 1776.77 1542.27 Q1778.6 1545.82 1782.21 1545.82 Q1785.85 1545.82 1787.65 1542.27 Q1789.48 1538.71 1789.48 1531.6 Q1789.48 1524.47 1787.65 1520.93 Q1785.85 1517.37 1782.21 1517.37 M1782.21 1513.66 Q1788.02 1513.66 1791.08 1518.27 Q1794.16 1522.85 1794.16 1531.6 Q1794.16 1540.33 1791.08 1544.94 Q1788.02 1549.52 1782.21 1549.52 Q1776.4 1549.52 1773.33 1544.94 Q1770.27 1540.33 1770.27 1531.6 Q1770.27 1522.85 1773.33 1518.27 Q1776.4 1513.66 1782.21 1513.66 Z" fill="#000000" fill-rule="nonzero" fill-opacity="1" /><path clip-path="url(#clip260)" d="M2279.61 1518.36 L2267.81 1536.81 L2279.61 1536.81 L2279.61 1518.36 M2278.38 1514.29 L2284.26 1514.29 L2284.26 1536.81 L2289.2 1536.81 L2289.2 1540.7 L2284.26 1540.7 L2284.26 1548.85 L2279.61 1548.85 L2279.61 1540.7 L2264.01 1540.7 L2264.01 1536.19 L2278.38 1514.29 Z" fill="#000000" fill-rule="nonzero" fill-opacity="1" /><path clip-path="url(#clip260)" d="M2306.93 1517.37 Q2303.32 1517.37 2301.49 1520.93 Q2299.68 1524.47 2299.68 1531.6 Q2299.68 1538.71 2301.49 1542.27 Q2303.32 1545.82 2306.93 1545.82 Q2310.56 1545.82 2312.37 1542.27 Q2314.19 1538.71 2314.19 1531.6 Q2314.19 1524.47 2312.37 1520.93 Q2310.56 1517.37 2306.93 1517.37 M2306.93 1513.66 Q2312.74 1513.66 2315.79 1518.27 Q2318.87 1522.85 2318.87 1531.6 Q2318.87 1540.33 2315.79 1544.94 Q2312.74 1549.52 2306.93 1549.52 Q2301.12 1549.52 2298.04 1544.94 Q2294.98 1540.33 2294.98 1531.6 Q2294.98 1522.85 2298.04 1518.27 Q2301.12 1513.66 2306.93 1513.66 Z" fill="#000000" fill-rule="nonzero" fill-opacity="1" /><polyline clip-path="url(#clip262)" style="stroke:#000000; stroke-linecap:round; stroke-linejoin:round; stroke-width:2; stroke-opacity:0.1; fill:none" points="186.274,1444.89 2352.76,1444.89 "/>
<polyline clip-path="url(#clip262)" style="stroke:#000000; stroke-linecap:round; stroke-linejoin:round; stroke-width:2; stroke-opacity:0.1; fill:none" points="186.274,1105.73 2352.76,1105.73 "/>
<polyline clip-path="url(#clip262)" style="stroke:#000000; stroke-linecap:round; stroke-linejoin:round; stroke-width:2; stroke-opacity:0.1; fill:none" points="186.274,766.565 2352.76,766.565 "/>
<polyline clip-path="url(#clip262)" style="stroke:#000000; stroke-linecap:round; stroke-linejoin:round; stroke-width:2; stroke-opacity:0.1; fill:none" points="186.274,427.4 2352.76,427.4 "/>
<polyline clip-path="url(#clip262)" style="stroke:#000000; stroke-linecap:round; stroke-linejoin:round; stroke-width:2; stroke-opacity:0.1; fill:none" points="186.274,88.2356 2352.76,88.2356 "/>
<polyline clip-path="url(#clip260)" style="stroke:#000000; stroke-linecap:round; stroke-linejoin:round; stroke-width:4; stroke-opacity:1; fill:none" points="186.274,1486.45 186.274,47.2441 "/>
<polyline clip-path="url(#clip260)" style="stroke:#000000; stroke-linecap:round; stroke-linejoin:round; stroke-width:4; stroke-opacity:1; fill:none" points="186.274,1444.89 205.172,1444.89 "/>
<polyline clip-path="url(#clip260)" style="stroke:#000000; stroke-linecap:round; stroke-linejoin:round; stroke-width:4; stroke-opacity:1; fill:none" points="186.274,1105.73 205.172,1105.73 "/>
<polyline clip-path="url(#clip260)" style="stroke:#000000; stroke-linecap:round; stroke-linejoin:round; stroke-width:4; stroke-opacity:1; fill:none" points="186.274,766.565 205.172,766.565 "/>
<polyline clip-path="url(#clip260)" style="stroke:#000000; stroke-linecap:round; stroke-linejoin:round; stroke-width:4; stroke-opacity:1; fill:none" points="186.274,427.4 205.172,427.4 "/>
<polyline clip-path="url(#clip260)" style="stroke:#000000; stroke-linecap:round; stroke-linejoin:round; stroke-width:4; stroke-opacity:1; fill:none" points="186.274,88.2356 205.172,88.2356 "/>
<path clip-path="url(#clip260)" d="M62.9365 1430.69 Q59.3254 1430.69 57.4967 1434.26 Q55.6912 1437.8 55.6912 1444.93 Q55.6912 1452.04 57.4967 1455.6 Q59.3254 1459.14 62.9365 1459.14 Q66.5707 1459.14 68.3763 1455.6 Q70.205 1452.04 70.205 1444.93 Q70.205 1437.8 68.3763 1434.26 Q66.5707 1430.69 62.9365 1430.69 M62.9365 1426.99 Q68.7467 1426.99 71.8022 1431.6 Q74.8809 1436.18 74.8809 1444.93 Q74.8809 1453.66 71.8022 1458.26 Q68.7467 1462.85 62.9365 1462.85 Q57.1264 1462.85 54.0477 1458.26 Q50.9921 1453.66 50.9921 1444.93 Q50.9921 1436.18 54.0477 1431.6 Q57.1264 1426.99 62.9365 1426.99 Z" fill="#000000" fill-rule="nonzero" fill-opacity="1" /><path clip-path="url(#clip260)" d="M83.0984 1456.29 L87.9827 1456.29 L87.9827 1462.17 L83.0984 1462.17 L83.0984 1456.29 Z" fill="#000000" fill-rule="nonzero" fill-opacity="1" /><path clip-path="url(#clip260)" d="M108.168 1430.69 Q104.557 1430.69 102.728 1434.26 Q100.922 1437.8 100.922 1444.93 Q100.922 1452.04 102.728 1455.6 Q104.557 1459.14 108.168 1459.14 Q111.802 1459.14 113.608 1455.6 Q115.436 1452.04 115.436 1444.93 Q115.436 1437.8 113.608 1434.26 Q111.802 1430.69 108.168 1430.69 M108.168 1426.99 Q113.978 1426.99 117.033 1431.6 Q120.112 1436.18 120.112 1444.93 Q120.112 1453.66 117.033 1458.26 Q113.978 1462.85 108.168 1462.85 Q102.358 1462.85 99.2789 1458.26 Q96.2234 1453.66 96.2234 1444.93 Q96.2234 1436.18 99.2789 1431.6 Q102.358 1426.99 108.168 1426.99 Z" fill="#000000" fill-rule="nonzero" fill-opacity="1" /><path clip-path="url(#clip260)" d="M138.33 1430.69 Q134.719 1430.69 132.89 1434.26 Q131.084 1437.8 131.084 1444.93 Q131.084 1452.04 132.89 1455.6 Q134.719 1459.14 138.33 1459.14 Q141.964 1459.14 143.769 1455.6 Q145.598 1452.04 145.598 1444.93 Q145.598 1437.8 143.769 1434.26 Q141.964 1430.69 138.33 1430.69 M138.33 1426.99 Q144.14 1426.99 147.195 1431.6 Q150.274 1436.18 150.274 1444.93 Q150.274 1453.66 147.195 1458.26 Q144.14 1462.85 138.33 1462.85 Q132.519 1462.85 129.441 1458.26 Q126.385 1453.66 126.385 1444.93 Q126.385 1436.18 129.441 1431.6 Q132.519 1426.99 138.33 1426.99 Z" fill="#000000" fill-rule="nonzero" fill-opacity="1" /><path clip-path="url(#clip260)" d="M63.9319 1091.53 Q60.3208 1091.53 58.4921 1095.09 Q56.6865 1098.63 56.6865 1105.76 Q56.6865 1112.87 58.4921 1116.44 Q60.3208 1119.98 63.9319 1119.98 Q67.5661 1119.98 69.3717 1116.44 Q71.2004 1112.87 71.2004 1105.76 Q71.2004 1098.63 69.3717 1095.09 Q67.5661 1091.53 63.9319 1091.53 M63.9319 1087.82 Q69.742 1087.82 72.7976 1092.43 Q75.8763 1097.01 75.8763 1105.76 Q75.8763 1114.49 72.7976 1119.1 Q69.742 1123.68 63.9319 1123.68 Q58.1217 1123.68 55.043 1119.1 Q51.9875 1114.49 51.9875 1105.76 Q51.9875 1097.01 55.043 1092.43 Q58.1217 1087.82 63.9319 1087.82 Z" fill="#000000" fill-rule="nonzero" fill-opacity="1" /><path clip-path="url(#clip260)" d="M84.0938 1117.13 L88.978 1117.13 L88.978 1123.01 L84.0938 1123.01 L84.0938 1117.13 Z" fill="#000000" fill-rule="nonzero" fill-opacity="1" /><path clip-path="url(#clip260)" d="M103.191 1119.07 L119.51 1119.07 L119.51 1123.01 L97.566 1123.01 L97.566 1119.07 Q100.228 1116.32 104.811 1111.69 Q109.418 1107.04 110.598 1105.69 Q112.844 1103.17 113.723 1101.44 Q114.626 1099.68 114.626 1097.99 Q114.626 1095.23 112.682 1093.5 Q110.76 1091.76 107.658 1091.76 Q105.459 1091.76 103.006 1092.52 Q100.575 1093.29 97.7974 1094.84 L97.7974 1090.12 Q100.621 1088.98 103.075 1088.4 Q105.529 1087.82 107.566 1087.82 Q112.936 1087.82 116.131 1090.51 Q119.325 1093.19 119.325 1097.69 Q119.325 1099.82 118.515 1101.74 Q117.728 1103.63 115.621 1106.23 Q115.043 1106.9 111.941 1110.12 Q108.839 1113.31 103.191 1119.07 Z" fill="#000000" fill-rule="nonzero" fill-opacity="1" /><path clip-path="url(#clip260)" d="M129.371 1088.45 L147.728 1088.45 L147.728 1092.38 L133.654 1092.38 L133.654 1100.86 Q134.672 1100.51 135.691 1100.35 Q136.709 1100.16 137.728 1100.16 Q143.515 1100.16 146.894 1103.33 Q150.274 1106.5 150.274 1111.92 Q150.274 1117.5 146.802 1120.6 Q143.33 1123.68 137.01 1123.68 Q134.834 1123.68 132.566 1123.31 Q130.32 1122.94 127.913 1122.2 L127.913 1117.5 Q129.996 1118.63 132.219 1119.19 Q134.441 1119.75 136.918 1119.75 Q140.922 1119.75 143.26 1117.64 Q145.598 1115.53 145.598 1111.92 Q145.598 1108.31 143.26 1106.2 Q140.922 1104.1 136.918 1104.1 Q135.043 1104.1 133.168 1104.51 Q131.316 1104.93 129.371 1105.81 L129.371 1088.45 Z" fill="#000000" fill-rule="nonzero" fill-opacity="1" /><path clip-path="url(#clip260)" d="M62.9365 752.364 Q59.3254 752.364 57.4967 755.928 Q55.6912 759.47 55.6912 766.6 Q55.6912 773.706 57.4967 777.271 Q59.3254 780.812 62.9365 780.812 Q66.5707 780.812 68.3763 777.271 Q70.205 773.706 70.205 766.6 Q70.205 759.47 68.3763 755.928 Q66.5707 752.364 62.9365 752.364 M62.9365 748.66 Q68.7467 748.66 71.8022 753.266 Q74.8809 757.85 74.8809 766.6 Q74.8809 775.326 71.8022 779.933 Q68.7467 784.516 62.9365 784.516 Q57.1264 784.516 54.0477 779.933 Q50.9921 775.326 50.9921 766.6 Q50.9921 757.85 54.0477 753.266 Q57.1264 748.66 62.9365 748.66 Z" fill="#000000" fill-rule="nonzero" fill-opacity="1" /><path clip-path="url(#clip260)" d="M83.0984 777.965 L87.9827 777.965 L87.9827 783.845 L83.0984 783.845 L83.0984 777.965 Z" fill="#000000" fill-rule="nonzero" fill-opacity="1" /><path clip-path="url(#clip260)" d="M98.2141 749.285 L116.57 749.285 L116.57 753.22 L102.496 753.22 L102.496 761.692 Q103.515 761.345 104.534 761.183 Q105.552 760.998 106.571 760.998 Q112.358 760.998 115.737 764.169 Q119.117 767.34 119.117 772.757 Q119.117 778.336 115.645 781.437 Q112.172 784.516 105.853 784.516 Q103.677 784.516 101.409 784.146 Q99.1632 783.775 96.7558 783.035 L96.7558 778.336 Q98.8391 779.47 101.061 780.025 Q103.284 780.581 105.76 780.581 Q109.765 780.581 112.103 778.475 Q114.441 776.368 114.441 772.757 Q114.441 769.146 112.103 767.039 Q109.765 764.933 105.76 764.933 Q103.885 764.933 102.01 765.35 Q100.159 765.766 98.2141 766.646 L98.2141 749.285 Z" fill="#000000" fill-rule="nonzero" fill-opacity="1" /><path clip-path="url(#clip260)" d="M138.33 752.364 Q134.719 752.364 132.89 755.928 Q131.084 759.47 131.084 766.6 Q131.084 773.706 132.89 777.271 Q134.719 780.812 138.33 780.812 Q141.964 780.812 143.769 777.271 Q145.598 773.706 145.598 766.6 Q145.598 759.47 143.769 755.928 Q141.964 752.364 138.33 752.364 M138.33 748.66 Q144.14 748.66 147.195 753.266 Q150.274 757.85 150.274 766.6 Q150.274 775.326 147.195 779.933 Q144.14 784.516 138.33 784.516 Q132.519 784.516 129.441 779.933 Q126.385 775.326 126.385 766.6 Q126.385 757.85 129.441 753.266 Q132.519 748.66 138.33 748.66 Z" fill="#000000" fill-rule="nonzero" fill-opacity="1" /><path clip-path="url(#clip260)" d="M63.9319 413.199 Q60.3208 413.199 58.4921 416.764 Q56.6865 420.305 56.6865 427.435 Q56.6865 434.541 58.4921 438.106 Q60.3208 441.648 63.9319 441.648 Q67.5661 441.648 69.3717 438.106 Q71.2004 434.541 71.2004 427.435 Q71.2004 420.305 69.3717 416.764 Q67.5661 413.199 63.9319 413.199 M63.9319 409.495 Q69.742 409.495 72.7976 414.102 Q75.8763 418.685 75.8763 427.435 Q75.8763 436.162 72.7976 440.768 Q69.742 445.352 63.9319 445.352 Q58.1217 445.352 55.043 440.768 Q51.9875 436.162 51.9875 427.435 Q51.9875 418.685 55.043 414.102 Q58.1217 409.495 63.9319 409.495 Z" fill="#000000" fill-rule="nonzero" fill-opacity="1" /><path clip-path="url(#clip260)" d="M84.0938 438.801 L88.978 438.801 L88.978 444.68 L84.0938 444.68 L84.0938 438.801 Z" fill="#000000" fill-rule="nonzero" fill-opacity="1" /><path clip-path="url(#clip260)" d="M97.9826 410.12 L120.205 410.12 L120.205 412.111 L107.658 444.68 L102.774 444.68 L114.58 414.055 L97.9826 414.055 L97.9826 410.12 Z" fill="#000000" fill-rule="nonzero" fill-opacity="1" /><path clip-path="url(#clip260)" d="M129.371 410.12 L147.728 410.12 L147.728 414.055 L133.654 414.055 L133.654 422.528 Q134.672 422.18 135.691 422.018 Q136.709 421.833 137.728 421.833 Q143.515 421.833 146.894 425.004 Q150.274 428.176 150.274 433.592 Q150.274 439.171 146.802 442.273 Q143.33 445.352 137.01 445.352 Q134.834 445.352 132.566 444.981 Q130.32 444.611 127.913 443.87 L127.913 439.171 Q129.996 440.305 132.219 440.861 Q134.441 441.416 136.918 441.416 Q140.922 441.416 143.26 439.31 Q145.598 437.203 145.598 433.592 Q145.598 429.981 143.26 427.875 Q140.922 425.768 136.918 425.768 Q135.043 425.768 133.168 426.185 Q131.316 426.602 129.371 427.481 L129.371 410.12 Z" fill="#000000" fill-rule="nonzero" fill-opacity="1" /><path clip-path="url(#clip260)" d="M53.7467 101.58 L61.3856 101.58 L61.3856 75.2148 L53.0754 76.8815 L53.0754 72.6222 L61.3393 70.9556 L66.0152 70.9556 L66.0152 101.58 L73.654 101.58 L73.654 105.516 L53.7467 105.516 L53.7467 101.58 Z" fill="#000000" fill-rule="nonzero" fill-opacity="1" /><path clip-path="url(#clip260)" d="M83.0984 99.636 L87.9827 99.636 L87.9827 105.516 L83.0984 105.516 L83.0984 99.636 Z" fill="#000000" fill-rule="nonzero" fill-opacity="1" /><path clip-path="url(#clip260)" d="M108.168 74.0342 Q104.557 74.0342 102.728 77.599 Q100.922 81.1407 100.922 88.2703 Q100.922 95.3767 102.728 98.9415 Q104.557 102.483 108.168 102.483 Q111.802 102.483 113.608 98.9415 Q115.436 95.3767 115.436 88.2703 Q115.436 81.1407 113.608 77.599 Q111.802 74.0342 108.168 74.0342 M108.168 70.3306 Q113.978 70.3306 117.033 74.937 Q120.112 79.5203 120.112 88.2703 Q120.112 96.9971 117.033 101.604 Q113.978 106.187 108.168 106.187 Q102.358 106.187 99.2789 101.604 Q96.2234 96.9971 96.2234 88.2703 Q96.2234 79.5203 99.2789 74.937 Q102.358 70.3306 108.168 70.3306 Z" fill="#000000" fill-rule="nonzero" fill-opacity="1" /><path clip-path="url(#clip260)" d="M138.33 74.0342 Q134.719 74.0342 132.89 77.599 Q131.084 81.1407 131.084 88.2703 Q131.084 95.3767 132.89 98.9415 Q134.719 102.483 138.33 102.483 Q141.964 102.483 143.769 98.9415 Q145.598 95.3767 145.598 88.2703 Q145.598 81.1407 143.769 77.599 Q141.964 74.0342 138.33 74.0342 M138.33 70.3306 Q144.14 70.3306 147.195 74.937 Q150.274 79.5203 150.274 88.2703 Q150.274 96.9971 147.195 101.604 Q144.14 106.187 138.33 106.187 Q132.519 106.187 129.441 101.604 Q126.385 96.9971 126.385 88.2703 Q126.385 79.5203 129.441 74.937 Q132.519 70.3306 138.33 70.3306 Z" fill="#000000" fill-rule="nonzero" fill-opacity="1" /><polyline clip-path="url(#clip262)" style="stroke:#009af9; stroke-linecap:round; stroke-linejoin:round; stroke-width:4; stroke-opacity:1; fill:none" points="247.59,1386.13 299.996,1370.74 352.402,1351.43 404.809,1328.47 457.215,1302.92 509.622,1276.03 562.028,1248.39 614.435,1219.37 666.841,1187.26 719.247,1150.05 771.654,1106.79 824.06,1058.87 876.467,1010.86 928.873,970.242 981.28,945.781 1033.69,944.617 1086.09,969.273 1138.5,1016.16 1190.91,1076.32 1243.31,1137.97 1295.72,1189.67 1348.12,1223.76 1400.53,1238.74 1452.94,1239.5 1505.34,1235.16 1557.75,1235.78 1610.16,1248.96 1662.56,1277.02 1714.97,1316.04 1767.38,1357.78 1819.78,1393.79 1872.19,1419.23 1924.6,1433.89 1977,1440.59 2029.41,1442.82 2081.81,1443.27 2134.22,1443.38 2186.63,1443.66 2239.03,1444.11 2291.44,1444.57 "/>
<polyline clip-path="url(#clip262)" style="stroke:#009af9; stroke-linecap:round; stroke-linejoin:round; stroke-width:4; stroke-opacity:1; fill:none" stroke-dasharray="16, 10" points="247.59,1334.53 299.996,1314.22 352.402,1291.53 404.809,1267.84 457.215,1244.49 509.622,1222.13 562.028,1200.35 614.435,1177.79 666.841,1152.83 719.247,1124.34 771.654,1092.53 824.06,1059.22 876.467,1027.91 928.873,1003.27 981.28,990.477 1033.69,993.849 1086.09,1015.12 1138.5,1052.32 1190.91,1099.92 1243.31,1150.22 1295.72,1195.24 1348.12,1228.85 1400.53,1248.6 1452.94,1256.57 1505.34,1258.42 1557.75,1261.37 1610.16,1271.86 1662.56,1293.23 1714.97,1324.29 1767.38,1359.68 1819.78,1392.46 1872.19,1417.41 1924.6,1432.98 1977,1440.75 2029.41,1443.61 2081.81,1444.16 2134.22,1444.06 2186.63,1444.04 2239.03,1444.25 2291.44,1444.6 "/>
<polyline clip-path="url(#clip262)" style="stroke:#e26f46; stroke-linecap:round; stroke-linejoin:round; stroke-width:4; stroke-opacity:1; fill:none" points="247.59,126.917 299.996,139.323 352.402,154.962 404.809,174.9 457.215,199.697 509.622,228.983 562.028,261.666 614.435,296.8 666.841,334.561 719.247,376.475 771.654,424.387 824.06,478.397 876.467,534.82 928.873,585.561 981.28,619.865 1033.69,628.119 1086.09,605.914 1138.5,556.306 1190.91,489.315 1243.31,419.095 1295.72,359.773 1348.12,321.186 1400.53,305.841 1452.94,308.261 1505.34,317.123 1557.75,319.597 1610.16,306.329 1662.56,275.034 1714.97,230.958 1767.38,183.906 1819.78,143.483 1872.19,115.192 1924.6,99.2931 1977,92.4261 2029.41,90.3381 2081.81,89.8776 2134.22,89.5358 2186.63,88.9863 2239.03,88.3983 2291.44,87.9763 "/>
<polyline clip-path="url(#clip262)" style="stroke:#e26f46; stroke-linecap:round; stroke-linejoin:round; stroke-width:4; stroke-opacity:1; fill:none" stroke-dasharray="16, 10" points="247.59,170.717 299.996,188.068 352.402,208.82 404.809,233.301 457.215,260.914 509.622,290.3 562.028,320.03 614.435,349.478 666.841,379.309 719.247,411.179 771.654,446.614 824.06,485.499 876.467,524.92 928.873,559.094 981.28,580.754 1033.69,583.555 1086.09,564.438 1138.5,524.966 1190.91,471.32 1243.31,412.976 1295.72,360.267 1348.12,321.387 1400.53,299.856 1452.94,293.42 1505.34,294.85 1557.75,294.531 1610.16,284.133 1662.56,259.931 1714.97,224.153 1767.38,183.587 1819.78,146.26 1872.19,118.003 1924.6,100.62 1977,92.3012 2029.41,89.5401 2081.81,89.123 2134.22,89.1281 2186.63,88.8805 2239.03,88.4178 2291.44,87.9807 "/>
<polyline clip-path="url(#clip262)" style="stroke:#3da44d; stroke-linecap:round; stroke-linejoin:round; stroke-width:4; stroke-opacity:1; fill:none" points="247.59,1311.97 299.996,1292.32 352.402,1271 404.809,1248.28 457.215,1224.87 509.622,1201.55 562.028,1178.84 614.435,1156.68 666.841,1134.63 719.247,1112.21 771.654,1089.64 824.06,1068.24 876.467,1050.66 928.873,1040.47 981.28,1041.39 1033.69,1055.95 1086.09,1084.3 1138.5,1123.54 1190.91,1168.18 1243.31,1211.43 1295.72,1247.18 1348.12,1271.91 1400.53,1285.76 1452.94,1292.22 1505.34,1296.65 1557.75,1304.43 1610.16,1319.13 1662.56,1341.3 1714.97,1368.17 1767.38,1394.95 1819.78,1417.14 1872.19,1432.42 1924.6,1441.02 1977,1444.76 2029.41,1445.72 2081.81,1445.45 2134.22,1444.85 2186.63,1444.35 2239.03,1444.08 2291.44,1444.06 "/>
<polyline clip-path="url(#clip262)" style="stroke:#3da44d; stroke-linecap:round; stroke-linejoin:round; stroke-width:4; stroke-opacity:1; fill:none" stroke-dasharray="16, 10" points="247.59,1268.25 299.996,1250.47 352.402,1232.23 404.809,1214.11 457.215,1196.74 509.622,1180.47 562.028,1165.24 614.435,1150.57 666.841,1135.91 719.247,1120.88 771.654,1105.6 824.06,1090.91 876.467,1078.51 928.873,1070.92 981.28,1071.19 1033.69,1081.92 1086.09,1104.11 1138.5,1136.34 1190.91,1174.82 1243.31,1214.37 1295.72,1249.65 1348.12,1276.65 1400.53,1293.88 1452.94,1302.86 1505.34,1307.49 1557.75,1312.66 1610.16,1322.63 1662.56,1339.55 1714.97,1362.51 1767.38,1387.85 1819.78,1410.87 1872.19,1428.14 1924.6,1438.77 1977,1443.94 2029.41,1445.65 2081.81,1445.64 2134.22,1445.02 2186.63,1444.39 2239.03,1444.01 2291.44,1443.92 "/>
<path clip-path="url(#clip260)" d="M258.49 458.098 L529.281 458.098 L529.281 95.2176 L258.49 95.2176  Z" fill="#ffffff" fill-rule="evenodd" fill-opacity="1"/>
<polyline clip-path="url(#clip260)" style="stroke:#000000; stroke-linecap:round; stroke-linejoin:round; stroke-width:4; stroke-opacity:1; fill:none" points="258.49,458.098 529.281,458.098 529.281,95.2176 258.49,95.2176 258.49,458.098 "/>
<polyline clip-path="url(#clip260)" style="stroke:#009af9; stroke-linecap:round; stroke-linejoin:round; stroke-width:4; stroke-opacity:1; fill:none" points="282.562,147.058 426.994,147.058 "/>
<path clip-path="url(#clip260)" d="M464.909 166.745 Q463.103 171.375 461.39 172.787 Q459.677 174.199 456.807 174.199 L453.404 174.199 L453.404 170.634 L455.904 170.634 Q457.663 170.634 458.636 169.8 Q459.608 168.967 460.788 165.865 L461.552 163.921 L451.066 138.412 L455.58 138.412 L463.682 158.689 L471.784 138.412 L476.298 138.412 L464.909 166.745 Z" fill="#000000" fill-rule="nonzero" fill-opacity="1" /><path clip-path="url(#clip260)" d="M483.589 160.402 L491.228 160.402 L491.228 134.037 L482.918 135.703 L482.918 131.444 L491.182 129.778 L495.858 129.778 L495.858 160.402 L503.497 160.402 L503.497 164.338 L483.589 164.338 L483.589 160.402 Z" fill="#000000" fill-rule="nonzero" fill-opacity="1" /><polyline clip-path="url(#clip260)" style="stroke:#009af9; stroke-linecap:round; stroke-linejoin:round; stroke-width:4; stroke-opacity:1; fill:none" stroke-dasharray="16, 10" points="282.562,198.898 426.994,198.898 "/>
<path clip-path="url(#clip260)" d="M464.909 218.585 Q463.103 223.215 461.39 224.627 Q459.677 226.039 456.807 226.039 L453.404 226.039 L453.404 222.474 L455.904 222.474 Q457.663 222.474 458.636 221.64 Q459.608 220.807 460.788 217.705 L461.552 215.761 L451.066 190.252 L455.58 190.252 L463.682 210.529 L471.784 190.252 L476.298 190.252 L464.909 218.585 Z" fill="#000000" fill-rule="nonzero" fill-opacity="1" /><path clip-path="url(#clip260)" d="M486.807 212.242 L503.126 212.242 L503.126 216.178 L481.182 216.178 L481.182 212.242 Q483.844 209.488 488.427 204.858 Q493.034 200.205 494.214 198.863 Q496.46 196.34 497.339 194.604 Q498.242 192.844 498.242 191.155 Q498.242 188.4 496.297 186.664 Q494.376 184.928 491.274 184.928 Q489.075 184.928 486.622 185.692 Q484.191 186.455 481.413 188.006 L481.413 183.284 Q484.237 182.15 486.691 181.571 Q489.145 180.993 491.182 180.993 Q496.552 180.993 499.747 183.678 Q502.941 186.363 502.941 190.854 Q502.941 192.983 502.131 194.905 Q501.344 196.803 499.237 199.395 Q498.659 200.067 495.557 203.284 Q492.455 206.479 486.807 212.242 Z" fill="#000000" fill-rule="nonzero" fill-opacity="1" /><polyline clip-path="url(#clip260)" style="stroke:#e26f46; stroke-linecap:round; stroke-linejoin:round; stroke-width:4; stroke-opacity:1; fill:none" points="282.562,250.738 426.994,250.738 "/>
<path clip-path="url(#clip260)" d="M464.909 270.425 Q463.103 275.055 461.39 276.467 Q459.677 277.879 456.807 277.879 L453.404 277.879 L453.404 274.314 L455.904 274.314 Q457.663 274.314 458.636 273.48 Q459.608 272.647 460.788 269.545 L461.552 267.601 L451.066 242.092 L455.58 242.092 L463.682 262.369 L471.784 242.092 L476.298 242.092 L464.909 270.425 Z" fill="#000000" fill-rule="nonzero" fill-opacity="1" /><path clip-path="url(#clip260)" d="M496.946 249.383 Q500.302 250.101 502.177 252.369 Q504.075 254.638 504.075 257.971 Q504.075 263.087 500.557 265.888 Q497.038 268.689 490.557 268.689 Q488.381 268.689 486.066 268.249 Q483.774 267.832 481.321 266.976 L481.321 262.462 Q483.265 263.596 485.58 264.175 Q487.895 264.754 490.418 264.754 Q494.816 264.754 497.108 263.018 Q499.422 261.281 499.422 257.971 Q499.422 254.916 497.27 253.203 Q495.14 251.467 491.321 251.467 L487.293 251.467 L487.293 247.624 L491.506 247.624 Q494.955 247.624 496.784 246.258 Q498.612 244.87 498.612 242.277 Q498.612 239.615 496.714 238.203 Q494.839 236.768 491.321 236.768 Q489.399 236.768 487.2 237.184 Q485.001 237.601 482.362 238.481 L482.362 234.314 Q485.024 233.573 487.339 233.203 Q489.677 232.833 491.737 232.833 Q497.061 232.833 500.163 235.263 Q503.265 237.67 503.265 241.791 Q503.265 244.661 501.622 246.652 Q499.978 248.62 496.946 249.383 Z" fill="#000000" fill-rule="nonzero" fill-opacity="1" /><polyline clip-path="url(#clip260)" style="stroke:#e26f46; stroke-linecap:round; stroke-linejoin:round; stroke-width:4; stroke-opacity:1; fill:none" stroke-dasharray="16, 10" points="282.562,302.578 426.994,302.578 "/>
<path clip-path="url(#clip260)" d="M464.909 322.265 Q463.103 326.895 461.39 328.307 Q459.677 329.719 456.807 329.719 L453.404 329.719 L453.404 326.154 L455.904 326.154 Q457.663 326.154 458.636 325.32 Q459.608 324.487 460.788 321.385 L461.552 319.441 L451.066 293.932 L455.58 293.932 L463.682 314.209 L471.784 293.932 L476.298 293.932 L464.909 322.265 Z" fill="#000000" fill-rule="nonzero" fill-opacity="1" /><path clip-path="url(#clip260)" d="M495.626 289.372 L483.821 307.821 L495.626 307.821 L495.626 289.372 M494.399 285.298 L500.279 285.298 L500.279 307.821 L505.209 307.821 L505.209 311.709 L500.279 311.709 L500.279 319.858 L495.626 319.858 L495.626 311.709 L480.024 311.709 L480.024 307.196 L494.399 285.298 Z" fill="#000000" fill-rule="nonzero" fill-opacity="1" /><polyline clip-path="url(#clip260)" style="stroke:#3da44d; stroke-linecap:round; stroke-linejoin:round; stroke-width:4; stroke-opacity:1; fill:none" points="282.562,354.418 426.994,354.418 "/>
<path clip-path="url(#clip260)" d="M464.909 374.105 Q463.103 378.735 461.39 380.147 Q459.677 381.559 456.807 381.559 L453.404 381.559 L453.404 377.994 L455.904 377.994 Q457.663 377.994 458.636 377.16 Q459.608 376.327 460.788 373.225 L461.552 371.281 L451.066 345.772 L455.58 345.772 L463.682 366.049 L471.784 345.772 L476.298 345.772 L464.909 374.105 Z" fill="#000000" fill-rule="nonzero" fill-opacity="1" /><path clip-path="url(#clip260)" d="M482.825 337.138 L501.182 337.138 L501.182 341.073 L487.108 341.073 L487.108 349.545 Q488.126 349.198 489.145 349.036 Q490.163 348.85 491.182 348.85 Q496.969 348.85 500.348 352.022 Q503.728 355.193 503.728 360.61 Q503.728 366.188 500.256 369.29 Q496.784 372.369 490.464 372.369 Q488.288 372.369 486.02 371.998 Q483.774 371.628 481.367 370.887 L481.367 366.188 Q483.45 367.323 485.673 367.878 Q487.895 368.434 490.372 368.434 Q494.376 368.434 496.714 366.327 Q499.052 364.221 499.052 360.61 Q499.052 356.999 496.714 354.892 Q494.376 352.786 490.372 352.786 Q488.497 352.786 486.622 353.202 Q484.77 353.619 482.825 354.499 L482.825 337.138 Z" fill="#000000" fill-rule="nonzero" fill-opacity="1" /><polyline clip-path="url(#clip260)" style="stroke:#3da44d; stroke-linecap:round; stroke-linejoin:round; stroke-width:4; stroke-opacity:1; fill:none" stroke-dasharray="16, 10" points="282.562,406.258 426.994,406.258 "/>
<path clip-path="url(#clip260)" d="M464.909 425.945 Q463.103 430.575 461.39 431.987 Q459.677 433.399 456.807 433.399 L453.404 433.399 L453.404 429.834 L455.904 429.834 Q457.663 429.834 458.636 429 Q459.608 428.167 460.788 425.065 L461.552 423.121 L451.066 397.612 L455.58 397.612 L463.682 417.889 L471.784 397.612 L476.298 397.612 L464.909 425.945 Z" fill="#000000" fill-rule="nonzero" fill-opacity="1" /><path clip-path="url(#clip260)" d="M493.358 404.394 Q490.21 404.394 488.358 406.547 Q486.529 408.7 486.529 412.45 Q486.529 416.176 488.358 418.352 Q490.21 420.505 493.358 420.505 Q496.506 420.505 498.334 418.352 Q500.186 416.176 500.186 412.45 Q500.186 408.7 498.334 406.547 Q496.506 404.394 493.358 404.394 M502.64 389.741 L502.64 394.001 Q500.881 393.167 499.075 392.728 Q497.293 392.288 495.534 392.288 Q490.904 392.288 488.45 395.413 Q486.02 398.538 485.673 404.857 Q487.038 402.843 489.098 401.778 Q491.159 400.69 493.635 400.69 Q498.844 400.69 501.853 403.862 Q504.885 407.01 504.885 412.45 Q504.885 417.774 501.737 420.991 Q498.589 424.209 493.358 424.209 Q487.362 424.209 484.191 419.626 Q481.02 415.019 481.02 406.292 Q481.02 398.098 484.909 393.237 Q488.798 388.353 495.348 388.353 Q497.108 388.353 498.89 388.7 Q500.696 389.047 502.64 389.741 Z" fill="#000000" fill-rule="nonzero" fill-opacity="1" /></svg>
