<?xml version="1.0" encoding="utf-8"?>
<svg xmlns="http://www.w3.org/2000/svg" xmlns:xlink="http://www.w3.org/1999/xlink" width="600" height="400" viewBox="0 0 2400 1600">
<defs>
  <clipPath id="clip890">
    <rect x="0" y="0" width="2400" height="1600"/>
  </clipPath>
</defs>
<path clip-path="url(#clip890)" d="M0 1600 L2400 1600 L2400 0 L0 0  Z" fill="#ffffff" fill-rule="evenodd" fill-opacity="1"/>
<defs>
  <clipPath id="clip891">
    <rect x="480" y="0" width="1681" height="1600"/>
  </clipPath>
</defs>
<path clip-path="url(#clip890)" d="M186.274 1486.45 L2352.76 1486.45 L2352.76 47.2441 L186.274 47.2441  Z" fill="#ffffff" fill-rule="evenodd" fill-opacity="1"/>
<defs>
  <clipPath id="clip892">
    <rect x="186" y="47" width="2167" height="1440"/>
  </clipPath>
</defs>
<polyline clip-path="url(#clip892)" style="stroke:#000000; stroke-linecap:round; stroke-linejoin:round; stroke-width:2; stroke-opacity:0.1; fill:none" points="195.183,1486.45 195.183,47.2441 "/>
<polyline clip-path="url(#clip892)" style="stroke:#000000; stroke-linecap:round; stroke-linejoin:round; stroke-width:2; stroke-opacity:0.1; fill:none" points="719.247,1486.45 719.247,47.2441 "/>
<polyline clip-path="url(#clip892)" style="stroke:#000000; stroke-linecap:round; stroke-linejoin:round; stroke-width:2; stroke-opacity:0.1; fill:none" points="1243.31,1486.45 1243.31,47.2441 "/>
<polyline clip-path="url(#clip892)" style="stroke:#000000; stroke-linecap:round; stroke-linejoin:round; stroke-width:2; stroke-opacity:0.1; fill:none" points="1767.38,1486.45 1767.38,47.2441 "/>
<polyline clip-path="url(#clip892)" style="stroke:#000000; stroke-linecap:round; stroke-linejoin:round; stroke-width:2; stroke-opacity:0.1; fill:none" points="2291.44,1486.45 2291.44,47.2441 "/>
<polyline clip-path="url(#clip890)" style="stroke:#000000; stroke-linecap:round; stroke-linejoin:round; stroke-width:4; stroke-opacity:1; fill:none" points="186.274,1486.45 2352.76,1486.45 "/>
<polyline clip-path="url(#clip890)" style="stroke:#000000; stroke-linecap:round; stroke-linejoin:round; stroke-width:4; stroke-opacity:1; fill:none" points="195.183,1486.45 195.183,1467.55 "/>
<polyline clip-path="url(#clip890)" style="stroke:#000000; stroke-linecap:round; stroke-linejoin:round; stroke-width:4; stroke-opacity:1; fill:none" points="719.247,1486.45 719.247,1467.55 "/>
<polyline clip-path="url(#clip890)" style="stroke:#000000; stroke-linecap:round; stroke-linejoin:round; stroke-width:4; stroke-opacity:1; fill:none" points="1243.31,1486.45 1243.31,1467.55 "/>
<polyline clip-path="url(#clip890)" style="stroke:#000000; stroke-linecap:round; stroke-linejoin:round; stroke-width:4; stroke-opacity:1; fill:none" points="1767.38,1486.45 1767.38,1467.55 "/>
<polyline clip-path="url(#clip890)" style="stroke:#000000; stroke-linecap:round; stroke-linejoin:round; stroke-width:4; stroke-opacity:1; fill:none" points="2291.44,1486.45 2291.44,1467.55 "/>
<path clip-path="url(#clip890)" d="M195.183 1517.37 Q191.572 1517.37 189.743 1520.93 Q187.938 1524.47 187.938 1531.6 Q187.938 1538.71 189.743 1542.27 Q191.572 1545.82 195.183 1545.82 Q198.817 1545.82 200.623 1542.27 Q202.452 1538.71 202.452 1531.6 Q202.452 1524.47 200.623 1520.93 Q198.817 1517.37 195.183 1517.37 M195.183 1513.66 Q200.993 1513.66 204.049 1518.27 Q207.127 1522.85 207.127 1531.6 Q207.127 1540.33 204.049 1544.94 Q200.993 1549.52 195.183 1549.52 Q189.373 1549.52 186.294 1544.94 Q183.239 1540.33 183.239 1531.6 Q183.239 1522.85 186.294 1518.27 Q189.373 1513.66 195.183 1513.66 Z" fill="#000000" fill-rule="nonzero" fill-opacity="1" /><path clip-path="url(#clip890)" d="M693.935 1544.91 L701.574 1544.91 L701.574 1518.55 L693.264 1520.21 L693.264 1515.95 L701.528 1514.29 L706.204 1514.29 L706.204 1544.91 L713.842 1544.91 L713.842 1548.85 L693.935 1548.85 L693.935 1544.91 Z" fill="#000000" fill-rule="nonzero" fill-opacity="1" /><path clip-path="url(#clip890)" d="M733.287 1517.37 Q729.676 1517.37 727.847 1520.93 Q726.041 1524.47 726.041 1531.6 Q726.041 1538.71 727.847 1542.27 Q729.676 1545.82 733.287 1545.82 Q736.921 1545.82 738.726 1542.27 Q740.555 1538.71 740.555 1531.6 Q740.555 1524.47 738.726 1520.93 Q736.921 1517.37 733.287 1517.37 M733.287 1513.66 Q739.097 1513.66 742.152 1518.27 Q745.231 1522.85 745.231 1531.6 Q745.231 1540.33 742.152 1544.94 Q739.097 1549.52 733.287 1549.52 Q727.477 1549.52 724.398 1544.94 Q721.342 1540.33 721.342 1531.6 Q721.342 1522.85 724.398 1518.27 Q727.477 1513.66 733.287 1513.66 Z" fill="#000000" fill-rule="nonzero" fill-opacity="1" /><path clip-path="url(#clip890)" d="M1222.08 1544.91 L1238.4 1544.91 L1238.4 1548.85 L1216.46 1548.85 L1216.46 1544.91 Q1219.12 1542.16 1223.71 1537.53 Q1228.31 1532.88 1229.49 1531.53 Q1231.74 1529.01 1232.62 1527.27 Q1233.52 1525.51 1233.52 1523.82 Q1233.52 1521.07 1231.58 1519.33 Q1229.65 1517.6 1226.55 1517.6 Q1224.35 1517.6 1221.9 1518.36 Q1219.47 1519.13 1216.69 1520.68 L1216.69 1515.95 Q1219.52 1514.82 1221.97 1514.24 Q1224.42 1513.66 1226.46 1513.66 Q1231.83 1513.66 1235.02 1516.35 Q1238.22 1519.03 1238.22 1523.52 Q1238.22 1525.65 1237.41 1527.57 Q1236.62 1529.47 1234.52 1532.07 Q1233.94 1532.74 1230.83 1535.95 Q1227.73 1539.15 1222.08 1544.91 Z" fill="#000000" fill-rule="nonzero" fill-opacity="1" /><path clip-path="url(#clip890)" d="M1258.22 1517.37 Q1254.61 1517.37 1252.78 1520.93 Q1250.97 1524.47 1250.97 1531.6 Q1250.97 1538.71 1252.78 1542.27 Q1254.61 1545.82 1258.22 1545.82 Q1261.85 1545.82 1263.66 1542.27 Q1265.49 1538.71 1265.49 1531.6 Q1265.49 1524.47 1263.66 1520.93 Q1261.85 1517.37 1258.22 1517.37 M1258.22 1513.66 Q1264.03 1513.66 1267.08 1518.27 Q1270.16 1522.85 1270.16 1531.6 Q1270.16 1540.33 1267.08 1544.94 Q1264.03 1549.52 1258.22 1549.52 Q1252.41 1549.52 1249.33 1544.94 Q1246.27 1540.33 1246.27 1531.6 Q1246.27 1522.85 1249.33 1518.27 Q1252.41 1513.66 1258.22 1513.66 Z" fill="#000000" fill-rule="nonzero" fill-opacity="1" /><path clip-path="url(#clip890)" d="M1756.22 1530.21 Q1759.58 1530.93 1761.45 1533.2 Q1763.35 1535.47 1763.35 1538.8 Q1763.35 1543.92 1759.83 1546.72 Q1756.31 1549.52 1749.83 1549.52 Q1747.65 1549.52 1745.34 1549.08 Q1743.05 1548.66 1740.59 1547.81 L1740.59 1543.29 Q1742.54 1544.43 1744.85 1545.01 Q1747.17 1545.58 1749.69 1545.58 Q1754.09 1545.58 1756.38 1543.85 Q1758.7 1542.11 1758.7 1538.8 Q1758.7 1535.75 1756.54 1534.03 Q1754.41 1532.3 1750.59 1532.3 L1746.57 1532.3 L1746.57 1528.45 L1750.78 1528.45 Q1754.23 1528.45 1756.06 1527.09 Q1757.89 1525.7 1757.89 1523.11 Q1757.89 1520.45 1755.99 1519.03 Q1754.11 1517.6 1750.59 1517.6 Q1748.67 1517.6 1746.47 1518.01 Q1744.27 1518.43 1741.64 1519.31 L1741.64 1515.14 Q1744.3 1514.4 1746.61 1514.03 Q1748.95 1513.66 1751.01 1513.66 Q1756.33 1513.66 1759.44 1516.09 Q1762.54 1518.5 1762.54 1522.62 Q1762.54 1525.49 1760.89 1527.48 Q1759.25 1529.45 1756.22 1530.21 Z" fill="#000000" fill-rule="nonzero" fill-opacity="1" /><path clip-path="url(#clip890)" d="M1782.21 1517.37 Q1778.6 1517.37 1776.77 1520.93 Q1774.97 1524.47 1774.97 1531.6 Q1774.97 1538.71 1776.77 1542.27 Q1778.6 1545.82 1782.21 1545.82 Q1785.85 1545.82 1787.65 1542.27 Q1789.48 1538.71 1789.48 1531.6 Q1789.48 1524.47 1787.65 1520.93 Q1785.85 1517.37 1782.21 1517.37 M1782.21 1513.66 Q1788.02 1513.66 1791.08 1518.27 Q1794.16 1522.85 1794.16 1531.6 Q1794.16 1540.33 1791.08 1544.94 Q1788.02 1549.52 1782.21 1549.52 Q1776.4 1549.52 1773.33 1544.94 Q1770.27 1540.33 1770.27 1531.6 Q1770.27 1522.85 1773.33 1518.27 Q1776.4 1513.66 1782.21 1513.66 Z" fill="#000000" fill-rule="nonzero" fill-opacity="1" /><path clip-path="url(#clip890)" d="M2279.61 1518.36 L2267.81 1536.81 L2279.61 1536.81 L2279.61 1518.36 M2278.38 1514.29 L2284.26 1514.29 L2284.26 1536.81 L2289.2 1536.81 L2289.2 1540.7 L2284.26 1540.7 L2284.26 1548.85 L2279.61 1548.85 L2279.61 1540.7 L2264.01 1540.7 L2264.01 1536.19 L2278.38 1514.29 Z" fill="#000000" fill-rule="nonzero" fill-opacity="1" /><path clip-path="url(#clip890)" d="M2306.93 1517.37 Q2303.32 1517.37 2301.49 1520.93 Q2299.68 1524.47 2299.68 1531.6 Q2299.68 1538.71 2301.49 1542.27 Q2303.32 1545.82 2306.93 1545.82 Q2310.56 1545.82 2312.37 1542.27 Q2314.19 1538.71 2314.19 1531.6 Q2314.19 1524.47 2312.37 1520.93 Q2310.56 1517.37 2306.93 1517.37 M2306.93 1513.66 Q2312.74 1513.66 2315.79 1518.27 Q2318.87 1522.85 2318.87 1531.6 Q2318.87 1540.33 2315.79 1544.94 Q2312.74 1549.52 2306.93 1549.52 Q2301.12 1549.52 2298.04 1544.94 Q2294.98 1540.33 2294.98 1531.6 Q2294.98 1522.85 2298.04 1518.27 Q2301.12 1513.66 2306.93 1513.66 Z" fill="#000000" fill-rule="nonzero" fill-opacity="1" /><polyline clip-path="url(#clip892)" style="stroke:#000000; stroke-linecap:round; stroke-linejoin:round; stroke-width:2; stroke-opacity:0.1; fill:none" points="186.274,1444.96 2352.76,1444.96 "/>
<polyline clip-path="url(#clip892)" style="stroke:#000000; stroke-linecap:round; stroke-linejoin:round; stroke-width:2; stroke-opacity:0.1; fill:none" points="186.274,1105.8 2352.76,1105.8 "/>
<polyline clip-path="url(#clip892)" style="stroke:#000000; stroke-linecap:round; stroke-linejoin:round; stroke-width:2; stroke-opacity:0.1; fill:none" points="186.274,766.641 2352.76,766.641 "/>
<polyline clip-path="url(#clip892)" style="stroke:#000000; stroke-linecap:round; stroke-linejoin:round; stroke-width:2; stroke-opacity:0.1; fill:none" points="186.274,427.483 2352.76,427.483 "/>
<polyline clip-path="url(#clip892)" style="stroke:#000000; stroke-linecap:round; stroke-linejoin:round; stroke-width:2; stroke-opacity:0.1; fill:none" points="186.274,88.3261 2352.76,88.3261 "/>
<polyline clip-path="url(#clip890)" style="stroke:#000000; stroke-linecap:round; stroke-linejoin:round; stroke-width:4; stroke-opacity:1; fill:none" points="186.274,1486.45 186.274,47.2441 "/>
<polyline clip-path="url(#clip890)" style="stroke:#000000; stroke-linecap:round; stroke-linejoin:round; stroke-width:4; stroke-opacity:1; fill:none" points="186.274,1444.96 205.172,1444.96 "/>
<polyline clip-path="url(#clip890)" style="stroke:#000000; stroke-linecap:round; stroke-linejoin:round; stroke-width:4; stroke-opacity:1; fill:none" points="186.274,1105.8 205.172,1105.8 "/>
<polyline clip-path="url(#clip890)" style="stroke:#000000; stroke-linecap:round; stroke-linejoin:round; stroke-width:4; stroke-opacity:1; fill:none" points="186.274,766.641 205.172,766.641 "/>
<polyline clip-path="url(#clip890)" style="stroke:#000000; stroke-linecap:round; stroke-linejoin:round; stroke-width:4; stroke-opacity:1; fill:none" points="186.274,427.483 205.172,427.483 "/>
<polyline clip-path="url(#clip890)" style="stroke:#000000; stroke-linecap:round; stroke-linejoin:round; stroke-width:4; stroke-opacity:1; fill:none" points="186.274,88.3261 205.172,88.3261 "/>
<path clip-path="url(#clip890)" d="M62.9365 1430.75 Q59.3254 1430.75 57.4967 1434.32 Q55.6912 1437.86 55.6912 1444.99 Q55.6912 1452.1 57.4967 1455.66 Q59.3254 1459.2 62.9365 1459.2 Q66.5707 1459.2 68.3763 1455.66 Q70.205 1452.1 70.205 1444.99 Q70.205 1437.86 68.3763 1434.32 Q66.5707 1430.75 62.9365 1430.75 M62.9365 1427.05 Q68.7467 1427.05 71.8022 1431.66 Q74.8809 1436.24 74.8809 1444.99 Q74.8809 1453.72 71.8022 1458.32 Q68.7467 1462.91 62.9365 1462.91 Q57.1264 1462.91 54.0477 1458.32 Q50.9921 1453.72 50.9921 1444.99 Q50.9921 1436.24 54.0477 1431.66 Q57.1264 1427.05 62.9365 1427.05 Z" fill="#000000" fill-rule="nonzero" fill-opacity="1" /><path clip-path="url(#clip890)" d="M83.0984 1456.36 L87.9827 1456.36 L87.9827 1462.24 L83.0984 1462.24 L83.0984 1456.36 Z" fill="#000000" fill-rule="nonzero" fill-opacity="1" /><path clip-path="url(#clip890)" d="M108.168 1430.75 Q104.557 1430.75 102.728 1434.32 Q100.922 1437.86 100.922 1444.99 Q100.922 1452.1 102.728 1455.66 Q104.557 1459.2 108.168 1459.2 Q111.802 1459.2 113.608 1455.66 Q115.436 1452.1 115.436 1444.99 Q115.436 1437.86 113.608 1434.32 Q111.802 1430.75 108.168 1430.75 M108.168 1427.05 Q113.978 1427.05 117.033 1431.66 Q120.112 1436.24 120.112 1444.99 Q120.112 1453.72 117.033 1458.32 Q113.978 1462.91 108.168 1462.91 Q102.358 1462.91 99.2789 1458.32 Q96.2234 1453.72 96.2234 1444.99 Q96.2234 1436.24 99.2789 1431.66 Q102.358 1427.05 108.168 1427.05 Z" fill="#000000" fill-rule="nonzero" fill-opacity="1" /><path clip-path="url(#clip890)" d="M138.33 1430.75 Q134.719 1430.75 132.89 1434.32 Q131.084 1437.86 131.084 1444.99 Q131.084 1452.1 132.89 1455.66 Q134.719 1459.2 138.33 1459.2 Q141.964 1459.2 143.769 1455.66 Q145.598 1452.1 145.598 1444.99 Q145.598 1437.86 143.769 1434.32 Q141.964 1430.75 138.33 1430.75 M138.33 1427.05 Q144.14 1427.05 147.195 1431.66 Q150.274 1436.24 150.274 1444.99 Q150.274 1453.72 147.195 1458.32 Q144.14 1462.91 138.33 1462.91 Q132.519 1462.91 129.441 1458.32 Q126.385 1453.72 126.385 1444.99 Q126.385 1436.24 129.441 1431.66 Q132.519 1427.05 138.33 1427.05 Z" fill="#000000" fill-rule="nonzero" fill-opacity="1" /><path clip-path="url(#clip890)" d="M63.9319 1091.6 Q60.3208 1091.6 58.4921 1095.16 Q56.6865 1098.7 56.6865 1105.83 Q56.6865 1112.94 58.4921 1116.5 Q60.3208 1120.05 63.9319 1120.05 Q67.5661 1120.05 69.3717 1116.5 Q71.2004 1112.94 71.2004 1105.83 Q71.2004 1098.7 69.3717 1095.16 Q67.5661 1091.6 63.9319 1091.6 M63.9319 1087.89 Q69.742 1087.89 72.7976 1092.5 Q75.8763 1097.08 75.8763 1105.83 Q75.8763 1114.56 72.7976 1119.17 Q69.742 1123.75 63.9319 1123.75 Q58.1217 1123.75 55.043 1119.17 Q51.9875 1114.56 51.9875 1105.83 Q51.9875 1097.08 55.043 1092.5 Q58.1217 1087.89 63.9319 1087.89 Z" fill="#000000" fill-rule="nonzero" fill-opacity="1" /><path clip-path="url(#clip890)" d="M84.0938 1117.2 L88.978 1117.2 L88.978 1123.08 L84.0938 1123.08 L84.0938 1117.2 Z" fill="#000000" fill-rule="nonzero" fill-opacity="1" /><path clip-path="url(#clip890)" d="M103.191 1119.14 L119.51 1119.14 L119.51 1123.08 L97.566 1123.08 L97.566 1119.14 Q100.228 1116.39 104.811 1111.76 Q109.418 1107.11 110.598 1105.76 Q112.844 1103.24 113.723 1101.5 Q114.626 1099.74 114.626 1098.06 Q114.626 1095.3 112.682 1093.56 Q110.76 1091.83 107.658 1091.83 Q105.459 1091.83 103.006 1092.59 Q100.575 1093.36 97.7974 1094.91 L97.7974 1090.18 Q100.621 1089.05 103.075 1088.47 Q105.529 1087.89 107.566 1087.89 Q112.936 1087.89 116.131 1090.58 Q119.325 1093.26 119.325 1097.75 Q119.325 1099.88 118.515 1101.81 Q117.728 1103.7 115.621 1106.3 Q115.043 1106.97 111.941 1110.18 Q108.839 1113.38 103.191 1119.14 Z" fill="#000000" fill-rule="nonzero" fill-opacity="1" /><path clip-path="url(#clip890)" d="M129.371 1088.52 L147.728 1088.52 L147.728 1092.45 L133.654 1092.45 L133.654 1100.93 Q134.672 1100.58 135.691 1100.42 Q136.709 1100.23 137.728 1100.23 Q143.515 1100.23 146.894 1103.4 Q150.274 1106.57 150.274 1111.99 Q150.274 1117.57 146.802 1120.67 Q143.33 1123.75 137.01 1123.75 Q134.834 1123.75 132.566 1123.38 Q130.32 1123.01 127.913 1122.27 L127.913 1117.57 Q129.996 1118.7 132.219 1119.26 Q134.441 1119.81 136.918 1119.81 Q140.922 1119.81 143.26 1117.71 Q145.598 1115.6 145.598 1111.99 Q145.598 1108.38 143.26 1106.27 Q140.922 1104.17 136.918 1104.17 Q135.043 1104.17 133.168 1104.58 Q131.316 1105 129.371 1105.88 L129.371 1088.52 Z" fill="#000000" fill-rule="nonzero" fill-opacity="1" /><path clip-path="url(#clip890)" d="M62.9365 752.439 Q59.3254 752.439 57.4967 756.004 Q55.6912 759.546 55.6912 766.675 Q55.6912 773.782 57.4967 777.347 Q59.3254 780.888 62.9365 780.888 Q66.5707 780.888 68.3763 777.347 Q70.205 773.782 70.205 766.675 Q70.205 759.546 68.3763 756.004 Q66.5707 752.439 62.9365 752.439 M62.9365 748.736 Q68.7467 748.736 71.8022 753.342 Q74.8809 757.926 74.8809 766.675 Q74.8809 775.402 71.8022 780.009 Q68.7467 784.592 62.9365 784.592 Q57.1264 784.592 54.0477 780.009 Q50.9921 775.402 50.9921 766.675 Q50.9921 757.926 54.0477 753.342 Q57.1264 748.736 62.9365 748.736 Z" fill="#000000" fill-rule="nonzero" fill-opacity="1" /><path clip-path="url(#clip890)" d="M83.0984 778.041 L87.9827 778.041 L87.9827 783.921 L83.0984 783.921 L83.0984 778.041 Z" fill="#000000" fill-rule="nonzero" fill-opacity="1" /><path clip-path="url(#clip890)" d="M98.2141 749.361 L116.57 749.361 L116.57 753.296 L102.496 753.296 L102.496 761.768 Q103.515 761.421 104.534 761.259 Q105.552 761.074 106.571 761.074 Q112.358 761.074 115.737 764.245 Q119.117 767.416 119.117 772.833 Q119.117 778.412 115.645 781.513 Q112.172 784.592 105.853 784.592 Q103.677 784.592 101.409 784.222 Q99.1632 783.851 96.7558 783.111 L96.7558 778.412 Q98.8391 779.546 101.061 780.101 Q103.284 780.657 105.76 780.657 Q109.765 780.657 112.103 778.55 Q114.441 776.444 114.441 772.833 Q114.441 769.222 112.103 767.115 Q109.765 765.009 105.76 765.009 Q103.885 765.009 102.01 765.426 Q100.159 765.842 98.2141 766.722 L98.2141 749.361 Z" fill="#000000" fill-rule="nonzero" fill-opacity="1" /><path clip-path="url(#clip890)" d="M138.33 752.439 Q134.719 752.439 132.89 756.004 Q131.084 759.546 131.084 766.675 Q131.084 773.782 132.89 777.347 Q134.719 780.888 138.33 780.888 Q141.964 780.888 143.769 777.347 Q145.598 773.782 145.598 766.675 Q145.598 759.546 143.769 756.004 Q141.964 752.439 138.33 752.439 M138.33 748.736 Q144.14 748.736 147.195 753.342 Q150.274 757.926 150.274 766.675 Q150.274 775.402 147.195 780.009 Q144.14 784.592 138.33 784.592 Q132.519 784.592 129.441 780.009 Q126.385 775.402 126.385 766.675 Q126.385 757.926 129.441 753.342 Q132.519 748.736 138.33 748.736 Z" fill="#000000" fill-rule="nonzero" fill-opacity="1" /><path clip-path="url(#clip890)" d="M63.9319 413.282 Q60.3208 413.282 58.4921 416.847 Q56.6865 420.389 56.6865 427.518 Q56.6865 434.625 58.4921 438.189 Q60.3208 441.731 63.9319 441.731 Q67.5661 441.731 69.3717 438.189 Q71.2004 434.625 71.2004 427.518 Q71.2004 420.389 69.3717 416.847 Q67.5661 413.282 63.9319 413.282 M63.9319 409.578 Q69.742 409.578 72.7976 414.185 Q75.8763 418.768 75.8763 427.518 Q75.8763 436.245 72.7976 440.851 Q69.742 445.435 63.9319 445.435 Q58.1217 445.435 55.043 440.851 Q51.9875 436.245 51.9875 427.518 Q51.9875 418.768 55.043 414.185 Q58.1217 409.578 63.9319 409.578 Z" fill="#000000" fill-rule="nonzero" fill-opacity="1" /><path clip-path="url(#clip890)" d="M84.0938 438.884 L88.978 438.884 L88.978 444.763 L84.0938 444.763 L84.0938 438.884 Z" fill="#000000" fill-rule="nonzero" fill-opacity="1" /><path clip-path="url(#clip890)" d="M97.9826 410.203 L120.205 410.203 L120.205 412.194 L107.658 444.763 L102.774 444.763 L114.58 414.139 L97.9826 414.139 L97.9826 410.203 Z" fill="#000000" fill-rule="nonzero" fill-opacity="1" /><path clip-path="url(#clip890)" d="M129.371 410.203 L147.728 410.203 L147.728 414.139 L133.654 414.139 L133.654 422.611 Q134.672 422.264 135.691 422.102 Q136.709 421.916 137.728 421.916 Q143.515 421.916 146.894 425.088 Q150.274 428.259 150.274 433.676 Q150.274 439.254 146.802 442.356 Q143.33 445.435 137.01 445.435 Q134.834 445.435 132.566 445.064 Q130.32 444.694 127.913 443.953 L127.913 439.254 Q129.996 440.388 132.219 440.944 Q134.441 441.5 136.918 441.5 Q140.922 441.5 143.26 439.393 Q145.598 437.287 145.598 433.676 Q145.598 430.064 143.26 427.958 Q140.922 425.852 136.918 425.852 Q135.043 425.852 133.168 426.268 Q131.316 426.685 129.371 427.564 L129.371 410.203 Z" fill="#000000" fill-rule="nonzero" fill-opacity="1" /><path clip-path="url(#clip890)" d="M53.7467 101.671 L61.3856 101.671 L61.3856 75.3054 L53.0754 76.972 L53.0754 72.7128 L61.3393 71.0461 L66.0152 71.0461 L66.0152 101.671 L73.654 101.671 L73.654 105.606 L53.7467 105.606 L53.7467 101.671 Z" fill="#000000" fill-rule="nonzero" fill-opacity="1" /><path clip-path="url(#clip890)" d="M83.0984 99.7265 L87.9827 99.7265 L87.9827 105.606 L83.0984 105.606 L83.0984 99.7265 Z" fill="#000000" fill-rule="nonzero" fill-opacity="1" /><path clip-path="url(#clip890)" d="M108.168 74.1248 Q104.557 74.1248 102.728 77.6896 Q100.922 81.2313 100.922 88.3608 Q100.922 95.4673 102.728 99.0321 Q104.557 102.574 108.168 102.574 Q111.802 102.574 113.608 99.0321 Q115.436 95.4673 115.436 88.3608 Q115.436 81.2313 113.608 77.6896 Q111.802 74.1248 108.168 74.1248 M108.168 70.4211 Q113.978 70.4211 117.033 75.0276 Q120.112 79.6109 120.112 88.3608 Q120.112 97.0877 117.033 101.694 Q113.978 106.277 108.168 106.277 Q102.358 106.277 99.2789 101.694 Q96.2234 97.0877 96.2234 88.3608 Q96.2234 79.6109 99.2789 75.0276 Q102.358 70.4211 108.168 70.4211 Z" fill="#000000" fill-rule="nonzero" fill-opacity="1" /><path clip-path="url(#clip890)" d="M138.33 74.1248 Q134.719 74.1248 132.89 77.6896 Q131.084 81.2313 131.084 88.3608 Q131.084 95.4673 132.89 99.0321 Q134.719 102.574 138.33 102.574 Q141.964 102.574 143.769 99.0321 Q145.598 95.4673 145.598 88.3608 Q145.598 81.2313 143.769 77.6896 Q141.964 74.1248 138.33 74.1248 M138.33 70.4211 Q144.14 70.4211 147.195 75.0276 Q150.274 79.6109 150.274 88.3608 Q150.274 97.0877 147.195 101.694 Q144.14 106.277 138.33 106.277 Q132.519 106.277 129.441 101.694 Q126.385 97.0877 126.385 88.3608 Q126.385 79.6109 129.441 75.0276 Q132.519 70.4211 138.33 70.4211 Z" fill="#000000" fill-rule="nonzero" fill-opacity="1" /><polyline clip-path="url(#clip892)" style="stroke:#009af9; stroke-linecap:round; stroke-linejoin:round; stroke-width:4; stroke-opacity:1; fill:none" points="247.59,1388.65 299.996,1372.94 352.402,1353.1 404.809,1329.42 457.215,1302.97 509.622,1274.93 562.028,1245.71 614.435,1214.38 666.841,1178.94 719.247,1137.29 771.654,1088.7 824.06,1035.28 876.467,982.698 928.873,939.753 981.28,916.146 1033.69,918.919 1086.09,949.252 1138.5,1001.53 1190.91,1065.01 1243.31,1126.87 1295.72,1175.76 1348.12,1205.2 1400.53,1215.67 1452.94,1214.22 1505.34,1211.53 1557.75,1217.98 1610.16,1239.76 1662.56,1276.5 1714.97,1321.61 1767.38,1365.59 1819.78,1400.66 1872.19,1423.69 1924.6,1436 1977,1441.16 2029.41,1442.73 2081.81,1443.07 2134.22,1443.31 2186.63,1443.75 2239.03,1444.28 2291.44,1444.76 "/>
<polyline clip-path="url(#clip892)" style="stroke:#009af9; stroke-linecap:round; stroke-linejoin:round; stroke-width:4; stroke-opacity:1; fill:none" stroke-dasharray="16, 10" points="247.59,1334.6 299.996,1314.28 352.402,1291.6 404.809,1267.9 457.215,1244.55 509.622,1222.19 562.028,1200.41 614.435,1177.86 666.841,1152.89 719.247,1124.41 771.654,1092.59 824.06,1059.29 876.467,1027.98 928.873,1003.34 981.28,990.548 1033.69,993.92 1086.09,1015.19 1138.5,1052.39 1190.91,1099.99 1243.31,1150.29 1295.72,1195.31 1348.12,1228.91 1400.53,1248.67 1452.94,1256.64 1505.34,1258.49 1557.75,1261.44 1610.16,1271.92 1662.56,1293.29 1714.97,1324.35 1767.38,1359.75 1819.78,1392.52 1872.19,1417.47 1924.6,1433.05 1977,1440.81 2029.41,1443.67 2081.81,1444.22 2134.22,1444.12 2186.63,1444.1 2239.03,1444.31 2291.44,1444.66 "/>
<polyline clip-path="url(#clip892)" style="stroke:#e26f46; stroke-linecap:round; stroke-linejoin:round; stroke-width:4; stroke-opacity:1; fill:none" points="247.59,124.822 299.996,137.194 352.402,153.105 404.809,173.653 457.215,199.363 509.622,229.808 562.028,263.934 614.435,301.034 666.841,341.702 719.247,387.877 771.654,441.451 824.06,501.879 876.467,564.067 928.873,618.164 981.28,652.116 1033.69,656.225 1086.09,627.426 1138.5,571.074 1190.91,499.572 1243.31,428.677 1295.72,372.743 1348.12,340.262 1400.53,331.139 1452.94,336.905 1505.34,344.108 1557.75,339.737 1610.16,316.447 1662.56,275.243 1714.97,224.336 1767.38,174.814 1819.78,135.577 1872.19,110.22 1924.6,97.1456 1977,92.0219 2029.41,90.5739 2081.81,90.1091 2134.22,89.581 2186.63,88.9133 2239.03,88.3265 2291.44,87.9763 "/>
<polyline clip-path="url(#clip892)" style="stroke:#e26f46; stroke-linecap:round; stroke-linejoin:round; stroke-width:4; stroke-opacity:1; fill:none" stroke-dasharray="16, 10" points="247.59,170.806 299.996,188.156 352.402,208.908 404.809,233.388 457.215,261.001 509.622,290.386 562.028,320.116 614.435,349.563 666.841,379.393 719.247,411.262 771.654,446.696 824.06,485.581 876.467,525.001 928.873,559.174 981.28,580.833 1033.69,583.635 1086.09,564.518 1138.5,525.047 1190.91,471.403 1243.31,413.059 1295.72,360.352 1348.12,321.473 1400.53,299.942 1452.94,293.506 1505.34,294.936 1557.75,294.617 1610.16,284.219 1662.56,260.018 1714.97,224.24 1767.38,183.676 1819.78,146.35 1872.19,118.093 1924.6,100.711 1977,92.3917 2029.41,89.6307 2081.81,89.2136 2134.22,89.2187 2186.63,88.9711 2239.03,88.5084 2291.44,88.0713 "/>
<polyline clip-path="url(#clip892)" style="stroke:#3da44d; stroke-linecap:round; stroke-linejoin:round; stroke-width:4; stroke-opacity:1; fill:none" points="247.59,1311.47 299.996,1290.44 352.402,1267.44 404.809,1242.85 457.215,1217.48 509.622,1192.19 562.028,1167.43 614.435,1143.04 666.841,1118.46 719.247,1093.31 771.654,1068.05 824.06,1044.42 876.467,1025.58 928.873,1015.67 981.28,1018.76 1033.69,1037.1 1086.09,1069.83 1138.5,1112.71 1190.91,1159.19 1243.31,1202.17 1295.72,1236.06 1348.12,1258.41 1400.53,1270.7 1452.94,1277.49 1505.34,1284.71 1557.75,1297.41 1610.16,1317.97 1662.56,1345.22 1714.97,1374.99 1767.38,1402.13 1819.78,1422.87 1872.19,1436.04 1924.6,1442.81 1977,1445.36 2029.41,1445.71 2081.81,1445.24 2134.22,1444.64 2186.63,1444.22 2239.03,1444.06 2291.44,1444.11 "/>
<polyline clip-path="url(#clip892)" style="stroke:#3da44d; stroke-linecap:round; stroke-linejoin:round; stroke-width:4; stroke-opacity:1; fill:none" stroke-dasharray="16, 10" points="247.59,1268.32 299.996,1250.54 352.402,1232.29 404.809,1214.17 457.215,1196.8 509.622,1180.54 562.028,1165.3 614.435,1150.64 666.841,1135.98 719.247,1120.95 771.654,1105.67 824.06,1090.98 876.467,1078.58 928.873,1070.99 981.28,1071.26 1033.69,1081.99 1086.09,1104.18 1138.5,1136.41 1190.91,1174.89 1243.31,1214.44 1295.72,1249.72 1348.12,1276.72 1400.53,1293.94 1452.94,1302.92 1505.34,1307.55 1557.75,1312.73 1610.16,1322.69 1662.56,1339.61 1714.97,1362.58 1767.38,1387.91 1819.78,1410.93 1872.19,1428.2 1924.6,1438.83 1977,1444 2029.41,1445.72 2081.81,1445.7 2134.22,1445.08 2186.63,1444.45 2239.03,1444.07 2291.44,1443.98 "/>
<path clip-path="url(#clip890)" d="M258.49 458.098 L529.281 458.098 L529.281 95.2176 L258.49 95.2176  Z" fill="#ffffff" fill-rule="evenodd" fill-opacity="1"/>
<polyline clip-path="url(#clip890)" style="stroke:#000000; stroke-linecap:round; stroke-linejoin:round; stroke-width:4; stroke-opacity:1; fill:none" points="258.49,458.098 529.281,458.098 529.281,95.2176 258.49,95.2176 258.49,458.098 "/>
<polyline clip-path="url(#clip890)" style="stroke:#009af9; stroke-linecap:round; stroke-linejoin:round; stroke-width:4; stroke-opacity:1; fill:none" points="282.562,147.058 426.994,147.058 "/>
<path clip-path="url(#clip890)" d="M464.909 166.745 Q463.103 171.375 461.39 172.787 Q459.677 174.199 456.807 174.199 L453.404 174.199 L453.404 170.634 L455.904 170.634 Q457.663 170.634 458.636 169.8 Q459.608 168.967 460.788 165.865 L461.552 163.921 L451.066 138.412 L455.58 138.412 L463.682 158.689 L471.784 138.412 L476.298 138.412 L464.909 166.745 Z" fill="#000000" fill-rule="nonzero" fill-opacity="1" /><path clip-path="url(#clip890)" d="M483.589 160.402 L491.228 160.402 L491.228 134.037 L482.918 135.703 L482.918 131.444 L491.182 129.778 L495.858 129.778 L495.858 160.402 L503.497 160.402 L503.497 164.338 L483.589 164.338 L483.589 160.402 Z" fill="#000000" fill-rule="nonzero" fill-opacity="1" /><polyline clip-path="url(#clip890)" style="stroke:#009af9; stroke-linecap:round; stroke-linejoin:round; stroke-width:4; stroke-opacity:1; fill:none" stroke-dasharray="16, 10" points="282.562,198.898 426.994,198.898 "/>
<path clip-path="url(#clip890)" d="M464.909 218.585 Q463.103 223.215 461.39 224.627 Q459.677 226.039 456.807 226.039 L453.404 226.039 L453.404 222.474 L455.904 222.474 Q457.663 222.474 458.636 221.64 Q459.608 220.807 460.788 217.705 L461.552 215.761 L451.066 190.252 L455.58 190.252 L463.682 210.529 L471.784 190.252 L476.298 190.252 L464.909 218.585 Z" fill="#000000" fill-rule="nonzero" fill-opacity="1" /><path clip-path="url(#clip890)" d="M486.807 212.242 L503.126 212.242 L503.126 216.178 L481.182 216.178 L481.182 212.242 Q483.844 209.488 488.427 204.858 Q493.034 200.205 494.214 198.863 Q496.46 196.34 497.339 194.604 Q498.242 192.844 498.242 191.155 Q498.242 188.4 496.297 186.664 Q494.376 184.928 491.274 184.928 Q489.075 184.928 486.622 185.692 Q484.191 186.455 481.413 188.006 L481.413 183.284 Q484.237 182.15 486.691 181.571 Q489.145 180.993 491.182 180.993 Q496.552 180.993 499.747 183.678 Q502.941 186.363 502.941 190.854 Q502.941 192.983 502.131 194.905 Q501.344 196.803 499.237 199.395 Q498.659 200.067 495.557 203.284 Q492.455 206.479 486.807 212.242 Z" fill="#000000" fill-rule="nonzero" fill-opacity="1" /><polyline clip-path="url(#clip890)" style="stroke:#e26f46; stroke-linecap:round; stroke-linejoin:round; stroke-width:4; stroke-opacity:1; fill:none" points="282.562,250.738 426.994,250.738 "/>
<path clip-path="url(#clip890)" d="M464.909 270.425 Q463.103 275.055 461.39 276.467 Q459.677 277.879 456.807 277.879 L453.404 277.879 L453.404 274.314 L455.904 274.314 Q457.663 274.314 458.636 273.48 Q459.608 272.647 460.788 269.545 L461.552 267.601 L451.066 242.092 L455.58 242.092 L463.682 262.369 L471.784 242.092 L476.298 242.092 L464.909 270.425 Z" fill="#000000" fill-rule="nonzero" fill-opacity="1" /><path clip-path="url(#clip890)" d="M496.946 249.383 Q500.302 250.101 502.177 252.369 Q504.075 254.638 504.075 257.971 Q504.075 263.087 500.557 265.888 Q497.038 268.689 490.557 268.689 Q488.381 268.689 486.066 268.249 Q483.774 267.832 481.321 266.976 L481.321 262.462 Q483.265 263.596 485.58 264.175 Q487.895 264.754 490.418 264.754 Q494.816 264.754 497.108 263.018 Q499.422 261.281 499.422 257.971 Q499.422 254.916 497.27 253.203 Q495.14 251.467 491.321 251.467 L487.293 251.467 L487.293 247.624 L491.506 247.624 Q494.955 247.624 496.784 246.258 Q498.612 244.87 498.612 242.277 Q498.612 239.615 496.714 238.203 Q494.839 236.768 491.321 236.768 Q489.399 236.768 487.2 237.184 Q485.001 237.601 482.362 238.481 L482.362 234.314 Q485.024 233.573 487.339 233.203 Q489.677 232.833 491.737 232.833 Q497.061 232.833 500.163 235.263 Q503.265 237.67 503.265 241.791 Q503.265 244.661 501.622 246.652 Q499.978 248.62 496.946 249.383 Z" fill="#000000" fill-rule="nonzero" fill-opacity="1" /><polyline clip-path="url(#clip890)" style="stroke:#e26f46; stroke-linecap:round; stroke-linejoin:round; stroke-width:4; stroke-opacity:1; fill:none" stroke-dasharray="16, 10" points="282.562,302.578 426.994,302.578 "/>
<path clip-path="url(#clip890)" d="M464.909 322.265 Q463.103 326.895 461.39 328.307 Q459.677 329.719 456.807 329.719 L453.404 329.719 L453.404 326.154 L455.904 326.154 Q457.663 326.154 458.636 325.32 Q459.608 324.487 460.788 321.385 L461.552 319.441 L451.066 293.932 L455.58 293.932 L463.682 314.209 L471.784 293.932 L476.298 293.932 L464.909 322.265 Z" fill="#000000" fill-rule="nonzero" fill-opacity="1" /><path clip-path="url(#clip890)" d="M495.626 289.372 L483.821 307.821 L495.626 307.821 L495.626 289.372 M494.399 285.298 L500.279 285.298 L500.279 307.821 L505.209 307.821 L505.209 311.709 L500.279 311.709 L500.279 319.858 L495.626 319.858 L495.626 311.709 L480.024 311.709 L480.024 307.196 L494.399 285.298 Z" fill="#000000" fill-rule="nonzero" fill-opacity="1" /><polyline clip-path="url(#clip890)" style="stroke:#3da44d; stroke-linecap:round; stroke-linejoin:round; stroke-width:4; stroke-opacity:1; fill:none" points="282.562,354.418 426.994,354.418 "/>
<path clip-path="url(#clip890)" d="M464.909 374.105 Q463.103 378.735 461.39 380.147 Q459.677 381.559 456.807 381.559 L453.404 381.559 L453.404 377.994 L455.904 377.994 Q457.663 377.994 458.636 377.16 Q459.608 376.327 460.788 373.225 L461.552 371.281 L451.066 345.772 L455.58 345.772 L463.682 366.049 L471.784 345.772 L476.298 345.772 L464.909 374.105 Z" fill="#000000" fill-rule="nonzero" fill-opacity="1" /><path clip-path="url(#clip890)" d="M482.825 337.138 L501.182 337.138 L501.182 341.073 L487.108 341.073 L487.108 349.545 Q488.126 349.198 489.145 349.036 Q490.163 348.85 491.182 348.85 Q496.969 348.85 500.348 352.022 Q503.728 355.193 503.728 360.61 Q503.728 366.188 500.256 369.29 Q496.784 372.369 490.464 372.369 Q488.288 372.369 486.02 371.998 Q483.774 371.628 481.367 370.887 L481.367 366.188 Q483.45 367.323 485.673 367.878 Q487.895 368.434 490.372 368.434 Q494.376 368.434 496.714 366.327 Q499.052 364.221 499.052 360.61 Q499.052 356.999 496.714 354.892 Q494.376 352.786 490.372 352.786 Q488.497 352.786 486.622 353.202 Q484.77 353.619 482.825 354.499 L482.825 337.138 Z" fill="#000000" fill-rule="nonzero" fill-opacity="1" /><polyline clip-path="url(#clip890)" style="stroke:#3da44d; stroke-linecap:round; stroke-linejoin:round; stroke-width:4; stroke-opacity:1; fill:none" stroke-dasharray="16, 10" points="282.562,406.258 426.994,406.258 "/>
<path clip-path="url(#clip890)" d="M464.909 425.945 Q463.103 430.575 461.39 431.987 Q459.677 433.399 456.807 433.399 L453.404 433.399 L453.404 429.834 L455.904 429.834 Q457.663 429.834 458.636 429 Q459.608 428.167 460.788 425.065 L461.552 423.121 L451.066 397.612 L455.58 397.612 L463.682 417.889 L471.784 397.612 L476.298 397.612 L464.909 425.945 Z" fill="#000000" fill-rule="nonzero" fill-opacity="1" /><path clip-path="url(#clip890)" d="M493.358 404.394 Q490.21 404.394 488.358 406.547 Q486.529 408.7 486.529 412.45 Q486.529 416.176 488.358 418.352 Q490.21 420.505 493.358 420.505 Q496.506 420.505 498.334 418.352 Q500.186 416.176 500.186 412.45 Q500.186 408.7 498.334 406.547 Q496.506 404.394 493.358 404.394 M502.64 389.741 L502.64 394.001 Q500.881 393.167 499.075 392.728 Q497.293 392.288 495.534 392.288 Q490.904 392.288 488.45 395.413 Q486.02 398.538 485.673 404.857 Q487.038 402.843 489.098 401.778 Q491.159 400.69 493.635 400.69 Q498.844 400.69 501.853 403.862 Q504.885 407.01 504.885 412.45 Q504.885 417.774 501.737 420.991 Q498.589 424.209 493.358 424.209 Q487.362 424.209 484.191 419.626 Q481.02 415.019 481.02 406.292 Q481.02 398.098 484.909 393.237 Q488.798 388.353 495.348 388.353 Q497.108 388.353 498.89 388.7 Q500.696 389.047 502.64 389.741 Z" fill="#000000" fill-rule="nonzero" fill-opacity="1" /></svg>
