<?xml version="1.0" encoding="utf-8"?>
<svg xmlns="http://www.w3.org/2000/svg" xmlns:xlink="http://www.w3.org/1999/xlink" width="600" height="400" viewBox="0 0 2400 1600">
<defs>
  <clipPath id="clip970">
    <rect x="0" y="0" width="2400" height="1600"/>
  </clipPath>
</defs>
<path clip-path="url(#clip970)" d="M0 1600 L2400 1600 L2400 0 L0 0  Z" fill="#ffffff" fill-rule="evenodd" fill-opacity="1"/>
<defs>
  <clipPath id="clip971">
    <rect x="480" y="0" width="1681" height="1600"/>
  </clipPath>
</defs>
<path clip-path="url(#clip970)" d="M186.274 1486.45 L2352.76 1486.45 L2352.76 47.2441 L186.274 47.2441  Z" fill="#ffffff" fill-rule="evenodd" fill-opacity="1"/>
<defs>
  <clipPath id="clip972">
    <rect x="186" y="47" width="2167" height="1440"/>
  </clipPath>
</defs>
<polyline clip-path="url(#clip972)" style="stroke:#000000; stroke-linecap:round; stroke-linejoin:round; stroke-width:2; stroke-opacity:0.1; fill:none" points="195.183,1486.45 195.183,47.2441 "/>
<polyline clip-path="url(#clip972)" style="stroke:#000000; stroke-linecap:round; stroke-linejoin:round; stroke-width:2; stroke-opacity:0.1; fill:none" points="719.247,1486.45 719.247,47.2441 "/>
<polyline clip-path="url(#clip972)" style="stroke:#000000; stroke-linecap:round; stroke-linejoin:round; stroke-width:2; stroke-opacity:0.1; fill:none" points="1243.31,1486.45 1243.31,47.2441 "/>
<polyline clip-path="url(#clip972)" style="stroke:#000000; stroke-linecap:round; stroke-linejoin:round; stroke-width:2; stroke-opacity:0.1; fill:none" points="1767.38,1486.45 1767.38,47.2441 "/>
<polyline clip-path="url(#clip972)" style="stroke:#000000; stroke-linecap:round; stroke-linejoin:round; stroke-width:2; stroke-opacity:0.1; fill:none" points="2291.44,1486.45 2291.44,47.2441 "/>
<polyline clip-path="url(#clip970)" style="stroke:#000000; stroke-linecap:round; stroke-linejoin:round; stroke-width:4; stroke-opacity:1; fill:none" points="186.274,1486.45 2352.76,1486.45 "/>
<polyline clip-path="url(#clip970)" style="stroke:#000000; stroke-linecap:round; stroke-linejoin:round; stroke-width:4; stroke-opacity:1; fill:none" points="195.183,1486.45 195.183,1467.55 "/>
<polyline clip-path="url(#clip970)" style="stroke:#000000; stroke-linecap:round; stroke-linejoin:round; stroke-width:4; stroke-opacity:1; fill:none" points="719.247,1486.45 719.247,1467.55 "/>
<polyline clip-path="url(#clip970)" style="stroke:#000000; stroke-linecap:round; stroke-linejoin:round; stroke-width:4; stroke-opacity:1; fill:none" points="1243.31,1486.45 1243.31,1467.55 "/>
<polyline clip-path="url(#clip970)" style="stroke:#000000; stroke-linecap:round; stroke-linejoin:round; stroke-width:4; stroke-opacity:1; fill:none" points="1767.38,1486.45 1767.38,1467.55 "/>
<polyline clip-path="url(#clip970)" style="stroke:#000000; stroke-linecap:round; stroke-linejoin:round; stroke-width:4; stroke-opacity:1; fill:none" points="2291.44,1486.45 2291.44,1467.55 "/>
<path clip-path="url(#clip970)" d="M195.183 1517.37 Q191.572 1517.37 189.743 1520.93 Q187.938 1524.47 187.938 1531.6 Q187.938 1538.71 189.743 1542.27 Q191.572 1545.82 195.183 1545.82 Q198.817 1545.82 200.623 1542.27 Q202.452 1538.71 202.452 1531.6 Q202.452 1524.47 200.623 1520.93 Q198.817 1517.37 195.183 1517.37 M195.183 1513.66 Q200.993 1513.66 204.049 1518.27 Q207.127 1522.85 207.127 1531.6 Q207.127 1540.33 204.049 1544.94 Q200.993 1549.52 195.183 1549.52 Q189.373 1549.52 186.294 1544.94 Q183.239 1540.33 183.239 1531.6 Q183.239 1522.85 186.294 1518.27 Q189.373 1513.66 195.183 1513.66 Z" fill="#000000" fill-rule="nonzero" fill-opacity="1" /><path clip-path="url(#clip970)" d="M693.935 1544.91 L701.574 1544.91 L701.574 1518.55 L693.264 1520.21 L693.264 1515.95 L701.528 1514.29 L706.204 1514.29 L706.204 1544.91 L713.842 1544.91 L713.842 1548.85 L693.935 1548.85 L693.935 1544.91 Z" fill="#000000" fill-rule="nonzero" fill-opacity="1" /><path clip-path="url(#clip970)" d="M733.287 1517.37 Q729.676 1517.37 727.847 1520.93 Q726.041 1524.47 726.041 1531.6 Q726.041 1538.71 727.847 1542.27 Q729.676 1545.82 733.287 1545.82 Q736.921 1545.82 738.726 1542.27 Q740.555 1538.71 740.555 1531.6 Q740.555 1524.47 738.726 1520.93 Q736.921 1517.37 733.287 1517.37 M733.287 1513.66 Q739.097 1513.66 742.152 1518.27 Q745.231 1522.85 745.231 1531.6 Q745.231 1540.33 742.152 1544.94 Q739.097 1549.52 733.287 1549.52 Q727.477 1549.52 724.398 1544.94 Q721.342 1540.33 721.342 1531.6 Q721.342 1522.85 724.398 1518.27 Q727.477 1513.66 733.287 1513.66 Z" fill="#000000" fill-rule="nonzero" fill-opacity="1" /><path clip-path="url(#clip970)" d="M1222.08 1544.91 L1238.4 1544.91 L1238.4 1548.85 L1216.46 1548.85 L1216.46 1544.91 Q1219.12 1542.16 1223.71 1537.53 Q1228.31 1532.88 1229.49 1531.53 Q1231.74 1529.01 1232.62 1527.27 Q1233.52 1525.51 1233.52 1523.82 Q1233.52 1521.07 1231.58 1519.33 Q1229.65 1517.6 1226.55 1517.6 Q1224.35 1517.6 1221.9 1518.36 Q1219.47 1519.13 1216.69 1520.68 L1216.69 1515.95 Q1219.52 1514.82 1221.97 1514.24 Q1224.42 1513.66 1226.46 1513.66 Q1231.83 1513.66 1235.02 1516.35 Q1238.22 1519.03 1238.22 1523.52 Q1238.22 1525.65 1237.41 1527.57 Q1236.62 1529.47 1234.52 1532.07 Q1233.94 1532.74 1230.83 1535.95 Q1227.73 1539.15 1222.08 1544.91 Z" fill="#000000" fill-rule="nonzero" fill-opacity="1" /><path clip-path="url(#clip970)" d="M1258.22 1517.37 Q1254.61 1517.37 1252.78 1520.93 Q1250.97 1524.47 1250.97 1531.6 Q1250.97 1538.71 1252.78 1542.27 Q1254.61 1545.82 1258.22 1545.82 Q1261.85 1545.82 1263.66 1542.27 Q1265.49 1538.71 1265.49 1531.6 Q1265.49 1524.47 1263.66 1520.93 Q1261.85 1517.37 1258.22 1517.37 M1258.22 1513.66 Q1264.03 1513.66 1267.08 1518.27 Q1270.16 1522.85 1270.16 1531.6 Q1270.16 1540.33 1267.08 1544.94 Q1264.03 1549.52 1258.22 1549.52 Q1252.41 1549.52 1249.33 1544.94 Q1246.27 1540.33 1246.27 1531.6 Q1246.27 1522.85 1249.33 1518.27 Q1252.41 1513.66 1258.22 1513.66 Z" fill="#000000" fill-rule="nonzero" fill-opacity="1" /><path clip-path="url(#clip970)" d="M1756.22 1530.21 Q1759.58 1530.93 1761.45 1533.2 Q1763.35 1535.47 1763.35 1538.8 Q1763.35 1543.92 1759.83 1546.72 Q1756.31 1549.52 1749.83 1549.52 Q1747.65 1549.52 1745.34 1549.08 Q1743.05 1548.66 1740.59 1547.81 L1740.59 1543.29 Q1742.54 1544.43 1744.85 1545.01 Q1747.17 1545.58 1749.69 1545.58 Q1754.09 1545.58 1756.38 1543.85 Q1758.7 1542.11 1758.7 1538.8 Q1758.7 1535.75 1756.54 1534.03 Q1754.41 1532.3 1750.59 1532.3 L1746.57 1532.3 L1746.57 1528.45 L1750.78 1528.45 Q1754.23 1528.45 1756.06 1527.09 Q1757.89 1525.7 1757.89 1523.11 Q1757.89 1520.45 1755.99 1519.03 Q1754.11 1517.6 1750.59 1517.6 Q1748.67 1517.6 1746.47 1518.01 Q1744.27 1518.43 1741.64 1519.31 L1741.64 1515.14 Q1744.3 1514.4 1746.61 1514.03 Q1748.95 1513.66 1751.01 1513.66 Q1756.33 1513.66 1759.44 1516.09 Q1762.54 1518.5 1762.54 1522.62 Q1762.54 1525.49 1760.89 1527.48 Q1759.25 1529.45 1756.22 1530.21 Z" fill="#000000" fill-rule="nonzero" fill-opacity="1" /><path clip-path="url(#clip970)" d="M1782.21 1517.37 Q1778.6 1517.37 1776.77 1520.93 Q1774.97 1524.47 1774.97 1531.6 Q1774.97 1538.71 1776.77 1542.27 Q1778.6 1545.82 1782.21 1545.82 Q1785.85 1545.82 1787.65 1542.27 Q1789.48 1538.71 1789.48 1531.6 Q1789.48 1524.47 1787.65 1520.93 Q1785.85 1517.37 1782.21 1517.37 M1782.21 1513.66 Q1788.02 1513.66 1791.08 1518.27 Q1794.16 1522.85 1794.16 1531.6 Q1794.16 1540.33 1791.08 1544.94 Q1788.02 1549.52 1782.21 1549.52 Q1776.4 1549.52 1773.33 1544.94 Q1770.27 1540.33 1770.27 1531.6 Q1770.27 1522.85 1773.33 1518.27 Q1776.4 1513.66 1782.21 1513.66 Z" fill="#000000" fill-rule="nonzero" fill-opacity="1" /><path clip-path="url(#clip970)" d="M2279.61 1518.36 L2267.81 1536.81 L2279.61 1536.81 L2279.61 1518.36 M2278.38 1514.29 L2284.26 1514.29 L2284.26 1536.81 L2289.2 1536.81 L2289.2 1540.7 L2284.26 1540.7 L2284.26 1548.85 L2279.61 1548.85 L2279.61 1540.7 L2264.01 1540.7 L2264.01 1536.19 L2278.38 1514.29 Z" fill="#000000" fill-rule="nonzero" fill-opacity="1" /><path clip-path="url(#clip970)" d="M2306.93 1517.37 Q2303.32 1517.37 2301.49 1520.93 Q2299.68 1524.47 2299.68 1531.6 Q2299.68 1538.71 2301.49 1542.27 Q2303.32 1545.82 2306.93 1545.82 Q2310.56 1545.82 2312.37 1542.27 Q2314.19 1538.71 2314.19 1531.6 Q2314.19 1524.47 2312.37 1520.93 Q2310.56 1517.37 2306.93 1517.37 M2306.93 1513.66 Q2312.74 1513.66 2315.79 1518.27 Q2318.87 1522.85 2318.87 1531.6 Q2318.87 1540.33 2315.79 1544.94 Q2312.74 1549.52 2306.93 1549.52 Q2301.12 1549.52 2298.04 1544.94 Q2294.98 1540.33 2294.98 1531.6 Q2294.98 1522.85 2298.04 1518.27 Q2301.12 1513.66 2306.93 1513.66 Z" fill="#000000" fill-rule="nonzero" fill-opacity="1" /><polyline clip-path="url(#clip972)" style="stroke:#000000; stroke-linecap:round; stroke-linejoin:round; stroke-width:2; stroke-opacity:0.1; fill:none" points="186.274,1444.92 2352.76,1444.92 "/>
<polyline clip-path="url(#clip972)" style="stroke:#000000; stroke-linecap:round; stroke-linejoin:round; stroke-width:2; stroke-opacity:0.1; fill:none" points="186.274,1105.75 2352.76,1105.75 "/>
<polyline clip-path="url(#clip972)" style="stroke:#000000; stroke-linecap:round; stroke-linejoin:round; stroke-width:2; stroke-opacity:0.1; fill:none" points="186.274,766.577 2352.76,766.577 "/>
<polyline clip-path="url(#clip972)" style="stroke:#000000; stroke-linecap:round; stroke-linejoin:round; stroke-width:2; stroke-opacity:0.1; fill:none" points="186.274,427.405 2352.76,427.405 "/>
<polyline clip-path="url(#clip972)" style="stroke:#000000; stroke-linecap:round; stroke-linejoin:round; stroke-width:2; stroke-opacity:0.1; fill:none" points="186.274,88.2336 2352.76,88.2336 "/>
<polyline clip-path="url(#clip970)" style="stroke:#000000; stroke-linecap:round; stroke-linejoin:round; stroke-width:4; stroke-opacity:1; fill:none" points="186.274,1486.45 186.274,47.2441 "/>
<polyline clip-path="url(#clip970)" style="stroke:#000000; stroke-linecap:round; stroke-linejoin:round; stroke-width:4; stroke-opacity:1; fill:none" points="186.274,1444.92 205.172,1444.92 "/>
<polyline clip-path="url(#clip970)" style="stroke:#000000; stroke-linecap:round; stroke-linejoin:round; stroke-width:4; stroke-opacity:1; fill:none" points="186.274,1105.75 205.172,1105.75 "/>
<polyline clip-path="url(#clip970)" style="stroke:#000000; stroke-linecap:round; stroke-linejoin:round; stroke-width:4; stroke-opacity:1; fill:none" points="186.274,766.577 205.172,766.577 "/>
<polyline clip-path="url(#clip970)" style="stroke:#000000; stroke-linecap:round; stroke-linejoin:round; stroke-width:4; stroke-opacity:1; fill:none" points="186.274,427.405 205.172,427.405 "/>
<polyline clip-path="url(#clip970)" style="stroke:#000000; stroke-linecap:round; stroke-linejoin:round; stroke-width:4; stroke-opacity:1; fill:none" points="186.274,88.2336 205.172,88.2336 "/>
<path clip-path="url(#clip970)" d="M62.9365 1430.72 Q59.3254 1430.72 57.4967 1434.28 Q55.6912 1437.83 55.6912 1444.95 Q55.6912 1452.06 57.4967 1455.63 Q59.3254 1459.17 62.9365 1459.17 Q66.5707 1459.17 68.3763 1455.63 Q70.205 1452.06 70.205 1444.95 Q70.205 1437.83 68.3763 1434.28 Q66.5707 1430.72 62.9365 1430.72 M62.9365 1427.02 Q68.7467 1427.02 71.8022 1431.62 Q74.8809 1436.21 74.8809 1444.95 Q74.8809 1453.68 71.8022 1458.29 Q68.7467 1462.87 62.9365 1462.87 Q57.1264 1462.87 54.0477 1458.29 Q50.9921 1453.68 50.9921 1444.95 Q50.9921 1436.21 54.0477 1431.62 Q57.1264 1427.02 62.9365 1427.02 Z" fill="#000000" fill-rule="nonzero" fill-opacity="1" /><path clip-path="url(#clip970)" d="M83.0984 1456.32 L87.9827 1456.32 L87.9827 1462.2 L83.0984 1462.2 L83.0984 1456.32 Z" fill="#000000" fill-rule="nonzero" fill-opacity="1" /><path clip-path="url(#clip970)" d="M108.168 1430.72 Q104.557 1430.72 102.728 1434.28 Q100.922 1437.83 100.922 1444.95 Q100.922 1452.06 102.728 1455.63 Q104.557 1459.17 108.168 1459.17 Q111.802 1459.17 113.608 1455.63 Q115.436 1452.06 115.436 1444.95 Q115.436 1437.83 113.608 1434.28 Q111.802 1430.72 108.168 1430.72 M108.168 1427.02 Q113.978 1427.02 117.033 1431.62 Q120.112 1436.21 120.112 1444.95 Q120.112 1453.68 117.033 1458.29 Q113.978 1462.87 108.168 1462.87 Q102.358 1462.87 99.2789 1458.29 Q96.2234 1453.68 96.2234 1444.95 Q96.2234 1436.21 99.2789 1431.62 Q102.358 1427.02 108.168 1427.02 Z" fill="#000000" fill-rule="nonzero" fill-opacity="1" /><path clip-path="url(#clip970)" d="M138.33 1430.72 Q134.719 1430.72 132.89 1434.28 Q131.084 1437.83 131.084 1444.95 Q131.084 1452.06 132.89 1455.63 Q134.719 1459.17 138.33 1459.17 Q141.964 1459.17 143.769 1455.63 Q145.598 1452.06 145.598 1444.95 Q145.598 1437.83 143.769 1434.28 Q141.964 1430.72 138.33 1430.72 M138.33 1427.02 Q144.14 1427.02 147.195 1431.62 Q150.274 1436.21 150.274 1444.95 Q150.274 1453.68 147.195 1458.29 Q144.14 1462.87 138.33 1462.87 Q132.519 1462.87 129.441 1458.29 Q126.385 1453.68 126.385 1444.95 Q126.385 1436.21 129.441 1431.62 Q132.519 1427.02 138.33 1427.02 Z" fill="#000000" fill-rule="nonzero" fill-opacity="1" /><path clip-path="url(#clip970)" d="M63.9319 1091.55 Q60.3208 1091.55 58.4921 1095.11 Q56.6865 1098.65 56.6865 1105.78 Q56.6865 1112.89 58.4921 1116.45 Q60.3208 1120 63.9319 1120 Q67.5661 1120 69.3717 1116.45 Q71.2004 1112.89 71.2004 1105.78 Q71.2004 1098.65 69.3717 1095.11 Q67.5661 1091.55 63.9319 1091.55 M63.9319 1087.84 Q69.742 1087.84 72.7976 1092.45 Q75.8763 1097.03 75.8763 1105.78 Q75.8763 1114.51 72.7976 1119.12 Q69.742 1123.7 63.9319 1123.7 Q58.1217 1123.7 55.043 1119.12 Q51.9875 1114.51 51.9875 1105.78 Q51.9875 1097.03 55.043 1092.45 Q58.1217 1087.84 63.9319 1087.84 Z" fill="#000000" fill-rule="nonzero" fill-opacity="1" /><path clip-path="url(#clip970)" d="M84.0938 1117.15 L88.978 1117.15 L88.978 1123.03 L84.0938 1123.03 L84.0938 1117.15 Z" fill="#000000" fill-rule="nonzero" fill-opacity="1" /><path clip-path="url(#clip970)" d="M103.191 1119.09 L119.51 1119.09 L119.51 1123.03 L97.566 1123.03 L97.566 1119.09 Q100.228 1116.34 104.811 1111.71 Q109.418 1107.06 110.598 1105.71 Q112.844 1103.19 113.723 1101.45 Q114.626 1099.7 114.626 1098.01 Q114.626 1095.25 112.682 1093.51 Q110.76 1091.78 107.658 1091.78 Q105.459 1091.78 103.006 1092.54 Q100.575 1093.31 97.7974 1094.86 L97.7974 1090.14 Q100.621 1089 103.075 1088.42 Q105.529 1087.84 107.566 1087.84 Q112.936 1087.84 116.131 1090.53 Q119.325 1093.21 119.325 1097.7 Q119.325 1099.83 118.515 1101.76 Q117.728 1103.65 115.621 1106.25 Q115.043 1106.92 111.941 1110.14 Q108.839 1113.33 103.191 1119.09 Z" fill="#000000" fill-rule="nonzero" fill-opacity="1" /><path clip-path="url(#clip970)" d="M129.371 1088.47 L147.728 1088.47 L147.728 1092.4 L133.654 1092.4 L133.654 1100.88 Q134.672 1100.53 135.691 1100.37 Q136.709 1100.18 137.728 1100.18 Q143.515 1100.18 146.894 1103.35 Q150.274 1106.52 150.274 1111.94 Q150.274 1117.52 146.802 1120.62 Q143.33 1123.7 137.01 1123.7 Q134.834 1123.7 132.566 1123.33 Q130.32 1122.96 127.913 1122.22 L127.913 1117.52 Q129.996 1118.65 132.219 1119.21 Q134.441 1119.76 136.918 1119.76 Q140.922 1119.76 143.26 1117.66 Q145.598 1115.55 145.598 1111.94 Q145.598 1108.33 143.26 1106.22 Q140.922 1104.12 136.918 1104.12 Q135.043 1104.12 133.168 1104.53 Q131.316 1104.95 129.371 1105.83 L129.371 1088.47 Z" fill="#000000" fill-rule="nonzero" fill-opacity="1" /><path clip-path="url(#clip970)" d="M62.9365 752.376 Q59.3254 752.376 57.4967 755.94 Q55.6912 759.482 55.6912 766.612 Q55.6912 773.718 57.4967 777.283 Q59.3254 780.825 62.9365 780.825 Q66.5707 780.825 68.3763 777.283 Q70.205 773.718 70.205 766.612 Q70.205 759.482 68.3763 755.94 Q66.5707 752.376 62.9365 752.376 M62.9365 748.672 Q68.7467 748.672 71.8022 753.278 Q74.8809 757.862 74.8809 766.612 Q74.8809 775.338 71.8022 779.945 Q68.7467 784.528 62.9365 784.528 Q57.1264 784.528 54.0477 779.945 Q50.9921 775.338 50.9921 766.612 Q50.9921 757.862 54.0477 753.278 Q57.1264 748.672 62.9365 748.672 Z" fill="#000000" fill-rule="nonzero" fill-opacity="1" /><path clip-path="url(#clip970)" d="M83.0984 777.977 L87.9827 777.977 L87.9827 783.857 L83.0984 783.857 L83.0984 777.977 Z" fill="#000000" fill-rule="nonzero" fill-opacity="1" /><path clip-path="url(#clip970)" d="M98.2141 749.297 L116.57 749.297 L116.57 753.232 L102.496 753.232 L102.496 761.704 Q103.515 761.357 104.534 761.195 Q105.552 761.01 106.571 761.01 Q112.358 761.01 115.737 764.181 Q119.117 767.352 119.117 772.769 Q119.117 778.348 115.645 781.45 Q112.172 784.528 105.853 784.528 Q103.677 784.528 101.409 784.158 Q99.1632 783.787 96.7558 783.047 L96.7558 778.348 Q98.8391 779.482 101.061 780.037 Q103.284 780.593 105.76 780.593 Q109.765 780.593 112.103 778.487 Q114.441 776.38 114.441 772.769 Q114.441 769.158 112.103 767.051 Q109.765 764.945 105.76 764.945 Q103.885 764.945 102.01 765.362 Q100.159 765.778 98.2141 766.658 L98.2141 749.297 Z" fill="#000000" fill-rule="nonzero" fill-opacity="1" /><path clip-path="url(#clip970)" d="M138.33 752.376 Q134.719 752.376 132.89 755.94 Q131.084 759.482 131.084 766.612 Q131.084 773.718 132.89 777.283 Q134.719 780.825 138.33 780.825 Q141.964 780.825 143.769 777.283 Q145.598 773.718 145.598 766.612 Q145.598 759.482 143.769 755.94 Q141.964 752.376 138.33 752.376 M138.33 748.672 Q144.14 748.672 147.195 753.278 Q150.274 757.862 150.274 766.612 Q150.274 775.338 147.195 779.945 Q144.14 784.528 138.33 784.528 Q132.519 784.528 129.441 779.945 Q126.385 775.338 126.385 766.612 Q126.385 757.862 129.441 753.278 Q132.519 748.672 138.33 748.672 Z" fill="#000000" fill-rule="nonzero" fill-opacity="1" /><path clip-path="url(#clip970)" d="M63.9319 413.204 Q60.3208 413.204 58.4921 416.769 Q56.6865 420.31 56.6865 427.44 Q56.6865 434.546 58.4921 438.111 Q60.3208 441.653 63.9319 441.653 Q67.5661 441.653 69.3717 438.111 Q71.2004 434.546 71.2004 427.44 Q71.2004 420.31 69.3717 416.769 Q67.5661 413.204 63.9319 413.204 M63.9319 409.5 Q69.742 409.5 72.7976 414.107 Q75.8763 418.69 75.8763 427.44 Q75.8763 436.167 72.7976 440.773 Q69.742 445.357 63.9319 445.357 Q58.1217 445.357 55.043 440.773 Q51.9875 436.167 51.9875 427.44 Q51.9875 418.69 55.043 414.107 Q58.1217 409.5 63.9319 409.5 Z" fill="#000000" fill-rule="nonzero" fill-opacity="1" /><path clip-path="url(#clip970)" d="M84.0938 438.806 L88.978 438.806 L88.978 444.685 L84.0938 444.685 L84.0938 438.806 Z" fill="#000000" fill-rule="nonzero" fill-opacity="1" /><path clip-path="url(#clip970)" d="M97.9826 410.125 L120.205 410.125 L120.205 412.116 L107.658 444.685 L102.774 444.685 L114.58 414.06 L97.9826 414.06 L97.9826 410.125 Z" fill="#000000" fill-rule="nonzero" fill-opacity="1" /><path clip-path="url(#clip970)" d="M129.371 410.125 L147.728 410.125 L147.728 414.06 L133.654 414.06 L133.654 422.533 Q134.672 422.185 135.691 422.023 Q136.709 421.838 137.728 421.838 Q143.515 421.838 146.894 425.009 Q150.274 428.181 150.274 433.597 Q150.274 439.176 146.802 442.278 Q143.33 445.357 137.01 445.357 Q134.834 445.357 132.566 444.986 Q130.32 444.616 127.913 443.875 L127.913 439.176 Q129.996 440.31 132.219 440.866 Q134.441 441.421 136.918 441.421 Q140.922 441.421 143.26 439.315 Q145.598 437.208 145.598 433.597 Q145.598 429.986 143.26 427.88 Q140.922 425.773 136.918 425.773 Q135.043 425.773 133.168 426.19 Q131.316 426.607 129.371 427.486 L129.371 410.125 Z" fill="#000000" fill-rule="nonzero" fill-opacity="1" /><path clip-path="url(#clip970)" d="M53.7467 101.578 L61.3856 101.578 L61.3856 75.2128 L53.0754 76.8795 L53.0754 72.6202 L61.3393 70.9536 L66.0152 70.9536 L66.0152 101.578 L73.654 101.578 L73.654 105.514 L53.7467 105.514 L53.7467 101.578 Z" fill="#000000" fill-rule="nonzero" fill-opacity="1" /><path clip-path="url(#clip970)" d="M83.0984 99.634 L87.9827 99.634 L87.9827 105.514 L83.0984 105.514 L83.0984 99.634 Z" fill="#000000" fill-rule="nonzero" fill-opacity="1" /><path clip-path="url(#clip970)" d="M108.168 74.0322 Q104.557 74.0322 102.728 77.597 Q100.922 81.1387 100.922 88.2683 Q100.922 95.3747 102.728 98.9395 Q104.557 102.481 108.168 102.481 Q111.802 102.481 113.608 98.9395 Q115.436 95.3747 115.436 88.2683 Q115.436 81.1387 113.608 77.597 Q111.802 74.0322 108.168 74.0322 M108.168 70.3286 Q113.978 70.3286 117.033 74.935 Q120.112 79.5183 120.112 88.2683 Q120.112 96.9951 117.033 101.602 Q113.978 106.185 108.168 106.185 Q102.358 106.185 99.2789 101.602 Q96.2234 96.9951 96.2234 88.2683 Q96.2234 79.5183 99.2789 74.935 Q102.358 70.3286 108.168 70.3286 Z" fill="#000000" fill-rule="nonzero" fill-opacity="1" /><path clip-path="url(#clip970)" d="M138.33 74.0322 Q134.719 74.0322 132.89 77.597 Q131.084 81.1387 131.084 88.2683 Q131.084 95.3747 132.89 98.9395 Q134.719 102.481 138.33 102.481 Q141.964 102.481 143.769 98.9395 Q145.598 95.3747 145.598 88.2683 Q145.598 81.1387 143.769 77.597 Q141.964 74.0322 138.33 74.0322 M138.33 70.3286 Q144.14 70.3286 147.195 74.935 Q150.274 79.5183 150.274 88.2683 Q150.274 96.9951 147.195 101.602 Q144.14 106.185 138.33 106.185 Q132.519 106.185 129.441 101.602 Q126.385 96.9951 126.385 88.2683 Q126.385 79.5183 129.441 74.935 Q132.519 70.3286 138.33 70.3286 Z" fill="#000000" fill-rule="nonzero" fill-opacity="1" /><polyline clip-path="url(#clip972)" style="stroke:#009af9; stroke-linecap:round; stroke-linejoin:round; stroke-width:4; stroke-opacity:1; fill:none" points="247.59,1387.21 299.996,1371.95 352.402,1352.75 404.809,1329.81 457.215,1304.17 509.622,1277.09 562.028,1249.19 614.435,1219.87 666.841,1187.42 719.247,1149.82 771.654,1106.06 824.06,1057.47 876.467,1008.6 928.873,966.961 981.28,941.448 1033.69,939.372 1086.09,963.413 1138.5,1010.07 1190.91,1070.42 1243.31,1132.64 1295.72,1185.22 1348.12,1220.34 1400.53,1236.36 1452.94,1238.06 1505.34,1234.62 1557.75,1236.18 1610.16,1250.29 1662.56,1279.1 1714.97,1318.46 1767.38,1360.02 1819.78,1395.48 1872.19,1420.27 1924.6,1434.41 1977,1440.79 2029.41,1442.88 2081.81,1443.29 2134.22,1443.42 2186.63,1443.71 2239.03,1444.16 2291.44,1444.62 "/>
<polyline clip-path="url(#clip972)" style="stroke:#009af9; stroke-linecap:round; stroke-linejoin:round; stroke-width:4; stroke-opacity:1; fill:none" stroke-dasharray="16, 10" points="247.59,1334.56 299.996,1314.24 352.402,1291.56 404.809,1267.86 457.215,1244.51 509.622,1222.15 562.028,1200.37 614.435,1177.81 666.841,1152.85 719.247,1124.36 771.654,1092.54 824.06,1059.24 876.467,1027.92 928.873,1003.28 981.28,990.494 1033.69,993.866 1086.09,1015.14 1138.5,1052.34 1190.91,1099.94 1243.31,1150.24 1295.72,1195.26 1348.12,1228.87 1400.53,1248.63 1452.94,1256.6 1505.34,1258.44 1557.75,1261.4 1610.16,1271.88 1662.56,1293.25 1714.97,1324.31 1767.38,1359.71 1819.78,1392.48 1872.19,1417.44 1924.6,1433.01 1977,1440.78 2029.41,1443.63 2081.81,1444.19 2134.22,1444.09 2186.63,1444.06 2239.03,1444.28 2291.44,1444.63 "/>
<polyline clip-path="url(#clip972)" style="stroke:#e26f46; stroke-linecap:round; stroke-linejoin:round; stroke-width:4; stroke-opacity:1; fill:none" points="247.59,125.987 299.996,138.256 352.402,153.751 404.809,173.553 457.215,198.272 509.622,227.588 562.028,260.435 614.435,295.85 666.841,333.966 719.247,376.295 771.654,424.725 824.06,479.453 876.467,536.867 928.873,588.844 981.28,624.469 1033.69,633.887 1086.09,612.468 1138.5,563.134 1190.91,495.884 1243.31,424.95 1295.72,364.617 1348.12,324.915 1400.53,308.495 1452.94,309.9 1505.34,317.732 1557.75,319.107 1610.16,304.757 1662.56,272.631 1714.97,228.207 1767.38,181.366 1819.78,141.566 1872.19,114.026 1924.6,98.7498 1977,92.2569 2029.41,90.3205 2081.81,89.8834 2134.22,89.5243 2186.63,88.9638 2239.03,88.382 2291.44,87.9763 "/>
<polyline clip-path="url(#clip972)" style="stroke:#e26f46; stroke-linecap:round; stroke-linejoin:round; stroke-width:4; stroke-opacity:1; fill:none" stroke-dasharray="16, 10" points="247.59,170.717 299.996,188.068 352.402,208.82 404.809,233.302 457.215,260.916 509.622,290.302 562.028,320.033 614.435,349.481 666.841,379.313 719.247,411.183 771.654,446.619 824.06,485.505 876.467,524.927 928.873,559.101 981.28,580.762 1033.69,583.563 1086.09,564.446 1138.5,524.973 1190.91,471.326 1243.31,412.98 1295.72,360.271 1348.12,321.39 1400.53,299.859 1452.94,293.423 1505.34,294.852 1557.75,294.533 1610.16,284.135 1662.56,259.933 1714.97,224.154 1767.38,183.587 1819.78,146.259 1872.19,118.002 1924.6,100.619 1977,92.2993 2029.41,89.5382 2081.81,89.1211 2134.22,89.1261 2186.63,88.8785 2239.03,88.4158 2291.44,87.9787 "/>
<polyline clip-path="url(#clip972)" style="stroke:#3da44d; stroke-linecap:round; stroke-linejoin:round; stroke-width:4; stroke-opacity:1; fill:none" points="247.59,1312.65 299.996,1292.85 352.402,1271.33 404.809,1248.35 457.215,1224.63 509.622,1201 562.028,1177.96 614.435,1155.51 666.841,1133.16 719.247,1110.45 771.654,1087.55 824.06,1065.78 876.467,1047.78 928.873,1037.2 981.28,1037.8 1033.69,1052.18 1086.09,1080.51 1138.5,1119.88 1190.91,1164.77 1243.31,1208.42 1295.72,1244.72 1348.12,1270.13 1400.53,1284.68 1452.94,1291.83 1505.34,1296.94 1557.75,1305.38 1610.16,1320.7 1662.56,1343.28 1714.97,1370.22 1767.38,1396.72 1819.78,1418.41 1872.19,1433.17 1924.6,1441.38 1977,1444.87 2029.41,1445.72 2081.81,1445.41 2134.22,1444.83 2186.63,1444.34 2239.03,1444.1 2291.44,1444.09 "/>
<polyline clip-path="url(#clip972)" style="stroke:#3da44d; stroke-linecap:round; stroke-linejoin:round; stroke-width:4; stroke-opacity:1; fill:none" stroke-dasharray="16, 10" points="247.59,1268.28 299.996,1250.49 352.402,1232.25 404.809,1214.13 457.215,1196.76 509.622,1180.49 562.028,1165.26 614.435,1150.59 666.841,1135.93 719.247,1120.9 771.654,1105.62 824.06,1090.93 876.467,1078.52 928.873,1070.94 981.28,1071.21 1033.69,1081.94 1086.09,1104.13 1138.5,1136.36 1190.91,1174.84 1243.31,1214.39 1295.72,1249.68 1348.12,1276.68 1400.53,1293.9 1452.94,1302.88 1505.34,1307.51 1557.75,1312.69 1610.16,1322.65 1662.56,1339.57 1714.97,1362.54 1767.38,1387.88 1819.78,1410.89 1872.19,1428.17 1924.6,1438.8 1977,1443.97 2029.41,1445.68 2081.81,1445.67 2134.22,1445.05 2186.63,1444.41 2239.03,1444.03 2291.44,1443.95 "/>
<path clip-path="url(#clip970)" d="M258.49 458.098 L529.281 458.098 L529.281 95.2176 L258.49 95.2176  Z" fill="#ffffff" fill-rule="evenodd" fill-opacity="1"/>
<polyline clip-path="url(#clip970)" style="stroke:#000000; stroke-linecap:round; stroke-linejoin:round; stroke-width:4; stroke-opacity:1; fill:none" points="258.49,458.098 529.281,458.098 529.281,95.2176 258.49,95.2176 258.49,458.098 "/>
<polyline clip-path="url(#clip970)" style="stroke:#009af9; stroke-linecap:round; stroke-linejoin:round; stroke-width:4; stroke-opacity:1; fill:none" points="282.562,147.058 426.994,147.058 "/>
<path clip-path="url(#clip970)" d="M464.909 166.745 Q463.103 171.375 461.39 172.787 Q459.677 174.199 456.807 174.199 L453.404 174.199 L453.404 170.634 L455.904 170.634 Q457.663 170.634 458.636 169.8 Q459.608 168.967 460.788 165.865 L461.552 163.921 L451.066 138.412 L455.58 138.412 L463.682 158.689 L471.784 138.412 L476.298 138.412 L464.909 166.745 Z" fill="#000000" fill-rule="nonzero" fill-opacity="1" /><path clip-path="url(#clip970)" d="M483.589 160.402 L491.228 160.402 L491.228 134.037 L482.918 135.703 L482.918 131.444 L491.182 129.778 L495.858 129.778 L495.858 160.402 L503.497 160.402 L503.497 164.338 L483.589 164.338 L483.589 160.402 Z" fill="#000000" fill-rule="nonzero" fill-opacity="1" /><polyline clip-path="url(#clip970)" style="stroke:#009af9; stroke-linecap:round; stroke-linejoin:round; stroke-width:4; stroke-opacity:1; fill:none" stroke-dasharray="16, 10" points="282.562,198.898 426.994,198.898 "/>
<path clip-path="url(#clip970)" d="M464.909 218.585 Q463.103 223.215 461.39 224.627 Q459.677 226.039 456.807 226.039 L453.404 226.039 L453.404 222.474 L455.904 222.474 Q457.663 222.474 458.636 221.64 Q459.608 220.807 460.788 217.705 L461.552 215.761 L451.066 190.252 L455.58 190.252 L463.682 210.529 L471.784 190.252 L476.298 190.252 L464.909 218.585 Z" fill="#000000" fill-rule="nonzero" fill-opacity="1" /><path clip-path="url(#clip970)" d="M486.807 212.242 L503.126 212.242 L503.126 216.178 L481.182 216.178 L481.182 212.242 Q483.844 209.488 488.427 204.858 Q493.034 200.205 494.214 198.863 Q496.46 196.34 497.339 194.604 Q498.242 192.844 498.242 191.155 Q498.242 188.4 496.297 186.664 Q494.376 184.928 491.274 184.928 Q489.075 184.928 486.622 185.692 Q484.191 186.455 481.413 188.006 L481.413 183.284 Q484.237 182.15 486.691 181.571 Q489.145 180.993 491.182 180.993 Q496.552 180.993 499.747 183.678 Q502.941 186.363 502.941 190.854 Q502.941 192.983 502.131 194.905 Q501.344 196.803 499.237 199.395 Q498.659 200.067 495.557 203.284 Q492.455 206.479 486.807 212.242 Z" fill="#000000" fill-rule="nonzero" fill-opacity="1" /><polyline clip-path="url(#clip970)" style="stroke:#e26f46; stroke-linecap:round; stroke-linejoin:round; stroke-width:4; stroke-opacity:1; fill:none" points="282.562,250.738 426.994,250.738 "/>
<path clip-path="url(#clip970)" d="M464.909 270.425 Q463.103 275.055 461.39 276.467 Q459.677 277.879 456.807 277.879 L453.404 277.879 L453.404 274.314 L455.904 274.314 Q457.663 274.314 458.636 273.48 Q459.608 272.647 460.788 269.545 L461.552 267.601 L451.066 242.092 L455.58 242.092 L463.682 262.369 L471.784 242.092 L476.298 242.092 L464.909 270.425 Z" fill="#000000" fill-rule="nonzero" fill-opacity="1" /><path clip-path="url(#clip970)" d="M496.946 249.383 Q500.302 250.101 502.177 252.369 Q504.075 254.638 504.075 257.971 Q504.075 263.087 500.557 265.888 Q497.038 268.689 490.557 268.689 Q488.381 268.689 486.066 268.249 Q483.774 267.832 481.321 266.976 L481.321 262.462 Q483.265 263.596 485.58 264.175 Q487.895 264.754 490.418 264.754 Q494.816 264.754 497.108 263.018 Q499.422 261.281 499.422 257.971 Q499.422 254.916 497.27 253.203 Q495.14 251.467 491.321 251.467 L487.293 251.467 L487.293 247.624 L491.506 247.624 Q494.955 247.624 496.784 246.258 Q498.612 244.87 498.612 242.277 Q498.612 239.615 496.714 238.203 Q494.839 236.768 491.321 236.768 Q489.399 236.768 487.2 237.184 Q485.001 237.601 482.362 238.481 L482.362 234.314 Q485.024 233.573 487.339 233.203 Q489.677 232.833 491.737 232.833 Q497.061 232.833 500.163 235.263 Q503.265 237.67 503.265 241.791 Q503.265 244.661 501.622 246.652 Q499.978 248.62 496.946 249.383 Z" fill="#000000" fill-rule="nonzero" fill-opacity="1" /><polyline clip-path="url(#clip970)" style="stroke:#e26f46; stroke-linecap:round; stroke-linejoin:round; stroke-width:4; stroke-opacity:1; fill:none" stroke-dasharray="16, 10" points="282.562,302.578 426.994,302.578 "/>
<path clip-path="url(#clip970)" d="M464.909 322.265 Q463.103 326.895 461.39 328.307 Q459.677 329.719 456.807 329.719 L453.404 329.719 L453.404 326.154 L455.904 326.154 Q457.663 326.154 458.636 325.32 Q459.608 324.487 460.788 321.385 L461.552 319.441 L451.066 293.932 L455.58 293.932 L463.682 314.209 L471.784 293.932 L476.298 293.932 L464.909 322.265 Z" fill="#000000" fill-rule="nonzero" fill-opacity="1" /><path clip-path="url(#clip970)" d="M495.626 289.372 L483.821 307.821 L495.626 307.821 L495.626 289.372 M494.399 285.298 L500.279 285.298 L500.279 307.821 L505.209 307.821 L505.209 311.709 L500.279 311.709 L500.279 319.858 L495.626 319.858 L495.626 311.709 L480.024 311.709 L480.024 307.196 L494.399 285.298 Z" fill="#000000" fill-rule="nonzero" fill-opacity="1" /><polyline clip-path="url(#clip970)" style="stroke:#3da44d; stroke-linecap:round; stroke-linejoin:round; stroke-width:4; stroke-opacity:1; fill:none" points="282.562,354.418 426.994,354.418 "/>
<path clip-path="url(#clip970)" d="M464.909 374.105 Q463.103 378.735 461.39 380.147 Q459.677 381.559 456.807 381.559 L453.404 381.559 L453.404 377.994 L455.904 377.994 Q457.663 377.994 458.636 377.16 Q459.608 376.327 460.788 373.225 L461.552 371.281 L451.066 345.772 L455.58 345.772 L463.682 366.049 L471.784 345.772 L476.298 345.772 L464.909 374.105 Z" fill="#000000" fill-rule="nonzero" fill-opacity="1" /><path clip-path="url(#clip970)" d="M482.825 337.138 L501.182 337.138 L501.182 341.073 L487.108 341.073 L487.108 349.545 Q488.126 349.198 489.145 349.036 Q490.163 348.85 491.182 348.85 Q496.969 348.85 500.348 352.022 Q503.728 355.193 503.728 360.61 Q503.728 366.188 500.256 369.29 Q496.784 372.369 490.464 372.369 Q488.288 372.369 486.02 371.998 Q483.774 371.628 481.367 370.887 L481.367 366.188 Q483.45 367.323 485.673 367.878 Q487.895 368.434 490.372 368.434 Q494.376 368.434 496.714 366.327 Q499.052 364.221 499.052 360.61 Q499.052 356.999 496.714 354.892 Q494.376 352.786 490.372 352.786 Q488.497 352.786 486.622 353.202 Q484.77 353.619 482.825 354.499 L482.825 337.138 Z" fill="#000000" fill-rule="nonzero" fill-opacity="1" /><polyline clip-path="url(#clip970)" style="stroke:#3da44d; stroke-linecap:round; stroke-linejoin:round; stroke-width:4; stroke-opacity:1; fill:none" stroke-dasharray="16, 10" points="282.562,406.258 426.994,406.258 "/>
<path clip-path="url(#clip970)" d="M464.909 425.945 Q463.103 430.575 461.39 431.987 Q459.677 433.399 456.807 433.399 L453.404 433.399 L453.404 429.834 L455.904 429.834 Q457.663 429.834 458.636 429 Q459.608 428.167 460.788 425.065 L461.552 423.121 L451.066 397.612 L455.58 397.612 L463.682 417.889 L471.784 397.612 L476.298 397.612 L464.909 425.945 Z" fill="#000000" fill-rule="nonzero" fill-opacity="1" /><path clip-path="url(#clip970)" d="M493.358 404.394 Q490.21 404.394 488.358 406.547 Q486.529 408.7 486.529 412.45 Q486.529 416.176 488.358 418.352 Q490.21 420.505 493.358 420.505 Q496.506 420.505 498.334 418.352 Q500.186 416.176 500.186 412.45 Q500.186 408.7 498.334 406.547 Q496.506 404.394 493.358 404.394 M502.64 389.741 L502.64 394.001 Q500.881 393.167 499.075 392.728 Q497.293 392.288 495.534 392.288 Q490.904 392.288 488.45 395.413 Q486.02 398.538 485.673 404.857 Q487.038 402.843 489.098 401.778 Q491.159 400.69 493.635 400.69 Q498.844 400.69 501.853 403.862 Q504.885 407.01 504.885 412.45 Q504.885 417.774 501.737 420.991 Q498.589 424.209 493.358 424.209 Q487.362 424.209 484.191 419.626 Q481.02 415.019 481.02 406.292 Q481.02 398.098 484.909 393.237 Q488.798 388.353 495.348 388.353 Q497.108 388.353 498.89 388.7 Q500.696 389.047 502.64 389.741 Z" fill="#000000" fill-rule="nonzero" fill-opacity="1" /></svg>
